<svg xmlns="http://www.w3.org/2000/svg" xml:space="preserve" width="559" height="447" viewBox="0 0 147.9 118.27"><path d="M99.91 197.12c.07-.11-.43-.23-1.1-.26-8.24-.41-9.72-.62-9.95-1.36-.09-.27-.45-.62-.82-.78-.69-.32-.86-.1-.34.42.44.44.14.64-.67.44-.37-.1-.75-.4-.84-.67q-.15-.53-.88-.46c-.4.03-.87-.03-1.05-.15s-.53-.05-.77.15c-.38.3-.41.29-.26-.1.1-.26.07-.44-.06-.4-.41.1-2.13-2.04-2.13-2.67 0-.36-.12-.54-.28-.44-.15.1-.2.4-.1.7.14.46.1.48-.38.18-.3-.19-.49-.4-.42-.46.07-.07-.14-.4-.45-.74-.6-.63-.35-.87.3-.28.68.64-.14-.6-1.12-1.67-1.2-1.33.08-.7 1.54.75a3.7 3.7 0 0 0 2.2 1.22c1.03.16 1.13.13.83-.22-.18-.23-.44-.34-.57-.26-.44.27-1.29-.19-1.29-.7 0-.61 0-.61.96-.12.44.23.85.3.99.15.3-.3 1.5.23 1.46.63q-.11.96.4.95c.33 0 .33-.12-.01-.8-.22-.43-.5-.8-.6-.8-.12 0-.67-.3-1.24-.69s-.86-.5-.66-.26.24.43.09.43-.4-.17-.58-.38-.5-.31-.74-.22q-.42.16-.23-.15.17-.3-.3-.3c-.53 0-1.65-.71-1.65-1.05 0-.12.14-.22.33-.21 1.25.05 1.34-.11.33-.6a6 6 0 0 0-1.37-.52c-.4-.01-1.53-1.83-1.3-2.07.1-.1.27-.06.37.08.27.39 3.57 1.98 4.1 1.98.24 0 .45-.13.45-.3s-.24-.23-.52-.16-.65-.01-.8-.2a2 2 0 0 0-.97-.52c-.37-.1-.97-.5-1.32-.93q-.64-.75-1.7-.94c-.78-.13-1.14-.34-1.3-.77-.13-.33-.4-.76-.6-.97-.76-.77-2.05-2.71-2.05-3.1 0-.22.19-.62.42-.88q.43-.47.26-1.14c-.23-.93-.7-.85-.63.1a3 3 0 0 1-.3 1.44c-.33.62-.27.81.85 2.6.84 1.34 1.13 2.01.93 2.2q-.27.26-.39-.04a6 6 0 0 0-.78-1.06c-1.07-1.22-1.42-2.37-1.42-4.63 0-2.17-.01-2.2-1.78-4.72-.54-.77-1.13-1.42-1.13-1.24 0 .37.82 1.6 1.3 1.94.3.21.55.6.55.88 0 .27.17.67.38.87.29.3.32.62.14 1.41-.38 1.64.15 3.67 1.48 5.62.34.51.56 1.02.48 1.15-.22.35-.63-.03-.63-.59 0-.27-.24-.63-.53-.78s-.53-.51-.53-.79c0-.27-.2-.7-.46-.96a2 2 0 0 1-.49-1.01c-.07-1.44-.73-4.94-.95-5.08-.16-.1-.2.22-.1.82.18 1.14-.01 1.6-.46 1.13-.18-.18-.33-.99-.34-1.8 0-.8-.16-1.7-.34-1.98-.28-.45-.31-.36-.2.6.12 1.16.04 1.29-.6.89-.23-.15-.3-.47-.2-.87.1-.44-.1-1.07-.7-2.08a17 17 0 0 1-1.63-3.29c-.14-.42-.21-.45-.4-.14-.14.21-.32.3-.42.21-.23-.24.9-1.8 1.25-1.72.16.03.33-.23.39-.59q.2-1.25.62-.55c.14.23.08.66-.16 1.14-.3.59-.33.84-.08 1.14q.35.39 0 .37c-.46 0-.06 1.3.83 2.65.44.66.7.95.6.66s-.25-.74-.32-.99-.22-.46-.34-.46c-.1 0-.25-.36-.32-.8q-.13-.82.27-.8.38.01.17-.45a5 5 0 0 1-.26-1.4c-.07-1.53-.1-1.58-.75-1.58-.66 0-1.34.58-1.04.88.16.17.01.22-.78.28-.18.02-.34-.09-.35-.23s-.16-.6-.33-1.01-.3-.97-.3-1.24c0-.28-.13-.57-.27-.66s-.27-.62-.27-1.18q0-1-.4-1.17c-.44-.17-.54.24-.11.5.17.1.18.3.03.48a4 4 0 0 0-.42 1.1l-.31 1.24q-.16.46.34.32c.36-.1.63.19 1.07 1.12.33.68.55 1.3.48 1.36-.3.31-.94-.25-.94-.82 0-.35-.18-.79-.4-.97q-.39-.31-.4-.05c0 .16.12.36.27.45.14.09.26.34.26.57s.16.78.36 1.24.57 1.37.82 2.02c.25.66.6 1.51.8 1.9q.36.7.07.97c-.38.4.16 1.6 1.14 2.52.75.72 1 1.23.58 1.23a3 3 0 0 1-.94-.69c-.97-.9-1.28-.58-.37.37q.7.74.6 1.31c-.06.32-.01.65.11.72.12.08.3.63.4 1.23.15.81.38 1.2.96 1.52.42.24.76.54.76.66 0 .13-.2.07-.44-.13-.37-.31-.42-.3-.3.03.07.22.38.44.7.49.82.12.7.57-.15.59-.7.02-.7.03-.14.26.33.13.6.33.62.44l.09.82q.08.63-.3.46c-.22-.08-.44-.14-.51-.14s-.04-.14.06-.31q.16-.27-.08-.14c-.16.1-.43 0-.6-.22-.19-.22-.26-.4-.16-.4s.05-.23-.11-.53-.4-.47-.52-.4c-.26.17-1.86-1.1-1.86-1.47 0-.13.2-.24.42-.24.3 0 .2-.2-.36-.73-.43-.4-.86-1-.97-1.33s-.3-.52-.43-.44c-.14.08-.25.01-.25-.15 0-.17-.27-.54-.6-.83-.54-.49-.54-.52-.06-.36.43.13.46.1.2-.16-.18-.19-.33-.51-.33-.73s-.2-.6-.44-.87-.3-.48-.15-.48c.42 0-.13-1.5-.62-1.7-.22-.08-.38-.5-.38-.96s-.3-1.47-.66-2.27-.6-1.58-.51-1.72 0-.52-.21-.84-.4-.97-.42-1.44a7 7 0 0 0-.34-1.58c-.16-.4-.33-1.1-.4-1.53-.18-1.43-.43-2.38-.7-2.73q-.3-.34.02-.64c.36-.36.41-1.43.08-1.64-.38-.23-.54-1.56-.25-2.1q.3-.54-.05-.3c-.23.14-.27.03-.12-.43.43-1.34.58-2.35.36-2.35-.13 0-.24.25-.24.55s-.12.47-.27.37-.2-.4-.12-.67c.09-.28.2-1.01.27-1.63a28 28 0 0 1 .54-3.79c.19-.78.19-.78-.31-.24-.28.3-.43.42-.34.26s.24-.6.34-1.01c.1-.4.29-.67.43-.58s.26-.09.26-.39.1-.54.23-.54.3-.24.37-.53.03-.53-.1-.53-.24.17-.24.39c0 .23-.16.33-.4.23-.54-.2-.5-.7.1-1.07.43-.26.62-.17 1.33.64.46.51.91.87 1 .78.09-.1.02-.34-.16-.55a1.4 1.4 0 0 1-.23-1c.08-.55.14-.5.58.38.56 1.15.72 5 .21 5.16-.37.13-.11 1.63.38 2.2.42.49.5 1.84.1 1.84-.15 0-.26-.19-.26-.42s-.12-.34-.27-.25c-.3.2.15 1.21.67 1.52.32.19.33.95.06 2.19q-.1.45-.01.2c.06-.19.2-.33.31-.33.47 0 .5.37.08 1.24-.4.84-.4.95-.01 1.23.23.17.5.82.61 1.43.19 1.12.67 1.82.67.97 0-.35.08-.38.39-.12.39.32.86 1.52 1.01 2.58.1.64.45 1.15.45.65 0-.62.49-.3.77.5.25.74.32.78.68.42.48-.47.26-1.26-.29-1.05-.3.12-.36-.04-.26-.74.07-.5.2-1.16.3-1.5.14-.43.08-.59-.21-.59q-.4 0-.28-.5c.08-.27 0-.58-.15-.67q-.3-.17-.3.61c0 .44.1.86.22.93.27.16.07 2.01-.21 2.01-.26 0-.61-1.33-.41-1.53.08-.07-.16-.54-.53-1.02-.37-.49-.55-.89-.4-.89s.28-.18.28-.4.18-.48.4-.56c.3-.11.33-.25.12-.5q-.3-.35 0-.51t0-.69q-.27-.51 0-.51.26-.01-.04-.66c-.23-.51-.38-.6-.65-.36-.2.16-.37.19-.38.06l-.09-.83c-.09-.8.36-.75 1.1.14l.61.72-.4-1.02a7 7 0 0 1-.4-2.14c0-.78-.16-1.26-.53-1.6-.29-.25-.47-.56-.4-.67s-.05-.34-.26-.52-.46-.75-.55-1.28-.22-1.18-.29-1.43c-.07-.26 0-.46.16-.46.15 0 .26.08.24.2-.05.2.2.92.6 1.8.15.29.3.76.34 1.03.09.65.57.82.78.28.08-.22.05-.4-.08-.4-.22 0-.8-1.4-.8-1.95 0-.15.28.12.63.6.52.7.65.77.73.38.05-.26-.13-.93-.4-1.48-.42-.83-.57-.95-.89-.69-.3.26-.43.25-.61-.04-.13-.2-.16-.49-.07-.63.1-.14-.02-.18-.27-.09-.44.17-.53.01-.85-1.6-.14-.7-.1-.83.25-.7.56.22.53-.33-.05-.66-.25-.15-.33-.28-.16-.28s.27-.36.23-.87c-.04-.47.04-1 .19-1.19a.8.8 0 0 0 .12-.7c-.2-.52.1-.74.52-.39q.38.34.36-.02c0-.17.12-.23.26-.14s.34-.19.43-.63c.11-.56.35-.84.85-.96.38-.1 1-.5 1.37-.88 1.26-1.3 1.47-1.41 1.44-.75a3 3 0 0 1-.22.98c-.2.36.1.03 1.47-1.67.33-.4.71-.72.87-.72q.22.02-.1.23c-.36.24-.2.82.24.82.13 0 .45-.35.7-.8.54-.9 1.02-1.05.8-.23-.13.53-.12.53.37.09q.52-.48.51-.12c0 .27.08.27.4 0 .22-.18.4-.47.4-.64 0-.38 1.32-1.68 1.33-1.32 0 .14.22 0 .48-.28.25-.3.97-.81 1.6-1.15 1.42-.77 2.43-1.64 2.25-1.94-.08-.12.03-.22.25-.22.2 0 .46.2.55.44.13.35.24.37.49.12.25-.26.22-.39-.14-.6-.68-.37-.58-.58.53-1.12l1.39-.72c.55-.33.8-.43 1.72-.65l.8-.2-.67-.2c-.36-.1-.52-.2-.34-.22s.27-.18.2-.36.23-.57.67-.86c.43-.29.8-.68.8-.86 0-.43.44-.43.61 0q.13.28.16-.14c0-.27.14-.41.28-.32s.27 0 .27-.22c0-.55.84-1.2.99-.77.2.62.6.33.44-.33-.1-.41-.06-.66.12-.66s.3-.2.3-.45c0-.24.08-.36.17-.26s.46-.15.82-.53c.53-.57.7-.63.9-.33q.31.47.15-.02c-.2-.65.31-1.32 1-1.32.34 0 .7-.11.78-.24.08-.14.74-.33 1.47-.43 1.42-.2 1.75-.5.64-.6-1.07-.09-2.04-1.38-1.04-1.38.22 0 .4-.16.4-.36 0-.54 1.15-1.76 1.66-1.76.5 0 .63.66.2.93-.15.09-.27.36-.27.6 0 .33.07.36.31.11.18-.17.55-.31.83-.31.48 0 .49-.03.05-.7-.37-.57-.4-.73-.1-.92q.4-.24.03-.23c-.18 0-.33-.13-.33-.27s.18-.27.4-.27.6-.23.84-.51.54-.46.65-.39.4-.17.64-.54c.54-.82.74-.83 1.43-.1.3.32.61.5.71.4s-.07-.43-.39-.72c-.32-.3-.58-.63-.58-.74 0-.32 2.06-.36 2.65-.04.39.2.53.2.53-.03 0-.52-.88-1.01-1.85-1.03-.9 0-1.84-.38-1.58-.62.07-.06.8-.19 1.64-.27 1.34-.13 1.59-.08 2.08.44.93.98 2.13 2.83 1.84 2.83-.41 0-.34.68.11 1.05.33.28.39.18.36-.7-.03-.78-.3-1.31-1.19-2.36-1.27-1.5-1.35-1.7-.69-1.7.38 0 .36-.06-.11-.39-.31-.22-.73-.36-.92-.3q-.3.06-.18-.02c.1-.06.02-.42-.18-.8-.4-.79-.3-1.18.28-.96.22.09.39.02.39-.13q-.01-.3.66-.04c.71.27 1.46.1 1.46-.32 0-.16.25-.2.6-.1l.85.25c.15.04.66.28 1.15.54.49.25.95.4 1.02.33.22-.22-.19-.7-.6-.7a.4.4 0 0 1-.38-.39c0-.3.27-.36 1.13-.28.62.05 1.41.03 1.77-.05l.64-.16-.62-.23q-.64-.22-.35-.5c.27-.28 1.67-.06 1.67.26 0 .1.38.2.86.24.47.03 1.1.16 1.38.3.3.13 1.09.39 1.76.57.92.25 1.2.45 1.1.75q-.12.41.1.11c.12-.16.52-.34.88-.4.58-.07.67.02.75.77.06.63.2.86.57.86.27 0 .53.12.58.27s.47.32.94.38c1.4.18 2.04.44 1.66.68-.25.15-.19.28.23.5.46.25.56.24.56-.1 0-.22.12-.4.27-.4.14 0 .26.12.26.28q.02.23.25.12c.13-.08.32-.02.41.13.1.15.27.2.4.13.11-.07.27.03.34.22.08.2.7.57 1.4.83.7.27 1.55.78 1.88 1.14.34.37.62.56.62.43s.16-.05.33.18c.18.24.6.51.93.62.32.1.52.31.42.46q-.15.26.37.1c.3-.09.62-.04.72.11.1.16.27.22.4.14s.18.15.11.51c-.08.47.04.74.41.94.43.23.54.2.54-.1 0-.22-.12-.46-.27-.55-.4-.26-.31-.67.15-.67.58 0 1.96 1.58 1.78 2.04q-.12.37.4.52c.3.08.6.34.7.58.18.5.78 1.56 1.02 1.8.09.08.11-.2.06-.6l-.12-.98q-.03-.19-.22-.09c-.1.07-.21-.16-.23-.51q-.04-.63.36-.64c.5 0 1.1.76 1.12 1.39 0 .25.18.46.4.46q.36 0 .26.57c-.16.83.14 1.13.56.57.35-.45.42-.42 1.13.43.42.5.99.91 1.27.93s1.15.68 1.93 1.46c.79.78 1.36 1.25 1.28 1.04s-.24-.6-.35-.9l-.2-.53.46.53c.25.3.37.37.27.17-.14-.27-.04-.31.44-.16.35.1.64.2.65.22l.62 1.03c.33.55.68.94.8.87.25-.16 1.34.6 1.34.94 0 .15.12.4.26.58.57.7 2.12 3.17 2.12 3.4 0 .12-.18.23-.4.23-.3 0-.35.24-.22 1.19.15 1.09.11 1.2-.4 1.2-.31 0-.87-.35-1.25-.78q-.69-.76-1.32-.7c-.4.05-.64-.06-.64-.28 0-.19-.27-.49-.6-.65a7 7 0 0 1-1.16-.83c-.32-.28-.8-.48-1.06-.43-.27.04-.64-.02-.82-.13s-.54-.09-.8.06q-.88.46-1.22-.67c-.21-.66-1.16-1.58-1.39-1.34-.09.09.03.35.27.59.23.23.44.66.46.94.06.9.1 1 .43 1.34.18.18.33.62.33.97 0 .84.79 2.47 1.1 2.27.15-.1.13-.3-.04-.5-.36-.43.04-.73.65-.5.33.13.4.37.26 1l-.16.82.45-.62.45-.62.5.75c.26.42.43.93.36 1.15-.06.22 0 .58.14.8q.27.44.25.04c0-.2.16-.3.34-.24s.3.42.25.8c-.1.75.65 2.57 1.04 2.57.12 0 .23-.2.23-.43q-.01-.44.53-.29c.63.17.75-.53.13-.77-.22-.08-.4-.33-.4-.54s-.3-.78-.66-1.25a3 3 0 0 1-.66-1.27c0-.22-.25-.72-.56-1.12-.3-.39-.5-.77-.41-.85.28-.28 1.24.22 1.24.65 0 .25.6 1.03 1.32 1.75.73.7 1.32 1.45 1.32 1.65 0 .54-.47.42-.66-.17-.17-.55-1.45-1.68-1.66-1.47-.07.06.19.5.57.95s.7.98.7 1.17.16.47.35.64c.41.34.27 1.6-.19 1.66l-1.42.18c-.19.02-.33.24-.33.49 0 .39.05.38.39-.07.34-.44.43-.46.65-.11.2.3.13.45-.26.63-.53.25-.66 1.16-.3 2.08.17.43.24.44.71.08.3-.22.38-.4.2-.4-.19-.01-.34-.15-.34-.3 0-.17.2-.23.42-.14.32.12.37.04.25-.37-.22-.69.17-.67 1.62.05 1.06.53 1.67 1.27.76.92-.24-.1-.4 0-.4.23 0 .22-.12.4-.26.4s-.27-.16-.27-.34-.12-.51-.27-.73c-.23-.35-.29-.35-.5 0q-.25.38.01.7c.15.18.3 1.35.32 2.6.03 1.55.14 2.23.34 2.15.17-.06.45.02.62.2q.36.38.22-.22c-.06-.3-.22-.51-.36-.49s-.26-.72-.27-1.65c-.03-1.74.1-2 .68-1.3.19.21.55.4.82.4.42 0 .46.1.23.69-.18.48-.17.8.04 1.05.4.49.83.19.63-.45-.1-.28-.21-1-.27-1.59-.1-.93-.05-1.04.28-.76.32.26.4.25.4-.09 0-.23-.13-.49-.27-.58a.6.6 0 0 1-.26-.48q.01-.27.26.09c.2.3.25.23.26-.35 0-.43.11-.67.27-.58.14.1.26.04.26-.12a.3.3 0 0 0-.28-.28c-.15 0-.2-.12-.12-.26.1-.15.01-.27-.18-.27q-.4.02.01-.23c.2-.13.58-.17.85-.1.4.1.43.21.19.6-.23.37-.2.57.13.9q.88.88.6-.17c-.14-.52-.13-.54.13-.13.16.25.22.57.14.7-.19.3 1.14 1.77 1.5 1.67.56-.16 1 .53.85 1.35-.08.45-.18.86-.23.9-.05.06-.45-.27-.9-.71-.43-.44-.92-.8-1.07-.8-.5 0-.05.64.9 1.28.95.65 1 1.1.11 1.1-.67 0-.65.14.15 1 .73.79.89 1.9.26 1.9-.49 0-.49-.02.03 1.22q.44 1.03.13 1.11-.25.11-.18.28c.06.1.02.68-.1 1.3q-.2 1.1.07.94.27-.15.07.34c-.37.92-.48 2.42-.21 2.9.28.5-.26 2.2-.83 2.55-.22.14-.21.27.01.5.34.33-.05 1.57-.5 1.57-.12 0-.2.74-.2 1.65.03 1.9-.23 3.91-.55 4.3-.12.16-.28.57-.35.93s-.37 1.35-.67 2.2-.49 1.65-.42 1.76-.05.35-.27.53-.4.58-.4.87-.2.77-.44 1.04c-.25.27-.49.76-.53 1.08-.13.88-.64 2.04-.9 2.04-.13 0-.24.23-.24.52s-.29 1.17-.64 1.96c-.35.8-.58 1.5-.52 1.56s-.07.27-.29.45c-.22.19-.4.47-.4.64s-.33.67-.73 1.12c-.4.44-.77 1.03-.82 1.31-.1.57-.92 1.44-1.37 1.44-.5 0-1.11.78-.95 1.2.1.24-.03.47-.29.57-.24.1-.48.05-.53-.1-.11-.33-1.4.16-1.4.52 0 .11.23.08.52-.07.68-.36.8-.35.8.12 0 .31-.37.41-1.65.45-1.3.03-1.41.06-.53.14.62.06 1.13.22 1.13.37 0 .4-1.35 1.56-1.83 1.56-.23 0-.89.41-1.46.92s-1.17.93-1.32.93c-.49 0-2.54 1.17-2.54 1.45 0 .33-1.25.93-1.93.93q-.5 0-.35-.4c.08-.21.06-.4-.05-.4s-.36.43-.54.94c-.19.5-.44.87-.55.8-.3-.2-.85.52-.6.78.1.12-.02.14-.27.05q-.46-.15-.75.37c-.15.3-.48.5-.73.45-.24-.05-.59.09-.77.31-.27.34-.36.35-.57.04-.19-.29-.28-.24-.42.23-.15.45-.34.56-.83.47-.35-.07-.63-.02-.63.11 0 .14-.15.22-.33.2a4 4 0 0 0-1.34.38c-.55.25-1.12.38-1.27.28s-.64 0-1.1.18c-.62.26-.85.27-.93.03q-.08-.34-.5.08c-.21.22-.85.4-1.41.4-.57 0-1.09.09-1.16.2s-1 .26-2.06.32c-1.82.1-10.84.13-12 .03-.29-.03-1.1.02-1.8.1s-1.22.05-1.15-.06m-6.8-1.8c-.09-.23-.29-.34-.44-.25q-.3.18.03.56c.39.46.63.28.41-.3m-2.41-.12c.08-.15-.03-.27-.27-.27-.23 0-.35.12-.26.27.09.14.2.26.26.26s.18-.12.27-.26m-.93-.25c0-.14-.12-.32-.27-.41-.14-.1-.26.02-.26.25 0 .22.12.4.26.4s.27-.1.27-.24m6.08-.13c0-.07-.11-.2-.26-.28q-.24-.13-.26.11c0 .16.11.28.26.28q.24-.01.26-.11m29.77-.68c.09-.14.04-.26-.12-.26-.15 0-.28.12-.28.26s.06.27.12.27.19-.12.28-.27m-40.08-.4c0-.21-.12-.4-.26-.4s-.19.19-.1.4.2.4.25.4c.06 0 .1-.18.1-.4m-1.33-.4c0-.14-.12-.26-.28-.26-.15 0-.2.12-.11.27.09.14.21.26.28.26.06 0 .11-.12.11-.26m2.91-.37c0-.07-.12-.2-.26-.28-.15-.1-.27-.04-.27.11 0 .16.12.28.27.28.14 0 .26-.05.26-.11m-3.97-.37c0-.38-1.55-1.38-1.72-1.1-.09.14.13.37.5.5.35.14.72.38.82.54.2.33.4.36.4.06m5.3-.31a.27.27 0 0 0-.27-.27.3.3 0 0 0-.26.27c0 .14.12.26.26.26s.27-.12.27-.26m22.49 0q-.79-.5-.8 0c0 .14.27.26.6.26.48 0 .52-.05.2-.26m18.07-.81c.18-.68.07-.65-.45.14-.34.51-.35.62-.06.51.2-.08.44-.37.5-.65m-27.6-.1c0-.28-.5-.4-.66-.15-.09.14.02.26.25.26s.41-.05.41-.11m-6.57-.57c-.33-.24-.69-.35-.78-.25-.21.2.46.66 1 .67q.36 0-.22-.42m9.75.16c0-.15-.22-.27-.48-.27a1.5 1.5 0 0 1-.85-.33c-.21-.18-.16-.06.12.26.5.62 1.2.8 1.2.34m18.52.02c0-.13-.24-.18-.53-.1s-.53.18-.53.24.24.1.53.1.53-.1.53-.24m2.57-.19q.61-.06.42.25-.14.27.26-.05c.24-.2.63-.29.85-.2.6.23.8.17.72-.22q-.06-.35.6-.31c.36.02.66.12.66.22s.36-.02.8-.26c.57-.33.74-.59.63-.95q-.17-.5.2-.37c.2.07.34.32.32.56-.05.55.4.57.6.04.09-.22.32-.4.52-.4s.35-.09.32-.2c-.04-.1.1-.47.28-.8.26-.48.27-.7.02-1-.17-.2-.41-.3-.54-.23-.13.08-.24-.06-.24-.3 0-.42-.36-.32-.42.1-.14 1.08-1.23 1.49-1.81.7-.28-.39-.42-.37-1.42.15-1.04.54-1.45 1.05-.85 1.05.15 0 .27-.11.27-.26s.14-.26.3-.26c.18 0 .52-.19.77-.41.4-.37.46-.36.59.11.08.32-.02.58-.26.68q-.38.16-.22.61c.16.43.14.43-.28.02q-.45-.45-.87-.22a6 6 0 0 1-.9.37c-.25.08-.45.29-.45.47 0 .25.07.25.31 0 .39-.38 1.27-.42 1.27-.05 0 .15-.18.27-.4.27-.21 0-.39.1-.39.23 0 .12-.47.22-1.05.2-.72-.02-1.2.13-1.53.47q-.43.46-.08.28a3 3 0 0 1 1-.29m4.87-.03q.51-.61-.1-.1c-.44.34-.58.56-.36.56.05 0 .26-.2.46-.46m-43.02-.32a.7.7 0 0 0-.52-.28c-.2 0-.5-.18-.68-.4-.18-.21-.51-.4-.74-.4-.31 0-.27.16.21.67.4.43.8.61 1.1.51s.49-.02.49.18q.01.28.16.17c.08-.1.08-.3-.02-.45m19.01-.06c-.07-.12-.31-.22-.53-.22s-.34.1-.26.22c.07.12.31.22.53.22s.34-.1.26-.22m-17.43-.6c-.44-.35-.84-.52-.89-.38-.15.41.52 1.03 1.12 1.03.5 0 .49-.07-.23-.64m2.51.12c-.2-.13-.44-.18-.51-.1s.04.23.25.36.44.18.51.1-.04-.23-.25-.36m20.44.35a1 1 0 0 0-.66 0c-.18.07-.03.13.33.13s.51-.06.33-.13m4.43-.09c0-.14-.05-.26-.11-.26-.07 0-.2.12-.28.26-.1.15-.04.27.11.27.16 0 .28-.12.28-.27m-15.74-.26c-.1-.15-.28-.27-.43-.27s-.19.12-.1.27c.09.14.28.26.43.26s.19-.12.1-.26m32.28 0c.09-.15.04-.27-.12-.27-.15 0-.28.12-.28.27 0 .14.05.26.12.26s.19-.12.28-.26m-39.56-.12c0-.06-.12-.19-.26-.28s-.27-.04-.27.12c0 .15.12.28.27.28.14 0 .26-.06.26-.12m32.55-.7c.16-.29.24-.68.18-.85-.07-.17-.25 0-.4.39-.16.4-.54.76-.9.82-.54.1-.53.12.12.16q.71.03 1-.51m-34.93.02a.3.3 0 0 0-.26-.26.3.3 0 0 0-.27.26c0 .15.12.27.27.27.14 0 .26-.12.26-.27m5.03 0a.3.3 0 0 0-.27-.26.3.3 0 0 0-.26.26c0 .15.12.27.26.27s.27-.12.27-.27m23.28 0c0-.14-.18-.26-.41-.26s-.34.12-.25.26.28.27.41.27c.14 0 .25-.12.25-.27m-17.2-.53c0-.14-.18-.26-.4-.26s-.35.12-.26.26c.1.15.28.27.42.27s.24-.12.24-.27m19.91.1a1 1 0 0 0-.66 0c-.18.07-.03.13.33.13.37 0 .52-.06.33-.14m12.34-1.35c.22-.41.22-.61 0-.75-.18-.11.04-.46.6-.93.7-.6.8-.82.55-1.08-.25-.25-.32-.25-.32 0 0 .17-.35.31-.78.31s-.86.13-.95.28c-.28.45.09.62.54.25.58-.49.83-.1.3.48-.24.27-.35.57-.25.68q.14.15-.26.02c-.37-.15-.45-.03-.45.62a5 5 0 0 1-.18 1.29c-.15.42-.1.42.37-.06a6 6 0 0 0 .83-1.11m-49.83.83c-.24-.24-.5-.37-.58-.29-.23.24.17.71.6.71.35 0 .35-.05-.02-.42m29.3-.02a1 1 0 0 0-.67 0c-.18.08-.03.14.33.14.37 0 .51-.06.33-.14m-22.03-.19c0-.21-1.43-1.02-2.19-1.24-1-.28-.8-.08.65.69 1.14.6 1.54.74 1.54.55m26.12-.05c-.09-.1-.32-.1-.5-.03q-.32.14.15.16c.28.02.44-.05.35-.13m-30.66-.61c.3-.2.3-.27-.02-.46-.22-.13-.46-.4-.54-.63s-.16 0-.18.47c-.02.89.13 1 .74.62m1.1-.03a.3.3 0 0 0-.27-.26.3.3 0 0 0-.26.26c0 .15.12.27.26.27s.27-.12.27-.27m-5.83-.33c0-.46-1.26-1.03-1.4-.63-.07.23.58.7 1.34.94.04.01.06-.13.06-.3m2-.19c-.16-.26-1.73-.51-1.73-.28s1.4.74 1.66.6c.1-.05.14-.2.07-.32m46.56-.22c-.08-.08-.3 0-.47.18q-.4.38.15.15c.26-.1.4-.25.32-.33m5.2-.11c.68.14.8-.35.2-.88-.6-.56-.93-.34-1.17.8-.14.68-.12.74.18.4.2-.23.55-.37.79-.32m-29.68.22c0-.06-.18-.17-.4-.26-.21-.08-.4-.03-.4.1 0 .15.19.26.4.26s.4-.04.4-.1m8.73-.31c0-.23-.12-.34-.27-.25-.14.1-.2.28-.11.42.22.36.38.3.38-.17m18.13-.12c.09-.14-.08-.26-.38-.26s-.55.12-.55.26.17.27.38.27.46-.12.55-.27m-48.82-.11c0-.07-.12-.2-.26-.28-.15-.1-.27-.04-.27.11 0 .16.12.28.27.28.14 0 .26-.05.26-.11m9.5-.23-.63-.46c-.5-.36-.5-.35-.17.08.2.25.49.46.64.46q.25-.01.16-.08m38.65-1.09c0-.13-.23-.02-.52.24-.28.26-.45.58-.37.72.16.25.87-.52.89-.96m-14.41.64c.09-.15.03-.27-.12-.27s-.28.12-.28.27c0 .14.05.26.12.26s.19-.12.28-.26m-33.2-.12c0-.06-.13-.19-.27-.28s-.27-.03-.27.12.12.28.27.28c.14 0 .26-.05.26-.12m13.75 0c0-.06-.12-.19-.27-.28-.14-.09-.26-.03-.26.12s.12.28.26.28.27-.05.27-.12m39.3-.36c-.08-.08.12-.45.45-.82.5-.58.52-.61.05-.22-.3.25-.9.48-1.32.5-1.09.07-1.28.22-.76.6.42.31 1.9.26 1.58-.06m-52-.45c-.34-.36-.69-.59-.77-.5s.15.37.5.65q1.36 1.04.27-.15m-2.38.27c0-.06-.24-.51-.53-.99l-.53-.86.11.92.14 1c.03.12.8.06.8-.07m30.43-.13c0-.15-.06-.27-.12-.27-.07 0-.2.12-.28.27-.1.14-.04.26.12.26.15 0 .28-.12.28-.26m17.7-.12c.26-.3.22-.35-.23-.23-.3.08-.54.25-.54.38 0 .35.43.28.78-.15m-8.84-.15c.09-.14.04-.26-.12-.26-.15 0-.28.12-.28.26s.05.27.12.27.19-.12.28-.27m-35.16-.72c-.27-.27-.5.13-.27.5.16.26.23.26.32 0 .06-.2.03-.41-.05-.5m7.51.2c0-.15-.13-.27-.28-.27s-.2.12-.12.26c.1.15.22.27.28.27s.12-.12.12-.27m40.75 0c0-.15-.06-.27-.12-.27-.07 0-.2.12-.28.26-.1.15-.04.27.12.27.15 0 .28-.12.28-.27m-56.06-.4c0-.14-.12-.3-.28-.35s-.29.1-.29.35.13.4.29.34.28-.2.28-.35m1.34-.46q-.31-.28-.32-.04c0 .35.32.67.5.5.07-.08-.01-.29-.18-.46m3.57-.14c-.4-.4-.45-.4-.45-.01 0 .23.15.48.33.55.54.19.6-.06.12-.54m50.08-.15q-.02-.18-.26-.05c-.14.1-.26.37-.26.61 0 .39.04.4.26.05.14-.22.26-.49.26-.6m-30.68.35c0-.15-.13-.27-.28-.27s-.21.12-.12.27c.09.14.21.26.28.26.06 0 .12-.12.12-.26m26.85 0c.1-.15.04-.27-.12-.27-.15 0-.28.12-.28.27 0 .14.06.26.12.26s.2-.12.28-.26m7.1-.15c-.08-.23-.33-.35-.54-.26s-.46.15-.56.16c-.2.02.77.46 1.07.5.1 0 .12-.17.03-.4m-2.2-.26c0-.23-.12-.34-.27-.25-.14.09-.26.27-.26.4 0 .15.12.26.26.26s.27-.19.27-.41m-57-.79c-.35-.36-.42-.37-.42-.03 0 .21.15.44.33.5.52.2.57 0 .1-.47m27.9.4c0-.14-.13-.26-.29-.26s-.2.12-.12.26c.1.15.22.27.28.27s.12-.12.12-.27m25.79 0c.09-.14.04-.26-.1-.26s-.34.12-.43.26c-.1.15-.05.27.1.27s.34-.12.43-.27m-46.03-.5c-.1-.16-.3-.29-.45-.29q-.27.01.05.4c.36.44.69.34.4-.12m-9.94-.22c0-.11-.1-.37-.23-.57-.3-.46-.85-.14-.65.38.15.4.9.55.88.19m3.02-.2c-.09-.22-.26-.4-.4-.4-.12 0-.23.18-.23.4s.18.4.39.4c.24 0 .33-.16.24-.4m58.1-.13c-.15-.3-.32-.53-.37-.53-.06 0-.04.23.04.53.07.29.24.53.38.53.13 0 .11-.24-.04-.53m-7.27 0c.1-.15.05-.27-.1-.27-.14 0-.34.12-.43.27-.09.14-.04.26.1.26s.34-.12.43-.26m4.37-.14c0-.21-.1-.4-.24-.4s-.3.19-.39.4q-.13.39.24.4a.4.4 0 0 0 .39-.4m-57.83-.11c.09-.14.04-.32-.11-.41-.15-.1-.27.02-.27.24 0 .47.16.54.38.17m20.12-.02c-.09-.14-.28-.26-.42-.26-.15 0-.2.12-.1.26.08.15.28.27.42.27.15 0 .2-.12.1-.27M81.15 180c-.43-.65-1.17-.91-1.17-.42 0 .27 1.04 1.08 1.39 1.08.11 0 .01-.3-.22-.66m2.9.26c-.17-.42-.63-.55-.63-.18 0 .28.29.58.56.58.12 0 .15-.18.06-.4m15.44.24c-.1-.1-.32-.1-.51-.02q-.31.13.16.16c.28 0 .43-.06.35-.14m-10.78-.37c0-.15-.18-.27-.4-.27-.21 0-.4.12-.4.27 0 .14.19.26.4.26s.4-.12.4-.26m3.04 0c-.09-.15-.27-.27-.4-.27-.15 0-.26.12-.26.27 0 .14.19.26.41.26.23 0 .34-.12.25-.26m27.39 0c0-.15-.05-.27-.12-.27s-.19.12-.28.27c-.09.14-.04.26.12.26.15 0 .28-.12.28-.26m-43.83-.8c-.22-.43-.45-.79-.5-.79-.07 0-.12.36-.12.8 0 .6.12.79.5.79.48 0 .5-.05.12-.8m30.6.53a.3.3 0 0 0-.27-.26.3.3 0 0 0-.26.26c0 .15.12.27.26.27s.27-.12.27-.27m-29.03-1.19c-.5-1.04-.9-1.24-.67-.33.17.7.56 1.26.89 1.26.12 0 .03-.42-.22-.93m13.95.55c0-.07-.12-.2-.27-.28-.14-.1-.26-.04-.26.11 0 .16.12.28.26.28s.27-.05.27-.11m46.7-.15c.09-.15-.03-.27-.25-.27-.23 0-.42.12-.42.27 0 .14.12.26.25.26.14 0 .33-.12.42-.26m.92-.56c0-.15-.12-.2-.26-.1-.15.09-.27.28-.27.43s.12.19.27.1c.14-.1.26-.29.26-.43m-13.1.03q.13-.24-.11-.26c-.16 0-.28.11-.28.26q0 .24.12.26c.06 0 .19-.11.28-.26m10.46 0q-.01-.24-.12-.26c-.06 0-.19.11-.28.26q-.13.24.12.26c.15 0 .28-.11.28-.26m-57.71-1.06c-.3-.58-.67-1.06-.8-1.06-.28 0-.17.25.62 1.4.73 1.04.81.89.18-.34m39.45.8c0-.15-.05-.27-.12-.27s-.19.12-.28.27c-.09.14-.03.26.12.26s.28-.12.28-.26m-43.13-.4c.12.07.2-.14.2-.47-.01-.32.07-.95.19-1.38.17-.65.15-.74-.14-.47-.19.18-.37.54-.4.8-.02.25-.12.82-.21 1.25-.1.44-.1.65-.01.47.08-.19.25-.28.37-.2m27.52.13c0-.14-.13-.26-.28-.26s-.2.12-.12.26c.1.15.22.27.28.27s.12-.12.12-.27m29.77 0c.09-.14-.03-.26-.25-.26-.23 0-.42.12-.42.26s.12.27.25.27c.14 0 .33-.12.42-.27m-50.1-.59q-.29-.28-.3-.04c0 .36.3.67.48.5.08-.08 0-.28-.17-.46m12.92.33c0-.15-.12-.27-.28-.27-.15 0-.2.12-.12.27.1.14.22.26.28.26s.12-.12.12-.26m-2.65-.67c-.18-.22-.39-.35-.46-.28-.18.18.2.68.51.68q.27-.01-.05-.4m5.3.14c0-.15-.18-.27-.4-.27s-.4.12-.4.27c0 .14.18.26.4.26s.4-.12.4-.26m43.62.02c.2-.12.32-.37.26-.54q-.11-.3-.6.23c-.51.56-.32.73.34.31m-51.82-.14c0-.06-.12-.19-.27-.28-.14-.09-.26-.04-.26.12 0 .15.12.28.26.28s.27-.06.27-.12m-9.14-.4c.08-.13.03-.31-.12-.4s-.27.01-.27.24c0 .46.16.53.39.17m58.8-.33q-.15-.3-.17.16c0 .28.05.44.14.35s.1-.32.02-.5m-55.04-1.05q-.13-.32-.16.16c-.01.27.05.43.14.34s.1-.31.02-.5m19.4.31c0-.15-.13-.26-.28-.26q-.24.02-.12.26c.1.15.22.26.28.26q.11-.02.12-.26m4.42.1c-.08-.08-.31-.1-.5-.02q-.31.14.16.16c.28.01.43-.05.34-.14m-25.85-.36a.27.27 0 0 0-.27-.27.3.3 0 0 0-.26.27c0 .14.12.26.26.26s.27-.12.27-.26m62.7 0c0-.15-.05-.27-.11-.27-.07 0-.2.12-.28.27-.1.14-.04.26.11.26.16 0 .28-.12.28-.26m-58.88-.56a.3.3 0 0 0-.4-.1.3.3 0 0 0-.1.41.3.3 0 0 0 .4.1.3.3 0 0 0 .1-.4m3.35-.05c-.34-.34-.69-.08-.43.33.1.15.3.2.44.12q.27-.16-.01-.45m1.56.2c-.18-.21-.45-.39-.6-.39s-.11.18.07.4.45.4.6.4.11-.18-.07-.4m6.61-.12a.3.3 0 0 0-.26-.27.27.27 0 0 0-.27.27c0 .14.12.26.27.26.14 0 .26-.12.26-.26m21.83 0c.1-.15.04-.27-.12-.27-.15 0-.28.12-.28.27 0 .14.06.26.12.26s.2-.12.28-.26m2.12-.27c.09-.14.03-.26-.12-.26s-.28.12-.28.26.05.27.12.27.19-.12.28-.27m-46.4-.88c-.3-.3-.63-.46-.73-.36-.26.25.7 1.26 1.02 1.07.14-.09.01-.4-.3-.7m12.13.62c0-.15-.12-.27-.28-.27-.15 0-.2.12-.11.27.09.14.21.26.28.26.06 0 .11-.12.11-.26m51.19-.29a.3.3 0 0 0-.4-.1.3.3 0 0 0-.1.4.3.3 0 0 0 .4.1.3.3 0 0 0 .1-.4m4.46-.26c.16-.61-.23-.43-.62.3-.21.4-.2.47.1.35.21-.07.44-.37.52-.65m-60.14-.03c0-.35-.6-.13-.74.26q-.08.3.32.16c.23-.1.42-.28.42-.42m-9 .2c0-.07-.12-.2-.26-.28-.15-.1-.27-.04-.27.11 0 .16.12.28.27.28.14 0 .26-.05.26-.11m49.74-.15c0-.15-.05-.27-.11-.27-.07 0-.2.12-.28.27-.1.14-.04.26.11.26.16 0 .28-.12.28-.26m-46.04-.38c0-.4-.47-.82-.68-.61-.19.18.18.99.45.99.13 0 .23-.17.23-.38m14.03.11c0-.14-.13-.26-.28-.26s-.2.12-.12.26.22.27.28.27.12-.12.12-.27m-3.18-.25c0-.3-.51-.64-.7-.45-.2.19.14.7.45.7q.23-.01.25-.25m46.04-.01a.3.3 0 0 0-.26-.27.27.27 0 0 0-.27.27c0 .14.12.26.27.26.14 0 .26-.12.26-.26m-60.85-.73c0-.1-.48-.66-1.06-1.22-1.25-1.21-1.4-1.9-.39-1.64.62.15.65.12.39-.38-.23-.43-.4-.48-.79-.27-.95.51-.87 1.16.32 2.45 1.09 1.17 1.53 1.48 1.53 1.06m12.7-.21c0-.23-.13-.34-.27-.25s-.2.28-.12.41c.23.37.39.3.39-.16m42.6.14c0-.14-.06-.26-.12-.26-.07 0-.2.12-.28.26-.1.15-.04.27.11.27.16 0 .28-.12.28-.27m-58.48-.11c0-.07-.12-.2-.26-.28-.15-.1-.27-.04-.27.11 0 .16.12.28.27.28.14 0 .26-.05.26-.11m8.32-.3q.52-.38.25-.65-.26-.27-.9.4c-.7.74-.23.93.65.26m23.96.15a.3.3 0 0 0-.26-.26.3.3 0 0 0-.27.26c0 .15.12.26.27.26.14 0 .26-.11.26-.26m40.22 0a.3.3 0 0 0-.27-.26.3.3 0 0 0-.26.26c0 .15.12.26.26.26s.27-.11.27-.26m-59.27-.66c-.19-.23-.4-.35-.47-.28-.08.07.02.32.2.54.2.23.4.35.48.28s-.02-.32-.21-.54m58.92-.45q-.14-.3-.16.16c-.01.28.05.44.14.35s.1-.32.02-.5m-67.45 0c-.16-.49-.73-.57-.73-.1 0 .23.19.42.42.42s.37-.14.31-.32m7.64-.6a.7.7 0 0 0-.6-.4c-.4 0-.4.04.04.52.52.59.81.52.56-.12m22.06.54c0-.07-.12-.2-.27-.29-.14-.08-.26-.03-.26.12 0 .16.12.28.26.28s.27-.05.27-.11m35.1-.47q-.12-.3-.16.16c0 .28.05.44.14.35s.1-.32.02-.5m-3.62-.21c0-.15-.05-.27-.11-.27-.07 0-.2.12-.28.27-.1.14-.04.26.11.26.16 0 .28-.12.28-.26m-72.2-.87q-.31-.34-.3.11c0 .53.36.88.5.49.05-.17-.04-.44-.2-.6m12.93.61c.53-.33.25-.55-.47-.36-.32.08-.51.25-.43.38.18.3.4.3.9-.02m3.97 0c0-.15-.17-.27-.4-.27-.21 0-.39.12-.39.26s.18.27.4.27.4-.12.4-.27m7.02 0c-.1-.15-.28-.27-.42-.27s-.25.12-.25.26.19.27.42.27.34-.12.25-.27m-13.3-.55q-.14-.54-.4-.3c-.27.28-.05.84.32.84.13 0 .16-.24.09-.54m4.7.28a.27.27 0 0 0-.27-.27.3.3 0 0 0-.26.27c0 .14.12.26.26.26s.27-.12.27-.26m5.82-.27c0-.14-.19-.26-.42-.26s-.33.12-.24.26.27.27.4.27c.15 0 .26-.12.26-.27m-16.31-1.56c-.76-1.07-1.27-1.43-.99-.68.09.21.25.4.37.4s.3.26.4.59.32.68.48.78c.58.37.48-.05-.26-1.1m20.28.77c0-.14-.19-.26-.42-.26s-.34.12-.25.26.28.27.42.27.25-.12.25-.27m-6.62-.2c0-.1-.12-.37-.25-.59-.3-.48-.67-.18-.45.38.16.41.7.58.7.21m-20.9-.33c0-.14-.13-.26-.28-.26s-.2.12-.12.26c.1.15.22.27.28.27s.12-.12.12-.27m8.38-.56q-.31-.82-.4-.38c-.11.56.13 1.2.45 1.2.15 0 .12-.34-.05-.82m16.75.2c0-.2-.3-.43-.67-.5-.64-.12-.65-.1-.22.37.53.58.9.63.9.13m-6.67-.48c-.16-.5-.73-.57-.73-.1 0 .22.19.41.42.41s.37-.14.31-.31m25.2-.08c.19-.23.21-.4.06-.4s-.34.18-.42.4c-.09.21-.12.4-.07.4.06 0 .24-.19.43-.4m-34.06-.31q-.16-.45.14-.25.3.17.31-.25-.01-.42-.37-.3c-.4.15-.83-.96-.54-1.42.19-.3-.15-.32-.62-.03-.28.18-.27.37.05 1 .22.41.46.97.54 1.22.07.26.25.47.4.47.14 0 .19-.2.1-.44m3.36-.03c0-.1-.11-.37-.25-.58-.3-.48-.66-.18-.45.37.16.42.7.58.7.21m10.28-.6c-.15-.43-.45-.78-.66-.78-.41 0-.3.32.39 1.12.55.64.6.59.27-.33m44.76.54c0-.15-.13-.27-.28-.27s-.2.12-.12.27c.09.14.22.26.28.26s.12-.12.12-.26m2.9 0a.3.3 0 0 0-.26-.27.3.3 0 0 0-.26.27c0 .14.12.26.26.26s.27-.12.27-.26m-51.55-.97c-.23-.4-.29-.41-.3-.07 0 .45.28.85.46.66.07-.06 0-.33-.16-.6m8.43.44c0-.15-.13-.27-.28-.27s-.2.12-.12.27c.1.14.22.26.28.26s.12-.12.12-.26m6.35-.28c0-.14-.12-.25-.26-.25s-.27.19-.27.41c0 .23.12.34.27.25.14-.09.26-.27.26-.41m47.36.28c0-.15-.05-.27-.12-.27s-.19.12-.28.27c-.09.14-.03.26.12.26.16 0 .28-.12.28-.26m-81.93-.2c.06-.1 0-.47-.12-.8-.22-.6-.24-.6-.86-.14-.56.42-.58.5-.2.8.49.37 1 .43 1.18.14m58.78-.07c.09-.14.04-.26-.12-.26-.15 0-.28.12-.28.26s.06.27.12.27.19-.12.28-.27m-43.3-.61c.04-.25-.09-.44-.3-.44-.43 0-.79.63-.52.9s.72.01.81-.46m15.65.35q-.02-.24-.28-.26-.23.02-.12.26.17.24.28.26.11-.02.12-.26m-25.83-.4c-.09-.22-.26-.4-.4-.4-.12 0-.23.18-.23.4s.18.4.4.4q.35-.01.23-.4m7.5-.18q-.15-.31-.17.16c-.01.28.05.44.14.35s.1-.32.02-.5m14.22.33c.08-.13.03-.32-.12-.4-.15-.1-.27.01-.27.24 0 .46.16.53.39.16m-19-.6q-.13-.3-.15.17c-.01.28.05.43.14.34s.1-.31.02-.5m9.88.31c0-.15-.17-.34-.39-.42-.21-.08-.53-.55-.71-1.05-.34-.94-.75-1.2-.75-.49 0 .44 1.33 2.24 1.65 2.24.11 0 .2-.13.2-.28m62.44-.4c0-.23-.12-.34-.26-.25s-.27.28-.27.41c0 .14.12.25.27.25.14 0 .26-.18.26-.41m-61.35-1.52c-.46-.46-.63-.02-.26.65.3.56.35.57.44.13.06-.27-.02-.62-.18-.78m57.65 1.02c0-.06-.12-.19-.27-.28-.14-.09-.26-.04-.26.12 0 .15.12.28.26.28s.27-.06.27-.12M70.98 164c0-.13.08-.46.18-.73.17-.46.15-.45-.4.02-.67.59-.73.95-.17.95.22 0 .4-.1.4-.24m2.38-.43c0-.38-.1-.61-.23-.53-.14.08-.18.38-.1.67.18.73.33.67.33-.14m8.94.36c-.16-.5-.73-.57-.73-.1 0 .22.19.41.42.41s.37-.14.31-.31m6.41-.08c0-.22-.12-.4-.26-.4s-.27.18-.27.4c0 .21.12.4.27.4.14 0 .26-.19.26-.4m-3.8-.79c-.08-.22-.27-.4-.42-.4-.4 0-.34.72.05.86q.66.26.38-.46m28.94.39c0-.15-.06-.27-.12-.27s-.2.12-.28.27c-.1.14-.04.26.12.26.15 0 .28-.12.28-.26m-45.57-.73c-.38-.9-.74-1.34-.74-.92 0 .47.6 1.65.83 1.65.12 0 .08-.33-.09-.73m42.13.46a.3.3 0 0 0-.27-.26.3.3 0 0 0-.26.26c0 .15.12.27.26.27s.27-.12.27-.27m-45.83-.84c-.1-1.04-.68-1.32-.61-.29.07 1.06.1 1.13.42 1.13.15 0 .24-.37.2-.84m-5.77.17c0-.23-.12-.34-.26-.25s-.27.27-.27.41.12.25.27.25c.14 0 .26-.19.26-.41m16.4-1.2c0-.41-.38-.26-.72.28-.18.28-.25.7-.16.93.13.34.23.28.52-.28.2-.39.37-.8.37-.94m26.33 1.35c.1-.15.04-.27-.11-.27-.16 0-.28.12-.28.27 0 .14.05.26.11.26.07 0 .2-.12.28-.26m-20.63-1.06q-.2-.32-.46-.05a.5.5 0 0 0-.07.58q.19.3.45.04a.5.5 0 0 0 .08-.57m10.18.53c0-.15-.12-.27-.28-.27-.15 0-.2.12-.11.27.08.14.21.26.28.26.06 0 .11-.12.11-.26m49.21-.81c0-.48-.47-.48-.6 0q-.14.52.24.36c.2-.08.36-.24.36-.36m-53.28-.45c-.27-.26-.5.14-.27.5.16.27.23.27.32 0 .06-.19.04-.4-.05-.5m-19.9-.2c-.24-.36-.48-.66-.55-.66-.13 0 .12.48.52 1 .45.58.48.34.03-.34m1.09-.13c-.1-.31-.24-.51-.32-.44-.07.07-.05.39.05.7.1.32.24.51.31.44s.05-.39-.04-.7m3.83.38c0-.23-.12-.34-.27-.25-.14.1-.2.28-.11.42.22.36.38.3.38-.17m10.52-.8c-.25-.25-.76.16-.57.46q.17.27.45-.01c.15-.16.2-.36.12-.45m-9.46.2c0-.35-.31-.58-.57-.42-.27.17-.04.64.32.64.14 0 .25-.1.25-.22m65.88-.18c0-.22-.12-.4-.26-.4s-.27.18-.27.4.12.4.27.4c.14 0 .26-.18.26-.4m-79.64.02c0-.07-.12-.2-.26-.28-.15-.1-.27-.04-.27.11 0 .16.12.28.27.28.14 0 .26-.05.26-.11m10.06 0c0-.07-.12-.2-.27-.28-.14-.1-.26-.04-.26.11 0 .16.12.28.26.28s.27-.05.27-.11m2.27-.88c-.18-.18-.69.2-.69.51q.02.27.4-.05c.23-.18.36-.39.29-.46m39 .46c0-.14-.12-.26-.28-.26-.15 0-.2.12-.12.26.1.15.22.27.28.27s.12-.12.12-.27m-43.1-.7c-.3-.54-.38-.37-.13.3.1.23.23.37.3.3.06-.06 0-.34-.16-.6m8.7.44q-.01-.24-.11-.26c-.07 0-.2.11-.28.26q-.14.24.12.26c.15 0 .28-.11.28-.26m1.06-.26c0-.3-.17-.53-.4-.53-.4 0-.54.56-.21.88.33.33.61.17.61-.35m2.84-.45c-.57-.58-.85-.3-.45.45.23.43.39.5.6.29.22-.22.18-.42-.15-.74m63.6.38q-.36-.4-.14.14c.1.26.25.41.33.33s0-.3-.18-.47m-56.38.21c0-.06-.12-.19-.27-.28-.14-.09-.26-.03-.26.12s.12.28.26.28.27-.05.27-.12m2.64-.28c0-.21-.12-.4-.26-.4s-.27.19-.27.4.12.4.27.4c.14 0 .26-.18.26-.4m26.08.11c.27-.44-.34-.94-.7-.58-.31.3-.12.87.29.87.13 0 .31-.13.4-.29m-54.53-.57a3 3 0 0 0-.36-1.13c-.28-.44-.3-.45-.18-.04.09.27.15.77.15 1.13s.1.64.21.64c.12 0 .2-.27.18-.6m11.96-.64c-.08-.08-.27-.06-.43.04-.22.13-.2.3.04.6.31.37.36.37.44-.05.05-.25.02-.52-.05-.6m11.5.57c0-.13-.12-.29-.28-.34-.15-.05-.28.1-.28.34s.13.4.28.35.29-.2.29-.35m57.17-.19q-.31-.28-.32-.04c0 .16.08.36.18.45s.24.12.31.04 0-.27-.17-.45m-44.5.06a.3.3 0 0 0-.27-.26.3.3 0 0 0-.26.26c0 .15.12.27.26.27s.27-.12.27-.27m-30.66-.6q-.38-.4-.15.15c.1.26.25.4.33.33s0-.3-.18-.48m1.64-.13c-.08-.32-.25-.52-.38-.44-.14.08-.11.38.05.68.35.67.54.53.33-.24m-10.89-.12q-.3-.28-.31-.04c0 .35.31.67.49.5.07-.08 0-.29-.18-.46m21.2.12c-.27-.76-.37-.87-.64-.7-.16.1-.09.36.19.66.56.63.67.64.45.04m-8.9-.78c-.06-.26-.12-.12-.12.32s.05.65.12.47.08-.54 0-.8m12.53.87c0-.07-.12-.2-.27-.28-.14-.1-.26-.04-.26.11 0 .16.12.28.26.28s.27-.05.27-.11m57.29-.4c-.1-.15-.3-.28-.46-.28q-.25.01.06.4c.36.44.68.34.4-.12m-64.97-.13c0-.43-.37-.75-.6-.51-.21.2.07.89.37.89.13 0 .23-.17.23-.38m58.21.11c0-.14-.05-.26-.12-.26s-.19.12-.28.26-.03.27.12.27.28-.12.28-.27m-66.78-.72c-.27-.27-.49.14-.27.5.17.26.23.26.32 0 .06-.19.04-.41-.05-.5m5.66.18c0-.3-.12-.47-.26-.38s-.27.33-.27.54.12.38.27.38c.14 0 .26-.24.26-.54m16.94.28a.27.27 0 0 0-.27-.27.3.3 0 0 0-.26.27c0 .14.12.26.26.26s.27-.12.27-.26m6.61 0a.3.3 0 0 0-.26-.27.27.27 0 0 0-.27.27c0 .14.12.26.27.26.14 0 .26-.12.26-.26m-38.1-.27c0-.14-.13-.26-.28-.26s-.2.12-.12.26c.1.15.22.27.28.27s.12-.12.12-.27m15.61-1.19a.4.4 0 0 0-.4-.4.4.4 0 0 0-.4.4c0 .22.19.4.4.4a.4.4 0 0 0 .4-.4m2.64-.5c-.36-.36-.62 0-.4.55.14.4.2.4.4.08.15-.23.15-.49 0-.64m2.65.52c0-.21-.12-.46-.26-.55s-.27.09-.27.39.12.54.27.54c.14 0 .26-.17.26-.38m2.11-.21c0-.49-.05-.52-.26-.2q-.5.78 0 .8c.15 0 .27-.28.26-.6m67.1-.4c-1.07-2.37-1.2-2.6-1.11-1.92.11.98.98 2.93 1.23 2.77.12-.07.07-.46-.11-.85m-82.7.46c0-.14-.13-.26-.28-.26s-.2.12-.12.26c.1.15.22.27.28.27s.12-.12.12-.27m9.52-.13c0-.22-.12-.4-.26-.4s-.27.18-.27.4.12.4.27.4c.14 0 .26-.18.26-.4m16.14 0c0-.22-.12-.4-.26-.4s-.27.18-.27.4.12.4.27.4c.14 0 .26-.18.26-.4m17.73-.13a.3.3 0 0 0-.26-.27.27.27 0 0 0-.27.27c0 .14.12.26.27.26.14 0 .26-.12.26-.26m-42.07-.97c0-.92.02-.95.48-.53q.95.85.8-.02c-.06-.26-.27-.48-.49-.5-1.15-.07-1.32-.13-1.32-.5 0-.21-.12-.4-.26-.4-.45 0-.3 1 .19 1.18.39.15.4.21.06.42-.3.2-.31.25-.02.25q.4-.01.07.36c-.17.2-.22.44-.12.53q.6.59.61-.79m51.07.7a.3.3 0 0 0-.27-.26.3.3 0 0 0-.26.26c0 .15.12.27.26.27s.27-.12.27-.27m-47.73-.72c-.27-.27-.5.14-.27.5.16.26.22.26.31 0 .07-.19.04-.41-.04-.5m1.98.11c-.34-.33-.68-.07-.43.33.1.16.3.22.44.12q.27-.16-.01-.45m68.24.5c0-.07-.12-.2-.27-.28-.14-.1-.26-.04-.26.11 0 .16.12.28.26.28s.27-.05.27-.11m-56.1-.42a.3.3 0 0 0-.26-.26.3.3 0 0 0-.27.26c0 .15.12.27.27.27.14 0 .26-.12.26-.27m13.76.15c0-.06-.12-.19-.26-.28s-.27-.04-.27.12c0 .15.12.28.27.28.14 0 .26-.05.26-.12m3.7 0c0-.06-.11-.19-.26-.28-.14-.09-.26-.04-.26.12 0 .15.12.28.26.28s.27-.05.27-.12m52.66-.15a.3.3 0 0 0-.27-.26.3.3 0 0 0-.26.26c0 .15.12.27.26.27s.27-.12.27-.27m-66.02-.26c.1-.15.04-.27-.11-.27-.16 0-.28.12-.28.27 0 .14.05.26.11.26.07 0 .2-.12.28-.26m17.6 0c0-.15-.13-.27-.28-.27s-.2.12-.12.27c.1.14.22.26.28.26s.12-.12.12-.26m6.63-.07c-.03-.32-.4-.26-.5.08q-.07.29.2.21c.18-.05.31-.19.3-.3m30.6-.25q-.15-.3-.17.16c-.01.28.05.44.14.35s.1-.31.02-.5m-14.48-.21c0-.15-.05-.27-.11-.27-.07 0-.2.12-.28.27-.1.14-.04.26.11.26.16 0 .28-.12.28-.26m-69.32-.27c0-.14-.05-.26-.11-.26-.07 0-.2.12-.28.26-.1.15-.04.27.11.27.16 0 .28-.12.28-.27m11.51 0c-.09-.14-.27-.26-.41-.26s-.25.12-.25.26.19.27.41.27c.23 0 .34-.12.25-.27m8.07-.1c0-.2-.18-.5-.4-.69-.42-.35-.51-.09-.23.64.2.52.63.55.63.05m59.53.25c0-.06-.12-.19-.26-.28s-.27-.03-.27.12.12.28.27.28c.14 0 .26-.05.26-.12m10.35-.59c-.3-.53-.38-.36-.13.3.1.24.22.38.3.3.06-.06-.01-.33-.17-.6m-6.61-.15q-.38-.4-.15.14c.1.26.25.41.33.33s0-.3-.18-.47m12.93.07c0-.15-.12-.27-.28-.27-.15 0-.2.12-.11.27.08.14.21.26.28.26.06 0 .11-.12.11-.26m-79.07-.4c0-.14-.13-.3-.28-.35s-.29.1-.29.35.13.4.29.34.28-.2.28-.34m5.78-.15c0-.14-.12-.25-.26-.25s-.27.19-.27.41c0 .23.12.34.27.25.14-.09.26-.27.26-.4m68.36.16c.08-.22.03-.46-.1-.55-.15-.08-.26.1-.26.4 0 .63.15.7.36.15m-91.38-1.92c0-.34-.5.06-.75.6-.53 1.16-.33 1.6.22.51.3-.57.53-1.07.53-1.1m10.9 1.45q-.3-.28-.31-.04c0 .16.08.36.17.45s.24.12.32.04c.07-.07 0-.27-.18-.45m17.15.34c0-.13-.12-.32-.27-.41-.14-.09-.26.02-.26.25s.12.41.26.41.27-.11.27-.25m38.9-.16c0-.23-.13-.34-.28-.25-.14.1-.2.28-.11.41.22.37.38.3.38-.16m22.58-1.27c-.1-.67-.28-1.23-.41-1.23-.22 0-.1 1.42.2 2.35.25.76.37.08.21-1.12m-76.3.74c0-.23-.12-.34-.26-.25s-.27.28-.27.41c0 .14.12.25.27.25.14 0 .26-.18.26-.41m60.45-.14a.3.3 0 0 0-.4-.1.3.3 0 0 0-.1.41.3.3 0 0 0 .4.1.3.3 0 0 0 .1-.41m-66.03-.7c-.15-.4-.27-.76-.26-.8.12-.43-.07-.6-.22-.2-.22.55.16 1.72.54 1.72.12 0 .1-.32-.06-.72m18.81.46c0-.15-.12-.27-.28-.27-.15 0-.2.12-.11.27.08.14.21.26.28.26.06 0 .11-.12.11-.26m-10.8-.85c-.24-.25-.31-.17-.31.32 0 .5.07.56.32.32.24-.25.24-.4 0-.64m3.02-.14c-.28-.29-.44.11-.24.62.2.48.2.48.3.02.05-.27.03-.56-.06-.64m32.26.72c-.1-.14-.28-.26-.42-.26s-.25.12-.25.26.19.27.42.27.34-.12.25-.27m31.22 0c.09-.14.03-.26-.12-.26s-.28.12-.28.26.05.27.12.27.19-.12.28-.27m5.6-.72c-.06-.26-.12-.11-.13.33 0 .43.05.64.12.46.08-.17.08-.53.01-.79m-59.18.46a.27.27 0 0 0-.27-.27.3.3 0 0 0-.26.27c0 .14.12.26.26.26s.27-.12.27-.26m2.25 0c.09-.15.03-.27-.12-.27s-.28.12-.28.27c0 .14.05.26.12.26s.19-.12.28-.26m48.55.01c0-.13-.12-.32-.27-.4-.14-.1-.26.01-.26.24s.12.41.26.41.27-.1.27-.25m16.54-.01c.08-.15.03-.27-.12-.27-.16 0-.28.12-.28.27 0 .14.05.26.11.26.07 0 .2-.12.29-.26M66.8 149l-.26-1.3-.02 1.58c-.03 1.1.05 1.5.24 1.3q.29-.27.03-1.58m-2.08 1c-.07-.27.06-.68.29-.91.52-.52.53-.83.02-1.25-.22-.18-.4-.57-.4-.87s-.08-.46-.19-.35c-.27.27-.25 1.32.04 1.53.15.1.11.35-.1.6-.35.43-.18 1.73.23 1.73.13 0 .18-.22.11-.49m58.25.22q.13-.24-.11-.26c-.16 0-.28.11-.28.26q.01.24.11.26c.07 0 .2-.11.28-.26m-54.26-.16c.46-.18.58-.9.16-.9-.15 0-.27.13-.27.28s-.12.2-.26.12c-.15-.1-.27.02-.27.25 0 .46.05.48.64.25m7.04-.38c0-.14-.12-.25-.27-.25-.14 0-.26.18-.26.4 0 .24.12.35.26.26.15-.1.27-.28.27-.41m17.05-.01a.3.3 0 0 0-.4-.1.3.3 0 0 0-.1.4.3.3 0 0 0 .4.1.3.3 0 0 0 .1-.4m10.46.29a.3.3 0 0 0-.26-.27.27.27 0 0 0-.27.27c0 .14.12.26.27.26.14 0 .26-.12.26-.26m26.89-.46c-.27-.27-.5.13-.27.5.16.26.22.26.31 0 .07-.2.04-.41-.04-.5m12.27.46c0-.15-.18-.27-.41-.27s-.34.12-.25.27c.09.14.28.26.41.26.14 0 .25-.12.25-.26m-63.5-.53a.3.3 0 0 0-.26-.27.27.27 0 0 0-.27.27c0 .14.12.26.27.26.14 0 .26-.12.26-.26m2.91-.28c0-.14-.12-.25-.26-.25s-.27.18-.27.4c0 .24.12.35.27.26.14-.1.26-.28.26-.41m45.77.28c0-.15-.12-.27-.28-.27-.15 0-.2.12-.11.27.09.14.21.26.28.26.06 0 .11-.12.11-.26m8.06-.29c-.25-.4-.64-.28-.48.15.08.22.26.33.4.25a.3.3 0 0 0 .08-.4m15.23.43c0-.06-.12-.19-.27-.28-.14-.09-.26-.03-.26.12s.12.28.26.28.27-.05.27-.12m-6.4-.6a.8.8 0 0 0-.57-.56c-.42-.08-.43-.02-.13.46.42.67.82.73.7.1m1.8-.27c-.27-.27-.5.14-.28.5.17.27.23.27.32 0 .06-.19.04-.4-.04-.5m2.48.25a2 2 0 0 0-.39-1c-.35-.46-.36-.43-.13.42.14.5.26.95.26.99q.01.06.13.07c.07 0 .13-.22.13-.48m-75.93-.3c0-.28-.12-.59-.27-.68s-.26.13-.26.51.12.68.26.68.27-.23.27-.51m7.14.1c0-.23-.12-.34-.27-.25-.14.09-.26.28-.26.41 0 .14.12.25.26.25s.27-.18.27-.41m32.8-.13c0-.13-.17-.17-.39-.08-.22.08-.33.26-.24.39.17.28.64.05.64-.3m19.59.28c0-.15-.19-.27-.42-.27s-.33.12-.24.27c.09.14.27.26.4.26.14 0 .26-.12.26-.26m7.67-.28c0-.14-.12-.25-.26-.25s-.27.18-.27.41.12.34.27.25c.14-.1.26-.28.26-.41m-72-.48c-.38-.13-.58.14-.36.5.15.23.25.22.42-.05.13-.2.1-.4-.05-.45m79.14.21c0-.3-.11-.47-.25-.39-.14.09-.19.33-.1.55.2.55.35.48.35-.16m-64.78-.11c0-.14-.13-.3-.28-.35s-.29.1-.29.35.13.4.29.34.28-.2.28-.34m3.93.13a.27.27 0 0 0-.27-.27.3.3 0 0 0-.26.27c0 .14.12.26.26.26s.27-.12.27-.26m42.07-.12c0-.06-.12-.19-.27-.28-.14-.09-.26-.04-.26.12 0 .15.12.28.26.28s.27-.05.27-.12m-70.91-.8c0-.23-.12-.4-.26-.4s-.18.17-.1.4c.08.21.2.39.26.39s.1-.18.1-.4m1.06-.02c0-.23-.12-.34-.27-.25s-.2.28-.12.41c.23.37.39.3.39-.16m12.7 0c0-.23-.12-.34-.27-.25-.14.09-.26.27-.26.41s.12.25.26.25.27-.19.27-.41m37.21-.83c-.37-.37-.61.1-.36.7l.28.67.1-.62c.07-.34.06-.68-.02-.75m44.68.97c.09-.14.03-.26-.12-.26s-.28.12-.28.26.05.27.12.27.19-.12.28-.27m-85.33-.26a.27.27 0 0 0-.27-.27.3.3 0 0 0-.26.27c0 .14.12.26.26.26s.27-.12.27-.26m2.38-.15c0-.23-.12-.34-.26-.25s-.27.28-.27.41c0 .14.12.25.27.25.14 0 .26-.18.26-.4m7.94-.7c0-.11-.12-.2-.27-.2-.14 0-.26.1-.26.23 0 .14-.07.47-.16.73-.14.45-.11.44.27-.03.23-.28.42-.6.42-.72m11.37.85a.3.3 0 0 0-.26-.27.3.3 0 0 0-.26.27c0 .14.11.26.26.26s.26-.12.26-.26m46.84-.12c0-.2-.12-.45-.27-.54-.14-.1-.26.08-.26.38s.12.54.26.54.27-.17.27-.38m13.57-.15c-.08-.29-.24-.52-.35-.52-.12 0-.15.23-.07.52s.23.53.35.53.14-.23.07-.53m-63.05 0a.3.3 0 0 0-.27-.26.3.3 0 0 0-.26.26c0 .15.12.27.26.27s.27-.12.27-.27m14.68 0c.1-.14-.03-.26-.26-.26s-.36.12-.27.26c.1.15.21.27.27.27.05 0 .17-.12.26-.27m46.52-.06c-.22-.35-.26-.5-.31-1.13-.04-.44-.83-.55-.83-.11 0 .37.86 1.55 1.14 1.56.12 0 .12-.14 0-.32m-74.54-.93c-.29-.29-.49.17-.28.65.2.46.21.46.32 0 .06-.27.05-.56-.04-.65m32.79.73c.09-.15-.03-.26-.27-.26-.23 0-.35.11-.26.26q.15.24.26.26c.06 0 .18-.11.27-.26m5.95-.26a.27.27 0 0 0-.27-.27.3.3 0 0 0-.26.27c0 .14.12.26.26.26s.27-.12.27-.26m19.58-.14c0-.21-.05-.4-.1-.4s-.18.19-.26.4-.04.4.1.4.26-.18.26-.4m2.24.15c.08-.13.03-.32-.12-.4-.15-.1-.27.01-.27.24 0 .46.16.53.39.16m-68.35-.65c.07-.36-.07-.51-.5-.55-.43-.03-.6.1-.6.45 0 .28.11.43.25.35s.33-.02.42.13c.22.36.31.27.43-.38m13.59.37c.09-.14.04-.26-.12-.26-.15 0-.28.12-.28.26s.05.27.12.27.19-.12.28-.27m25.93 0c.09-.14.03-.26-.12-.26s-.28.12-.28.26.05.27.12.27.19-.12.28-.27m39.82-.15c0-.22-.12-.33-.27-.24s-.2.27-.12.4c.23.38.39.3.39-.16m-63.04-.53c-.25-.25-.76.15-.57.46q.16.27.45-.02c.16-.15.21-.35.12-.44m33.93.56c0-.27-.5-.4-.66-.15-.09.15.02.27.25.27s.41-.05.41-.12m27.52-.02c0-.08-.18-.5-.4-.93s-.4-.84-.4-.91c.02-.56-.04-.66-.41-.66-.36 0-.34.13.13.89.3.49.55 1.08.55 1.32s.12.43.26.43.27-.06.27-.14m-76.54-1.34c-.06-.07-.3-.05-.53.04-.37.14-.37.21.03.68.44.52.44.52.53-.04.05-.31.04-.62-.03-.68m3.33.42c.07-.29.03-.46-.1-.38-.14.08-.24.32-.24.53 0 .55.18.47.34-.15m39.87.27c0-.15-.12-.27-.28-.27-.15 0-.2.12-.11.27.08.14.21.26.28.26.06 0 .11-.12.11-.26m44.07-.47c-.45-.44-.46-.43-.16.16.18.34.4.54.48.46.09-.1-.05-.37-.32-.62m-84.9-.11q-.12-.31-.16.16c0 .28.05.43.14.35.09-.1.1-.32.02-.51m72.32.31a.3.3 0 0 0-.27-.26.3.3 0 0 0-.26.26c0 .15.12.27.26.27s.27-.12.27-.27m8.17-.42c-.38-.47-.57-.33-.35.25.1.24.28.36.42.28q.22-.17-.07-.53m-73 .16a.3.3 0 0 0-.26-.27.3.3 0 0 0-.26.27c0 .14.11.26.26.26s.26-.12.26-.26m36.78 0c0-.15-.12-.27-.28-.27-.15 0-.2.12-.12.27.1.14.22.26.28.26s.12-.12.12-.26m6.88.15c0-.07-.12-.2-.26-.28-.15-.1-.27-.04-.27.11 0 .16.12.28.27.28.14 0 .26-.05.26-.11m32.94-.15c.1-.15.04-.27-.12-.27-.15 0-.28.12-.28.27 0 .14.06.26.12.26.07 0 .2-.12.28-.26m-80.96-.27c.09-.14.04-.26-.12-.26-.15 0-.28.12-.28.26s.05.27.12.27.19-.12.28-.27m15.68-.42c-.26-.25-.76.16-.57.46q.16.28.45 0c.15-.16.2-.37.12-.46m49.54.14c0-.13-.18-.25-.4-.25-.4 0-.52.32-.23.61.22.22.63-.02.63-.36m1.06.3c0-.14-.12-.32-.27-.41-.14-.1-.26.02-.26.25 0 .22.12.4.26.4s.27-.1.27-.24m6.86-.58c-.34-.63-.78-.42-.6.28.08.3.29.45.5.37.28-.1.3-.27.1-.65m-76.98.3a.3.3 0 0 0-.26-.27.27.27 0 0 0-.27.27c0 .14.12.26.27.26.14 0 .26-.12.26-.26m66.15 0c0-.15-.13-.27-.28-.27s-.2.12-.12.27c.1.14.22.26.28.26s.12-.12.12-.26m14.02-.88v-.84l-.35.66c-.37.7-.3 1.43.11 1.17.13-.08.24-.52.24-.99m-48.95.61a.3.3 0 0 0-.26-.26.3.3 0 0 0-.27.26c0 .15.12.27.27.27.14 0 .26-.12.26-.27m8.47 0c0-.14-.05-.26-.12-.26s-.19.12-.28.26-.03.27.12.27.28-.12.28-.27m32.53-.14q.25.13.13-.2c-.14-.37-1.44-.31-1.44.07 0 .4.36.52.7.25.18-.16.46-.21.6-.12m-81.14-.65c-.13-.52-.55-.95-.72-.75-.05.05.02.36.14.68.28.74.77.8.58.07m5.48-.41c0-.36-.1-.65-.23-.65-.28 0-.6 1.06-.4 1.38.24.39.63-.06.63-.73m49.11.22c-.27-.27-.49.13-.27.5.17.26.23.26.32 0 .06-.2.04-.41-.05-.5m1.96.46c0-.15-.13-.27-.28-.27s-.2.12-.12.27c.09.14.22.26.28.26s.12-.12.12-.26m7.93.14c0-.06-.11-.19-.26-.28q-.24-.12-.26.12c0 .15.11.28.26.28q.24 0 .26-.12m30.26-.62c-.09-.32-.26-.58-.39-.58-.3 0-.3.18.05.83.36.67.54.53.34-.25m-78.4.06c0-.22-.13-.34-.27-.25s-.27.28-.27.42.12.25.27.25c.14 0 .26-.19.26-.42m7.66.17c0-.13.09-.46.19-.73.16-.42.12-.44-.27-.12-.49.4-.6 1.1-.18 1.1.14 0 .26-.11.26-.25m44.45-.02c0-.14-.12-.26-.28-.26-.15 0-.2.12-.11.26s.21.27.28.27c.06 0 .11-.12.11-.27m-18.52-.26a.3.3 0 0 0-.26-.27.27.27 0 0 0-.27.27c0 .14.12.26.27.26.14 0 .26-.12.26-.26m1.33 0c0-.15-.06-.27-.12-.27-.07 0-.2.12-.28.27-.1.14-.04.26.12.26.15 0 .28-.12.28-.26m.92 0c.1-.15-.03-.27-.26-.27s-.36.12-.27.27c.1.14.21.26.27.26.05 0 .17-.12.26-.26m7.8-.14c0-.21-.11-.4-.26-.4-.14 0-.26.19-.26.4s.12.4.26.4.27-.18.27-.4m10.22-.32c-.27-.27-.49.13-.27.5.17.26.23.26.32 0 .06-.2.04-.41-.05-.5m14.61-.84c-.99-1.18-1.29-1.24-.59-.12.74 1.18 1.28 1.75 1.38 1.44.05-.15-.3-.75-.79-1.32m7.04 1.06a3 3 0 0 0-.9-.43c-.6-.18-.63-.16-.3.23.2.24.45.37.57.3s.3 0 .4.15c.09.16.24.22.32.13s.05-.26-.09-.38m-69.83-.03c.09-.14-.02-.26-.25-.26s-.41.12-.41.26.11.27.25.27c.13 0 .32-.12.4-.27m-12.3-.26c0-.15-.06-.27-.12-.27s-.2.12-.28.27c-.1.14-.04.26.12.26.15 0 .28-.12.28-.26m35.39-.22c.06-.17-.14-.31-.45-.31-.55 0-.71.28-.37.62.25.25.7.08.82-.3m3.5.08c0-.21-.2-.4-.43-.4-.35 0-.37.08-.1.4.18.22.38.4.43.4s.1-.18.1-.4m-35.45-.28c0-.22-.12-.33-.27-.24-.14.09-.26.27-.26.4 0 .14.12.26.26.26s.27-.19.27-.42m23.44-.3c-.27-.27-.5.13-.27.49.17.27.23.27.32 0 .06-.18.04-.4-.05-.5m5.4.45c0-.14-.06-.26-.12-.26-.07 0-.2.12-.28.26-.1.15-.04.27.12.27.15 0 .28-.12.28-.27m45.96-.84q-.06-.84-.66-1.04c-.43-.16-.59-.12-.59.14 0 .2.19.43.41.52.23.09.34.29.24.44-.23.39.08 1.12.4.92.15-.1.23-.53.2-.98m-84.55.3c-.05-.2-.09-1-.08-1.77.01-.78-.1-1.4-.25-1.4q-.24.02-.14.23c.07.12-.04.55-.25.95-.43.83-.51 1.29-.12.68.2-.3.26-.2.26.41 0 .44-.14.96-.32 1.15-.27.27-.2.32.33.24q.65-.1.57-.48m1.34-.3c-.14-.56-.16-.56-.34-.07-.2.58-.06 1 .27.78.12-.07.16-.4.07-.71m6.29.58c0-.15-.13-.27-.28-.27s-.2.12-.12.27c.1.14.22.26.28.26s.12-.12.12-.26m8.47 0a.27.27 0 0 0-.27-.27.3.3 0 0 0-.26.27c0 .14.12.26.26.26s.27-.12.27-.26m47.1.15c0-.07-.13-.2-.27-.28-.15-.1-.27-.04-.27.11 0 .16.12.28.27.28.14 0 .26-.05.26-.11m-59.8-.75c-.01-.46-.07-.5-.26-.2-.13.2-.18.47-.1.59q.35.54.35-.39m24.72.04c-.23-.37-.65-.28-.65.15 0 .24.16.33.4.24.22-.08.33-.26.25-.39m8.08.3a.3.3 0 0 0-.26-.27.3.3 0 0 0-.27.26c0 .15.12.27.27.27.14 0 .26-.12.26-.27m36.78 0a.3.3 0 0 0-.26-.27.3.3 0 0 0-.27.26c0 .15.12.27.27.27.14 0 .26-.12.26-.27m-14.5-.6q-.31-.28-.32-.03c0 .35.32.66.5.49.07-.08-.01-.28-.18-.45m3.92.33c0-.15-.13-.27-.28-.27s-.2.12-.12.27c.1.14.22.26.28.26s.12-.12.12-.26m16.62-.02c-.06-.16-.21-.29-.35-.29s-.3.13-.35.29.1.28.35.28.4-.12.35-.28m-9.17-.38c0-.14-.13-.3-.29-.34-.16-.06-.28.1-.28.34s.12.4.28.35.29-.21.29-.35m7.28-.18q-.13-.31-.16.16c-.01.28.05.43.14.35.09-.1.1-.32.02-.51m-58.81-.52q-.17-.22-.53.06c-.2.17-.3.42-.21.55.09.15.3.12.52-.06.2-.17.3-.42.22-.55m71.47.06c-.1-.3-.3-.55-.44-.55q-.22.02-.15.2c.06.1.18.42.28.7.24.67.53.35.3-.35m-74.86-.21c-.27-.27-.49.13-.27.49.17.27.23.27.32 0 .06-.18.04-.4-.05-.5m35.3.47c0-.14-.12-.32-.27-.41-.14-.1-.26.02-.26.25 0 .22.12.4.26.4s.27-.1.27-.24m24.34.13c0-.06-.12-.19-.27-.28-.14-.09-.26-.03-.26.12s.12.28.26.28.27-.05.27-.12m1.59-.46c0-.43-.08-.5-.3-.29-.16.16-.21.42-.12.58q.42.67.42-.3m14.28-.08c-.18-.23-.4-.36-.46-.29-.14.15.55.94.7.8.06-.06-.05-.29-.24-.51m-89.1-.7c-.07-.27-.25-.58-.4-.67q-.27-.16-.1.29c.1.25.18.72.18 1.03q-.01.63.23.22c.13-.2.17-.59.1-.87m.78.5q-.3-.28-.31-.03c0 .15.08.35.17.45s.24.11.32.04c.07-.08 0-.28-.18-.45m19.8.05c0-.14-.18-.25-.4-.25-.41 0-.53.31-.23.61.21.21.63-.03.63-.36m57.28.28q.13-.24-.12-.26c-.15 0-.28.11-.28.26q0 .24.12.26c.06 0 .19-.11.28-.26m3.66-.42c-.08-.2-.23-.37-.34-.37-.1 0-.54-.3-.95-.65-1.08-.93-1.13-.63-.1.6.83.98 1.7 1.25 1.39.42m-17.29.17c0-.14-.12-.32-.26-.41-.15-.1-.27.02-.27.25 0 .22.12.41.27.41.14 0 .26-.11.26-.25m21.5-.17c.24-.24-.09-.92-.36-.75-.13.08-.24.31-.24.52 0 .4.32.51.6.23m-26-.37a.3.3 0 0 0-.26-.27.3.3 0 0 0-.26.27c0 .14.11.26.26.26s.26-.12.26-.26m18.61.06c.07-.1.05-.64-.05-1.18-.22-1.3-.79-.95-.63.39.12.92.4 1.26.68.8m-51.15-.33a.3.3 0 0 0-.26-.26.3.3 0 0 0-.27.26c0 .15.12.27.27.27.14 0 .26-.12.26-.27m34.68-1.14q-.29-.32-.28.38c0 .88.37 1.25.48.5.05-.33-.04-.72-.2-.88m-5.05.74c0-.21-.11-.4-.26-.4s-.26.19-.26.4.11.4.26.4.26-.18.26-.4m10.18-.15a4 4 0 0 0-1-.67l-.84-.43.77.82c.42.45.87.75 1 .67.12-.08.15-.25.07-.39m16.2-.64c.04-.51-.03-.92-.16-.92-.26 0-.56 1.6-.36 1.93.22.37.44-.06.51-1.01m-41.72.66a.3.3 0 0 0-.27-.26.3.3 0 0 0-.26.26c0 .15.12.27.26.27s.27-.12.27-.27m4.23 0c0-.14-.18-.26-.41-.26s-.34.12-.25.26.28.27.41.27c.14 0 .25-.12.25-.27m3.97 0c0-.14-.13-.26-.28-.26s-.2.12-.12.26c.1.15.22.27.28.27s.12-.12.12-.27m5.03-.26a.27.27 0 0 0-.27-.27.3.3 0 0 0-.26.27c0 .14.12.26.26.26s.27-.12.27-.26m15.87-.13a.4.4 0 0 0-.39-.4q-.36.01-.23.4c.08.21.26.4.39.4s.23-.19.23-.4m-47.62-.27c0-.22-.12-.4-.27-.4-.14 0-.26.18-.26.4s.12.4.26.4.27-.18.27-.4m11.9.13c0-.14-.1-.26-.24-.26s-.33.12-.42.26.02.27.25.27.41-.12.41-.27m54.04-.49c-.15-.1-.31-.46-.37-.8-.1-.74-.75-1.1-.75-.42 0 .53 1.15 2 1.29 1.64.05-.14-.02-.33-.17-.42m-40.8.23a.27.27 0 0 0-.27-.27.27.27 0 0 0-.27.27c0 .14.12.26.27.26.14 0 .26-.12.26-.26m33.3-.43c-.38-.46-.62-.28-.4.3.09.24.29.35.44.25q.3-.16-.03-.55m-83.31.31c0-.06-.12-.19-.27-.28-.14-.09-.26-.04-.26.12 0 .15.12.28.26.28s.27-.05.27-.12m16.93-.28c0-.22-.05-.4-.1-.4s-.18.18-.26.4-.04.4.1.4.26-.18.26-.4m60.23-.25c-.17-.44-.96-.57-.96-.16 0 .27.85.83 1.02.67.06-.06.03-.29-.06-.51m-75.27-.74c.32.06.4-.15.34-.92-.1-1.44-1.16-1.07-1.17.4 0 .34-.1.55-.23.48s-.17.16-.1.53l.13.67.31-.62c.17-.33.5-.58.72-.54m31.18.86a.3.3 0 0 0-.26-.26.3.3 0 0 0-.27.26c0 .15.12.26.27.26.14 0 .26-.11.26-.26m37.3-.13c-.18-.22-.42-.4-.55-.4-.12 0-.15.18-.07.4.09.22.33.4.55.4.33 0 .34-.08.08-.4m8.47-.27c.2-.36.27-.75.16-.86-.23-.23-.95.66-.95 1.18 0 .56.41.4.8-.32m3.7.4a.3.3 0 0 0-.26-.26.3.3 0 0 0-.26.26c0 .15.12.26.26.26s.27-.11.27-.26m-61.16-.51q.08-.32-.23-.23c-.2.06-.4.27-.47.46q-.07.32.24.23c.19-.06.4-.27.46-.46m18.44.25c.09-.15.03-.27-.12-.27s-.28.12-.28.27c0 .14.05.26.12.26s.19-.12.28-.26m12.86-.61q-.31-.34-.3.11c0 .53.36.88.5.49.05-.17-.04-.44-.2-.6m20.34.75c0-.06-.12-.19-.26-.28s-.27-.03-.27.12.12.28.27.28c.14 0 .26-.05.26-.12m2.27-1.14c-.3-.3-.46.18-.25.78l.21.61.1-.62c.05-.34.03-.68-.06-.77m-40.63.73a.3.3 0 0 0-.27-.26.3.3 0 0 0-.26.26c0 .15.12.27.26.27s.27-.12.27-.27m46.26-.73c.5-.98.5-1.65 0-1.65-.14 0-.23.2-.2.46s-.08.8-.25 1.21c-.34.82-.36.98-.18.98.07 0 .35-.45.63-1m-35.68.47a.3.3 0 0 0-.26-.27.27.27 0 0 0-.27.27c0 .14.12.26.27.26.14 0 .26-.12.26-.26m5.3 0c0-.15-.13-.27-.29-.27s-.2.12-.11.27c.09.14.21.26.28.26.06 0 .11-.12.11-.26m4.77-.08c-.03-.31-.4-.25-.5.09-.06.17.03.27.2.21s.32-.2.3-.3m3.16-.19a.3.3 0 0 0-.26-.26.3.3 0 0 0-.27.26c0 .15.12.27.27.27.14 0 .26-.12.26-.27m10.85.05c0-.12-.18-.44-.4-.73-.37-.5-.38-.5-.39.04 0 .3.07.63.17.73.24.24.62.22.62-.04m-26.85-.33c.31-.5-.14-.63-.6-.17-.41.42-.41.45 0 .45.23 0 .5-.13.6-.28m28.96.02c0-.38-1.25-1.13-1.64-.99-.2.07-.05.26.39.47.4.18.73.44.73.56s.11.22.26.22q.24-.02.26-.26m-49.08-.27c.1-.14.04-.26-.11-.26-.16 0-.28.12-.28.26s.05.27.11.27c.07 0 .2-.12.28-.27m6.88 0c.1-.14-.02-.26-.25-.26-.22 0-.4.12-.4.26s.1.27.24.27.32-.12.41-.27m6.49 0c0-.14-.06-.26-.12-.26-.07 0-.2.12-.28.26-.1.15-.04.27.12.27.15 0 .28-.12.28-.27m30.16.15c0-.06-.12-.19-.27-.28-.14-.09-.26-.04-.26.12 0 .15.12.28.26.28s.27-.06.27-.12m-3.18-.3c0-.33-1.1-2.27-1.23-2.15-.07.08.06.43.29.78s.34.71.26.8c-.2.2.1.72.43.72q.23-.01.25-.14m4.5-.1c0-.3-.51-.64-.7-.45-.2.19.14.7.45.7.14 0 .25-.11.25-.25m5.34-.33q-.3-.3-.31-.04c0 .35.31.66.49.49.07-.08 0-.28-.18-.45m3.02-.97c-.38-.38-.69-.56-.69-.4s.24.5.53.76c.3.27.55.67.56.9q.03.48.16-.07c.08-.3-.13-.76-.56-1.19m4.08 1.44c0-.07-.12-.2-.27-.28-.14-.1-.26-.04-.26.11 0 .16.12.28.26.28s.27-.05.27-.11m-30.75-.44c-.05-.15-.2-.28-.34-.28s-.3.13-.35.28.1.29.35.29.4-.13.34-.29m25.45-.1c0-.06-.11-.18-.26-.27q-.24-.13-.26.11c0 .16.11.28.26.28q.24-.01.26-.11m-53.7-.4a.27.27 0 0 0-.27-.27.3.3 0 0 0-.26.26c0 .15.11.27.26.27s.26-.12.26-.27m25.66 0c0-.15-.05-.27-.12-.27s-.19.12-.28.26-.04.27.12.27c.15 0 .28-.12.28-.27m6.48 0c.1-.15-.03-.27-.26-.27s-.36.12-.27.26c.1.15.21.27.27.27.05 0 .17-.12.26-.27m4.4-.35c-.35-.34-.69-.08-.44.33.1.16.3.21.45.12q.27-.16-.02-.45m20.34.34c0-.14.19-.26.42-.26s.37-.15.3-.33c-.06-.18-.4-.3-.74-.24-.8.12-.82.14-.62.66.18.48.64.6.64.17m-54.22-.33c-.03-.32-.4-.26-.5.08-.07.18.03.27.2.21.18-.05.31-.19.3-.3m36.5.22c0-.07-.13-.2-.27-.28-.15-.1-.27-.04-.27.11 0 .16.12.28.27.28.14 0 .26-.05.26-.11m22.6-.48c-.47-1.54-1.72-3.93-1.96-3.78-.16.1-.27-.1-.27-.46 0-.35-.26-.87-.58-1.14-.56-.5-.57-.5-.35.02.12.3.23.9.24 1.37.02.76.42 1.64.42.92 0-.17.12-.3.26-.3.35 0 1.12 1.86.95 2.29-.07.19.02.43.21.54s.42.42.51.67c.26.7.79.58.57-.13m-9.56-.4c-1.06-.92-3.3-2.55-3.65-2.67-.37-.13 1.57 1.5 3.02 2.54 1.46 1.04 1.78 1.1.63.12m7.57.04c-.47-.56-.83-.44-.5.17.15.3.4.46.55.37q.25-.16-.05-.54m-53.43.01c0-.22-.11-.34-.26-.25s-.26.28-.26.42.11.24.26.24.26-.18.26-.4m13.23.02c0-.22-.12-.4-.26-.4s-.27.18-.27.4.12.4.27.4c.14 0 .26-.18.26-.4m-2.64-.13a.27.27 0 0 0-.27-.27.3.3 0 0 0-.26.27c0 .14.12.26.26.26s.27-.12.27-.26m12.17 0c0-.15-.13-.27-.28-.27s-.2.12-.12.27c.1.14.22.26.28.26s.12-.12.12-.26m6.48 0c-.09-.15-.27-.27-.41-.27s-.25.12-.25.27c0 .14.19.26.41.26.23 0 .34-.12.25-.26m-8.86-.27a.3.3 0 0 0-.27-.26.3.3 0 0 0-.26.26c0 .15.12.27.26.27s.27-.12.27-.27m11.2-.53c-.37-.74-1.11-1.18-.77-.46.08.18.22.54.31.8.1.25.32.46.51.46.28 0 .27-.17-.05-.8m17.22-.74c-.15-.37-.22-.34-.37.21-.1.38-.06.83.1 1.04.24.3.3.27.38-.22.05-.32 0-.8-.1-1.03m-64.8 1c.09-.14.03-.26-.12-.26s-.28.12-.28.27c0 .14.05.26.12.26s.19-.12.28-.26m21.83 0c0-.14-.18-.26-.4-.26s-.4.12-.4.27c0 .14.18.26.4.26s.4-.12.4-.26m36.24-.12c0-.07-.24-.25-.53-.4-.53-.29-1.17-.14-.95.22.13.2 1.48.37 1.48.18m-17.2-.4c0-.15-.17-.27-.38-.27s-.45.12-.54.27c-.1.14.08.26.38.26s.55-.12.55-.26m9.3-.2c-.46-.83-1.08-1.53-1.08-1.23-.01.3.98 1.7 1.2 1.7.07 0 .01-.22-.13-.47m12.88-.11c-.04-.32-.22-.62-.38-.67-.18-.07-.25.15-.17.57.16.82.67.9.55.1m5.14.24c.15-.41-.04-1-.32-1-.12 0-.2.3-.18.67.04.7.3.88.5.33m-14.88-.2a.3.3 0 0 0-.26-.26.3.3 0 0 0-.27.26c0 .15.12.27.27.27.14 0 .26-.12.26-.27m2.38.02c0-.31-.51-.65-.7-.46-.2.2.14.7.45.7.14 0 .25-.1.25-.24m11.36-.43c-.17-.2-.42-.3-.55-.22-.15.09-.12.3.06.52.17.2.42.3.55.22.15-.1.12-.3-.06-.52m-52.9.15a.3.3 0 0 0-.26-.27.27.27 0 0 0-.27.27c0 .14.12.26.27.26.14 0 .26-.12.26-.26m2.65 0a.27.27 0 0 0-.27-.27.3.3 0 0 0-.26.27c0 .14.12.26.26.26s.27-.12.27-.26m17.99 0c0-.15-.17-.27-.38-.27s-.46.12-.55.27c-.09.14.09.26.39.26s.54-.12.54-.26m34.4.15c0-.07-.12-.2-.27-.28-.14-.1-.26-.04-.26.11 0 .16.12.28.26.28s.27-.05.27-.11m-49.57-.82c.24-.53.23-.65-.06-.65-.32 0-.91.76-.91 1.17 0 .43.7.05.97-.52m22.84.42c0-.36-.48-.6-.8-.41-.14.1-.2.28-.11.41.2.32.91.32.91 0m19.32-.39c0-.2-2.18-1.24-2.31-1.1-.17.16 1.54 1.2 1.98 1.2.18 0 .33-.04.33-.1m-29.86-.75c-.3-.3-.91-.01-.7.34.08.13.33.16.55.08q.4-.16.15-.42m21 .33c-.1-.15-.29-.26-.43-.26q-.24.02-.1.26c.08.15.28.26.42.26q.24-.02.1-.26m-15.1-.55a.3.3 0 0 0-.4-.1.3.3 0 0 0-.1.4.3.3 0 0 0 .4.1.3.3 0 0 0 .1-.4m-18.9.02c0-.14-.12-.26-.25-.26-.14 0-.33.12-.42.26s.03.27.25.27c.23 0 .41-.12.41-.27m8.46.15c0-.28-.5-.4-.66-.15-.09.14.02.27.25.27s.41-.06.41-.12m19.21-.6c-.27-.28-.49.13-.27.49.17.27.23.27.32 0 .06-.19.04-.4-.05-.5m16.61.3c.26-.68.2-.9-.26-.9-.36 0-.37.06-.1.39q.33.4.03.4c-.17 0-.3.12-.3.26 0 .42.46.3.63-.15m-40.18-.38c.09-.14-.03-.26-.27-.26-.23 0-.35.12-.26.26s.2.27.26.27.18-.12.27-.27m21.56 0c0-.14-.18-.26-.4-.26s-.4.12-.4.26.18.27.4.27.4-.12.4-.27m6.88.15c0-.06-.12-.2-.27-.28-.14-.1-.26-.04-.26.12 0 .15.12.28.26.28s.27-.06.27-.12m3.7-.14c0-.14-.24-.38-.53-.54-.58-.31-.7-.02-.2.48.37.38.73.41.73.06m7.15 0a.27.27 0 0 0-.27-.27.3.3 0 0 0-.26.26c0 .15.12.27.26.27s.27-.12.27-.27m4.89-1.5-.76-2.72q-.31-1.16-.9-1.38c-.44-.16-.59-.11-.59.18 0 .22.23.49.52.6.28.1.49.24.46.31-.12.33 1.4 4.85 1.58 4.68.07-.07-.07-.82-.31-1.67m-65.62.96c.1-.14.04-.26-.11-.26-.16 0-.28.12-.28.26s.05.27.11.27c.07 0 .2-.12.28-.27m13.63 0c0-.14-.05-.26-.12-.26s-.19.12-.28.26-.03.27.12.27.28-.12.28-.27m20.1 0a.3.3 0 0 0-.26-.26.3.3 0 0 0-.26.26c0 .15.12.27.26.27s.27-.12.27-.27m12.97.15c0-.06-.12-.19-.26-.28s-.27-.04-.27.12c0 .15.12.28.27.28.14 0 .26-.06.26-.12m9.26-.31c0-.4-.25-.46-.9-.2-.64.24-.5.56.24.56.39 0 .66-.15.66-.36m7.63.14c-.06-.15-.21-.28-.35-.28s-.3.13-.35.28.1.29.35.29.4-.13.35-.29m-4.45-.24a.27.27 0 0 0-.27-.27.3.3 0 0 0-.26.27c0 .14.12.26.26.26s.27-.12.27-.26m-19.58-.23c0-.12-.26-.45-.57-.72-.32-.28-.52-.39-.44-.24.07.14.2.47.3.73.17.46.71.65.71.23m11.11-.02c0-.31-.51-.65-.7-.46-.2.2.14.7.45.7q.23-.02.25-.24m14.03-.1c0-.48-.72-1.4-.93-1.2-.1.1.03.49.27.86.5.77.66.85.66.34m-52.4-.45c0-.14-.04-.26-.1-.26-.07 0-.2.12-.29.26s-.04.27.12.27c.15 0 .28-.12.28-.27m33.61-.13c-.18-.21-.44-.32-.59-.23q-.23.17.1.4c.57.35.85.27.5-.17m-19.05-.13c0-.15-.19-.26-.41-.26q-.37.02-.25.26c.09.15.27.26.41.26q.23-.02.25-.26m4.76-.13q-.01-.4-.71-.4c-.68 0-.7.02-.2.39.66.5.91.5.91 0m28.75-.26c-.12-.3-.42-.39-1.1-.31-.52.05-1 0-1.08-.13s-.26-.17-.4-.08c-.5.3.08.65 1.08.65.57 0 1.11.12 1.2.28.26.4.49.08.3-.41m-9.17.14c0-.31-.51-.65-.7-.46-.2.2.14.71.45.71.14 0 .25-.11.25-.25m6.09-.15a.4.4 0 0 0-.4-.4c-.69 0-.47.53.33.78.04.01.07-.16.07-.38m6.17-.98c.51.13.53.1.21-.3-.49-.6-.62-.56-1.57.35-.73.7-.77.81-.38 1.03.35.2.52.1.8-.49.28-.57.5-.7.94-.59m-19.78.7c-.65-.48-1.21-.49-1.21-.02 0 .22.33.36.86.38.8.02.83 0 .35-.36m10.53.02a.7.7 0 0 0-.56-.4c-.32 0-.34.08-.07.4.18.22.43.4.56.4.12 0 .15-.18.07-.4m-24.7.03c0-.06-.18-.18-.4-.26s-.4-.04-.4.1.18.26.4.26.4-.05.4-.1m11.64-.02c0-.06-.12-.19-.27-.28-.14-.09-.26-.03-.26.12s.12.28.26.28.27-.05.27-.12m6.54-.21c-.66-1.67-1.17-2.58-1.45-2.58-.18 0-.33.12-.33.26s.12.27.27.27c.32 0 .87 1.25.84 1.92-.01.25.17.46.39.46s.35-.15.28-.33m-27.44-.2c0-.14-.18-.26-.4-.26s-.4.12-.4.26.18.27.4.27.4-.12.4-.27m14.81-.7c0-.47-.38-.46-.78.03-.44.52-.1 1.07.4.65.21-.17.38-.47.38-.67m20.24.44c-.09-.15-.27-.27-.41-.27s-.25.12-.25.27c0 .14.19.26.41.26.23 0 .34-.12.25-.26m18.83-.15c.09-.22.07-.49-.05-.6-.1-.1-.25-.03-.32.15-.06.19-.22.27-.36.19-.27-.18-.33.23-.06.5.3.29.62.2.79-.24m-36.25-.6c-.24-.27-.44-.63-.44-.82s-.15-.26-.33-.18-.54.23-.8.32c-.76.28-.5.63.34.46.62-.12.8-.06.8.27 0 .24.19.43.43.43.4 0 .4-.03 0-.48m6.72-.29c-.32-.59-.68-.7-.93-.3-.08.13.1.32.38.41.3.1.54.3.54.46q.01.25.15.14c.09-.09.02-.4-.14-.7M97 126c-.17-.45-.66-.4-.82.1-.06.17.14.3.44.3q.56.02.38-.4m9.79 0c.02-.14-.31-.29-.75-.33-.76-.06-.77-.05-.27.34.54.43.94.43 1.02 0m8.45-.19c-.2-.78-.58-1.25-1.02-1.25-.49 0-.18.8.52 1.38.31.25.58.46.6.46s-.02-.26-.1-.59m20.5-.26c-.12-.37-1.3-1.04-1.49-.85-.06.06.1.36.36.65.53.58 1.3.72 1.13.2m-35.72-.46c-.76-.6-1.36-.7-1.18-.2.06.18.3.3.53.25s.49.05.58.2c.1.15.3.27.45.27s-.01-.23-.38-.52m29.17.16c0-.56-.68-.7-1.23-.27-.46.38-.46.39.09.24.31-.09.64-.03.74.12.23.38.4.34.4-.1m.8.1c0-.15-.13-.26-.28-.26q-.25.02-.12.26.16.24.28.26.1-.02.12-.26m2.84-.45c-.4-.4-.8-.62-.92-.5-.22.22.87 1.21 1.34 1.21.16 0-.03-.32-.42-.7m-37.5.19a.27.27 0 0 0-.27-.27.3.3 0 0 0-.26.27c0 .14.12.26.26.26s.27-.12.27-.26m21.48-.59a.5.5 0 0 0-.6-.07c-.24.15-.2.3.17.57.56.4.91-.01.43-.5m19.68-.56c-.38-.49-.69-1-.7-1.13 0-.37-1.86-2.29-2.03-2.11-.09.08.2.6.64 1.14.43.55.94 1.3 1.13 1.66.49.94 1.44 1.93 1.55 1.6.05-.14-.22-.67-.6-1.16m-29 .88c0-.14-.18-.26-.4-.26s-.35.12-.26.26c.1.15.28.27.42.27s.25-.12.25-.27m23.26-.63c-.18-.38-.48-.7-.67-.7-.5 0-.45.16.24.87.73.77.83.73.43-.17m-17.17.37c0-.15-.11-.27-.25-.27-.13 0-.32.12-.41.27-.09.14.02.26.25.26s.41-.12.41-.26m33.17-.14c-.16-.42-.62-.55-.62-.17 0 .28.28.57.56.57.12 0 .14-.18.06-.4m2.18-.59c-.29-.28-.44.11-.24.62.19.48.2.48.3.02.05-.27.02-.55-.06-.64m-24.77.45c0-.31-.74-.65-.96-.44-.23.24.16.72.58.72.21 0 .38-.13.38-.28m-19.12-.15c-.08-.09-.31-.1-.5-.02q-.31.14.16.16c.27.01.43-.05.34-.14m34.31-.37a3 3 0 0 0-1.15-.43c-1.16-.23-.88.33.33.65q1.4.38.82-.22m-36.7-.46c-.34-.34-.51-.37-.75-.13s-.17.37.33.55c.82.31.99.15.42-.42m7.76.23c0-.3-.77-.94-.94-.77-.24.24.2 1 .57 1 .2 0 .37-.1.37-.23m10.05-.03c0-.15-.36-.27-.8-.27-.43 0-.79.12-.79.27 0 .14.36.26.8.26.43 0 .8-.12.8-.26m26.97-1.16q-.37-.36-.15.19c.1.26.18.68.2.92.02.25.1.16.16-.18.06-.35-.03-.76-.2-.93m-20.62.9a.3.3 0 0 0-.26-.27.3.3 0 0 0-.27.26c0 .15.12.27.27.27.14 0 .26-.12.26-.27m-9.79-.27c0-.15-.18-.27-.4-.27-.21 0-.4.12-.4.27 0 .14.19.26.4.26s.4-.12.4-.26m17.07-.27c-.17-.84-.39-1.05-1.08-1.05-.83 0-.83.47 0 .68.35.08.7.32.78.53.22.56.41.45.3-.16m7.48.02c-.17-.29-.36-.48-.4-.44-.16.16.25.95.49.95.13 0 .1-.23-.09-.51m-34.07.02c0-.25-2.93-.9-3.13-.7q-.4.38 1.28.54c.62.06 1.2.18 1.27.25.21.22.58.16.58-.09m23.01.11c0-.06-.11-.19-.26-.28q-.24-.13-.26.12c0 .15.11.28.26.28q.24 0 .26-.12m-15.67-.6c.06-.2-.12-.34-.43-.34-.58 0-.92.35-.64.63.27.27.94.08 1.07-.3m-17.93-.08c0-.14-.18-.26-.4-.26-.21 0-.4.12-.4.26s.19.27.4.27.4-.12.4-.27m12.55-.35c-.1-.24-.27-.44-.4-.44-.37 0-.29.73.09.87.45.16.5.08.3-.43m7.3.22a.4.4 0 0 0-.4-.4c-.69 0-.47.53.33.78.04.01.07-.16.07-.38m5.62-.42c-.13-.5-.17-.51-.57-.12-.37.37-.37.46-.04.67.53.33.78.1.61-.55m9.66.07q-.08-.45.46-.4c.51.05.51.04.03-.31-.44-.32-.55-.3-.97.21-.33.42-.4.68-.2.92.35.42.78.16.68-.42m6.41.38c0-.48-.7-1.04-1.03-.83-.17.1-.1.35.18.66q.84.9.85.17m5.3.25c0-.06-.13-.19-.27-.28s-.27-.04-.27.12c0 .15.12.28.27.28.14 0 .26-.05.26-.12m-31.47-1c-.16-.79-.27-.87-1.22-.93l-1.05-.07.86.39q.85.38.86.92c0 .3.16.54.36.54.27 0 .32-.22.2-.86m7.92.59c0-.15-.13-.26-.28-.26q-.25.02-.12.26c.09.15.22.26.28.26q.1-.02.12-.26m6.77-.46c-.27-.27-.49.14-.27.5.17.27.23.27.32 0 .06-.19.04-.41-.05-.5m-40.98.3c-.08-.09-.31-.1-.5-.02q-.31.13.16.16c.27.01.43-.05.34-.14m55.24-.1c.09-.15.04-.27-.12-.27-.15 0-.28.12-.28.27 0 .14.06.26.12.26s.2-.12.28-.26m5.6-.39c-.03-.37-.14-.55-.28-.41-.13.13-.16.42-.07.65.23.6.39.5.34-.24m-29.02.27c0-.07-.11-.2-.26-.28q-.24-.13-.26.12c0 .15.11.28.26.28q.24-.01.26-.12m7.17-1.17c-.53-1.03-1.26-1.8-1.49-1.57-.07.07.11.43.4.8s.54.92.54 1.22.15.58.33.65q.97.36.22-1.1m11.62 1.04c0-.32-.52-.65-.7-.46-.2.19.14.7.45.7.14 0 .25-.1.25-.24m-16.23-.46c-.1-.1-.05-.32.1-.5.3-.36-.15-.85-.47-.53-.4.38-.32 1.2.11 1.2.24 0 .36-.07.26-.17m8.61-.45c-.09-.5.24-.57.66-.14q.29.3.46 0c.1-.16.03-.3-.16-.32-1.42-.13-1.92-.26-2.11-.55q-.23-.38-.22.16c0 .57.78 1.48 1.19 1.37.14-.05.22-.28.18-.52m15.7-.32c-.09-.39-.23-.64-.3-.57s-.05.45.04.84c.1.38.24.64.31.57s.06-.45-.04-.84m-41.15.57c0-.07-.12-.2-.27-.29-.14-.09-.26-.03-.26.12 0 .16.12.28.26.28s.27-.05.27-.11m4.86-.29c-.17-.42-1.04-.54-1.27-.16-.2.33.12.56.8.56q.64.02.47-.4m32.76-.18q-.31-.3-.32-.04c0 .35.32.66.5.49.07-.08-.01-.28-.18-.45m-19.1.08c0-.33-.78-.93-.97-.73-.2.19.4.97.74.97.12 0 .23-.1.23-.24m-28.05-.3c0-.14-.12-.26-.28-.26-.15 0-.2.12-.11.27.09.14.21.26.28.26.06 0 .11-.12.11-.26m38.53-.4c-.09-.23-.28-.34-.44-.25s-.45.03-.66-.15q-.38-.3-.39-.03c0 .27 1.36 1.09 1.56.93.05-.04.02-.26-.07-.5m-16.3.14c0-.35-.76-.65-1-.41-.1.1 0 .29.21.42q.78.49.79-.01m-10.66-.42c-.09-.09-.31-.1-.5-.02q-.32.13.16.16c.27 0 .43-.05.34-.14m13.04-.1c0-.4-.5-.58-1.06-.4-.79.25-.64.58.26.6.44.01.8-.08.8-.2m8.73.13c0-.18-2.03-1.2-2.39-1.2-.5 0 .01.53.89.92.87.38 1.5.5 1.5.28m2.38-.28c0-.23-.12-.34-.27-.25s-.2.28-.11.41c.22.37.38.3.38-.16m-28.57.03c0-.28-.51-.4-.66-.15-.1.14.02.26.24.26.23 0 .42-.05.42-.11m33.33-.15c0-.15-.18-.26-.4-.26q-.38.02-.26.26c.1.15.28.26.41.26.14 0 .25-.11.25-.26m8.2 0c0-.13-.26-.39-.59-.56-.6-.31-.6-.3-.1.26.57.63.7.68.7.3m-36.77-.25c0-.31-.52-.65-.7-.46-.2.2.14.7.45.7q.23-.01.25-.24m4.23.01c0-.3-.69-.57-.9-.36-.32.32-.14.6.37.6.3 0 .53-.1.53-.24m3.18-.03c0-.14-.13-.26-.28-.26s-.21.12-.12.26.22.27.28.27.12-.12.12-.27m6.88 0c0-.14-.19-.26-.42-.26s-.34.12-.25.26.28.27.42.27.25-.12.25-.27m-2.91-.26c0-.15-.25-.26-.55-.26s-.47.11-.38.26.33.26.54.26.39-.11.39-.26m5.02-.41c0-.46.57-.5 1-.07.18.17.4.22.52.11s0-.35-.26-.54c-.52-.38-1.74-.23-2.25.28-.27.27-.25.38.12.6.54.3.87.15.87-.38m-24.34.15c0-.15-.12-.27-.28-.27-.15 0-.2.12-.12.27.1.14.22.26.28.26s.12-.12.12-.26m43.13 0a.27.27 0 0 0-.27-.27.3.3 0 0 0-.26.27c0 .14.12.26.26.26s.27-.12.27-.26m-12.04-.86c0-.64-.2-1.02-.78-1.46-1.01-.77-1.25-.5-.31.37.9.83.71 1.13-.3.5-.66-.44-.65-.4.18.48.5.53.98.97 1.07.97.08 0 .14-.4.14-.86m-38.76.1c0-.1-.3-.21-.66-.24-.75-.06-.91.37-.2.53.51.12.86 0 .86-.29m23.2-.22c-.3-.31-.58-.34-1.38-.12-.64.18-1.16.19-1.47.03-.66-.35-1.23-.34-.87.02.3.3 3.51.76 3.9.57.12-.06.04-.3-.17-.5m-11.82.18a.3.3 0 0 0-.27-.26.3.3 0 0 0-.26.26c0 .15.12.27.26.27s.27-.12.27-.27m17.23-.33c-.14-.15-.48-.18-.75-.07-.45.18-.45.2.05.4.64.24 1.08.04.7-.33m-15.91.07c0-.15-.05-.27-.12-.27s-.19.12-.28.27c-.09.14-.04.26.12.26.15 0 .28-.12.28-.26m1.85 0c0-.15-.19-.27-.41-.27-.23 0-.34.12-.25.27.09.14.27.26.41.26s.25-.12.25-.26m2.38 0a.3.3 0 0 0-.26-.27.27.27 0 0 0-.27.27c0 .14.12.26.27.26.14 0 .26-.12.26-.26m8.2 0c0-.15-.24-.27-.54-.27s-.47.12-.38.27c.09.14.33.26.54.26s.38-.12.38-.26m1.06 0a.3.3 0 0 0-.26-.27.27.27 0 0 0-.27.27c0 .14.12.26.27.26.14 0 .26-.12.26-.26m23.29 0c0-.15-.13-.27-.28-.27s-.21.12-.12.27c.09.14.21.26.28.26.06 0 .12-.12.12-.26m-42.87-.27c0-.14-.12-.26-.28-.26-.15 0-.2.12-.11.26s.21.27.28.27c.06 0 .11-.12.11-.27m29.64.15c0-.2-1.56-.9-2.42-1.08-1.29-.28-.68.33.78.78 1.37.42 1.64.47 1.64.3m5.02-.12c0-.13-.18-.3-.4-.39-.4-.15-.54.13-.21.45.25.25.61.22.61-.06m-31.88-.3c-.09-.14-.28-.26-.43-.26s-.19.12-.1.27c.1.14.28.26.43.26s.2-.12.1-.26m8.86-.52c0-.15-.14-.27-.33-.28l-1.19-.1c-.84-.09-1.17.2-.53.47.6.24 2.05.18 2.05-.1m12.41-.22c.23-.42.17-.46-.52-.36-.86.12-1.02.47-.31.66l.52.15c.03.02.17-.18.31-.45m5.85.4c0-.04-.39-.43-.86-.86l-.86-.78.78.86c.72.8.94.99.94.78m-14.79-.53c.7 0 1.2-.11 1.13-.23-.3-.48-3.54-.15-3.54.36 0 .14.26.17.57.07.32-.1 1.14-.19 1.84-.2m3.94.1c0-.13-.4-.49-.9-.8-.49-.3-.95-.78-1.03-1.07-.14-.53-.98-.76-.98-.26 0 .14-.27.27-.6.27-.58 0-.58.01-.06.41.48.36.54.36.62 0 .12-.62.33-.52 1.4.64.92 1.01 1.55 1.34 1.55.82m2.32-.34c-.1-.3-1.8-.81-2-.6-.13.12 1.33.86 1.76.9.19.01.3-.12.24-.3m-15.67-.22c.25-.4-.04-.61-.54-.42-.24.1-.35.29-.26.43.21.35.58.34.8-.01m21.76-.24c-.36-.58-.98-.9-1.24-.65-.17.17.95 1.17 1.33 1.17.13 0 .1-.24-.09-.52m1.8-.66c-.44-.7-1.06-.87-1.34-.4-.1.14.07.26.37.26s.67.25.83.55.36.48.44.4-.05-.44-.3-.81m-20.06.33c-.06-.17-.45-.4-.88-.52l-.78-.2.66.51c.76.6 1.16.68 1 .21m26 .06c0-.15-.13-.27-.29-.27s-.2.12-.11.27c.09.14.21.26.28.26.06 0 .11-.12.11-.26m-21.55-.53c.2 0 .38-.12.38-.26s-.33-.24-.73-.22-1.06-.05-1.46-.17c-.6-.17-.7-.13-.57.2.16.43 1.03.71 1.65.54.2-.05.52-.1.73-.1m10.41-.35c-.35-.15-1.21-.53-1.91-.87l-1.28-.6.08.57c.07.43.33.62 1.01.75.51.09 1.23.28 1.6.43.35.15.76.2.9.12s-.04-.26-.4-.4m8.75.35c0-.15-.12-.27-.28-.27-.15 0-.2.12-.12.27.1.14.22.26.28.26s.12-.12.12-.26m-25.4-.27c0-.14-.18-.26-.41-.26s-.34.12-.25.26.28.27.41.27c.14 0 .25-.12.25-.27m11.21-.9c-.42-.57-1.15-.94-1.15-.57 0 .06-.08.32-.18.57-.14.36-.08.43.26.3q.44-.16.73.38.3.55.56.27.28-.26-.22-.94m2.02.64c0-.15-.3-.27-.68-.27s-.6.12-.51.27c.09.14.4.26.68.26s.51-.12.51-.26m5.03-.2c0-.23-1.28-.86-1.75-.86-.17 0-.38-.18-.47-.4s-.4-.4-.71-.4a.7.7 0 0 1-.7-.52c-.08-.3-.25-.53-.39-.53s-.16.14-.05.31-.26-.03-.81-.45a3.4 3.4 0 0 0-2.02-.8c-1.17-.02-1.14.29.05.55a9 9 0 0 1 3.1 1.64c.19.18.5.33.7.33s.53.15.72.34c.9.82 2.33 1.3 2.33.79m1.19-.07c-.1-.14-.34-.26-.56-.26s-.33.12-.24.26.35.27.56.27.33-.12.24-.27m-21.98-.23c.08-.13-.03-.3-.25-.4q-.38-.12-.4.24c0 .43.42.53.65.16m5.75-.36c-.28-.28-.84-.06-.84.32 0 .12.25.16.55.08q.54-.15.29-.4m-2.16-.2c0-.15-.19-.27-.41-.27-.23 0-.34.12-.25.27.09.14.27.26.41.26s.25-.12.25-.26m7.77-.14a.42.42 0 0 0-.25-.56c-.51-.2-.75.04-.55.56s.6.52.8 0m3.34.14a.26.26 0 0 0-.25-.27c-.15 0-.44-.32-.66-.72-.21-.4-.4-.63-.4-.5-.03.56-.8-.5-.8-1.08 0-.48-.12-.62-.4-.51-.23.09-.5-.07-.68-.4-.16-.3-.36-.46-.45-.38-.21.22-.25 1.46-.04 1.33.27-.17 1.33 1.1 1.25 1.5q-.06.36.71.46c.44.05.9.25 1 .46.25.43.72.5.72.1m-6.35-.27a.3.3 0 0 0-.26-.26.3.3 0 0 0-.27.26c0 .15.12.27.27.27.14 0 .26-.12.26-.27m-6.61-.24c0-.14-.12-.33-.27-.42-.14-.09-.26.03-.26.25 0 .23.12.41.26.41s.27-.1.27-.24m20.24-.02c-.1-.15-.37-.26-.61-.26-.39 0-.4.04-.05.26.51.34.86.34.66 0m-18.26-.26c.1-.15-.09-.27-.4-.27-.3 0-.48.12-.4.27.1.14.28.26.4.26.13 0 .31-.12.4-.26m16.8-.14c-.18-.21-.52-.39-.76-.39-.36.01-.35.08.09.4.66.5 1.1.5.67 0m-13.23-.28c0-.22-.12-.34-.26-.25s-.27.28-.27.42.12.25.27.25c.14 0 .26-.19.26-.42m.45-.16q-.14-.31-.16.16c-.01.28.05.43.14.34s.1-.31.02-.5m3.14.1a5 5 0 0 0-.64-.42c-.27-.16-.8-.52-1.2-.79-.93-.67-3.47-.41-3.68.37-.15.58.7.99 1.22.57.7-.56 1.9-.6 2.45-.1.3.28.71.56.92.63.44.16 1.14-.04.93-.25m-13.9-1.23c0-.06-.12-.19-.27-.28q-.24-.13-.26.12c0 .15.11.28.26.28q.24 0 .26-.12m7.42-.26c-.18-.21-.5-.32-.72-.23-.32.12-.33.2-.05.38.2.12.52.22.72.22.29 0 .3-.07.05-.37m13.21-.1c0-.13-.41-.35-.92-.51-.74-.23-.93-.21-.93.07 0 .31.47.5 1.52.62.18.02.33-.07.33-.19m-7.66-.45c-.02-.4-.6-.32-.75.1q-.1.34.33.26c.24-.05.43-.21.42-.36m-2.28-.49c-.12-.31-.5-.43-1.33-.43-.64 0-1.16.12-1.16.26s.38.27.86.27c.47 0 1.03.11 1.25.25q.72.46.38-.35m11.27.1a.27.27 0 0 0-.27-.27.3.3 0 0 0-.26.27c0 .14.12.26.26.26s.27-.12.27-.26m6.61-.27c0-.14-.19-.26-.41-.26-.23 0-.34.12-.25.26s.27.27.41.27.25-.12.25-.27m-15.38-.44c-.41-.5.24-.71.72-.24.56.57 1.15.53 1-.06-.2-.7-1.57-1.17-1.98-.68-.23.28-.4.3-.6.1q-.32-.29.1-.53c.2-.13.33-.28.26-.33-1.04-.79-1.72-1.02-2.6-.88-.6.1-1.21.02-1.63-.2l-2.34-1.33c-1.9-1.1-2.04-1.13-2.26-.56q-.12.39.17.34c.57-.13 3.11 1.21 2.98 1.57-.07.2.1.33.42.33.5 0 1.3.56 1.3.9 0 .1-.29.16-.64.16-.65 0-1.09.62-.78 1.12q.18.26.52-.19c.2-.27.52-.4.76-.3.24.08.48 0 .56-.2s.39-.3.78-.23c.5.1.62.03.5-.28-.08-.22-.04-.47.1-.56.49-.3 1.1.16 1.1.81 0 .36-.1.59-.24.5s-.32-.03-.41.12c-.1.15-.03.27.14.27s.25.15.18.33c-.09.23.21.33 1 .33.84 0 1.08-.08.89-.3m-10.15-.09c.09-.15-.03-.34-.26-.43-.5-.2-.8.02-.55.41.22.36.6.37.8.02m17.86 0c0-.14-.13-.26-.28-.26s-.21.12-.12.26.22.27.28.27.12-.12.12-.27m-4.67-1.14q-.71-1.38-1.2-1.07c-.4.23-.23.56.35.71.46.12.51.23.27.52-.36.44-.26.59.47.64.52.04.53.02.1-.8m2.29.77c0-.05-.18-.17-.4-.25-.22-.09-.4-.04-.4.1s.18.26.4.26.4-.05.4-.1m7.33-.32c-.09-.09-.31-.1-.5-.02q-.32.14.16.16c.27.01.43-.05.34-.14m-19.24-.76c-.18-.22-.45-.4-.6-.4s-.11.17.07.4c.18.21.45.4.6.4s.11-.18-.07-.4m15.87.13a.3.3 0 0 0-.26-.27.3.3 0 0 0-.26.27c0 .14.11.26.26.26s.26-.12.26-.26m2.12 0c0-.15-.18-.27-.41-.27s-.34.12-.25.27c.09.14.28.26.41.26.14 0 .25-.12.25-.26m-4.04-.16c-.09-.09-.32-.1-.5-.02q-.31.13.15.16c.28 0 .44-.05.35-.14m-6.74-.55a1 1 0 0 0-.66 0c-.18.08-.04.14.33.14.36 0 .51-.06.33-.14m4.96-.09c0-.14-.18-.26-.4-.26-.21 0-.4.12-.4.26s.19.27.4.27.4-.12.4-.27m-12.44-.79c0-.14-.18-.26-.4-.26s-.35.12-.26.26c.1.15.28.27.42.27s.24-.12.24-.27m11.65-.38c0-.28-.51-.4-.66-.15-.1.15.02.27.24.27.23 0 .42-.06.42-.12m-8.2-.81c0-.25-.26-.4-.66-.4-.37 0-1.29-.23-2.05-.53-1.56-.59-1.8-.63-1.8-.3 0 .3 2.34 1.14 3.12 1.12.32 0 .6.1.6.25s.17.26.39.26a.4.4 0 0 0 .4-.4m1.93-.24c.09-.22-.06-.42-.35-.5q-.9-.25-.61.5c.18.48.78.48.96 0m4.41-1.22c0-.14-.18-.26-.4-.26s-.35.12-.26.26c.1.15.28.27.42.27s.24-.12.24-.27m-2.77-.52c-.1-.15-.34-.27-.55-.27-.2 0-.38.12-.38.27 0 .14.25.26.55.26s.47-.12.38-.26m-33.01 90.75c-.5-.48-.62-1.06-.2-1.06.3 0 .87 1 .75 1.3-.05.11-.3 0-.55-.24m1.39-.15c0-.23.12-.34.26-.25s.27.28.27.41c0 .14-.12.25-.27.25-.14 0-.26-.18-.26-.41m-2.8-1.29c-.09-.2-.11-.65-.07-.99.08-.52.14-.45.4.38.28.93-.01 1.47-.34.61m1.21-.41c0-.15.12-.27.27-.27.14 0 .26.12.26.27 0 .14-.12.26-.26.26a.3.3 0 0 1-.27-.26m-2.51-1.06c.09-.15.21-.27.28-.27.06 0 .11.12.11.27 0 .14-.12.26-.28.26-.15 0-.2-.12-.11-.26m3.91-.97c-.47-.19-2.33-1.94-2.06-1.94.13 0 0-.18-.28-.4-.28-.2-.4-.38-.25-.39.15 0 .62.35 1.06.8.44.44 1.15 1.09 1.59 1.44.73.6.7.8-.06.5m-6.03-.89c-.26-.29-.4-.6-.3-.7.17-.18.94.65.95 1.04.02.31-.14.23-.65-.34m-3.18-.8c-.1-.16-.12-.35-.05-.41.07-.07.2.05.28.28.18.46.03.55-.23.12m5.96.01c0-.14.11-.26.25-.26.13 0 .32.12.41.26s-.02.27-.25.27-.41-.12-.41-.27m-1.32-1.85c0-.15.12-.27.26-.27s.27.12.27.27c0 .14-.12.26-.27.26a.3.3 0 0 1-.26-.26m-6.07-.46c-.02-.3-1.4-1.17-1.76-1.11-.08.01-.22-.04-.31-.13-.27-.27 1.06-.16 1.97.17.48.17.87.47.87.67s-.1.3-.24.21-.3 0-.37.18q-.14.39-.16.01m4.74-1c0-.21.12-.4.27-.4.14 0 .26.19.26.4s-.12.4-.26.4-.27-.18-.27-.4m1.1-.94c-.63-.8-.39-1.09.32-.38.22.22.52.4.67.4s.2.18.13.4c-.22.55-.4.48-1.11-.42m-8.1.1c-.3-.08-.68-.26-.87-.4-.55-.46-.1-.71.8-.46 1.14.33 1.25.32 1.25-.16 0-.23.13-.34.28-.24s.22.34.15.54-.03.37.11.37.26.12.26.27c0 .27-1.03.3-1.99.07m3.84-.34c-.22-.13-.33-.3-.25-.39.08-.08.37.03.65.25.56.42.22.54-.4.14m-2.65-1.72q-.31-.39-.06-.4c.32 0 .7.5.51.68-.06.07-.27-.06-.45-.28m1.32-.14c-.33-.2-.29-.26.2-.26.32 0 .59.12.59.26q-.01.5-.8 0m.94-.43c-.26-1 0-1.07.5-.12.35.68.36.82.05.82-.21 0-.46-.32-.55-.7m-5.97.2c0-.36.3-.53.69-.38.53.2.45.5-.16.54-.3.02-.53-.05-.53-.17m4.73-1.95-.09-1.1c-.04-.64-.26-1.18-.59-1.45-.8-.65-1.7-2.3-1.51-2.78.27-.72.63-.47.63.44 0 .92.7 1.77 1.3 1.57q.3-.09.27.38c-.06.44.05 1.03.46 2.54.07.26 0 .46-.16.46-.15 0-.3-.02-.3-.06m-2.97-1.17a.7.7 0 0 1-.17-.45q.02-.25.3.04c.18.17.26.37.19.45s-.22.06-.32-.04m.02-.9c-.25-.15-.46-.38-.46-.52 0-.35.73-.01.9.43s.17.44-.44.09m-.6-1.7c-.29-.2-.39-.39-.22-.39.16 0 .44.17.63.39.41.5.24.5-.42 0m.43-2.14q.01-.46.16-.16c.07.2.06.42-.02.5-.1.1-.15-.06-.14-.34m-1.46-1.57c-.29-.22-.42-.4-.3-.4s.05-.2-.15-.43c-.33-.4-.3-.41.2-.14.3.16.6.25.66.2.05-.06.12.18.14.53s.02.64 0 .63c-.02 0-.27-.18-.55-.4m1.17-.67c0-.3.12-.47.27-.38.14.09.26.33.26.54s-.12.38-.26.38-.27-.24-.27-.54m-1.06-2.1c0-.44-.12-.8-.26-.8a.3.3 0 0 1-.27-.26c0-.15.1-.27.22-.27.3 0 1.11 1.76.91 1.96-.36.36-.6.11-.6-.63m-2.58-6.54q-.34-.58-.05-.75.61-.36.47.71l-.1.62zm-1.21-6.87c-.26-.26-.22-.88.06-.88.13 0 .3.24.37.53.14.52-.08.7-.43.35m1.06-.57a1.7 1.7 0 0 1-.44-.91c0-.24-.13-.5-.29-.6q-.3-.18.03-.48c.24-.23.36-.22.46.06.07.2.32.56.56.8.46.48.7 1.61.33 1.61-.12 0-.41-.22-.65-.48m-1.24-4.68c0-.22.12-.4.26-.4s.19.18.1.4-.2.4-.25.4c-.06 0-.1-.18-.1-.4m.81-.75c-.48-1.46-.24-2.11.34-.9.32.68.39 1.13.22 1.43-.2.36-.3.26-.56-.53m-1.07-1.23c0-.15.12-.27.26-.27s.27.12.27.27c0 .14-.12.26-.27.26a.3.3 0 0 1-.26-.26m95.3-5.7c-.18-.37-.31-.88-.3-1.13 0-.24.18.02.38.6.43 1.2.37 1.54-.09.53m-96.2-1.85c-.25-.67-.17-.84.14-.3.15.26.22.54.15.6-.06.07-.2-.07-.28-.3m-2.52-1.07q.03-.47.16-.16c.08.19.07.42-.02.5-.09.1-.15-.06-.14-.34m92.7-1.93c.28-.85-.32-2.1-1.21-2.57-.42-.21-.76-.5-.76-.62 0-.36.79-1.77.82-1.47a7.35 7.35 0 0 1 .2 1.38c.02.32.3.72.64.9.53.28.55.27.24-.11-.3-.36-.28-.42.13-.39.4.03.5.29.53 1.35q.03 1.31-.37 1.73c-.36.36-.39.34-.21-.2m5.06-.97c-.28-.21-.4-.39-.25-.39s.5.18.78.4c.28.2.4.38.25.38s-.5-.18-.78-.39m-1.81-2.09c-.43-.69-.59-2.27-.22-2.27.15 0 .35.42.44.92s.36 1.07.59 1.26c.36.3.4.26.25-.28-.15-.6-.14-.6.35-.16.74.67.63 1.09-.28 1.09q-.77-.01-1.13-.56m-3.01-.72a14 14 0 0 1-1.41-2.77c0-.1.23.03.52.3.3.26.53.66.53.88s.2.61.43.87.38.6.32.77q-.1.34-.4-.05m-88.46-.2c0-.14.12-.33.26-.42.15-.1.2.02.1.25-.17.46-.36.54-.36.16m83.98-1.02c-.5-.34-.66-1.12-.23-1.12.21 0 .4.09.4.2l.11.66c.1.53.1.52-.28.26m6.25-1.1c-.16-.3-.5-.56-.75-.57-.37-.01-.36-.05.07-.22.4-.16.6-.05.87.45.19.37.29.72.22.78s-.24-.13-.4-.44m.8-.66c-.35-.38-.56-.76-.47-.85s0-.5-.22-.92c-.69-1.32-.02-.83.76.57.87 1.55.84 2.16-.07 1.2m-91.9-.45c.18-.18.4-.26.48-.18s-.07.23-.33.33c-.38.14-.4.11-.15-.15m3.12-.76c.09-.15.21-.27.28-.27.06 0 .11.12.11.27 0 .14-.12.26-.28.26-.15 0-.2-.12-.11-.26m3.57 0c0-.15.12-.27.28-.27.15 0 .2.12.12.27-.1.14-.22.26-.28.26s-.12-.12-.12-.26m83-.72a5 5 0 0 1-.71-1.46q0-.34.25.06c.2.3.31.32.53.07q.24-.29.1-.2c-.14.1-.89-1.02-.89-1.34 0-.04.33-.04.73 0 .4.05.7.22.66.39-.03.16.08.29.25.29q.27.02.13.17c-.1.1-.05.32.1.5.2.24.08.37-.43.5-.67.17-.68.2-.25.67.25.28.4.72.35.98-.08.38-.26.23-.82-.63m-1.77.45c0-.14.12-.26.28-.26.15 0 .2.12.11.26s-.21.27-.28.27c-.06 0-.11-.12-.11-.27m-2.11-.77c-.37-.69-.35-.83.1-.65.21.08.36.37.34.65-.04.64-.1.63-.44 0m1.05-.29c-.16-.29-.23-.52-.15-.52.07 0 .26.23.41.52.16.3.23.53.15.53-.07 0-.26-.23-.41-.53m-78.32 0c0-.14.12-.27.27-.3.96-.11 1.32-.42 1.32-1.14 0-.34.19-.69.42-.78.63-.24.64-.21.24.57-.2.4-.44.95-.52 1.22q-.14.5-.67.36c-.3-.08-.53-.03-.53.1s-.12.24-.26.24a.27.27 0 0 1-.27-.27m-3.43-.27c.01-.44 1-1.72 1.19-1.53.06.07-.18.52-.54 1.02-.36.49-.65.72-.65.5m2.37.13c0-.4.83-1.66 1.17-1.8.33-.12.35-.04.1.5-.16.36-.4.65-.52.65s-.22.18-.22.4-.12.4-.26.4-.27-.07-.27-.15m-6.03-.86c.05-.26.58-.62 1.28-.85.65-.22 1.34-.5 1.53-.62.29-.18.29-.13.02.3-.17.28-.9.76-1.62 1.07-1.16.49-1.29.5-1.21.1m10.13-.05c.1-.15.22-.27.28-.27s.12.12.12.27c0 .14-.13.26-.28.26s-.2-.12-.12-.26m-4.45-.2c-.19-.3 1.61-2.34 1.86-2.1.11.13-.12.46-.52.75-.4.3-.72.7-.72.9 0 .42-.44.74-.62.45m2.07-.33c.1-.15.28-.27.43-.27s.2.12.1.27c-.09.14-.28.26-.43.26s-.19-.12-.1-.26m70.9.02c.1-.16.05-.29-.1-.29-.4 0-.34-.56.1-1.15.35-.46.43-.46 1.23-.07a4 4 0 0 0 1.33.43q.51-.01.5.66c0 .81-.68.9-.88.1q-.16-.53-.47-.35t-.14-.1q.15-.29-.18-.31c-.2 0-.35.25-.34.6.01.43-.15.61-.6.68q-.61.07-.45-.2M73 126c-.26-.67-.2-.92.23-.92.22 0 .4-.1.4-.22s.48-.44 1.06-.7c.6-.27 1.05-.66 1.05-.9q0-.45-.2-.1c-.13.19-.63.29-1.2.25-1.05-.09-1.56.28-1.89 1.34-.1.35-.39.6-.69.6-.63 0-.66-.5-.06-.94.38-.27.4-.4.12-.74-.26-.3-.27-.54-.05-.95.33-.63.67-.74.44-.15-.2.55.25.5.68-.07.19-.25.56-.63.83-.84.42-.33.51-.33.72 0s.28.33.5-.02c.4-.58.33-.87-.14-.68-.24.09-.38.03-.33-.13.06-.16.21-.28.36-.29.5 0 .93-.56.78-1.03-.1-.28.14-.95.56-1.62.4-.64.77-.99.84-.8a.8.8 0 0 1-.14.66c-.14.18-.27.77-.29 1.33-.02.81.04.94.31.66.19-.19.35-.81.37-1.38.02-.72.2-1.17.57-1.46q.57-.42.4-1.01c-.12-.43-.05-.6.26-.6q.39-.01.27-.37c-.08-.2 0-.45.16-.55.6-.37.61.15.04.93-.77 1.03-.25 1.02.68-.02.41-.47.9-.76 1.15-.7.74.2 1.62-.7 1.67-1.69.04-.78.15-.91.78-.99.4-.04.8-.25.88-.46.2-.5.89-.49.89.01q-.01.38-.44.22-.45-.17-.25.14.16.29-.2.31-.49-.02-.84 1.32c-.28 1.03-1.9 2.13-2.84 1.92-.25-.06-.46.03-.46.2 0 .16.14.2.3.1q.33-.2.14.27c-.16.41-.11.42.55.06.4-.22 1.28-.54 1.96-.73 1.08-.29 1.23-.42 1.2-1-.04-.54.08-.67.68-.72.4-.04.73.05.73.18 0 .14-.15.25-.34.26q-.33 0 .07.28c.3.21.32.31.07.42-.19.07-.27.24-.19.37.09.14.02.24-.13.24-.17 0-.22.26-.13.62s0 .72-.2.87a10 10 0 0 1-3.92 1.15c-.07 0 .05.13.27.28q.37.24.07.26c-.55 0-2.72 2.3-2.72 2.9 0 .3-.31 1.02-.7 1.6-.52.8-.87 1.06-1.4 1.06-.74 0-1.75.82-1.43 1.14q.13.16-.25.18c-.24 0-.66.24-.94.54-.45.48-.52.5-.67.11m.76-3.3c.1-.14.04-.26-.11-.26-.16 0-.29.12-.29.26s.06.27.12.27c.07 0 .2-.12.28-.27m3.36-.86c.4-.62 1.2-1.67 1.78-2.32a6 6 0 0 0 1.08-1.46c0-.16.83-.68 1.85-1.18s1.85-.99 1.85-1.1c0-.36-.6-.22-1.45.33-.44.27-1.1.65-1.46.82-.93.45-1.85 1.3-1.85 1.72 0 .2-.48.83-1.06 1.4a5 5 0 0 0-1.06 1.3c0 .13-.17.38-.4.56-.4.34-.54 1.06-.2 1.06.12 0 .53-.51.92-1.13m-2.04.6a.6.6 0 0 0-.47-.26q-.29.01.08.26c.5.33.6.33.4 0m1.2-1.46c.18-.22.26-.48.17-.57-.2-.2-.97.4-.97.74 0 .36.43.27.8-.17m1.85-2.66c0-.23-.12-.34-.27-.25-.14.1-.26.28-.26.42s.12.24.26.24.27-.18.27-.4m1.06-1.53.66-.75-.73.33c-.44.2-.73.54-.73.86 0 .3.03.48.07.42.03-.06.36-.44.73-.86m-14.5 8.24a.8.8 0 0 1 .42-.41q.3-.1.16.31c-.19.48-.73.58-.58.1m5.63-2c.37-.54.78-1.26.92-1.58.25-.58 1.07-.85 1.07-.35 0 .37-2.2 2.93-2.52 2.93-.08 0 .16-.45.53-1m79.64.47c-.09-.15.02-.27.25-.27s.41.12.41.27c0 .14-.1.26-.25.26-.13 0-.32-.12-.4-.26m-84.7-.33q-.14-.3.04-.14c.12.11.43 0 .7-.24s.49-.3.49-.14c0 .49-1 .9-1.22.52m4.4-.95c0-.35.17-.58.43-.58.37 0 .38.07.07.47l-.42.57c-.05.06-.08-.15-.08-.46m3.18-.84c.15-.3.4-.53.53-.53.42 0 .3.73-.16.9-.64.24-.68.2-.37-.37m6.08-.03c0-.33.69-1.05.85-.88.07.06.26-.15.44-.48.35-.66 2.15-1.94 2.15-1.54s-2.26 2.7-2.46 2.5c-.1-.1-.19-.06-.19.1 0 .15-.17.34-.4.43-.21.08-.39.02-.39-.13m-6.08-.92c0-.2.12-.37.26-.37s.54-.57.87-1.26.76-1.26.96-1.26c.68 0 .58.58-.23 1.45-.44.47-.8 1.01-.8 1.2s-.24.4-.54.47q-.52.14-.52-.23m-3.07-.2c-.21-.55-.08-.74.35-.48q.3.2.07.57c-.2.32-.26.3-.42-.08m5.05-.44c.09-.14.22-.26.28-.26s.12.12.12.26-.13.27-.28.27-.21-.12-.12-.27m-2.59-.8c.08-.3.37-.66.64-.8s.5-.43.5-.63.17-.43.4-.5c.72-.29.42.75-.48 1.62-1.02.99-1.25 1.05-1.06.31m-.72-.93c0-.23.12-.34.27-.25s.2.28.12.41c-.23.37-.39.3-.39-.16m3.35-1.88c-.36-.36-.15-.62.49-.62.74 0 .89.39.24.63-.52.2-.51.2-.73-.01m1.53-.12c-.28-.45.6-1.21.98-.84.16.17.23.49.14.72-.18.48-.85.55-1.12.12m.94-.24a.3.3 0 0 0-.26-.26.3.3 0 0 0-.27.26c0 .15.12.27.27.27.14 0 .26-.12.26-.27m8.54-.46c.17-.4.44-.82.59-.93q.25-.2-.13-.45c-.31-.2-.25-.27.31-.27.58 0 .7-.11.65-.6-.08-.76-.27-.82-1.16-.37-.45.23-.93.29-1.26.16q-.77-.28.33-.36c.17-.02.47-.24.66-.5.18-.25.6-.5.94-.57s.92-.37 1.32-.68c.5-.4.74-.46.82-.23.06.18-.06.45-.26.61-.7.54-1.3 1.7-1 1.9.17.1.39.03.5-.15.11-.19.33-.3.49-.24.28.1-2.58 3.4-2.94 3.4-.1 0-.04-.32.14-.72m-10.24-1.1c-.09-.14-.04-.33.11-.42s.27.02.27.25c0 .46-.16.53-.38.16m15.73-.02c0-.15.18-.27.4-.27.24 0 .35.12.26.27-.1.14-.28.26-.41.26-.14 0-.25-.12-.25-.26m-14.3-.45c0-.22.25-.46.54-.54.29-.07.53-.3.53-.5s.17-.37.37-.37c.33 0 .33.11 0 .77-.42.85-1.43 1.3-1.43.64m3.26-.3q-.02-.46.5-.5c.52-.05.52-.03.07.47-.56.62-.53.62-.57.04m.2-1.48c-.26-.33-.27-.42-.01-.42.44 0 4.27-1.87 4.71-2.3.2-.2.65-.35 1.01-.35.6 0 .62.05.27.4-.22.22-.46.4-.54.4-.13 0-1.54.61-3.86 1.68-.37.17-.8.46-.94.66-.23.29-.34.28-.63-.07m-1.07-.68c0-.15.13-.27.28-.27s.2.12.12.27c-.1.14-.22.26-.28.26s-.12-.12-.12-.26m7.57-1.17c.09-.23.28-.42.42-.42.35 0 .13.6-.27.73q-.3.1-.15-.31m2.82.09c-.33-.13-.6-.38-.6-.57q-.02-.4.24.02c.14.23.43.3.79.18.31-.1.56-.06.56.09q-.01.63-1 .28m-8.65-.42q-.11-.34.13-.21c.15.09.56-.03.92-.26s.65-.34.65-.22c0 .11-.35.4-.78.64-.66.38-.79.39-.92.05m2.36-.36c.1-.14.28-.26.43-.26s.19.12.1.26-.28.27-.43.27-.19-.12-.1-.27m4.63 0c.52-.33.87-.33.66 0-.09.15-.36.27-.6.26-.4 0-.4-.04-.06-.26m.48-1.24c.2-.07.42-.06.5.03.1.08-.06.15-.34.13q-.46-.01-.16-.16m-1.37-1c.1-.24.49-.4.95-.4.68 0 .75.06.47.4-.18.21-.6.4-.95.4q-.65.01-.47-.4m5.12-1.21c0-.16.12-.2.27-.12.14.1.26.22.26.28s-.12.12-.26.12-.27-.13-.27-.28m-1-1.89c.78-.6 1.09-.6.71 0-.16.26-.52.47-.8.47-.47 0-.47-.04.1-.47m1.6.27c.1-.33.4-.5 1.59-.98.45-.17.73-.48.73-.8 0-.29.11-.6.26-.69s.26.08.26.37c0 .33-.48.9-1.22 1.47q-1.9 1.46-1.63.63m7.63-.4c-.01-.17-.2-.35-.41-.4q-.4-.08-.17-.44c.36-.57 1.06-.03.8.63q-.19.45-.22.21m-2.98-.53c.19-.07.42-.06.5.02.1.1-.06.15-.34.14q-.47-.02-.16-.16m-4.72-.55c0-.15.42-.32.93-.38.5-.05.93 0 .93.1 0 .12-.15.22-.33.22s-.6.08-.93.17c-.33.08-.6.04-.6-.11m3.71-2.32c.19-.22.4-.34.46-.28.18.19-.19.69-.51.69q-.27-.01.05-.4m15.87-.62c0-.13.2-.31.44-.4q.53-.25.1.23-.56.68-.54.17m-1.32-.3c0-.14.17-.26.38-.26s.46.12.55.26-.09.27-.38.27-.55-.12-.55-.27m-5.82-1.32c0-.15.3-.26.66-.26s.66.09.66.2-.3.24-.66.27-.66-.07-.66-.21" style="fill:#000" transform="translate(-30.5 -89.37)"/></svg>