<svg xmlns="http://www.w3.org/2000/svg" width="1000" height="1000"><path fill-rule="evenodd" d="M511.85 73.25c-.09 1.79-.04 5.84.1 9 .22 4.94.02 5.68-1.35 5.15-1.22-.47-1.63.06-1.72 2.24-.06 1.7-.3 2.14-.57 1.11-.25-.96-.82-1.75-1.27-1.75-1.31 0-1.84 4.8-.65 5.99.8.8.72 1.32-.25 1.93-.93.57-1.1 1.57-.55 3.2.44 1.31.71 2.73.6 3.16-.12.43.48 1.04 1.33 1.36a6 6 0 0 1 2.54 2.47c.9 1.68.67 1.84-2.17 1.53-2.22-.24-3.6-1.15-4.57-3-.76-1.45-1.8-2.64-2.3-2.64-1.34 0 1.53 8.84 3.6 11.14 1.7 1.87 1.68 1.97-.55 2.55l-2.32.6 2.38 1.32c1.85 1.03 1.99 1.33.62 1.36-.96.01-1.75.48-1.75 1.03s-.68 1-1.5 1-1.5.44-1.5.97-.62.73-1.39.44c-1.1-.43-.91 1.65.88 9.95 1.79 8.26 1.97 10.37.89 9.95-.8-.3-1.41-2.06-1.46-4.17-.04-2-.3-3.08-.58-2.39-.7 1.74-2.34 1.57-2.34-.25 0-.82-.45-1.5-1-1.5s-1.01-.56-1.02-1.25c-.03-1.65-3.69-6.37-4.4-5.67-.3.3-.14 1.96.35 3.68.63 2.19.55 3.27-.27 3.6-.65.27-.47.52.43.56 2.16.1 4.5 5.08 2.39 5.08-.81 0-1.48.29-1.48.63 0 1.28 5.15 5.37 6.75 5.37 1.23 0 1.36.29.51 1.14-1.23 1.23-.04 3.02 2.76 4.12 1.14.45 1.06.6-.33.66-1.12.05-1.73.75-1.6 1.83.29 2.28-1.77 7.25-3 7.25-.53 0-1.13-1.24-1.34-2.75l-.37-2.75-1.01 2.39-1.01 2.38-1.31-3.16c-1.78-4.28-3.45-5.17-2.83-1.5.27 1.59.84 3.68 1.25 4.65.58 1.36.38 1.62-.86 1.14-2.54-.97-1.87 1.38.9 3.2 2.1 1.38 2.31 1.9 1.27 3.16-.7.84-1.11 2.63-.93 4 .23 1.8-.04 2.28-1.01 1.77-.74-.39-.21.22 1.16 1.36 1.97 1.63 2.14 2.07.8 2.09-.92.01-1.99.52-2.37 1.13q-.7 1.1 1.44.43c1.67-.53 1.99-.33 1.5.92-.42 1.1-1.27 1.4-2.74.95l-2.13-.66 2.1 1.88c1.14 1.03 1.87 2.5 1.6 3.28q-.47 1.4 1.07.82c.86-.33 2.28.22 3.22 1.26 1.57 1.73 1.55 1.97-.4 3.93-2.54 2.54-2.6 3.07-.34 3.11 1.64.03 1.64.12-.05 1.4-1.34 1.01-1.47 1.49-.5 1.83.71.26 1.03.76.7 1.13s-1.35.37-2.26.03c-2.07-.8-2.1-4.1-.04-9 1.46-3.5 1.46-3.72 0-2.5a4.7 4.7 0 0 0-1.6 3.14c0 3.12-1.85 3.14-3.45.04-.85-1.64-2-3.26-2.58-3.62-1.44-.89-.65 6.25.86 7.76 1.74 1.72 1.42 2.76-.83 2.76-1.1 0-2 .45-2 1s.85 1 1.88 1c2.2 0 4.8 2.6 3.14 3.16-.72.24-.65 1.24.2 3.1.7 1.5 1.78 2.56 2.38 2.33 1.3-.48 4.52 2.95 3.63 3.85-1.5 1.49-1.07 4.65.78 5.8 2.46 1.53 2.62 2.93.24 2.04-1.59-.6-1.6-.48-.25 1.2 1.4 1.73 1.36 1.77-.75.65-1.45-.77-2.25-.83-2.25-.16 0 .56-.69 1.03-1.52 1.03-1.86 0-3.66-4.31-2.82-6.74.5-1.43.32-1.39-.96.24-1.51 1.92-1.6 1.83-2.27-2.27-.96-5.92-2.43-6.32-2.43-.67 0 4.05-.2 4.52-1.5 3.44-.82-.69-1.5-.8-1.5-.28 0 .54 1.01 1.46 2.25 2.06 2.17 1.04 2.14 1.09-.75 1.18-2.86.1-2.9.17-1.06 1.57a8 8 0 0 0 4 1.5c1.86.03 1.8.23-.69 2.09-3.17 2.36-3.77 4.5-.82 2.92 2.93-1.57 5.24-.22 4.92 2.87-.19 1.72.54 3.48 2.05 5 1.87 1.86 2.06 2.5.97 3.18-.83.5-1.52.41-1.75-.25-.2-.6-1.1-1.86-2-2.8s-2.2-2.58-2.9-3.63c-1.13-1.67-1.23-1.39-.77 2.2.52 4 .46 4.1-2.21 3.73-2.57-.36-2.6-.32-.49.6 2.37 1.05 3.16 5.05 1 5.07-.95.02-.94.22.06.85.73.47 1.18 2.12 1 3.74-.27 2.53.05 2.94 2.5 3.22 2.3.27 2.6.59 1.65 1.73-.93 1.11-.62 2.06 1.43 4.5 1.44 1.71 2.62 3.63 2.63 4.28 0 .68.42.54.98-.33.67-1.03.97-1.1.99-.23 0 .82.93 1.1 2.63.8 1.44-.27 2.3-.16 1.92.22-.39.4-1.23.73-1.87.75s-1 .7-.8 1.5c.77 3.03.59 4.26-.69 4.7-.75.27-1.57-.5-1.91-1.83-.54-2.04-.68-2.1-1.24-.48-.6 1.7-.74 1.71-2.34.12-1.59-1.6-1.7-1.58-1.7.13-.01 1.1-.3 1.39-.75.72-.4-.6-1.8-1.66-3.09-2.34-1.84-.97-2.26-1.87-1.92-4.15.23-1.6.05-2.91-.4-2.91-.46 0-.84 1.01-.86 2.25l-.04 2.25-1.87-2.25c-1.76-2.11-4.06-3.03-4.06-1.62 0 .35.99 2.23 2.2 4.19 1.5 2.44 1.82 3.67 1 3.95-2.11.7-1.28 2.23 1.21 2.23 2.28 0 2.35.18 1.27 3.04-1.04 2.76-1.26 2.88-2.41 1.3-.7-.94-1.27-1.29-1.27-.76s1.06 2.08 2.35 3.44c2.13 2.26 2.21 2.68.88 4.73-1.32 2.03-1.29 2.25.28 2.25 1.38 0 1.5.3.57 1.4-.89 1.08-.88 1.5.06 1.81.67.23.88.95.47 1.61-.56.91-1.26.83-2.9-.3a8.5 8.5 0 0 0-4.18-1.48c-1.83.03-1.76.25.72 2.28 2.97 2.43 3.48 4.18 1.5 5.08-.69.32.32.34 2.25.04 3.13-.48 3.32-.39 1.75.87-1.08.87-1.75 2.78-1.75 5 0 4.42 1.72 5.76 2.55 1.98 1.2-5.47 1.68-5.88 2.67-2.3.53 1.93 1.49 3.84 2.12 4.24q1.14.74-.59.88c-3.88.31-4.25.5-4.11 2.16.07.95-.49 1.73-1.25 1.73s-1.4-.79-1.4-1.75c-.02-1.5-.16-1.53-1-.25-.88 1.33-1.1 1.33-1.98 0-.54-.82-1.02-3.3-1.06-5.5-.08-3.6-.2-3.77-1.16-1.77-.82 1.7-1.65 2.1-3.44 1.64-2.97-.74-3.01.61-.1 3.13 2 1.73 2.06 1.99.5 2.3-1.87.37-2.37 2.7-.8 3.67.53.33.7 1.25.4 2.06-.64 1.67 2.15 2.08 3.15.47 1.08-1.75 4.58.88 4.37 3.3-.1 1.21-.11 3.31-.03 4.67l.16 2.47 1.6-2.27c1.7-2.43 3.57-2.49 3.97-.12.13.8.55 2.24.94 3.2.57 1.41.15 1.77-2.15 1.87-1.57.06-2.1.31-1.17.56.93.24 1.83 1.42 2 2.62l.31 2.17 2.13-2.3 2.13-2.3 1.12 3.22c1.63 4.68 1.45 5.28-2.07 6.84-2.36 1.04-3.3 1.1-3.59.24-.21-.64-1.14-1.18-2.05-1.19-1.32 0-1.38-.2-.31-.87.98-.62 1.04-1.05.2-1.57-.63-.4-1.79-.18-2.56.46-1.1.92-2.32.78-5.46-.6-2.22-.98-4.04-2.09-4.04-2.45s-1.12-.46-2.5-.2c-3.23.62-3.2 1.86.09 2.68 2.13.54 2.37.9 1.38 2.11-.67.8-.78 1.46-.25 1.46 1.53 0 3.12 4.4 2.58 7.2-.34 1.8.1 2.97 1.5 3.95 1.95 1.36 1.96 1.49.2 5.09-1.73 3.57-1.73 3.71.05 4.28 1.2.38 1.65 1.17 1.26 2.28-.44 1.29-.2 1.22.97-.3 2.22-2.85 3.22-1.19 1.16 1.94-.94 1.44-1.43 2.9-1.07 3.26.34.35.63.12.63-.5 0-.63.6-.9 1.35-.62.83.32 1.17 1.47.88 2.99-.37 1.95-.13 2.33 1.15 1.84 1.49-.57 2.13.52 1.71 2.91-.07.46.28.57.8.25.5-.31.72-1.58.48-2.82-.25-1.24.61.42 1.92 3.69 1.5 3.75 2.64 5.48 3.13 4.7 1.34-2.18 3.8.8 3.11 3.79q-.6 2.56.32 1.21c1-1.51 2.69.18 1.72 1.74-1 1.62-4.57 2.03-4.57.53 0-1.88-1-1.78-2.49.24-.95 1.31-1.37 1.38-2.01.35q-.8-1.3.35-.6c.63.4 1.15.24 1.15-.34 0-1.42-3.7-1.36-4.58.07-.46.74-1.17.3-2.03-1.25q-1.31-2.35-1.45-.88c-.08.82-.5.38-.94-1-.67-2.1-.82-2.18-.94-.5-.11 1.57-.56 1.25-2.06-1.5-1.05-1.93-1.94-4.26-1.96-5.2-.02-.92-.56-2-1.19-2.4-.82-.5-1 .6-.62 3.93.28 2.55.13 4.39-.36 4.1-.48-.3-.87-.1-.87.45s.46 1.29 1.02 1.63c.56.35.7 1.12.33 1.73q-.65 1.08 1.05.44c1.43-.55 1.6-.27 1.03 1.58-.38 1.23-1.2 2.57-1.81 2.98-.62.4.15.74 1.7.75 2.57 0 2.68.15 1.25 1.58-1.88 1.89-1.95 2.65-.37 4.23.93.93.93 1.47 0 2.4s-1.2.88-1.21-.25c-.02-1.23-.16-1.23-.9-.05-.56.87-1.58 1.12-2.74.68-1.74-.67-1.75-.77-.1-1.7 2.4-1.34 2.21-3.23-.25-2.59-1.39.36-2.03.01-2.1-1.13-.06-.94-.41-.58-.82.84l-.73 2.5-.8-2.45c-.73-2.19-3.8-6.17-3.98-5.15-.04.22-1.12.06-2.4-.34-3.51-1.12-3.73.05-.54 2.81 2.53 2.19 2.66 2.56 1.12 3.16-.96.38-1.75 1.18-1.75 1.78 0 .76.34.75 1.13-.05.85-.84 1.74-.74 3.5.42 2.8 1.83 3.07 3.31.62 3.33-1.36.02-1.45.21-.4.88.95.6 1.03 1.07.26 1.54-.61.38-1.11 1.16-1.11 1.74s1.16.3 2.59-.63c1.42-.94 2.83-1.45 3.14-1.14.87.87-1.8 3.6-3.6 3.68q-1.65.08-.34.6c.97.39 1.01.85.17 1.87-1.14 1.38-.54 3.45 1 3.45.45 0 1.1-.74 1.46-1.64.52-1.37.38-1.44-.9-.38-.87.72-1.52.83-1.52.25 0-2.16 2.89-1.98 5.04.31 1.91 2.04 2.05 2.64.93 4-1.17 1.4-.99 1.5 1.6.88 1.61-.38 3.83-1.12 4.93-1.62 1.45-.68 1.32-.39-.47 1.05l-2.47 2 3.44-.18c3.06-.15 3.5.16 4.1 2.83q.65 2.9.8 1c.1-1.62.3-1.72 1.05-.55.5.8.65 1.89.32 2.42-.34.55.1.7 1 .36.88-.34 1.82-.08 2.09.58.34.83.73.87 1.31.11.46-.59 3.07-1.04 5.82-1 3.77.06 5.06.48 5.3 1.7.46 2.43-5.56 3.1-7.79.88-1.45-1.45-1.96-1.5-3.54-.35-2.44 1.79-3.96 1.7-6-.33-1.3-1.3-2.06-1.43-3.46-.55-1.48.92-1.89.76-2.33-.92s-1.14-1.95-4-1.56c-3 .4-4-.06-7.32-3.38-3.55-3.54-6.4-4.98-6.3-3.16.01.41 1.38 2.32 3.03 4.25l3 3.5-3.79.6c-3 .49-3.22.65-1.04.76 1.51.08 2.75.62 2.75 1.2 0 .64.86.8 2.13.4q2.14-.68 1.44.43c-.38.61-.19 1.11.43 1.11s.84.45.5 1 .08 1 .94 1c1.86 0 2.08 1.62.31 2.34-.69.28-.25.54.96.58 1.22.04 2.71 1 3.32 2.13s1.86 1.98 2.78 1.89c3.6-.36 5.19.12 5.19 1.56 0 1.77.48 1.85 3.02.49 1.52-.81 2.12-.59 3.04 1.12.63 1.18.7 1.86.14 1.52-.54-.34-1.26.1-1.6.96-.95 2.49-.76 2.56 1.96.78 2.54-1.67 2.55-1.66 1.89.98-.62 2.48-.45 2.65 2.74 2.65 1.88 0 4-.56 4.7-1.25 1.06-1.01 1.23-.87.94.75-.27 1.48-1.03 1.92-2.9 1.7-1.38-.16-3.62.15-4.97.7-1.35.53-1.81 1-1.02 1.04 1.06.04.93.47-.5 1.64-1.69 1.38-1.71 1.51-.17 1.02 1.04-.32 2.59.26 3.73 1.4 1.07 1.07 2.6 1.7 3.38 1.4 2-.76 2.68.85 1 2.4-1.16 1.07-1.5 1.03-2-.24-.32-.85-.98-1.3-1.46-1-.49.29-1.76.06-2.84-.52-1.25-.67-2.18-.7-2.56-.08-.75 1.21-7.52 1.05-7.52-.18 0-.5-.42-.64-.94-.32-.51.32-1.35-.15-1.85-1.05-.74-1.31-1.33-1.42-3-.52-2.75 1.47-3.21 1.4-3.21-.45 0-.86-.45-1.28-1-.94s-1 .09-1-.56c0-.88-.38-.87-1.5.06-1.24 1.03-1.5.92-1.51-.63-.02-1.47-.21-1.57-.9-.47-.68 1.07-1.27.64-2.56-1.84-.92-1.78-1.43-3.87-1.13-4.65s.14-1.41-.35-1.41-1.07.55-1.3 1.23c-.24.72-1.14.11-2.2-1.5-2.41-3.7-3.62-3.44-2.48.51.8 2.8.62 3.5-1.32 5.04q-2.21 1.77-.75 1.64c.82-.09 2.57-.1 3.87-.04 2 .1 2.18.36 1.13 1.62-.71.86-.81 1.5-.23 1.5.55 0 .94.78.87 1.74-.08.96.87 2.19 2.11 2.74 2.6 1.15 2.97 2.52.7 2.52-.87 0-1.29.45-.95 1s1.77 1 3.18 1c2.28 0 2.41.19 1.2 1.69-1.19 1.45-1.17 1.6.16 1.1.85-.3 2.38.04 3.4.79s2.29 1.09 2.81.76c.58-.35.7.37.3 1.79-.55 2-.48 2.1.45.62.6-.96 1.87-1.71 2.8-1.67q1.68.08.4.6c-.8.32-.05 1.2 2 2.3 1.82.99 3.75 1.6 4.3 1.36s-.01.32-1.25 1.24-2.24 2.4-2.24 3.3c.01 1.02.3 1.21.75.52 1.03-1.53 4.24-1.35 4.24.25 0 .72-1.17 1.6-2.6 1.96-2.18.55-2.52 1.1-2.17 3.52.3 1.98 0 2.87-.96 2.87-.76 0-1.1-.47-.75-1.04.6-.97-1.33-.77-6.77.7-1.08.3-1.75-.08-1.75-.98 0-.8-.9-1.68-2-1.97-1.43-.37-1.81-1.03-1.33-2.28.49-1.29.32-1.54-.65-.94-1 .61-1.19.16-.79-1.92.38-1.97.22-2.42-.57-1.63s-1.58.19-2.87-2.17l-1.77-3.27.2 4.37c.14 3.27-.29 4.7-1.7 5.75-1.82 1.32-1.8 1.38.38 1.38 1.45 0 2.48.74 2.81 2 .29 1.1 1.03 2.01 1.66 2.03s.34.49-.62 1.05c-2.93 1.7-2.02 3.17 1.7 2.74 2.7-.32 3.22-.13 2.4.86-1.3 1.57.98 4.2 3.05 3.52.83-.28 1.1-.01.68.67-.38.62-.26 1.13.28 1.13.53 0 1.2-.56 1.48-1.25.3-.75.53-.55.58.5.04.96.5 1.75 1.03 1.75.57 0 .54 1.18-.1 3-1.2 3.46-3.45 5.45-2.39 2.13.48-1.52.25-2.13-.82-2.13-.82 0-1.7-.79-1.95-1.75-.35-1.32-.49-1.2-.57.5-.09 1.63-.65 2.16-2.1 1.94-1.08-.17-2.32-.69-2.74-1.16s-.15-.48.63-.04q1.38.81.7-.3c-.46-.76-1.47-.81-3.18-.16-1.84.7-2.63.6-3-.36-.32-.83-1.61-1.15-3.48-.88-3.14.46-5.15 2.21-2.54 2.21q1.55-.02.87 1.75c-.55 1.48-.41 1.56.9.48.86-.7 2.31-.98 3.22-.63 1.52.58 1.5.75-.12 1.99-1.64 1.24-1.57 1.35.83 1.38 2.19.02 2.57.44 2.34 2.53-.17 1.6.23 2.5 1.1 2.5.86 0 1.18.67.85 1.75-.29.96.2.51 1.07-1 1.3-2.25 1.85-2.53 2.94-1.51.74.69 1.12 1.81.86 2.5-.27.7.05 1.26.7 1.26s1.83.66 2.63 1.46 2.12 1.2 2.93.9c.8-.32 1.47-.05 1.47.6 0 .73.85.94 2.25.57 2.08-.57 2.06-.5-.25.9l-2.5 1.53 2.3.65c1.41.4 2.1 1.19 1.79 2.02-.3.75-.04 1.37.55 1.37s.8.73.46 1.61c-.45 1.17-.2 1.45.93 1.02.9-.35 1.8.05 2.15.97.45 1.19.79 1.26 1.37.32.59-.95 1.15-.86 2.4.4 1.27 1.26 1.4 2.08.58 3.62-1.04 1.95-4.03 1.86-4.03-.11 0-.53-.85-.7-1.88-.37-1.22.39-2.1.02-2.51-1.04-.5-1.28-1.4-1.5-4.12-.98-2.67.5-3.49.31-3.49-.79 0-1.42-2.7-3.15-4.35-2.77-.47.1-1.6-.68-2.53-1.74-1.84-2.12-9.12-5.5-9.12-4.24 0 .43.9 1.6 2 2.6 1.81 1.64 1.84 1.9.34 3-1.4 1.02-1.03 1.3 2.56 1.87 2.47.4 3.94 1.09 3.56 1.69-.34.56-1.53.74-2.63.39-1.77-.57-1.87-.4-.88 1.46.85 1.59 1.8 1.99 3.84 1.62l2.71-.49-2.64 1.14-2.64 1.13 2.43 2.44c1.34 1.33 3.1 2.18 3.9 1.87.8-.3 1.46 0 1.46.66q.03 1.17.95-.25c.51-.81 1.25-1.16 1.63-.77s.12 1.39-.59 2.24c-1.83 2.2-.85 2.65 2.28 1.03 1.56-.81 2.93-1 3.26-.46.32.51-.12.93-.98.93s-1.56.63-1.56 1.4c0 1.59 2.7 2.9 4.15 2 .53-.32 2.15-.29 3.6.08 2.14.53 2.37.85 1.2 1.67-1.15.81-1.03.93.58.59 2.1-.45 4.47 1.31 4.47 3.34 0 .85.4.84 1.49-.07a3.5 3.5 0 0 1 3.12-.6c.9.34 2.21.15 2.91-.43.94-.78 1.23-.62 1.13.63-.18 2.02 4.12 2.71 6.29 1.01 1.17-.91 1.3-.76.7.82-.68 1.82-.6 1.84 1.07.32 1.3-1.17 2.27-1.35 3.54-.64q1.75.98 1.75-.04c0-.6 1.22-.79 2.94-.44 2.6.52 2.87.35 2.38-1.53-.3-1.16-.11-2.11.43-2.11 1.4 0 .64 5.14-.92 6.1-.72.45-2.4.54-3.72.21q-2.38-.59-1.75.47c.77 1.24-2.84 2.66-4.35 1.73-.56-.35-1.02-.04-1.02.68-.02.98-.21 1-.78.11-.78-1.22-2.38-1.18-5.45.15-.96.42-1.5 1.16-1.2 1.65.95 1.53-1.33.99-3.04-.72-1.5-1.5-1.73-1.48-2.98.24-1.25 1.7-1.51 1.72-3.2.27-1.95-1.68-5.38-3.3-6.52-3.07-.37.07-1.83-1.24-3.24-2.9-1.4-1.68-3.01-2.77-3.57-2.43-2.39 1.48-4.76 1.31-4.63-.32.07-.98-.62-1.67-1.67-1.68-.99 0-2.25-.68-2.82-1.5-.77-1.13-.87-.88-.4 1.01l.62 2.5-1.93-2.2c-1.06-1.22-2.21-1.93-2.56-1.6-.34.35-.62-.08-.62-.95s.56-1.85 1.25-2.18.24-.4-1-.18c-1.24.24-2.25 0-2.25-.52 0-.55-.8-.51-1.95.1-1.53.82-2.16.67-2.97-.71-.56-.97-1.03-1.22-1.05-.57-.02.66.44 1.48 1.02 1.84.71.44.68 1.1-.12 2.06-.95 1.14-.77 1.41.95 1.41 1.31 0 2.12.63 2.12 1.67 0 .92.74 2.49 1.64 3.48 1.35 1.5 1.4 2.09.36 3.36-1.73 2.08-.49 3.1 1.73 1.43 1.5-1.15 1.59-1.14.52.06-1.93 2.16-1.48 3.99 1 4.1 2.14.1 2.12.13-.25.8-2.1.58-2.22.8-.77 1.36 1.33.5 1.6 1.38 1.12 3.72-.5 2.55-.34 2.95 1.02 2.43 2.1-.8 2.08.43-.02 2.76-1 1.1-1.2 1.83-.5 1.83.63 0 1.15-.4 1.15-.88 0-.49 1.3-.83 2.88-.77 2.05.08 2.72.53 2.33 1.54-.4 1.05.02 1.28 1.56.88 1.38-.36 2.35.02 2.82 1.1.78 1.78 1.6 9.13 1.02 9.13-1.41 0-7.51-3.18-8.59-4.47-1.11-1.34-1.02-1.83.58-3.13 1.05-.85 1.22-1.22.4-.82s-2.29 1.4-3.25 2.23c-.96.82-1.76 1.1-1.76.6-.01-.5-.46-.24-.99.59-.82 1.26-.97 1.27-.99.06 0-1.04-.43-.9-1.51.5-1.48 1.91-1.5 1.9-.81-.06.6-1.77.5-1.85-1-.63-1.45 1.18-1.69 1.15-1.69-.16 0-.85.56-1.77 1.25-2.05.96-.39.95-.52-.06-.58-.72-.04-1.01-.56-.65-1.15.94-1.5-2.36-3.65-5.44-3.53-2.7.1-5.1-1.47-5.1-3.33 0-.59 1.01-1.12 2.25-1.19 2.03-.1 2.05-.16.25-.58a6.8 6.8 0 0 1-3.25-2.07c-1.02-1.31-1.26-1.34-1.29-.17-.02.8-.67-.02-1.45-1.81-1.87-4.3-2.9-4.13-2.06.35.46 2.44.33 3.38-.39 2.94-.58-.36-1.06-.18-1.06.4s.56 1.1 1.25 1.13c.69.04.5.38-.42.75-1.56.63-1.56.81 0 2.73a10.4 10.4 0 0 0 3.48 2.74c2.2.85 1.3 2.71-1.31 2.71-1.04 0-2.19.5-2.56 1.1-.48.77.88 1 4.44.75 2.81-.19 5.12-.01 5.12.4s-1.05.75-2.33.75c-2.62 0-3.34 2.95-.75 3.08.9.04 1.08.28.4.56-.88.36-.85 1.26.14 3.67 2.86 7 2.85 7.45-.19 7.08-2.53-.32-2.5-.25.48.77 1.79.62 3.3 1.74 3.38 2.49.06.74.18 1.87.25 2.5.06.63 1.01 1.46 2.1 1.84 1.6.56 1.26.84-1.77 1.4-4.41.83-3.99 3.02.45 2.37 2.01-.3 2.78-.05 2.46.78-.25.67.04 1.72.66 2.34.83.83.48 1.14-1.33 1.2-1.54.05-1.9.3-.97.66a10 10 0 0 1 2.72 1.81c.97.98.82 1.34-.74 1.75-1.08.28-1.96 1.05-1.96 1.72 0 .75.85.98 2.28.63 2.88-.73 6.72.24 6.72 1.68 0 .6 1.24 2.11 2.75 3.36 2.14 1.76 2.45 2.46 1.4 3.15-1.86 1.24 3.11 2.15 5.24.96 1.2-.67 1.44-.51.99.66q-.55 1.52 1.01 1.54c.89 0 1.5.56 1.36 1.25-.14.7.96 1.39 2.52 1.57 1.7.2 2.5.74 2.08 1.42q-.65 1.08 1.04.44c.94-.36 1.47-.26 1.17.22-.6.96 3.65 4.1 5.55 4.1.64 0 1.81.79 2.6 1.75 1.03 1.27 1.56 1.41 1.94.5.28-.69.96-1.25 1.5-1.25.53 0 .7.42.4.93-.32.51.42 1.64 1.66 2.5 1.83 1.29 1.92 1.57.51 1.57-.95 0-1.72.67-1.72 1.5s.56 1.5 1.25 1.51q1.27.02-.22.95-1.47.93-2.24-.26c-.58-.92-.76-.9-.78.05 0 .69-.74 1.25-1.63 1.25-1.18 0-1.49-.67-1.14-2.5.27-1.37-.1-2.96-.8-3.54-1.58-1.32-6.5-2.28-6.33-1.23.34 2.1-.22 4.27-1.11 4.27-.55 0-.89-.56-.75-1.25.14-.73-.78-1.26-2.21-1.27-1.76-.01-2.66-.73-3.15-2.5-.38-1.36-.74-2-.79-1.43-.06.62-1.64.86-3.85.6-2.06-.25-3.19-.65-2.5-.88 1.75-.6 1.56-2.27-.25-2.27-.82 0-1.5-.48-1.5-1.06s-.42-.8-.93-.48c-1.62 1-2.19-1.3-.85-3.45.93-1.5.97-2.27.16-2.8-.62-.39-1.45-2.17-1.83-3.96-.4-1.79-1.12-3.25-1.63-3.25s-.96 1.46-1.01 3.25l-.09 3.25-.93-3.2c-1.25-4.32-2.89-5.14-2.89-1.45 0 2.53-.33 2.9-2.25 2.54-1.24-.22-1.69-.14-1 .18 1.48.7 1.7 4.43.25 4.43-.55 0-1 .48-1 1.06s.45.78 1 .43c1.78-1.1 4.57.44 4.57 2.5 0 1.11-.46 2.04-1.03 2.08s-.14.46.96.93l2 .86-2 .1c-1.9.1-1.9.16-.18 1.16 1.77 1.03 1.77 1.13 0 3.14-1.96 2.24-2.05 2.24 3.34.07q1.72-.72.91.56c-.42.67-.89 2.42-1.05 3.88s-.8 2.82-1.4 3.02c-2.3.77-1.05 2.41 1.36 1.8 1.95-.49 3.29.14 6.21 2.9 2.05 1.93 3.18 3.51 2.52 3.51s-1.21.48-1.21 1.06 1.01.93 2.25.75c1.67-.23 2.18.14 1.96 1.42-.21 1.27.17 1.56 1.41 1.08 1.26-.48 1.49-.3.88.69-.6.97-.38 1.17.77.73 2-.77 2.65.96 1.68 4.42-.46 1.62-.3 3.13.4 3.9.83.9.84 1.07.01.6-1.28-.7-4 2.04-3 3.04.35.35.64.2.64-.36 0-.55.68-1 1.5-1 2.46 0 1.71 2.2-1.7 5.02-3.3 2.75-6.22 3.4-7.31 1.63-.35-.56-.98-.8-1.42-.53s-.58-.58-.33-1.88c.34-1.77-.09-2.55-1.66-3.04-1.16-.37-1.82-1.14-1.47-1.7.81-1.32-3.84 1.11-4.93 2.57-.45.6-.53.1-.18-1.14.52-1.86.23-2.25-1.68-2.27l-4.36-.09c-1.26-.03-2.54-1.17-3.34-2.98-.7-1.61-1.66-2.7-2.11-2.42-.45.27-.57-.45-.27-1.61.48-1.83.3-1.98-1.36-1.1-2.16 1.16-5.91 5.07-5.3 5.51.24.16 1.62.81 3.1 1.44 2.08.9 2.54 1.63 2.08 3.37-.48 1.83-.26 2.1 1.2 1.54 1.69-.64 1.7-.54.16 1.8-1.42 2.17-1.43 2.41-.09 1.9.85-.33 2.37.16 3.38 1.07 1.01.92 2.46 1.53 3.21 1.37q1.37-.27 1.13 2.02c-.14 1.33.18 2.05.75 1.69.55-.34 1 .12 1 1.01 0 1.49.14 1.5 1.58.05 1.66-1.66 3.43-1.27 3.4.75q0 1.2-.87-.17c-.53-.83-1.1-.97-1.48-.35-1.24 2 2.21 2 4.37 0 1.68-1.57 2.4-1.76 3-.8.42.7 2.44 1.36 4.48 1.49 3.42.2 3.66.04 3.23-2.2-.67-3.51 3.14-4.91 5.43-2 1.47 1.87 1.48 2.24.12 3.6-1.27 1.27-1.3 1.6-.14 1.99a6 6 0 0 1 2.48 1.95c.6.81 1.62 1.16 2.25.77.65-.4 1.43-.02 1.77.88.4 1.02 1.3 1.38 2.5 1 1.06-.35 1.88-.13 1.88.5 0 .6-1.46 1.03-3.25.96s-6.02.2-9.4.6c-3.79.45-7.35.32-9.25-.35-1.7-.59-3.1-.76-3.09-.38.04 1.5 1.58 2.99 3.49 3.36 1.5.3.8.9-2.75 2.37-2.6 1.08-4.74 2.3-4.75 2.69s.68.46 1.5.14c2.03-.78 1.95 2.02-.1 3.73-1.38 1.13-1.83 1.04-3.04-.6-.78-1.08-1.9-3.76-2.5-5.97l-1.44-5.27c-.2-.69-1-1.25-1.8-1.25-1.8 0-1.1 7.35 1.02 10.75.77 1.24 1.14 2.25.81 2.25s.1.69.94 1.53 1.27 2.19.96 3c-.31.8-.08 1.47.51 1.47.6 0 .8.7.47 1.58-.33.86 1.48-.48 4.03-3 2.55-2.51 4.64-5.25 4.64-6.07s.64-1.51 1.42-1.51 1.57-.46 1.76-1.03q.33-1.05 3.63.11c3.59 1.25 5.74.37 2.93-1.2-2.86-1.6-1.99-2.86 2.01-2.9 6.17-.07 8.25-.37 8.25-1.2 0-.43 2.05-.78 4.56-.78 2.78 0 4.32.39 3.94 1-.34.55-.14 1 .44 1s1.06-.47 1.06-1.04c0-.62 1.34-.85 3.25-.55l7.16 1.12 3.9.62-5.4 3.08c-2.98 1.69-8 5.05-11.15 7.47s-8.1 5.32-11 6.44-6.05 2.45-7.01 2.96c-.99.52-1.75.53-1.75.03 0-.48-1.24-1.13-2.75-1.43s-3.44-.83-4.29-1.16c-1.07-.41-1.53.03-1.53 1.47 0 1.31.83 2.27 2.28 2.63 1.26.32 2.29 1 2.29 1.53 0 .52.45.67 1 .33s1-.14 1 .44-.37 1.06-.83 1.06-.84.7-.84 1.57c0 .96.64 1.41 1.62 1.15.88-.23 2.22.24 2.97 1.04 1.17 1.26 1.6.95 3.08-2.25 1.27-2.76 1.87-3.3 2.32-2.1.93 2.4 3.35 1.92 3.26-.65-.06-1.78.69-2.44 3.67-3.18 2.06-.51 3.75-1.33 3.75-1.8 0-1.1 9.13-9.78 10.28-9.78.47 0 2.33-1.12 4.13-2.5s3.6-2.5 3.98-2.5 1.66-.9 2.84-2c3.38-3.15 4.77-2.54 4.77 2.1 0 3.25-.41 4.2-2 4.61-1.1.29-2 .96-2 1.5s.9 1.21 2 1.5c1.8.47 2 1.36 2 9.28v8.76l-3.12.63c-4.6.91-7.88.76-7.88-.38 0-.55-.68-1-1.5-1-1.75 0-1.94 1.16-.44 2.66 1.83 1.83-6.24 4.4-11.79 3.75-4.45-.51-4.64-.45-2.83 1.02 2.94 2.38 10.2 1.95 16.47-.97 2.98-1.38 5.88-2.36 6.44-2.18 1.16.39-9.63 7.12-13.1 8.17-1.24.38-2.25 1.31-2.25 2.09 0 .83.6 1.17 1.5.82 1.1-.42 1.53.18 1.62 2.28.07 1.72.3 2.15.57 1.1.25-.97.88-1.5 1.39-1.2.5.32.92.1.92-.48s-.45-1.06-1-1.06a1 1 0 0 1-1-1c0-.55.56-1 1.25-1.01.69 0 4.12-1.83 7.62-4.05s6.55-3.85 6.78-3.62-.02 2.37-.56 4.76q-.98 4.35.04 5.57c.68.83.66 1.88-.08 3.27a7.3 7.3 0 0 0-.48 4.5c.91 3.65-.05 4.4-4.55 3.58-2.21-.4-4.02-.37-4.02.08 0 .44 1.9 1.18 4.24 1.64 6.68 1.32 6.13 3.66-1.44 6.17-8.45 2.81-12.13 3.44-19.62 3.33-5.15-.08-6.12.15-5.22 1.23 2.22 2.67 9.51 2.38 23.82-.97 1.92-.45 2.21-.18 1.9 1.75-.22 1.25-.2 1.7.04 1.02.47-1.37 1.35-1.54 3.59-.68 1.64.62 1.21 3.7-.94 6.87-1.13 1.65-1.08 2.22.3 3.76 1.38 1.51 1.7 4.95 1.99 21.05.19 10.59.45 22.51.59 26.5s-.07 7.25-.47 7.25-.45.7-.12 1.57c.33.86.02 2.65-.69 3.98-1.06 1.98-1.06 3.48-.01 8.15.88 3.95.95 5.83.22 6.07-.59.2-.87.9-.63 1.55 1.36 3.72-5.12 5.68-18.82 5.68-7.7 0-13.7.64-20.04 2.13-8.12 1.9-9.74 2-15.62.88-7.7-1.45-12.8-1.07-27.04 2.02-8.3 1.8-11.25 2.06-14.25 1.26-2.08-.56-3.78-.62-3.78-.15s.87.86 1.94.86c2.96 0 3.29 1.58.58 2.81-1.84.84-4.18.73-9.72-.45-5.7-1.2-10.93-1.42-23.8-.97-17.05.6-34.8 1.97-41.12 3.15-2.28.43-3.88.27-4.31-.43-1.06-1.71-4.88-1.33-12.81 1.28-4.79 1.58-12.03 2.82-21.26 3.62-7.7.68-14.74 1.62-15.65 2.1-1.85.96-3.5 1.17-26.85 3.4-9.07.88-17.4 2.02-18.5 2.55-1.58.77-1.26.87 1.5.5 1.93-.26 9.57-.73 17-1.04 13.24-.55 13.74-.37 6.64 2.4-2.38.93-2.65 1.36-1.63 2.6a4.6 4.6 0 0 0 3.11 1.48c1.03 0 1.88.67 1.88 1.5s-.68 1.5-1.5 1.5-1.5.45-1.5 1c0 1.3 1.27 1.23 8.5-.52 3.3-.8 7.57-1.46 9.5-1.48 2.63-.02 3.13-.27 2-1-.82-.53-1.05-.96-.5-.95.55 0 1.75.59 2.68 1.29 1.55 1.18 1.54 1.36-.19 2.43-2.33 1.46-12.9 3.21-19.4 3.22-7.7.01-4.54 1.24 5.14 2l8.77.68-4.25 1.82q-4.23 1.82-4.25 3.66c0 1.02.45 1.85 1 1.85s1-.46 1-1.02 1.16-1.47 2.57-2c1.41-.54 4-2.05 5.75-3.35a34 34 0 0 1 7.93-3.93c5.45-1.81 5.82-1.23 2.9 4.5l-1.85 3.64 2.41-.92c1.33-.5 3.44-.92 4.7-.92 2.01 0 2.25.47 2.18 4.25-.08 4.01.08 4.27 2.91 4.53l3 .29-2.32-1.84c-1.81-1.44-2.17-2.42-1.64-4.53.37-1.49 1.3-2.7 2.07-2.7 1.6 0 1.86 1.6.39 2.5-1.43.88-1.24 2.5.3 2.5.72 0 2.4-2.18 3.72-4.85 1.96-3.92 2.9-4.83 4.95-4.78 1.4.04 3.62-.31 4.95-.77l2.41-.84-2.1 2.67c-2.93 3.73-3.53 7.5-2.27 14.25 1.01 5.43.94 5.94-1.05 7.57-1.17.96-1.7 1.75-1.18 1.75.53 0 1.69-.8 2.58-1.79 1.4-1.54 1.47-2.7.55-8.27-.89-5.33-.8-7.13.45-10.14 1.74-4.16 7.18-7.71 9-5.88.79.78.74 1.43-.17 2.33-1 1-1.13.85-.64-.75.35-1.11-.08-.78-.97.75-.88 1.53-2.47 2.75-3.56 2.75-1.41 0-1.94.64-1.85 2.25q.1 2.28.55.6c.24-.9 1.2-1.92 2.13-2.25.94-.33 2.26-.86 2.95-1.18 1.87-.87 1.53 2.12-.75 6.58-2.15 4.21-2.62 8-1 8 .55 0 1-.68 1-1.5 0-.83.9-3.19 2-5.24s2-5.09 2.01-6.75c.02-2.08.29-2.59.88-1.65.73 1.15.97 1.15 1.5 0 .35-.75.42.36.17 2.46-.32 2.67-.1 3.7.74 3.42 1.6-.53 2.12-7.52.68-9.26-.95-1.15-.3-1.32 3.83-1.04 5.1.35 10.81 2.46 6.82 2.53-1.44.02-1.62.34-.78 1.35.79.95.8 1.64.03 2.4-.6.6-.78 2.02-.41 3.18.74 2.33 2.53 2.86 2.53.75 0-2.29 3.4-4.62 5.8-3.99 1.9.5 2.05.83.97 2.21-1.13 1.45-1.08 1.48.48.26 2.32-1.82 2.22-3.13-.25-3.13-3.43 0-2.2-1.86 2.08-3.14 3.4-1.02 4.23-.99 4.98.2.73 1.15.93 1.03 1-.56.08-1.56.32-1.38 1.12.8.56 1.54 1.48 2.65 2.05 2.46 1.58-.53 6.77 5.14 6.77 7.4 0 1.1-1.31 3.3-2.92 4.92-1.61 1.6-2.53 2.92-2.04 2.92 1.23 0 4.82-4 5.5-6.12.75-2.36 4.45-3.5 5.57-1.74.47.75.87 2.55.88 4 0 1.48.7 2.91 1.6 3.25 2.24.86 2.41.8 2.41-.96 0-.86.46-2.41 1.01-3.46 1.2-2.22 4.16-1.54 3.76.86-.15.88.52 1.76 1.48 1.96 1.09.22 1.75-.25 1.75-1.25 0-1.3.38-1.4 2-.53 1.51.8 1.86 1.7 1.4 3.53-.36 1.44-.18 2.46.43 2.46.63 0 .88 1.79.61 4.58-.64 6.87 1.89 5.13 2.77-1.91.4-3.12 1.27-6.68 1.95-7.92 1.18-2.17 1.3-2.08 3.22 2.5 1.95 4.66 3.62 6.18 3.62 3.28 0-.8-.76-3.05-1.68-4.98-2.05-4.3-1.25-5.4 2.28-3.08 2.18 1.43 2.8 1.5 3.51.38.47-.74.87-1.91.88-2.6 0-.69.7-1.25 1.53-1.25 1.1 0 1.35.66.92 2.37-.45 1.8.06 2.88 2.12 4.5 2.64 2.08 10.21 4.7 11.08 3.82.24-.24-1.54-.93-3.97-1.54-2.42-.61-5.47-2-6.79-3.1l-2.38-1.98 5.5-.2 5.5-.2-5.5-.67c-3.02-.37-4.94-.75-4.25-.84s1.25-.81 1.25-1.61.75-1.87 1.66-2.38c1.27-.7 1.61-2.21 1.48-6.43-.14-4.16.2-5.65 1.36-6.1 1.25-.48 1.35-.23.52 1.32-2.1 3.93-1.1 6.66 4.8 13.14 3.2 3.52 6.07 7.07 6.38 7.9.72 1.94 9.34 8.13 10.17 7.3 1.15-1.15.66-2.16-1.38-2.8-1.11-.36-1.78-1.04-1.48-1.52.3-.49-.37-1.37-1.48-1.97-2.84-1.51-2.58-3.37.36-2.63 1.31.33 4.5.2 7.07-.27 4.47-.84 4.72-.76 5.67 1.73a6.1 6.1 0 0 1-.1 5.01c-1.3 2.82-.66 3.92 1.3 2.28 1.15-.94 1.3-.68.9 1.46s-.17 2.54 1.38 2.25c1.32-.25 1.99-1.37 2.21-3.7.24-2.44 0-3.14-.9-2.59q-1.18.7-.53-.37c.38-.61-.04-2.54-.93-4.27-1.29-2.48-1.37-3.38-.4-4.27.96-.88 1.08-.7.54.8-.65 1.84-.59 1.86 1.19.25 2.8-2.54 3.21-2.14 3.21 3.16 0 5.24 1.64 11.15 3.1 11.15 1.15 0 1.14-1.24-.06-4.39-.74-1.95-.66-2.4.37-2 .86.32 1.56-.65 2.01-2.8l.7-3.31 2.94 3.46c1.62 1.9 2.94 2.84 2.94 2.08s-.75-2.2-1.65-3.21c-1.55-1.7-1.55-1.83 0-1.83.9 0 1.65.71 1.65 1.58 0 2.48 2.27 1.14 4.92-2.9 1.33-2.02 2.63-3.46 2.89-3.2s-.1 1.17-.81 2.02c-1.6 1.93-.67 3 1.7 1.97a7 7 0 0 1 3.18-.56c1 .17 1.2-.46.74-2.3-.5-1.99-.12-2.9 1.71-4.1 2.18-1.42 5.85-7.35 3.75-6.06-1.36.84-2.5-1.44-1.3-2.62 1.23-1.24 2.24.2 2.85 4.03.31 2-.26 3.38-2.1 5.11-2.76 2.6-3.32 5.03-1.15 5.03.75 0 1.66 1.46 2.02 3.23.74 3.74 5.76 11.79 6.31 10.14.2-.61-.77-3.26-2.17-5.89s-2.54-5.68-2.54-6.8c0-2.63 5.22-11.52 5.78-9.83.24.7-.51 2.3-1.67 3.54-1.16 1.23-2.11 2.71-2.11 3.29 0 1.4 3.91 6.32 5.03 6.32.48 0-.22-1.1-1.57-2.46-2.72-2.7-3.08-4.52-1.26-6.34 1.96-1.96 2.59-1.42 3.3 2.8.37 2.2 1.14 4 1.7 4 .95 0 .65-3.4-.88-9.75-.38-1.61-.09-2.25 1.05-2.25 1.2 0 1.44.68 1.02 2.8-.4 1.97-.04 3.25 1.18 4.26 1.63 1.34 1.66 1.29.34-.83-1.23-1.99-1.2-2.64.24-5.15 1.1-1.95 1.31-3.22.64-3.9-1.07-1.06-.28-3.18 1.18-3.18.46 0 1.63 4.37 2.6 9.7 1.6 8.94 1.61 9.92.13 12.5-.88 1.54-1.2 2.8-.71 2.8 1.24 0 2.25-1.73 4.1-6.98 1.19-3.41 2.15-4.6 3.94-4.87 2.16-.31 2.24-.18.92 1.42-1.34 1.62-1.3 1.65.7.41 1.18-.73 1.92-1.93 1.64-2.66s.17-1.32 1.02-1.32c1.28 0 1.33.48.36 3.05-.94 2.52-.85 3.57.54 6 1.63 2.83 1.62 2.95-.22 2.95-1.08 0-2.98-1.56-4.35-3.58-1.42-2.1-2.7-3.13-3.1-2.5-.36.6-.17 1.08.42 1.08.6 0 1.6 1.14 2.23 2.52a5.8 5.8 0 0 0 3.73 3.05c1.42.3 4.94 1.27 7.83 2.19 4.33 1.36 5.25 2.06 5.25 3.95 0 1.26.45 2.29 1 2.29s1-.94 1-2.08c0-1.24.5-1.9 1.25-1.65.69.25 1.19 1.18 1.11 2.09s.19 1.64.58 1.64c1.34 0 3.06-4.48 3.82-9.99.54-3.85 1.25-5.58 2.38-5.8 2.44-.47 3.17 5.43 1.4 11.3-.8 2.7-1.29 5.08-1.07 5.3 1.13 1.12 2.55-1.53 4.14-7.7 1.46-5.66 2-6.64 3.08-5.56 1.52 1.51 1.72 4.08.4 4.9-.5.3-1.13 0-1.39-.7-.26-.68-.3.7-.1 3.08.44 5.1.8 5.81 3.7 7.23 2.05 1 2.04.94-.16-.83-2.27-1.84-2.31-2.1-1.1-7.5 1-4.53 1-6.2-.03-8.7-1.1-2.68-1.04-3.33.51-5.05 2.1-2.33 3.93-1.32 4.95 2.74.46 1.86.2 2.89-.9 3.5-2.4 1.34-1.91 3.05 2.06 7.35 3.27 3.54 3.4 3.6 1.25.58l-3.38-4.78c-.71-1.02-.57-1.7.5-2.37 1.1-.7 1.74-.42 2.4 1.02a3.7 3.7 0 0 0 3.2 1.98c1.25 0 2.56.45 2.9 1s2.4 1 4.56 1c3.33 0 3.94.32 3.94 2.1 0 1.25-.8 2.3-2 2.61-1.87.49-2.9 2.33-1.25 2.26 2.05-.09 4.38-3.02 4.08-5.14-.27-1.93-1.02-2.39-4.32-2.65-2.19-.18-4.22-.63-4.5-1a11 11 0 0 0-2.51-1.78c-1.1-.61-2.8-3.23-3.76-5.82l-1.76-4.72 2.26.73c1.24.4 2.82.73 3.51.73s1.25.44 1.25.96c0 .53-.9.72-2 .43s-2-.12-2 .38 1.76.91 3.92.91c2.2 0 4.13.55 4.42 1.25.39.96.52.95.58-.06.04-.72.53-1.03 1.08-.69s1 .14 1-.44 1.09-1.06 2.42-1.06c3.38 0 8.58 4.6 8.58 7.59 0 1.32.56 2.48 1.25 2.56 6.36.78 8.75 2 8.75 4.46 0 1.31.45 2.39 1 2.39s1-.85 1-1.9c0-1.03.77-2.18 1.72-2.55.98-.37 1.3-.96.75-1.35-.53-.39-1.07-1.6-1.19-2.7s-.5-3.4-.85-5.13c-.34-1.72-.24-3.37.22-3.65.47-.29.88 1 .92 2.86.08 3.6 2.77 7.42 5.24 7.42 1.32 0 1.32-.2-.03-1.75-2.49-2.85-3.81-6-3.2-7.6.76-1.98 3.18-2.85 4.04-1.45q.63 1.06-.55.34c-.88-.54-1.14-.07-.9 1.6.3 2.14.83 2.36 5.54 2.36 4.6 0 5.56.38 8.2 3.25 1.64 1.79 3.7 3.25 4.57 3.25s1.83.64 2.13 1.42c.3.79 1.15 1.66 1.9 1.94 1.08.42 1.14-.07.3-2.47-1.37-3.94-.77-4.32 3.76-2.43 2.9 1.22 3.51 1.86 2.6 2.76-.64.65-1.17 1.64-1.17 2.2s.73-.01 1.62-1.28q1.61-2.32 2.62-1.3c1.1 1.1 3.82.42 5.03-1.27.5-.7 1.17-.37 1.92.93 1.8 3.12 7.8 8.84 8.52 8.12.36-.35-.5-1.87-1.88-3.38-2.87-3.11-5.83-7.36-5.83-8.36 0-1.73 3.6-1.7 7.6.06 2.42 1.07 4.4 1.73 4.4 1.45 0-.27-1.84-1.3-4.08-2.31l-4.08-1.83 2.88-1c2.55-.9 3.75-.46 10.73 3.84 4.31 2.66 8.2 4.63 8.63 4.36s1.1.04 1.5.69q.75 1.18-.68.37-1.44-.83-.4.25c.55.57 1.87 1.2 2.94 1.4 1.22.22 2.25 1.58 2.8 3.72l.88 3.37 7.71-.45c4.24-.24 8.6-1 9.69-1.7 1.97-1.24 1.97-1.25-.02-.56-1.1.38-5.25.93-9.23 1.2-6.45.47-7.3.32-7.83-1.36a35 35 0 0 0-2.08-4.63c-1.47-2.75-1.47-2.75 1.88-2.75 1.85 0 3.94.56 4.66 1.25 1.05 1.01 1.23.87.94-.75s-1.28-2.06-5.35-2.31c-3.79-.24-5.67-.96-7.8-3l-2.82-2.69 2.81-1.23c2.71-1.19 2.67-1.21-1.2-.66-3.37.48-4.32.2-5.98-1.77-1.09-1.29-1.58-2-1.08-1.6s1.48.26 2.19-.33c1.5-1.25 8.31.79 8.5 2.54.07.58.18 1.71.25 2.52.08.8 2.36 2.29 5.07 3.3a32 32 0 0 1 8.73 5.26c4.4 3.98 7.8 5.1 10.75 3.52 2.37-1.27 2.89-3.59.59-2.66l-2.91 1.18c-.81.33-3.1-.95-5.36-2.99-2.17-1.96-5.47-4.22-7.34-5.03l-3.39-1.47 4.45-.04c3.48-.03 5.04.54 7.23 2.64 2.99 2.86 5.13 2.52 2.67-.42-.8-.97-2-3-2.63-4.51-.98-2.29-.93-2.75.3-2.75.82 0 1.5.56 1.52 1.25.05 1.9 6.97 6.75 9.62 6.75 1.35 0 2.34.6 2.34 1.42 0 .89 1.86 1.81 5.03 2.5 2.77.59 6.8 1.98 8.96 3.08 4.03 2.05 7.01 2.58 7.01 1.25 0-.41-1.01-.8-2.25-.86s-4.5-1.05-7.25-2.2a56 56 0 0 0-7.75-2.66c-5.18-1.07-2.95-2.58 2.89-1.96 4.13.44 5.85.25 6.46-.73.63-1.01 1.1-1.05 2-.14.75.75 2.9.97 5.99.6 3.7-.43 5.87-.07 9.35 1.57 4.78 2.24 6.57 2.62 6.55 1.38-.01-1.18-10.84-7.73-17.93-10.86-5.72-2.52-6.16-2.9-4-3.51 2.3-.64 2.27-.69-.56-.8-2.26-.08-3.55-.96-5.26-3.6-1.24-1.91-2-3.48-1.68-3.48s2.6 1.4 5.08 3.1c4.32 2.97 6.37 3.33 4.84.87-.4-.64-2.62-2.37-4.94-3.84-3.4-2.16-4.08-3.06-3.49-4.66.69-1.85.78-1.86 1.47-.17.55 1.35 1.41 1.65 3.42 1.21 2.93-.64 5.57 1.46 6.21 4.94.2 1.07 1.83 2.8 3.63 3.85 3.44 2.01 17.54 6.02 16.76 4.77-.25-.4-3.06-1.31-6.24-2.02a50 50 0 0 1-9.55-3.19c-3.23-1.64-3.75-2.37-3.75-5.32 0-1.88-.43-3.69-.96-4.02-1.04-.64 2.32-4.52 3.91-4.52 2.04 0 8.04 7.41 8.65 10.69.78 4.16 4.8 7.36 6.7 5.31.94-1 .93-1.14-.03-.6-1.9 1.07-4.97-1.07-5.5-3.84l-.48-2.5 2.93 2.47c2.97 2.5 5.78 3.25 5.78 1.54 0-.52-.87-1.21-1.94-1.55-2.24-.71-8.45-7.46-7.63-8.29 1.48-1.47 13.57 7.07 13.57 9.59 0 .53.67 1.22 1.5 1.54s1.5.14 1.5-.4a1 1 0 0 0-1-.96c-.55 0-1-.42-1-.94 0-1.5 8.22-1.7 11.25-.3 3.28 1.54 3.7.82.52-.88-1.22-.66-4.75-1.1-7.84-.99-5.38.2-5.74.05-8.4-3.43-1.93-2.54-3.33-3.49-4.65-3.14-1.03.27-1.88.14-1.88-.29s-1.28-1.04-2.85-1.35c-4.33-.87-10.15-4.66-10.15-6.62 0-4.28 5.22-5.91 14.18-4.43 3.2.53 4.3 1.52 8.25 7.48 2.52 3.77 4.57 7.27 4.57 7.77 0 1.28 2.9 2.42 7 2.74 3.34.26 3.29.21-1-1.16-3.85-1.23-5.13-2.4-8.82-8.05-2.38-3.63-4.09-6.83-3.8-7.12.28-.28 3.65.44 7.5 1.6 4.74 1.45 10.25 4.35 17.24 9.1 5.64 3.83 10.47 6.75 10.74 6.49s.29-.62.06-.8c-.23-.16-4.06-3.04-8.5-6.39-15.82-11.9-24.91-14.76-46.92-14.78-14.93-.01-15.03 0-22.5 3.39-8.7 3.95-16.76 4.48-25.93 1.73-2.99-.9-8.74-1.63-12.78-1.63-8.32 0-14.2-1.96-15-4.99-.6-2.31-.52-2.3-13.79-2.08-7.13.12-9.57-.13-8.5-.87.92-.63 1.04-1.03.3-1.04-.65-.01-1.46.44-1.81 1s-1.1.72-1.67.37c-.57-.36-1.39-.1-1.8.59-.58.93-1.94.69-5.64-1-6.76-3.1-22.86-3.85-33.76-1.6-10.77 2.23-12.86 2.07-18.48-1.39-5.89-3.62-12.58-5.02-20.64-4.33-4.52.4-6.5.14-8-1.04-1.1-.86-1.5-1.57-.89-1.59 1.72-.05.42-5.22-1.96-7.83-1.68-1.85-1.83-2.47-.75-3.14 1.55-.96.63-3.06-1.33-3.06-.82 0-1.5-1.74-1.83-4.61-.72-6.36.2-12.39 1.9-12.39 1.95 0 1.69-1.79-.33-2.18-2.14-.41-2.68-9.82-.56-9.82 1.06 0 1.05-.52-.05-2.75-.81-1.64-1.19-4.67-.93-7.5.4-4.43.59-4.7 2.83-4.13 2.46.61 3.43-1.04 1.15-1.96-.69-.27.89-.54 3.5-.58 3.86-.07 4.76.25 4.83 1.67q.09 1.66.6.47c.28-.71 0-1.9-.63-2.67q-1.14-1.36-.13-2c1.63-1.01 10.94.58 12.19 2.08.62.75 1.62 1.37 2.2 1.37.6 0 .23-.62-.8-1.37-1.84-1.34-1.84-1.4.05-1.95 6.23-1.84 9.25-1.85 10.3-.02.6 1.01 1.1 1.37 1.11.79s-.52-1.6-1.2-2.28c-.98-.98-.75-1.36 1.08-1.84 1.69-.44 1.96-.83 1.01-1.42-.74-.45-1.6-.33-1.98.29-.4.66-1.41.77-2.53.29-1.02-.45-2.3-.68-2.85-.53-4.83 1.33-12.05 2.82-12.32 2.55-.91-.9 2.14-4.6 3.4-4.12.78.3 1.42.06 1.42-.54 0-.63-.93-.83-2.25-.48-1.24.33-3.49.6-5 .62-1.68 0-2.75.55-2.75 1.4 0 1.38-2.08 2.62-4.33 2.6-.67-.01-.53-.43.33-.99 1.28-.83 1.25-.97-.25-.99-.96 0-1.75.62-1.75 1.38 0 1.51-2.1 2.61-4.98 2.61-1.42 0-1.9-.94-2.17-4.25-.56-6.75.19-30.75.96-30.72.38.02 3.62 2.76 7.19 6.09 7.57 7.05 14.2 11.24 16.72 10.56 1.5-.4 1.42-.58-.56-1.21q-2.3-.76-1.14-1.48c.66-.41-.83-1.03-3.42-1.42-2.53-.38-4.6-1.08-4.6-1.56s-.7-1.57-1.57-2.44c-1.43-1.43-1.4-1.57.3-1.57 1.03 0 2.3.4 2.82.9.52.49 2.36 1.19 4.07 1.55 2.33.49 3.28.26 3.72-.9.45-1.18-.09-1.55-2.25-1.55-3.48 0-13.15-4.16-15.09-6.5-1.32-1.6-1.18-1.6 2.42-.1 2.1.88 5.15 1.6 6.77 1.6s3.7.38 4.63.84c.92.47 2.8.53 4.18.14 2.15-.6 2.25-.8.75-1.45-.96-.4-1.75-1.2-1.75-1.77 0-.66 2.2-.77 6.25-.33 9.38 1.04 10.45 1.47 12.14 4.9.91 1.85 1.57 2.46 1.59 1.48.01-.93-.43-1.97-.98-2.31-1.68-1.04-1.11-2.67.75-2.12 4.58 1.35 9.25 1.77 9.25.84 0-1.39-7.4-4.22-11.02-4.22-1.64 0-2.98-.45-2.98-1a1 1 0 0 1 1-1c.55 0 1-.46 1-1.03s-1.37-.31-3.12.6c-2.56 1.32-3.9 1.41-7.44.52a44 44 0 0 0-8.88-1.09c-2.59 0-4.56-.47-4.56-1.08 0-.59-1.24-.97-2.75-.84s-5.34-.11-8.5-.54l-5.75-.77v-3.68c0-2.03.54-4.23 1.2-4.89.93-.93.93-1.47 0-2.4-1.75-1.75-1.62-14.8.14-14.8.74 0 3.96.9 7.15 2s8.67 2.5 12.18 3.1c4.46.78 6.68 1.68 7.39 3 .55 1.05 1.48 1.9 2.05 1.9s.24-.79-.72-1.75c-1.67-1.67-1.38-1.76 6.17-2.05 10-.37 12.56-2.2 3.08-2.2-3.94 0-6.52-.39-6.18-.94.36-.57-.68-.57-2.7.02-2.18.63-5.07.55-8.76-.23-4.87-1.04-5.22-1.27-3-2 1.85-.6 1.45-.7-1.58-.35-4.77.55-8.1-1.29-7.09-3.92.36-.94 1.1-1.43 1.66-1.08s1.01.25 1.01-.2c0-1-4.39-2.9-8.75-3.8-2.99-.6-3.25-.97-3.25-4.5 0-2.17.54-4.01 1.25-4.25.98-.33.96-.77-.09-2.05-.87-1.06-1.1-2.7-.65-4.74l.69-3.12 2.21 2.08c1.22 1.14 2.75 2.08 3.4 2.08.66 0 1.19.4 1.19.9s1.46.72 3.25.5c4.64-.56 4.93-.55 8.17.21l2.93.69-2.35-3.4-2.62-3.77c-.15-.2-1.67.12-3.36.71-1.8.63-2.84.68-2.5.12.33-.53-.03-.96-.8-.96-2.25 0-4.75-3.33-3.74-4.98.49-.78.67-1.78.4-2.22-.9-1.45 1.34-.84 8.11 2.2 3.68 1.65 7.43 3.8 8.35 4.8.91.98 1.21 1.15.67.35-.79-1.14-.58-1.32 1-.85 8.95 2.62 10.54 2.79 12.09 1.25 1.4-1.4 1.31-1.55-.78-1.56a23 23 0 0 1-4.82-.7l-2.5-.68 2.5-.79c1.9-.6 1.57-.69-1.32-.36-4 .46-8.62-1.02-9.98-3.19a3 3 0 0 0-2.25-1.27c-.8 0-1.46-.56-1.47-1.25 0-.9-.25-.87-.88.13-1 1.56-3.1.67-3.1-1.3q-.01-1.3 2.75-.8c3.46.62 2.69-.27-1-1.16-2.08-.5-2.75-.29-2.75.86 0 .84-.41 1.52-.92 1.52-1.25 0-7.08-4.96-7.08-6.02 0-1.49 3.13-4.02 4.18-3.37.59.36.85-.16.63-1.24-.8-3.94 8.46-6.9 13.38-4.27 1.19.64 1.8.68 1.44.1-.34-.54.1-1.26.96-1.6 2.32-.89 2.56-.77 2.32 1.15-.32 2.56 1.07 5.2 2.45 4.66.66-.25 2.07.18 3.13.96 1.7 1.24 2.1 1.22 3.08-.14.78-1.06 1.74-1.3 3.03-.74 3.25 1.39 4.4 1.38 4.4-.03 0-.75-.79-1.87-1.75-2.49-1.6-1.03-1.6-1.08-.03-.59.94.3 1.99.1 2.32-.44s1.1-.67 1.7-.29c1.8 1.1 8.76 2.15 8.76 1.3 0-.42.9-.53 2.01-.24 1.43.38 1.87.13 1.5-.84-.4-1.03.44-1.33 3.4-1.23 2.17.09 4.43.45 5.02.81s1.07.2 1.07-.4c0-.57.79-1.06 1.75-1.08 1.92-.04 5.25-2.24 5.25-3.47 0-.43-.79-1.38-1.75-2.1-2.19-1.67-.34-1.86 4.5-.47 3.35.96 4.12.34 2.08-1.7-.89-.89-.75-1.32.58-1.83 1.42-.55 1.12-.94-1.58-2.13-1.83-.8-4.11-1.86-5.07-2.36-2.98-1.56-6.89-1.12-6.55.74q.29 1.64-1.96 1.83c-1.24.1-2.25-.18-2.25-.62s-.67-.54-1.5-.22-1.5 1.45-1.5 2.53c0 1.13-.45 1.67-1.07 1.29-.59-.37-.82-1.3-.52-2.08.41-1.08.12-1.2-1.18-.54-.95.49-2.25.7-2.89.47a1.6 1.6 0 0 0-1.8.64c-1.23 1.98-2.69 1.1-1.97-1.2.7-2.24.68-2.24-1.46-.32-1.55 1.38-2.46 1.62-3.24.84s-.65-1.04.47-.93c.85.09 1.53-.25 1.51-.75-.01-.5.67-1.3 1.52-1.78a2 2 0 0 0 .95-2.42c-.48-1.26 0-1.46 2.58-1.05 2.88.45 3.13.3 2.56-1.67-.35-1.2-1.78-3.14-3.18-4.32l-2.55-2.14 2.88-1.57c1.6-.86 2.5-1.58 2.02-1.6-.47-.02-.12-1.16.78-2.54.9-1.37 1.22-2.5.7-2.5-.5 0-.69-.9-.4-2s.16-2-.27-2c-1.5 0-7.33 7.13-6.85 8.37.27.71-1.01 1.81-3.07 2.62-2.59 1.02-3.39 1.84-3 3.08.39 1.22-.2 1.88-2.08 2.36-1.8.45-2.44 1.13-2.04 2.16.32.83.2 1.28-.28.99-.47-.3-1.69.39-2.7 1.51-1.75 1.93-1.92 1.95-3.13.28-1.21-1.64-1.29-1.63-1.29.24 0 1.1-.54 2.53-1.2 3.19-1.4 1.4-5.8 1.62-5.8.3 0-.5-2.81-.7-6.25-.43-4.72.37-5.88.22-4.75-.62 1.18-.87.9-.97-1.26-.47-7.6 1.76-12.2-1.99-11.06-9.01.59-3.61 1.73-4.61 2.66-2.32.37.92.52.94.58.04.04-.66 1.19-.1 2.54 1.25 1.34 1.36 3.6 2.46 5 2.46s2.54.39 2.54.86c0 .48 1.01.76 2.25.63s2.84-.3 3.57-.36c.84-.08 1.09-.84.68-2.13-.72-2.26.56-2.57 3.69-.9 1.6.86 1.88.82 1.27-.17-.58-.93-.28-1.08 1.13-.54 1.53.58 1.66.48.66-.53-2.03-2.05-1.43-2.88 1.32-1.84 3.41 1.3 3.89 1.24 2.56-.36-.61-.74-.82-1.64-.46-2 .37-.36.17-.66-.43-.66-.61 0-.97-1.23-.8-2.75.33-2.87 2.05-3.37 5.97-1.72q1.92.81 1.25-.27c-.42-.68.07-.88 1.34-.55 2.59.68 7.33-2.4 6.61-4.28q-.56-1.43 1.54-1.43c1.62 0 1.96-.46 1.53-2.1-.44-1.7-.17-2 1.39-1.6 1.25.33 1.93 0 1.93-.93 0-1.11.44-1.2 1.93-.4 2.46 1.31 4.37 1.33 3.57.03-.34-.55-.12-1 .5-1s.8-.56.39-1.25c-.4-.69.14-.49 1.21.45q1.94 1.69 3.38.81c.78-.48 1.76-.67 2.18-.41 1.23.76 4.61-2.7 4.36-4.47-.13-.9-.05-1.13.17-.53s1.43.9 2.68.67c2.31-.44 2.81-2.55 1.21-5.14-.66-1.06-.41-1.11 1.23-.23 2.92 1.56 3.5 1.38 2.9-.9-.38-1.47-.03-2 1.32-2 1.02 0 2.13-.45 2.47-1s.14-1-.44-1-1.06-.67-1.06-1.5-.56-1.53-1.25-1.56-.2-.48 1.06-1c1.28-.5 2.04-1.38 1.7-1.93-.35-.56-.15-1.01.43-1.01 1.75 0 1.2-1.83-.66-2.18-1.48-.29-1.38-.66.75-2.73q2.53-2.43.75-1.78c-1.44.5-1.62.13-1.12-2.35.76-3.8-1.32-3.99-2.74-.24-.83 2.18-1.22 2.42-1.96 1.25-.57-.9-.94-1-.95-.28 0 .66.44 1.47.99 1.81 1.47.91 1.24 1.92-1.14 4.95-1.64 2.09-2.33 2.4-2.98 1.38-.64-1-.85-1.02-.87-.08 0 .69-1.13 1.25-2.51 1.25-2.82 0-3.22 1.16-1.01 3 .82.67 1.23 1.65.91 2.16-.35.57-1.09.51-1.86-.13-1.44-1.2-4.64-.33-5.79 1.55-.4.68-1.65 1-2.75.71-1.4-.36-2-.03-2 1.1 0 .88-.45 1.61-1 1.61s-1-.5-1-1.12c0-.78-.46-.74-1.5.12-1.2 1-1.5.99-1.5-.04 0-.71-.27-1.02-.6-.7-.33.34-1.57.25-2.75-.2a7.5 7.5 0 0 0-4.5.08c-1.93.71-2.26 1.38-1.78 3.62l.58 2.74-1.23-2.5c-1.52-3.1-4.7-6.36-5.46-5.6-.32.32-1.15.1-1.85-.48-.9-.75-1.87-.74-3.28.01-2.57 1.38-4.08 1.36-2.13-.02 1.18-.84.93-.98-1.16-.64-2.05.32-2.53.07-2.08-1.09.47-1.22-.04-1.37-2.69-.84-1.8.36-4.44.35-5.88 0-2.4-.6-2.45-.73-.65-1.46 1.22-.5.45-.6-2.04-.28-3.02.38-5.09-.09-8.46-1.92-2.45-1.34-4.62-3.05-4.82-3.8-.3-1.1-.18-1.11.53-.1.5.71 1.67 1 2.6.64a3.3 3.3 0 0 1 2.91.38c.85.7 2.8.6 6.24-.32 2.75-.74 4.39-1.37 3.64-1.41-.77-.04-1.11-.7-.8-1.54.32-.8.14-1.73-.38-2.06-.53-.32-.95-1.35-.93-2.28.03-1.46.24-1.42 1.56.31.84 1.1 2.17 1.87 2.97 1.7.79-.16 1.44.07 1.44.5 0 1.16 7.37.98 8.24-.2.4-.55.74-.15.75.9.01 1.88.05 1.88 2.18 0 1.2-1.04 1.9-1.41 1.55-.82-.35.6 0 1.09.78 1.09s1.18-.38.9-.84c-.29-.46-.01-.83.6-.83.62 0 .8-.52.4-1.15-.39-.64-.28-.9.24-.57.53.32 1.6.2 2.38-.29 1.16-.72 1.02-1.22-.8-2.8-2.45-2.13-2.9-3.37-.97-2.69.69.24 2.38.66 3.75.93s3.58.8 4.9 1.19c1.7.49 2.2.36 1.7-.46q-.7-1.16 2.1-1.28l2.8-.12-2.73-.63-2.74-.63 2.49-1.16c1.88-.87 2.34-.87 1.9 0-.3.64.08.37.87-.59s1.97-1.75 2.63-1.75.92-.45.58-1-.21-1 .28-1c1.5 0 2.98-4.37 2.2-6.5-.4-1.1-.3-2.53.21-3.18q.95-1.19-1.09-3.22c-2.37-2.37-1.2-3.61 3.1-3.28 2.53.2 2.68 0 1.84-2.2-.5-1.33-.6-2.76-.23-3.18.38-.42-.21-.46-1.31-.1-1.85.61-1.87.56-.27-.69.96-.74 1.4-1.68 1-2.08s-.28-.65.27-.54c2.44.5 3.07-.26 2.96-3.55-.14-4.05.7-4.96 5.54-6 3.22-.69 3.32-.82 1.27-1.58-2.42-.89-2.16-3.9.34-3.9.76 0 1.39-.48 1.39-1.06s-.45-.78-1-.44-1-.33-1-1.5c0-1.96-.17-1.92-2.48.7-2.1 2.37-2.64 2.57-3.5 1.3-.74-1.09-.84-.56-.36 1.9.47 2.46.33 3.21-.5 2.7-.64-.4-1.16-.24-1.16.34s-1.12 1.06-2.5 1.06-2.5.45-2.5 1 .56 1 1.25 1.01q1.27.02-.22.95-1.48.93-2.24-.26c-.56-.89-.76-.85-.77.16-.01.82-.64 1.12-1.6.75-.86-.33-2.25.08-3.09.91-1.72 1.73-5.35 1.54-7.68-.4-.9-.75-2.1-.95-2.86-.47-.7.45-2.87.9-4.79 1s-5.53.5-8 .87c-3.84.58-4.79.37-6.45-1.46-1.63-1.81-1.67-2.04-.24-1.5.93.36 1.69 1.06 1.69 1.55s.7.89 1.56.89c.88 0 1.26-.48.88-1.1-.48-.78-.07-.77 1.42.03 1.99 1.06 2.05.97 1.1-1.54-1.21-3.19-.59-4.15 1.54-2.38 1.21 1 2.12 1.03 4.1.13 1.39-.64 2.28-.75 1.97-.25s.14 1.17.99 1.5c.88.33 1.28.16.93-.4-.33-.54.35-.99 1.51-.99s1.84-.45 1.5-1c-.4-.64.2-.69 1.7-.14 2.6.97 4.8.48 4.8-1.07 0-.59-.75-.44-1.75.34-1.58 1.24-1.62 1.2-.39-.37 1.5-1.9 3.14-1.48 3.14.8 0 .8.5 1.44 1.12 1.44.64 0 .91-1.03.64-2.46-.4-2.1-.21-2.32 1.32-1.5.98.53 2.38.93 3.1.89s.42-.46-.68-.93c-1.75-.75-1.62-.89 1-1.07 2.71-.2 2.62-.28-1-.93-3.84-.69-3.87-.72-.76-.86 2.81-.12 3.21-.47 3.03-2.64-.19-2.3-.97-2.96-3.1-2.6-.45.09-.56-.26-.25-.76.3-.5 2.14-1.21 4.07-1.57 3.82-.72 4.82-2.57 1.39-2.57-1.66 0-1.88-.3-1.01-1.34.61-.74.82-1.64.46-2-.37-.36-.14-.66.5-.66s1.17-.65 1.17-1.45.79-1.9 1.75-2.47c.97-.57 1.2-1.03.5-1.05-.69-.02-1.25-.96-1.25-2.1 0-1.58-.45-1.92-1.92-1.46-1.05.34-2.18.17-2.51-.36s.31-1.26 1.43-1.61 1.8-1.02 1.5-1.49c-.28-.46.73-1.3 2.24-1.85 2.57-.93 2.6-1 .45-1.08-3.4-.12-1.7-1.9 2.58-2.7 3.08-.57 3.37-.82 1.71-1.46-1.09-.43-1.47-.81-.84-.85 1.71-.1 2.64-5.03 1.26-6.7-.85-1.01-.9-2.07-.18-3.66.74-1.62.67-2.55-.25-3.42-1-.93-1.55-.52-2.56 1.94-.71 1.71-1.47 2.59-1.69 1.94-.74-2.22-1.94-1.17-1.47 1.3a4.7 4.7 0 0 1-1.14 4.06c-1.91 1.91-1.81 2.07-2.12-3.33q-.46-8.05-2.48-2.73c-.87 2.28-1.3 2.54-2.53 1.52-.86-.72-1.48-.81-1.48-.22 0 .56.67 1.28 1.5 1.6.83.3 1.5 1.06 1.5 1.66s-.42.83-.93.51c-.5-.31-1.22.37-1.59 1.51-.6 1.92-.76 1.95-1.9.4-1.01-1.4-1.63-1.5-3.4-.54-1.77.94-2.18.89-2.18-.3 0-.79.56-1.67 1.25-1.95 1-.4 1-.52 0-.58-.69-.04-1.25-1.23-1.25-2.64 0-1.45-.43-2.3-1-1.94-.55.34-1 1.7-1 3.04 0 1.73-.7 2.6-2.44 3.03-2.15.55-2.32.92-1.46 3.19q.98 2.56-.06 3.6c-.72.72-1.04.6-1.05-.41-.02-1.24-.18-1.23-1.08.05-.8 1.13-1.19 1.2-1.57.24-.35-.86-1.1-.55-2.4 1l-1.87 2.26-.04-2.75c-.03-2.96-2-3.91-2.06-1-.03 1.5-.3 1.44-1.88-.46-1.01-1.21-2.15-1.9-2.52-1.53s-.38-.1-.02-1.04c.52-1.35.12-1.72-1.88-1.72-1.4 0-2.83-.45-3.17-1s-.14-1 .44-1 1.06-.73 1.06-1.62c0-1.3.66-1.5 3.25-1 2.31.44 2.82.33 1.75-.37-1.2-.78-1-1 1-1.06 2.2-.08 2.27-.18.55-.85-1.8-.7-1.76-.81.5-1.43 1.48-.4 2.03-.97 1.38-1.42-1.67-1.17-2.56-4.26-1.14-3.99.66.13 1.1-.32.96-1.01s.2-1.25.75-1.25c1.7 0 1.1-1.83-.78-2.43-1-.32-1.87-1.68-2-3.1-.18-2.26.02-2.41 1.83-1.44 1.87 1 1.94.92.8-.9a9.6 9.6 0 0 0-3.55-3.04c-2.31-1.05-3.17-3.09-1.3-3.09.55 0 1 .35 1 .79 0 .43 1.35.89 3 1.01 1.65.13 3-.23 3-.78 0-.56-.45-1.02-1-1.02s-1-.48-1-1.06.45-.78 1-.44c.56.35 1.27-.04 1.59-.86.31-.82 1.4-1.33 2.41-1.14 1.88.36 3.46-1.95 2.44-3.59-.3-.5 0-.91.66-.91 1.8 0 6.84-6 6.27-7.47-.34-.9.28-1.13 2.07-.79 1.4.27 2.56.9 2.56 1.38s.4.88.9.88.68-.9.39-2-.87-2-1.3-2-.71-1.12-.63-2.5.5-2.5.95-2.5.55-.42.23-.94c-.33-.53.63-.76 2.19-.54 1.52.21 2.2.15 1.52-.15a2.3 2.3 0 0 1-1.25-1.95c0-.78-.72-1.42-1.6-1.42q-1.6-.01-1-1.58c.33-.87.6-1.8.6-2.06s1 .23 2.22 1.08c2.81 1.97 4.16 2 3.42.06q-.54-1.48 1.14-1.51c1.48-.02 1.5-.16.22-.99a8 8 0 0 0-3.75-.99c-1.24 0-2.25-.49-2.25-1.08 0-.58.84-.8 1.86-.48a7.7 7.7 0 0 0 4.25-.31c2.32-.89 2.3-.94-1.11-1.9l-3.5-.98 2.65-1.07c3.19-1.28 4.86-3.47 2.3-3-3.13.56-2.67-2.08.73-4.16s3.22-2.85-.25-1c-1.71.92-1.93.7-1.93-2 0-2.47-.42-3.04-2.25-3.06-1.92-.03-2.03-.21-.75-1.25 1.68-1.37 2.4-6.72.9-6.72-.53 0-1.21.65-1.51 1.44s-1.2 1.19-1.98.89q-1.49-.6-.81 1.06.6 1.6-1 1.61c-.88 0-1.6-.52-1.6-1.17s-.29-.87-.64-.52-.1 1.3.58 2.12.94 1.95.59 2.53c-.9 1.45-4.25 1.3-4.88-.21-.28-.69-.26.22.05 2.02.46 2.73.29 3.16-1.07 2.64-1-.38-1.63-.11-1.63.68 0 1.02-.27 1.04-1.2.11-1.53-1.53-4.52-1.55-5.02-.04-.37 1.11-3.78 2.18-3.78 1.19 0-1.15 2.46-4.95 3.91-6.06 1.32-1 1.1-1.11-1.39-.68-1.63.28-2.69.22-2.34-.12.64-.64 3.17-1.27 5.68-1.41.74-.05 1.12-.7.82-1.46-.43-1.14 0-1.19 2.38-.3 3.63 1.38 6.05-.28 4.01-2.73-1.55-1.87-.58-3.59 2.02-3.59 1.67 0 1.81-.31.91-2-1.09-2.04.3-2.96 1.5-1 .92 1.48 2.5 1.21 2.5-.43 0-.78.79-1.63 1.75-1.88s.29-.51-1.5-.57c-1.79-.07-3.25-.6-3.25-1.19s.84-.8 1.88-.47c2.15.69 3.26-1.22 2.46-4.25-.28-1.1-.02-2.29.57-2.66.6-.37 1.09-1.63 1.09-2.8 0-1.67-.27-1.88-1.2-.95-1.66 1.66-2.57 1.5-3.13-.55-.26-.96-.4-.18-.32 1.75.12 2.84-.2 3.47-1.7 3.35-1.44-.13-1.75.37-1.39 2.25.53 2.77.67 2.7-2.8 1.38-2.25-.85-2.6-.77-2.1.5.4 1.06-.05 1.52-1.5 1.52-1.43 0-1.9.46-1.5 1.5.35.91 0 1.5-.9 1.5-.8 0-1.47-.56-1.48-1.25s-.83-.2-1.82 1.08c-1.6 2.08-1.92 2.16-3.1.75-.72-.87-.94-1.58-.5-1.58.46 0-.05-.71-1.12-1.58-1.66-1.35-1.68-1.5-.19-1.03.96.3 1.75.06 1.75-.54s.9-.85 2-.56 1.77.14 1.48-.32.27-1.31 1.25-1.88c1.67-.97 1.67-1.03.02-1.06-.96-.02-1.75-.7-1.75-1.5 0-.9.59-1.24 1.5-.9.83.32 1.5.12 1.5-.44s.27-1.74.61-2.62c.47-1.21.17-1.44-1.25-.98-1.02.34-.53-.3 1.1-1.45 2.24-1.55 3.19-1.76 3.85-.85q.89 1.24.34-.47c-.29-.92.14-2.23.96-2.9.92-.78 1.1-1.48.47-1.87-.66-.4-.52-1.57.39-3.32.81-1.57 1-2.94.46-3.27-1.84-1.14-.89-2.58 1.32-1.99 2.08.57 2.06.5-.25-.9-1.6-.96-1.97-1.54-1-1.6 1.05-.08.9-.4-.5-1.06-1.52-.72-1.04-.85 2-.52 2.2.24 3.42.2 2.7-.08-.97-.38-1-.84-.15-1.87.86-1.03.76-2.11-.38-4.4-.83-1.67-1.44-3.04-1.34-3.04s1.64.42 3.41.93c1.99.56 3.45.56 3.8 0 .32-.51-.01-.96-.73-1-.72-.03-.23-.49 1.1-1.02l2.4-.96-2.17-2.3c-2.35-2.5-1.97-3.6 1.28-3.73 1.18-.04 1.51-.3.77-.6-1.02-.41-.93-.95.4-2.42 1.63-1.8 1.62-1.9-.25-1.9-1.08 0-2.93.9-4.11 2-2.14 2-5.69 2.68-6.48 1.25-.23-.41-.24-.07-.01.75.82 3.01.73 3.39-.91 3.75-1 .22-1.85-.37-2.1-1.44-.24-1-.24-.12 0 1.94.29 2.4.04 3.75-.7 3.75-.63 0-.87-.45-.53-1 .71-1.15-.93-1.26-5.36-.38-1.7.34-2.94.9-2.73 1.25.34.56-6.45 1.26-14.81 1.53-1.6.06-3.1-.48-3.35-1.2-.32-.93.26-1.1 2.15-.64 1.43.36 3.38.35 4.35-.03 1.47-.58 1.26-.9-1.25-2.03-2.74-1.22-2.8-1.35-.69-1.42 1.58-.05 2.26-.64 2.14-1.83-.32-3.11.02-3.52 1.74-2.12 1.45 1.17 1.57 1.16.84-.05-.66-1.08-.44-1.26.93-.73 1.42.54 1.68.28 1.25-1.34-.29-1.1-.12-1.76.38-1.45.5.3.91-.4.91-1.56s.45-1.84 1-1.5c1.66 1.03 3.11-.47 2.14-2.21-.99-1.76 1.39-7.18 3.82-8.7 1.2-.77 1.12-1.05-.5-1.68-1.85-.73-1.85-.77-.09-.84 1.55-.06 1.66-.33.63-1.57-.77-.93-.85-1.5-.19-1.5.6 0 .85-1.15.58-2.62-.37-2.06-.14-2.5 1.07-2.03 1.36.52 1.35.29-.08-1.89-1.2-1.84-1.34-2.8-.5-3.8.6-.74.8-1.64.45-2-.37-.36-.12-.66.55-.66.83 0 1.01-1.04.59-3.3-.62-3.3-.6-3.31 2.95-2.9 2.8.33 3.58.07 3.58-1.2 0-.96-.89-1.64-2.25-1.7-2.2-.1-2.19-.12.18-.78 2.76-.77 4.03-3.12 1.69-3.12-2.26 0-.9-2.76 2.25-4.57 2.13-1.22 2.22-1.4.45-.92-1.81.48-2.24.11-2.51-2.21l-.34-2.8-1.86 3.5c-2.45 4.6-2.56 4.7-3.64 2.97q-.9-1.44-.32 2.24l.6 3.71-3.09-1.17c-3.43-1.29-5.51-.24-3.12 1.58 1.39 1.05 1.38 1.32-.02 2.69-1.3 1.27-1.98 1.3-4.04.26-1.43-.72-4.49-1.06-7.23-.8q-7.22.67-3.48-2.8c1.38-1.28 3.03-1.8 6.35-2.03 1.25-.09 1.93-.66 1.64-1.4-.26-.69.05-1.25.7-1.25.63 0 .9-.41.59-.92-.31-.5.14-1.63 1-2.5a3.6 3.6 0 0 0 .98-3.5c-.64-2.01 1.8-3.48 4.58-2.77.76.2 1.05.17.64-.06-1.87-1.04-.48-2.23 2-1.71 2.74.57 2.74.57.45-.8l-2.31-1.37 2.56-1.16c2.65-1.21 3.47-3.22 1.3-3.2-.69.01-1.92.44-2.74.96-1.1.7-1.81.36-2.71-1.26-.97-1.74-1.24-1.85-1.26-.51-.05 2.42-4.1 6.24-7.04 6.65-3.24.45-3.79 1.04-1.98 2.16 1.1.69.92.86-.8.73-1.31-.1-2.07-.68-1.8-1.37.25-.66-.2-1.45-.98-1.76-.8-.3-1.44-1.76-1.44-3.25 0-1.48.3-2.4.66-2.04.36.37 1.25.17 1.98-.43.96-.8 1.04-1.62.3-3-.88-1.64-.65-1.89 1.76-1.89h2.78l-2.74-2.54c-2.85-2.64-3.65-4.15-1.49-2.8 3.42 2.14 5.33-.1 2.26-2.65-1.73-1.43-.95-3.4 1.04-2.63.82.32 1.15 0 .84-.8-.28-.73.2-1.6 1.05-1.92 2.32-.89 1.88-2.64-.69-2.78-1.8-.09-1.89-.2-.43-.58 1.08-.28 1.6-1.06 1.28-1.89-.3-.77-.1-1.41.43-1.41 1.45 0 1.17-3-.28-3.03-.77-.02-.58-.54.48-1.35.96-.72 1.5-1.55 1.22-1.84-.29-.28.96-.84 2.76-1.23 3.18-.7 3.21-.75 1.04-1.79-3.2-1.52-2.78-2.76.95-2.76 2.36 0 2.9-.3 2.08-1.12s-.44-1.7 1.45-3.32c3.5-3.02 2.65-5.43-.93-2.62-2.64 2.08-2.66 2.08-3.3.09-.34-1.1-.35-2.47 0-3.02.34-.56.2-1.01-.31-1.01-.52 0-1.22 1.8-1.57 4-.7 4.4-.84 4.49-3.78 2.91-1.8-.96-1.95-.84-1.37 1 .73 2.3.36 2.5-2.23 1.25l-5.67-2.75c-2.17-1.05-4.15-2.59-4.42-3.41-.4-1.29-.24-1.3 1.19-.13 1.43 1.19 1.66 1.14 1.66-.3 0-.93.34-1.48.76-1.22s1.88-.2 3.25-1c1.82-1.09 1.95-1.33.49-.92-1.97.57-1.97.55-.06-.93 1.07-.82 2.36-1.5 2.87-1.5.5 0 .7-.88.4-1.97-.34-1.33.1-2.15 1.4-2.56 2.09-.67 2.5-2.1.78-2.67-.8-.27-.8-1.44-.02-4.28 1.22-4.41.86-5.37-1.32-3.56-1.2 1-1.79.94-3.02-.29-1.82-1.82-1.07-4.36 1.53-5.19 1.6-.5 1.7-.9.66-2.57-.98-1.58-.95-2.14.13-2.81 1.06-.66.88-1.28-.9-2.94-1.83-1.7-2.02-2.37-1.03-3.57.68-.8 1.98-1.2 2.9-.87s1.35.23.94-.22c-.4-.45-.21-1.45.43-2.23.92-1.1.87-1.62-.23-2.3-1.18-.72-1.15-.96.17-1.47 1.08-.41 1.42-1.42 1.07-3.22l-.5-2.63-1.72 2.13-1.72 2.12-1.05-2.2c-.88-1.84-.96-1.6-.5 1.49.47 3.27.31 3.63-1.4 3.18-1.95-.5-4.31 2.88-4.31 6.18 0 .8-.45 1.45-1 1.45s-1-.47-1-1.03q0-1.05-2.09.08c-1.14.61-2.34.85-2.66.54-.32-.32.86-1.08 2.6-1.69 1.76-.61 3.11-1.62 3.01-2.25-.19-1.25.73-4.12 2.22-6.9q.93-1.75-.13-1.75c-.59 0-.79-.46-.44-1.02.35-.55 1.05-.75 1.56-.44.51.32.93.1.93-.48s.43-1.06.95-1.06 2.2-1.18 3.75-2.63c2.7-2.54 2.72-2.6.42-1.89-2.27.7-2.35.57-1.72-2.8.85-4.52-.57-5.44-2.32-1.5-1 2.25-1.55 2.68-2.2 1.67-.63-1-.85-.82-.87.7-.01 2.72-1.87 4.45-4.77 4.45q-2.38-.01-1.65 1.25.75 1.3-.41.23c-.61-.56-.85-2.03-.52-3.27.43-1.66 1.09-2.1 2.46-1.67 1.31.42 1.88.1 1.88-1.03 0-1.01.47-1.36 1.25-.92 1 .56 1 .43 0-.64-2.04-2.2-1.45-3.6 2-4.7 1.79-.58 2.46-1.1 1.5-1.15-2.59-.15-2.13-1.6 1-3.13 2.66-1.31 2.68-1.37.5-1.73-1.97-.33-2.1-.65-1.1-2.56a10 10 0 0 1 2.25-2.92q1.03-.7-.54-.75c-.9 0-1.58-.57-1.5-1.26s-.31-1.38-.86-1.53-1.14.86-1.32 2.25c-.17 1.4-.73 2.53-1.25 2.53-1.37 0-1.13-2.26.48-4.56 1.69-2.42 1.62-7.66-.1-7-.71.27-1.03-.3-.8-1.5.54-2.78 3.74-7.94 4.96-7.97.56-.02.24-.49-.72-1.05s-1.75-2.09-1.75-3.4c0-1.43-.67-2.5-1.68-2.7-1.55-.3-1.55-.45.07-2.07.97-.96 1.5-1.75 1.2-1.75s-.1-1.16.44-2.58.7-3.03.37-3.58c-.87-1.4-4.15 2.4-4.56 5.27-.24 1.65-.9 2.3-2.12 2.09-1.43-.24-1.66.18-1.18 2.11.42 1.68.13 2.6-.97 3.02-.99.38-1.57.06-1.57-.86 0-.8.54-1.47 1.2-1.47.93 0 .93-.27 0-1.2-1.63-1.64-1.52-4.8.18-4.8.75 0 1.94-.67 2.62-1.5 1.03-1.24.92-1.51-.63-1.58-1.03-.04-1.35-.3-.7-.55.79-.33.9-1.42.32-3.42-.66-2.28-.47-3.17.83-4.02 1.5-.96 1.48-1.02-.2-.5-1.49.48-1.75.2-1.33-1.41.29-1.11.05-2.31-.54-2.67-.67-.42-.76-.17-.25.65q.81 1.31-.36.58c-1.23-.75-.83-1.93 1.67-4.84 1.6-1.84 2.23-7.6.93-8.4-.41-.26-1.02.23-1.35 1.1-.33.85-1 1.3-1.5 1-.49-.3-.92.93-.96 2.75-.06 2.64-.23 2.91-.85 1.33-.71-1.84-.9-1.77-2.48 1l-1.7 2.98.6-3a9 9 0 0 1 2.72-4.62q2.08-1.63 1.42-3.38c-.37-.96-.29-2.26.18-2.88.48-.62.57-2.25.2-3.62l-.65-2.5-1.64 3c-1.36 2.46-1.66 2.64-1.69.97a8.4 8.4 0 0 1 1.24-4c.7-1.08 1.4-3.32 1.53-4.97l.25-3-2.16 2.5-2.16 2.5.42-3.68c.23-2.03.02-3.43-.48-3.12-.5.3-.6-.39-.23-1.53.36-1.15.36-3.68 0-5.63-.86-4.55-3.4-4.75-3.6-.29m4.58 45.86c-.35.56-.39 1.26-.1 1.56s.12 1.65-.4 3.02c-.71 1.87-.63 2.38.31 2.06.7-.23 1.26-1.5 1.26-2.83s.64-2.68 1.43-3c1.17-.47 1.13-.68-.22-1.2-.9-.35-1.93-.17-2.28.39m-11.87 3.18c.38.99.94 1.54 1.25 1.24.3-.31 0-1.12-.69-1.8-.98-.98-1.1-.86-.56.56m-3.56 5.57c0 .59.86 1.53 1.9 2.09 1.44.77 2.04.65 2.47-.47.31-.81.17-1.48-.32-1.48s-1.6-.27-2.47-.6c-.87-.34-1.58-.13-1.58.46m5.5 3.13c-.33.55-.15 1.78.42 2.75.87 1.51 1.02 1.37 1.05-.99.03-2.88-.43-3.43-1.47-1.76m2.83 3.47c0 .8.39 1.22.85.93.47-.3.6-.95.28-1.46-.81-1.3-1.13-1.16-1.13.53m6.75 14.12c.05 1.17.28 1.4.6.6.3-.71.26-1.58-.08-1.9-.33-.34-.56.25-.52 1.3m1.92 1.92c0 .82.18 1.5.4 1.5.2 0 .64-.68.96-1.5s.14-1.5-.4-1.5c-.52 0-.96.68-.96 1.5m6.99 4.55c-.01.8-.29 2.46-.62 3.7s-.15 2.25.4 2.25c1.36 0 2.3-5.27 1.15-6.45-.57-.6-.92-.4-.93.5m-25.6 8.35c-1.03 2.7.17 4.29 1.44 1.9.78-1.43.83-2.4.17-2.8-.56-.35-1.28.06-1.6.9m1.85 5.85a2 2 0 0 0 1.75 1.25c.73 0 1.52-.56 1.75-1.25.25-.74-.46-1.25-1.75-1.25s-2 .5-1.75 1.25m-1.04 4.25c.4.42.25 1.64-.32 2.7-.94 1.77-.84 1.84 1.1.8 2.3-1.22 2.27-3.1-.05-3.82-.8-.25-1.12-.1-.73.31M498 180a1 1 0 0 0 1 1 1 1 0 0 0 1-1 1 1 0 0 0-1-1 1 1 0 0 0-1 1m25 15.94c0 .52.45 1.22.99 1.55.56.35.73-.05.4-.94-.67-1.73-1.39-2.05-1.39-.6m-23.68 4.7c.37.37.1 1.38-.58 2.26-1.1 1.4-1.04 1.43.5.23 1.56-1.23 1.58-3.14.03-3.14-.33 0-.3.3.06.66m5.25 4.98c-.52 1.37-.38 1.44.9.38 1.73-1.44 1.91-2.02.63-2.02-.5 0-1.18.74-1.53 1.64m26.18 15.56c1.4 1.41 2.66 1.84 3.9 1.34 1.66-.67 1.59-.85-.66-1.79-4.47-1.87-5.43-1.74-3.24.45M490 226a1 1 0 0 0 1 1 1 1 0 0 0 1-1 1 1 0 0 0-1-1 1 1 0 0 0-1 1m23 1c0 .55.48 1 1.06 1s.78-.45.44-1-.82-1-1.06-1-.44.45-.44 1m9-.06c0 .52.45 1.22 1 1.56s1-.08 1-.94-.45-1.56-1-1.56-1 .42-1 .94m8.81-.26c.72.3 1.59.26 1.92-.08.33-.33-.26-.56-1.31-.52-1.17.05-1.4.28-.6.6M495.5 240c-.79 1.27 1.53 1.27 3.5 0 1.22-.79 1.09-.97-.7-.99-1.2 0-2.46.44-2.8.99m45.58.58c.05 1.17.28 1.4.6.6.3-.71.26-1.58-.08-1.9-.33-.34-.56.25-.52 1.3m-49.94 1.33c-1 .62-1.05 1.03-.18 1.56 1.37.85 2.4.1 1.9-1.37-.21-.61-.92-.69-1.72-.2m36.83 2.21c1.36.55 2.77 1.47 3.14 2.07s1.17.76 1.79.38c1.82-1.12-1.38-3.57-4.58-3.5l-2.82.07zm-42.3.56c-.96.95-.82 2.33.22 2.33.5 0 1.16-.68 1.47-1.5.59-1.52-.48-2.05-1.7-.83M493 251c0 .55.48 1 1.06 1s.78-.45.44-1-.82-1-1.06-1-.44.45-.44 1m38-.12c0 .55.45 1.28 1 1.62s1 .17 1-.38-.45-1.28-1-1.62-1-.17-1 .38m-46 9.62c-.72.87-.81 1.5-.23 1.5.56 0 1.28-.68 1.6-1.5.3-.82.41-1.5.22-1.5s-.9.68-1.59 1.5m40.82.25c-.35 1.24-.2 2.25.33 2.25s.69.45.35 1c-1 1.63.14 1.14 1.63-.7.77-.95.86-1.38.2-.98-.75.45-1.31-.13-1.53-1.56l-.34-2.26zm-4.82 1.7c0 .85.45 1.55 1 1.55s1-.42 1-.94-.45-1.22-1-1.56-1 .08-1 .94m-39 16.62c0 .58.45.78 1 .44s1-.82 1-1.06-.45-.44-1-.44-1 .48-1 1.06m3.6 3.54c-1.1 2.86-.73 4.76.68 3.58a2.3 2.3 0 0 1 2.7-.19c.79.48 1.78.66 2.22.38.44-.27.8-.03.8.54 0 .56-.96 1.53-2.13 2.16-1.71.92-1.86 1.32-.75 2.02 2.15 1.37 3.71 1.08 5.88-1.09 1.1-1.1 2-1.55 2-1s.79.99 1.75.97c1.58-.03 1.56-.18-.2-1.5-1.07-.82-2.7-1.24-3.63-.95-1.7.55-3.2-1.53-3.8-5.3-.24-1.51-4.92-1.19-5.52.38m31.4 2.28c0 .55.45 1.28 1 1.62s1 .17 1-.38-.45-1.28-1-1.62-1-.17-1 .38m-37 3.68c0 .86.46 1.27 1.02.93.56-.35.75-1.05.44-1.56-.86-1.39-1.46-1.13-1.46.63m47.5 1.44c-.34.55.28 1 1.38 1s2.28-.45 2.62-1-.28-1-1.38-1-2.28.45-2.62 1m-44.5 2c0 .55.42 1 .94 1s1.22-.45 1.56-1-.08-1-.94-1-1.56.45-1.56 1m.5 10c-.34.55-.14 1 .44 1s1.06-.45 1.06-1-.2-1-.44-1-.72.45-1.06 1m42.5 4.9c0 .76-.64 1.07-1.5.74-1.87-.72-4.67.28-3.97 1.41.55.89 6.27.49 7.26-.5.32-.32.04-1.12-.6-1.77-.92-.9-1.19-.88-1.19.13m16.5 1.09c.34.55 1.07 1 1.62 1s.72-.45.38-1-1.07-1-1.62-1-.72.45-.38 1m-73.69 1.68c.72.3 1.59.26 1.92-.08.33-.33-.26-.56-1.31-.52-1.17.05-1.4.28-.6.6m67.66.35c-.8 1.3 2.21 4.28 3.51 3.48 1.5-.94 1.23-1.9-.94-3.25-1.25-.77-2.18-.86-2.57-.23m-47.29 1.05c.2.59.79 1.07 1.31 1.07s1.11-.48 1.3-1.07c.2-.6-.38-1.08-1.3-1.08s-1.5.48-1.3 1.07m-8.2.93c0 .55 1.01 1 2.25.99 1.82-.02 1.96-.2.75-.99-1.94-1.25-3-1.25-3 0m35.73 5.12c.68.69 1.49 1 1.8.69.3-.31-.25-.87-1.24-1.25-1.42-.54-1.54-.42-.56.56m-1.27 11.95c-.36.58-.45 1.28-.18 1.54.26.26.74-.22 1.07-1.07.67-1.76.1-2.07-.9-.47M538 330c0 .55.48 1 1.06 1s.78-.45.44-1-.82-1-1.06-1-.44.45-.44 1m-5 2a6 6 0 0 0 2.5.97c.55 0 .33-.44-.5-.97a6 6 0 0 0-2.5-.97c-.55 0-.33.44.5.97m-3.92 2.58c.05 1.17.28 1.4.6.6.3-.71.26-1.58-.08-1.9-.33-.34-.56.25-.52 1.3m-6.9 4.7c-.8.98-.6 1.3.88 1.3 1.07 0 1.94-.59 1.94-1.3 0-.7-.4-1.28-.88-1.28s-1.36.58-1.94 1.29m-51.16 2.96c0 1.82.2 1.96.98.75 1.25-1.94 1.25-3 0-3-.55 0-1 1.01-.99 2.25m3.4 1.85c-1.87 2.06-1.86 2.12.51 4.04 1.33 1.07 3.01 1.72 3.75 1.44 1.65-.64 1.73.62.15 2.2-1.36 1.36-.48 2.75 1.11 1.76 1.56-.96 1.3-4.1-.43-5.54-1.2-1-1.51-.98-1.56.13-.04.75-.47.36-.97-.88s-.65-2.93-.33-3.75c.8-2.08 0-1.87-2.23.6m41.1-.08c.35.56 1.05.75 1.56.44 1.39-.86 1.13-1.46-.63-1.46-.86 0-1.28.46-.93 1.02m-32.27 2.74c-1.17 2.5-1.14 2.57.36 1.07.9-.9 1.47-2.11 1.27-2.7-.2-.58-.94.15-1.63 1.63m4.82 6.55c-.03 1-.48 1.55-1 1.23-.5-.31-1.23-.07-1.62.55-.49.8-.93.74-1.51-.2-.45-.74-1.12-1.03-1.5-.66-.36.37.62 1.77 2.18 3.11 2.7 2.33 2.91 2.36 4.12.64.88-1.26.98-2.53.33-4.15-.73-1.82-.95-1.94-1-.52m6.94 3.28c0 .88-.9 1.83-2 2.12-2.51.66-2.62 2.29-.16 2.29 1.01 0 2.36-1.15 3-2.55 1.42-3.1 1.43-3.45.16-3.45-.55 0-1 .72-1 1.6m2.25.75c-.83 1.82-.7 2.5.6 3.32.92.58 2.54.69 3.65.25 1.7-.66 1.73-.79.25-.85-1.04-.04-1.75-.86-1.75-2.01 0-2.9-1.57-3.3-2.75-.7m8.5 4.3c.69.28 1.81.28 2.5 0s.13-.5-1.25-.5-1.94.22-1.25.5M484.15 379c0 1.38.24 1.94.51 1.25.28-.69.28-1.81 0-2.5s-.5-.12-.5 1.25m59.34 0c.34.55 1.04 1 1.56 1s.94-.45.94-1-.7-1-1.56-1-1.28.45-.94 1m-3 1c.34.55.82 1 1.06 1s.44-.45.44-1-.48-1-1.06-1-.78.45-.44 1m-52.5 7.06c0 .58.45.78 1 .44s1-.82 1-1.06-.45-.44-1-.44-1 .48-1 1.06m-.04 7.1c-1.14 2.24-1.11 2.26.61.61 1-.95 1.54-2 1.2-2.33-.33-.34-1.15.44-1.8 1.72m35.6 7.15a2.3 2.3 0 0 0 1.97 1.36c1.96 0 1.84-.4-.52-1.66-1.55-.83-1.86-.76-1.45.3m-49.07.69c-.34.55-.17 1 .38 1s1.28-.45 1.62-1 .17-1-.38-1-1.28.45-1.62 1m28.5 7c0 .55.7 1 1.56 1s1.28-.45.94-1-1.04-1-1.56-1-.94.45-.94 1m-31.54 8.07c-.36.58-.45 1.28-.18 1.54.26.26.74-.22 1.07-1.07.67-1.76.1-2.07-.9-.47m66.63 4.7c-.05 1.4-1.03 2.7-2.58 3.41-2.5 1.14-3.02 1.97-1.9 3.08.97.98 3.4-.36 3.4-1.87 0-.76.67-1.39 1.5-1.39s1.39-.56 1.25-1.25c-.14-.7.52-1.12 1.5-.96 1.05.18 1.75-.33 1.75-1.28 0-1.25-.4-1.36-1.92-.55-1.4.74-2.06.69-2.42-.22-.28-.68-.54-.22-.58 1.03m-5.27.91c.72.3 1.59.26 1.92-.08.33-.33-.26-.56-1.31-.52-1.17.05-1.4.28-.6.6M493 424.06c0 .58.45.78 1 .44s1-.82 1-1.06-.45-.44-1-.44-1 .48-1 1.06m71.57-.17c-.31.5.15 1.17 1.02 1.5 2.5.96 3.41.72 3.41-.89s-3.52-2.09-4.43-.6m-63.1 4.15c-.95 1.54.35 2.53 1.63 1.25q1.08-1.08.06-1.7c-.56-.35-1.32-.15-1.7.45m48.04-.05c-.34.55.11 1 1 1s1.34-.45 1-1-.79-1-1-1-.66.45-1 1m13.15.46c-1.98 1.5-1.46 3.54.9 3.54.8 0 1.45.48 1.45 1.06s-.52.74-1.15.34q-1.1-.65-.44.46c1 1.6 2.59.45 2.59-1.86 0-1.04.46-2.17 1.02-2.51 1.24-.77.3-2.5-1.33-2.46-.65.02-2.02.66-3.04 1.44M555.5 438c.34.55 1.07 1 1.62 1s.72-.45.38-1-1.07-1-1.62-1-.72.45-.38 1m-4.5 3.9c0 .48.71 1.16 1.58 1.5 2.45.93 2.77.73 1.42-.9-1.38-1.66-3-1.99-3-.6m-5 1.03c0 .5-1.69.76-3.75.57l-3.75-.34 4.3 1.37c2.36.75 4.95 1.12 5.75.81 2.16-.83 1.75-3.34-.55-3.34-1.1 0-2 .42-2 .93m-8.44 5.54c2.5 1.89 3.44 1.9 3.44.03 0-.96-.97-1.5-2.7-1.5-2.57 0-2.6.06-.74 1.47m-20.41.48c.43 1.29 1.8 1.52 1.93.32.04-.4-.47-.9-1.13-1.12s-1.02.14-.8.8M482 456a6 6 0 0 0 2.5.97c.55 0 .32-.44-.5-.97a6 6 0 0 0-2.5-.97c-.55 0-.32.44.5.97m38 2.5c-.72.87-.82 1.5-.23 1.5.56 0 1.27-.68 1.6-1.5.3-.82.41-1.5.22-1.5s-.9.68-1.59 1.5m33 5.5c0 .55.48 1 1.06 1s.78-.45.44-1-.82-1-1.06-1-.44.45-.44 1m-25.13 5.25a4.7 4.7 0 0 0 3.5 1.63c2.02-.1 2.03-.14.13-.6-1.1-.27-2.67-1-3.5-1.64-1.3-1-1.32-.91-.13.61m16.73-.4c-.35.55-.14 1.31.45 1.68 1.54.95 2.53-.35 1.25-1.63q-1.08-1.08-1.7-.06M477 470c0 .55.48 1 1.06 1s.78-.45.44-1-.82-1-1.06-1-.44.45-.44 1m5.52 3.02c1.3 1.44 2.14 1.72 2.9.96 1.17-1.17-.8-2.94-3.32-2.97-1.07 0-.97.48.42 2.01m4.56.17c-.1 2.13.82 2.7 4.86 3 1.77.14 3.43.6 3.7 1.03.26.43 1.2.78 2.09.78s1.3-.3.94-.66-.15-1.26.46-2c.89-1.06.53-1.36-1.76-1.46a32 32 0 0 0-4.22.07c-.87.12-1.07-.29-.56-1.13.62-1.02.41-1.01-.9.05-1.43 1.17-1.7 1.17-1.7 0-.02-1.15-.16-1.16-.88 0-.73 1.14-.95 1.14-1.41 0-.39-.98-.56-.89-.62.32m37.25 17.45c.36.63-.01 1.4-.84 1.72-.82.32-1.49.14-1.49-.4 0-.52-.9-.96-2-.96-2.53 0-2.74 3.67-.25 4.33 1.91.52 8.14.12 8.82-.56.23-.24-.77-1.52-2.24-2.85-1.46-1.33-2.36-1.9-2-1.28M479.5 497c.34.55.82 1 1.06 1s.44-.45.44-1-.48-1-1.06-1-.78.45-.44 1m-12.5 1.33c0 2.13 3.65 5.05 4.53 3.62.4-.64.1-1.61-.65-2.15-1-.7-.72-.83 1.01-.44 1.32.29 2 .16 1.5-.29-.49-.44-2.13-1.1-3.64-1.46-1.97-.47-2.75-.26-2.75.72m52.15 3.34c-.74.8-1.15 1.67-.9 1.92.68.68 3.75-.67 3.75-1.64 0-1.58-1.5-1.73-2.85-.28M524 504c0 1.25 1.06 1.25 3 0 1.21-.78 1.07-.97-.75-.99-1.24 0-2.25.44-2.25.99m17.03.5a6 6 0 0 0 .97 2.5c.53.82.97 1.05.97.5a6 6 0 0 0-.97-2.5c-.53-.82-.97-1.05-.97-.5m21.97.83c0 .92-.56 1.69-1.25 1.7-1.35.04 3.15 2.88 4.65 2.94.5.01.2-.76-.67-1.72s-1.58-2.12-1.58-2.58c.01-.46-.25-1.1-.57-1.42s-.58.17-.58 1.08m17-.33c-.83.53-1.05.97-.5.97a6 6 0 0 0 2.5-.97c.83-.53 1.05-.97.5-.97a6 6 0 0 0-2.5.97m-118.5 5c-.34.55-.17 1 .38 1s1.28-.45 1.62-1 .17-1-.38-1-1.28.45-1.62 1m109.75 12.46c0 1.55.56 2.54 1.45 2.54.9 0 1.32-.8 1.12-2.17-.46-3.12-2.57-3.42-2.57-.37m-5.25.45c0 .47.9 1.1 2 1.38 2.72.71 2.54 2.7-.25 2.78-1.24.04-3.15.5-4.25 1.02-1.63.76-1.47.84.83.38 1.81-.35 2.6-.18 2.2.48-.39.63.03.77 1.08.37q1.75-.67 1 .51c-1.34 2.15 1.13 1.2 2.6-1 1.27-1.93 1.25-2.37-.21-3.83-2-2-5-3.26-5-2.09m-64.27 1.21c.68.69 1.49 1 1.8.69.3-.31-.25-.87-1.24-1.25-1.42-.54-1.54-.42-.56.56m19.75 1.86c1.82 2 3.53 1.87 3.5-.29q0-1.22-.86.14c-.68 1.08-.96 1.03-1.45-.25-.33-.87-1.14-1.58-1.8-1.58-.7 0-.47.79.6 1.98M466.5 527c-.34.55-.14 1 .44 1s1.06-.45 1.06-1-.2-1-.44-1-.72.45-1.06 1m63.03 3.3c-.43.98-.5 2.07-.15 2.41 1.01 1.01 1.83-.41 1.36-2.38-.41-1.75-.47-1.75-1.2-.04m2.61 1.66c.22.66.73 1.17 1.13 1.13 1.2-.13.96-1.5-.33-1.93-.66-.22-1.02.14-.8.8m-13.1 14.62c.65.77 1.6 1.14 2.13.82 1.16-.72.3-1.7-1.76-2-1.2-.18-1.28.07-.36 1.18M465 548.42c0 1.05 3.01 3.9 3.55 3.36.26-.25-.44-1.28-1.54-2.27-1.1-1-2.01-1.5-2.01-1.1m35 5.71c0 .55.41.74.92.43.5-.3 1.09-.02 1.31.64q.4 1.24.98-.29.55-1.48-1.32-1.63c-1.04-.08-1.89.3-1.89.85m4.39 2.32c-.33.86-1.22 1.18-2.22.8-1.49-.56-1.48-.44.08 1.14.96.97 1.75 2.17 1.75 2.66s.68.64 1.5.32c.86-.33 1.5-1.82 1.5-3.47 0-3.01-1.66-3.94-2.61-1.45m-70.31 4.14c.05 1.17.28 1.4.6.6.3-.71.26-1.58-.08-1.9-.33-.34-.56.25-.52 1.3m132.25 6c0 .68.67.97 1.5.65q1.47-.55.77.6c-.4.64-.24 1.17.34 1.17 1 0 1.36-1.17.81-2.7-.44-1.24-3.42-.99-3.42.28m-6.85 2.4c1.6 1.76 1.56 1.88-.65 2.32q-2.42.47.85.37c1.75-.04 2.96-.44 2.7-.88-.28-.43-.02-.79.56-.79s1.06-.6 1.06-1.35c0-.82-1.21-1.38-3.1-1.43-2.95-.09-3.02 0-1.41 1.76M455.5 570c-.34.55-.14 1 .44 1s1.06-.45 1.06-1-.2-1-.44-1-.72.45-1.06 1m63.22.35c.29.47 1.93 1.46 3.65 2.21l3.13 1.36-3.75.04c-3.06.03-3.75.4-3.75 2.02 0 2.06.87 2.4 8.75 3.47 2.34.31 4.25.2 4.25-.27s.65-.85 1.46-.85 1.17.45.83 1c-.39.64.1.72 1.3.24a20 20 0 0 1 3.06-.96c.63-.1 1.96-.85 2.94-1.65 1.1-.89 1.5-.97 1.04-.21-.41.69-.32 1.25.2 1.25s1.23-1.1 1.57-2.47c.38-1.5 1.14-2.26 1.95-1.95 1.66.64 6.43-3.12 5.35-4.22-.45-.44-1.12-.3-1.5.3-.42.65-3.23 1-6.92.87-3.42-.13-5.98.15-5.69.62.63 1.02-.96 1.14-1.96.15-1.01-1.01-7.66-1.15-7.04-.15.3.47.04.85-.56.85s-1.34-.64-1.64-1.42c-.34-.9-1.79-1.36-3.87-1.25-1.82.1-3.08.55-2.8 1.02M460.5 573c-.34.55-.14 1 .44 1s1.06-.45 1.06-1-.2-1-.44-1-.72.45-1.06 1m7.58 1.58c.05 1.17.28 1.4.6.6.3-.71.26-1.58-.08-1.9-.33-.34-.56.25-.52 1.3m20.48.64c-.86 1.23-1.56 1.67-1.56 1s-.68-1.22-1.5-1.22-1.5.68-1.5 1.52c0 1.05.88 1.45 2.89 1.3 2.06-.17 2.77-.67 2.47-1.77-.23-.85.11-.54.76.7 1.36 2.57 4.45 3.17 3.49.67a9 9 0 0 1-.61-2.47c0-.49-.75-.6-1.66-.25q-1.68.65-.94-.53c1.3-2.11-.25-1.22-1.84 1.05M441.5 575c-.34.55-.14 1 .44 1s1.06-.45 1.06-1-.2-1-.44-1-.72.45-1.06 1m29.08.75q.55 2.26-.97 2.85c-1.3.5-1.25.87.37 2.61 2.27 2.43 5.89 1.89 7.78-1.17 1.16-1.88 1.02-2.04-1.81-2.04-1.8 0-2.81-.42-2.45-1 .34-.55-.05-1-.86-1s-1.73-.56-2.05-1.25-.32-.24-.01 1m28.42.5c0 .69 1.01 1.29 2.25 1.34 1.24.04 3.09.45 4.12.9 1.65.72 1.74.57.71-1.34-1.27-2.38-7.08-3.12-7.08-.9m-18.39.93c.3.47.95.6 1.46.28 1.3-.81 1.16-1.13-.53-1.13-.8 0-1.22.39-.93.85m20.93 3.73c-1.77.69-1.7.84.8 1.46 3 .75 5.03.04 4.12-1.44-.67-1.09-2.18-1.1-4.92-.02M458 582c0 .55.48 1 1.06 1s.78-.45.44-1-.82-1-1.06-1-.44.45-.44 1m19.31.25c-1.48 1.98-1.02 5.3.68 4.92 2.31-.51 4.3-.4 6.76.36 1.41.44 2.25.29 2.25-.41 0-.62-.94-1.12-2.1-1.12-2.7 0-7.44-3.62-5.67-4.33.78-.31.83-.54.14-.6-.62-.03-1.55.5-2.06 1.18m45.19-.25c1.1.47 2.9.86 4 .86h2l-2-.86c-1.1-.47-2.9-.86-4-.86h-2zm-79.82 2.82c-3.01 3.13-3.44 5.67-1.13 6.56.86.33 1.3.18.98-.33-.31-.51.23-1.4 1.2-1.96s1.2-1.04.52-1.06c-1.82-.04-1.53-2.1.5-3.59.96-.7 1.49-1.53 1.18-1.85-.32-.31-1.78.69-3.25 2.23m75.99-1.15c-1.09 1.08-.76 5.15.46 5.91.79.49 1-.24.7-2.33-.36-2.38-.13-2.92 1.02-2.48q1.45.55.75-.6c-.8-1.31-1.93-1.5-2.93-.5m-80.6 2.91c.06 1.17.3 1.4.61.6.3-.71.26-1.58-.08-1.9-.33-.34-.56.25-.52 1.3m6.92 7.92c-.86 1.04-.9 1.5-.12 1.5.62 0 1.12.68 1.12 1.5 0 1.27.33 1.31 2 .27 2.58-1.61 2.55-2.77-.06-2.77-1.13 0-1.78-.45-1.44-1 .95-1.54-.1-1.19-1.5.5m7.25 4.62c-3.53 2.26-4.44 3.59-1.32 1.91 2.4-1.28 3.37-1.32 2.61-.1-.31.52.67 1.08 2.2 1.25 1.51.18 2.76.85 2.76 1.49s.34 1.5.75 1.91c.41.42.76.12.76-.66.02-1.17.2-1.15.99.08.53.83.98 1.1.99.63 0-.48.8-.28 1.76.45 1.45 1.1 1.55 1.1.58 0-.65-.73-.94-1.94-.65-2.69.32-.83-.5-1.75-2.08-2.35-1.43-.54-2.6-1.56-2.59-2.26.02-.97.24-.94.89.1.48.75 1.38 1.2 2 .99s.24-.93-.88-1.63c-1.71-1.06-2.32-.94-4.11.85l-2.1 2.1.66-2.1c.81-2.55.8-2.55-3.22.02m16.52 4.45c-1.02 1.02.44 4.44 1.9 4.44.8 0 1.17-.45.83-1-.35-.56.07-1.28.93-1.61s1.31-1 1-1.5c-.6-.98-3.78-1.21-4.66-.33m17.56 2.7c-.25.43-.9.5-1.44.17s-1.6-.1-2.34.53c-.96.8-1.57.82-2.03.07-.36-.58-1.1-.79-1.64-.46-1.45.9 1 3.43 3.3 3.43 1.26 0 1.7-.44 1.23-1.25-.56-1-.43-1 .64 0 1.87 1.74 2.94 1.56 3.02-.5.06-1.43.2-1.48.75-.25.81 1.8 6.36 1.96 6.94.2.23-.66.82-.96 1.32-.65s.92-.13.92-1c0-1.74-1.55-2.08-2.5-.55-.34.55-1.07 1-1.62 1s-.79-.34-.53-.75c.25-.41-.9-.75-2.54-.75s-3.21.35-3.48.77M443 607.39c0 .95 3 1.43 3.53.57.32-.53-.34-.96-1.47-.96s-2.06.18-2.06.4m75 2.57c0 1.87 3.7 3.1 4.92 1.63.87-1.05.75-1.51-.48-1.98-2.37-.91-4.44-.75-4.44.35m-29 3.83c0 1.31.84 1.68 3.67 1.6 5.26-.15 5.45-2.93.21-3.14-3.04-.12-3.88.21-3.88 1.54m101-.9c0 1.04 1.9 2.54 2.47 1.95.18-.2-.3-.93-1.07-1.64s-1.4-.85-1.4-.3m-129.33.76a2.8 2.8 0 0 0-.67 1.7c0 .62.47.56 1.18-.15.65-.65.95-1.42.67-1.7s-.82-.22-1.18.15m64.82 1.34c-.34.55.05 1.68.88 2.5 1.68 1.69 4.63 2 4.63.49 0-1.44 2.74-1.23 3.34.25.27.69.54.01.58-1.5.08-2.71-1.6-3.38-3.14-1.25-.47.65-1.42.56-2.74-.25-2.43-1.51-2.75-1.53-3.54-.24m11.5.05c0 .58.45.78 1 .44s1-.82 1-1.06-.45-.44-1-.44-1 .48-1 1.06m4.5.94c-.34.55.11 1 1 1s1.34-.45 1-1-.79-1-1-1-.66.45-1 1m-2.82 3.4c-1.15 3 1.76 3.52 3.32.6.9-1.68.76-2-.86-2-1.06 0-2.17.63-2.46 1.4M518 626c0 1.87.27 2.13 1.2 1.2s.93-1.47 0-2.4-1.2-.67-1.2 1.2m-30 4.75c0 .69-.68 1.25-1.5 1.25s-1.5.45-1.5 1-.79 1-1.75 1q-1.72.02 1.2 1.55c1.63.85 3.88 1.41 5 1.25 2-.3 2.01-.38.3-3.8-.96-1.92-1.75-2.94-1.75-2.25m3 2.74c0 2.05 1.4 2.58 4.94 1.87 4.14-.83 3.44-2.51-1.23-2.93-2.66-.24-3.71.06-3.71 1.06m6.68 3.84-3.82 1.17 3.52 1.09c2.8.86 3.64.8 4.04-.25a2.3 2.3 0 0 1 2.05-1.34c.84 0 1.53-.45 1.53-1 0-1.27-2.47-1.16-7.32.33M470 640c0 .55.7 1 1.56 1s1.28-.45.94-1-1.04-1-1.56-1-.94.45-.94 1m15.25.66c-1.88.76-1.5 3.13.68 4.3 2.43 1.3 4.1 1.34 2.07.05-1.24-.78-1.28-1.3-.24-2.98q1.95-3.17-2.51-1.37m6.61 2.42c-1.3 1.14-1.8 1.79-1.1 1.43 5.72-2.9 6.58-3.5 5.1-3.5-.9 0-2.7.92-4 2.07m3.84 1.57c-2.66 1.4-3.65 3.35-1.7 3.35.55 0 1-.54 1-1.2 0-.93.27-.93 1.2 0 1.59 1.59 5.8 1.54 5.8-.06 0-2.5-3.39-3.62-6.3-2.1m-13.7 8.18c0 1.2 1.9 2.62 2.6 1.92.24-.25-.24-1.02-1.08-1.72-.95-.79-1.52-.87-1.52-.2m6.96 1.19c1.5 1.32 3.33 1.98 4.75 1.7 1.26-.24 2.29-.08 2.29.35s1.38 1.08 3.07 1.46 3.3 1.3 3.6 2.07c.74 1.92 2.33 1.78 2.33-.19 0-3.06-3.17-7.17-5.14-6.65-1.02.26-1.86.78-1.86 1.15 0 .91-4.37.9-5.01 0-.28-.41-1.86-1.03-3.5-1.39l-2.99-.65zm-64.76 1.6c-.74 1.31-1.3 1.4-3.05.47-2.56-1.37-2.69-.83-.58 2.39 1.46 2.22 1.42 2.54-.5 4.46-2.47 2.48-2.77 3.89-.4 1.94 1.51-1.25 1.61-1.05 1.07 2.13-.33 1.92-.36 2.9-.07 2.18.4-.96.94-.75 2 .77 2.02 2.87 3.52 1.58 2.78-2.39-.47-2.47-.23-3.43.97-3.89 1.86-.71 2.16-4.79.33-4.42-.76.15-1.24-.82-1.21-2.5.04-3.2-.12-3.33-1.34-1.14m49.25 3.2c-.4 1.27-1.27 2.09-1.96 1.83-.69-.27-1.82.04-2.51.69-.98.9-1.11.88-.57-.08.39-.69.2-1.25-.43-1.25-2.33 0-.23 2.51 2.35 2.82 2.38.28 2.51.48 1.18 1.82-.83.83-1.47 2.03-1.43 2.68.06.86.2.87.55.04.62-1.51 4.37-.5 4.37 1.17 0 .72-.56 1.56-1.25 1.88s-.27.33.92.04 2.41-.12 2.72.37c.32.53 2.76.41 5.83-.28 4.9-1.1 5.3-1.4 5.6-4.35.26-2.68.02-3.09-1.5-2.6-1.64.51-1.62.41.13-1.01 1.6-1.3 1.7-1.8.62-2.83-1.05-1-1.41-1-1.78 0-.7 1.93-2.58 1.48-2.07-.5.37-1.4-.25-1.78-3.13-1.9-1.98-.07-3.03.08-2.34.34 1.52.58 1.68 3.31.2 3.31-.6 0-.84.38-.55.83.28.46-.15.84-.96.84s-1.88-1.4-2.37-3.09c-.88-2.96-.94-2.99-1.62-.77m17.22 1.85c-.37.37-.67 2.62-.67 5 0 3.93.23 4.34 2.44 4.34 1.34 0 2.73-.47 3.08-1.04s1.5-.77 2.53-.45c2.21.7 5.95-1.06 5.94-2.8s-7.76-4.87-8.3-3.36q-.39 1.15-2.37-.6c-1.1-.97-2.28-1.45-2.65-1.09m28.83 3.17c-.94.94-.5 7.17.5 7.17.55 0 1 1.1 1 2.44 0 3.21 1.43 3.98 3.53 1.89.93-.93 3.25-1.85 5.15-2.05 3.42-.35 12.57-4.6 15.14-7.03 1.07-1 .13-1.25-4.8-1.25-4.65 0-5.95.3-5.39 1.25.6 1 .44 1-.78 0-1.6-1.29-13.47-3.3-14.35-2.42M485 666.9c0 .5.74 1.18 1.64 1.53 1.37.52 1.44.38.38-.9-1.44-1.73-2.02-1.91-2.02-.63m11.5 4.7c-1.1.16-5 .58-8.65.93-3.66.34-7.49 1.27-8.5 2.07-1.71 1.33-1.65 1.4.9.82 2.12-.48 2.75-.26 2.75.98 0 1.9 1.62 2.15 2.34.36.4-1 .52-1 .58 0 .04.69.56 1.25 1.14 1.25s.83-.37.55-.82.77-.63 2.32-.4c2.11.3 3.68-.37 6.2-2.65 1.85-1.7 3.14-3.02 2.87-2.97-.27.06-1.4.25-2.5.42m4.5 4.38c0 .61.69 2.16 1.52 3.43 2.43 3.71.83 6-4.12 5.9-.63 0-.99 1.37-.84 3.24.23 2.87-.02 3.23-2.15 3.1-1.33-.07-2.4-.4-2.4-.74-.01-.34-1.08-.4-2.4-.16s-3.23 0-4.26-.54c-1.33-.71-2.39-.64-3.62.26-1.5 1.1-1.04 1.35 3.52 1.9 8.78 1.06 16.76.78 17.27-.6.26-.69.58-4.61.72-8.72.22-6.42.02-7.51-1.49-7.82-.96-.2-1.75.14-1.75.75m18.08 8.62c.05 1.17.28 1.4.6.6.3-.71.26-1.58-.08-1.9-.33-.34-.56.25-.52 1.3M477.5 691c-.34.55-.17 1 .38 1s1.28-.45 1.62-1 .17-1-.38-1-1.28.45-1.62 1m41.5 32.99c0 2.42 2.72 3.32 5.07 1.67 1.78-1.25 1.68-1.4-1.58-2.4-3.09-.95-3.49-.87-3.49.73m5.55 34.92c.52.5 3.65 1.18 6.95 1.5l6 .57-5.5-1.45c-6.52-1.71-8.78-1.9-7.45-.62M483.5 762c.34.55.82 1 1.06 1s.44-.45.44-1-.48-1-1.06-1-.78.45-.44 1m54.5-.62c0 .21.9.62 2 .91s2 .12 2-.38-.9-.91-2-.91-2 .17-2 .38m-37.43 2.37c.5.41 1.24 1.2 1.65 1.75.43.57.76.25.76-.75.01-.97-.72-1.75-1.65-1.75-.91 0-1.26.34-.76.75M553.73 791c-.94 1.1-1.28 2-.75 2 .52 0 1.43-.9 2.02-2s.93-2 .76-2-1.09.9-2.03 2m-51.58 75.95c.22.66.73 1.17 1.13 1.13 1.2-.13.96-1.5-.33-1.93-.66-.22-1.02.14-.8.8M432 868.9c-2 .56-2.18.82-.85 1.33 2.12.81 6-.18 5.28-1.34-.6-.99-.86-.99-4.43 0m7.59 1.51c-.93 3.47-.7 3.78 1.63 2.16 1.22-.86 2.69-1.54 3.25-1.52.57.01-.1.7-1.47 1.54l-2.5 1.5 2.5-.66c3.17-.85 3.16-.84 2.46-2.67-.33-.85-1.65-1.75-2.95-2-1.76-.33-2.5.09-2.92 1.65M471 869c0 1.25 1.06 1.25 3 0 1.21-.78 1.07-.97-.75-.99-1.24 0-2.25.44-2.25.99m-3.46.93c-.31.51-.12 1.21.44 1.56s1.02-.07 1.02-.93c0-1.76-.6-2.02-1.46-.63m26.63-.14c.08.39-.22 1.57-.68 2.62-.61 1.4-.24 2.38 1.45 3.75 1.26 1.01 2.8 1.82 3.42 1.8.63-.01.01-.7-1.36-1.54-2.5-1.5-2.5-1.5-.12-.85q2.39.65 1.69-.46a2.8 2.8 0 0 0-2.13-1.11c-.8 0-1.44-.7-1.44-1.56s.45-1.28 1-.94 1 .19 1-.33c0-.53-.67-1.21-1.49-1.53-.82-.31-1.42-.25-1.34.15m6.29 1.7c.88 3.78 1.28 4.17 2.77 2.68.92-.92.67-1.7-1.14-3.43l-2.33-2.24zm4.54-1.62c0 .55.45 1.28 1 1.62s1 .17 1-.38-.45-1.28-1-1.62-1-.17-1 .38m-127.75.85c2.06.21 5.44.21 7.5 0 2.06-.22.38-.4-3.75-.4s-5.81.18-3.75.4m49.63.17c.76.48 1.07 1.38.69 1.99-.42.68.12 1.11 1.37 1.11 2.42 0 2.77-2.51.48-3.4-2.42-.92-4.16-.72-2.54.3m30.12.1c-2.01.64-2.1.8-.5.83 1.1.02 2.9-.36 4-.83 2.55-1.1-.08-1.1-3.5 0m32.68-.3c-1.76.46-1.76.52 0 1.8 1.74 1.28 3.26.48 3.3-1.75.02-.8-.39-.8-3.3-.05m-71.63 1.74a2.8 2.8 0 0 1-2.87.83c-.94-.33-.57.32.82 1.47 1.72 1.43 2.71 1.73 3.2.95.38-.63.16-1.48-.5-1.9q-1.24-.77.5-.77c.92-.01 1.96-.47 2.3-1.02.97-1.57-2.11-1.17-3.45.44m15.45-.44c-1.63.7-1.69.87-.3.93.92.04 1.96-.38 2.3-.93.71-1.15.68-1.15-2 0m17.5 2c0 .55 1.32 1 2.94 1s3.22-.45 3.56-1c.37-.6-.82-1-2.94-1-1.96 0-3.56.45-3.56 1m85-.6c0 .96 2.82 1.33 4.1.52 1.02-.65.65-.9-1.35-.9-1.51-.01-2.75.16-2.75.37m90.5.46-8 .34 10 2.35c12.5 2.92 11.93 2.92 9.8 0-2.28-3.11-2.25-3.1-11.8-2.7m-160.8 1.26c.8.8 1.63.8 2.95.03 1.62-.94 1.49-1.07-1.1-1.1-2.15-.02-2.65.27-1.85 1.07m47.76-.03c-.36.58-.45 1.28-.18 1.54.26.26.74-.22 1.07-1.07.67-1.76.1-2.07-.9-.47M545 875a1 1 0 0 0 1 1 1 1 0 0 0 1-1 1 1 0 0 0-1-1 1 1 0 0 0-1 1m-217.5.99c-.34.56.06.73.95.4 1.73-.67 2.05-1.39.6-1.39-.5 0-1.2.45-1.54.99m2.24 1.37c-6.91 2.52-7.6 4.65-1.5 4.6 4.9-.03 7.27-1.52 7.48-4.71.08-1.24.06-2.2-.04-2.12-.1.07-2.78 1.07-5.94 2.23m31.25-.6c0 4.66 2.31 6.99 3.27 3.3.3-1.16-.25-2.64-1.38-3.66-1.8-1.62-1.89-1.6-1.89.36m11.12.15c-.99.62-1.19 1.9-.7 4.48.76 4.09 2.63 4.7 4.1 1.36.66-1.52 1.95-2.32 3.98-2.46l3-.2-3.25.98c-1.79.54-3.25 1.63-3.25 2.43 0 .87.6 1.2 1.5.86.84-.32 2.65.16 4.04 1.07 2.51 1.65 2.52 1.65 1.9-1.14-.35-1.53-.83-3.56-1.09-4.5-.26-.95-2.13-2.19-4.16-2.75-4.43-1.23-4.34-1.23-6.07-.13m53.38.09c.34.55 1.24 1 2 1s1.66-.45 2-1c.35-.57-.5-1-2-1s-2.35.43-2 1m12 .54-5 1.18 6.88.1c3.79.06 6.71 0 6.5-.14L444 877.4c-1.04-.72-3.02-.68-6.5.14m79.5-.14c1.38.84 2.05 1.57 1.5 1.63s.08.53 1.4 1.06c1.31.52 2.63.72 2.91.43s.01-.52-.61-.52c-.63 0-.88-.67-.56-1.5.4-1.03-.06-1.5-1.45-1.5-1.12 0-2.85-.26-3.86-.57s-.7.12.67.97m62-.93c0 .25.9.94 2 1.53 1.6.85 2 .76 2-.47 0-.86-.87-1.53-2-1.53-1.1 0-2 .2-2 .47m9.05 1.27-3.44 1.7 3.44.81c1.9.45 5.03 1 6.95 1.23 2.74.34 3.11.2 1.73-.59-2.06-1.17-1.44-2.66 1.62-3.9 1.7-.68 1.2-.87-2.35-.9a21 21 0 0 0-7.95 1.65m59.11-.84c-.53.33 3.73.6 9.46.61 6.26 0 9.33-.28 7.67-.72-3.19-.86-15.7-.77-17.13.1m-298.5 1.41-2.84 1.22 4.72 2.29c4.21 2.04 4.63 2.1 3.97.49-.4-1-.96-2.59-1.24-3.55-.59-2.04-.83-2.06-4.6-.45m6.33-.52c0 1.18 3 5.22 3.88 5.22.43 0 .57-1.35.33-3-.3-2.12-1-3-2.32-3-1.04 0-1.89.35-1.89.78m32 .16c0 1.68 1.77 2.1 2.36.55.35-.9 0-1.49-.9-1.49-.8 0-1.46.42-1.46.94m12.54 0c-.95 1.53 1.28 2.23 3.44 1.07 1.11-.6 2.02-1.29 2.02-1.54 0-.89-4.88-.47-5.46.46m7.46-.06c0 1.66 3.73 4.13 6.08 4.01q2.53-.1.67-.57c-.96-.25-1.75-.8-1.75-1.22s-1.12-1.28-2.5-1.9c-1.37-.64-2.5-.78-2.5-.32m75 .08c0 .5.86 1.19 1.9 1.52 1.06.33 2.17 1.26 2.48 2.07.7 1.82 2.62 1.93 2.62.14 0-.72-1.57-2.06-3.5-2.98s-3.5-1.25-3.5-.75m110.46 1c2.18 2.41 2.68 2.57 1.93.63a4.2 4.2 0 0 0-2.16-2.05c-1.33-.5-1.29-.25.23 1.43m8.87-.45c0 .72.6 1.07 1.34.79q1.34-.54 1.33 2.1c0 2.9 1.14 3.34 2.96 1.14 1.55-1.86.76-3.1-2.8-4.33-2.15-.75-2.83-.68-2.83.3M284 879c-1.28.83-1.25.97.25.99.96 0 1.75-.44 1.75-.99 0-1.22-.11-1.22-2 0m3 .31c0 .85 1.15 1.36 3.04 1.36 2.08 0 2.63-.28 1.75-.9-.8-.54.31-.64 2.86-.26 2.28.35 4.37.26 4.65-.19s-2.37-.94-5.9-1.1c-4.85-.2-6.4.06-6.4 1.1m105 .12c0 .8.45 1.72 1 2.06s1 .09 1-.56c0-.67.83-.96 1.93-.67 1.35.35 1.76.09 1.39-.88-.71-1.86-5.32-1.81-5.32.05m177-.52c-2.43.7-2.4.75 1.1 1.92 4.07 1.37 7.04.7 6.23-1.42-.58-1.5-3.21-1.68-7.33-.5m134.5.55-4 1.32 3.63.1c2 .06 5.26.8 7.25 1.62 2.6 1.1 3.62 1.19 3.62.33 0-.65.75-2 1.65-3.01 1.59-1.75 1.45-1.83-3.25-1.75-2.7.04-6.7.67-8.9 1.4m-300.74.95c-2.07 1.52-1.3 2.57 1.9 2.57 2.57 0 3.03-1.18 1.09-2.8-.88-.72-1.77-.66-2.99.23m71.44.62c-.67 1.07-.81 1.95-.31 1.95.9 0 2.44-3 1.85-3.6-.18-.17-.87.57-1.54 1.64m33.3-1.04c.34.55.82 1 1.06 1s.44-.45.44-1-.48-1-1.06-1-.78.45-.44 1m3.32.16c1.44 1.88.02 3.43-2.07 2.25-.9-.5-.96-.38-.18.46.58.64 2.5 1.58 4.25 2.08 2.81.8 3.07.72 2.27-.78-.5-.93-1.95-2.59-3.23-3.68-1.48-1.27-1.86-1.39-1.04-.33m-204.07 2.9c-5.86 3.03-7.32 4.94-3.78 4.94 1.26 0 1.78-.5 1.44-1.38q-.52-1.37 4.03-3.25c2.5-1.03 4.55-2.2 4.56-2.62 0-.97.4-1.11-6.25 2.31m171.7-2q-.73 1.21.4.54c.63-.4 1.15-.24 1.15.34s-.62 1.06-1.38 1.06q-1.94-.02-4.12 7.75c-.79 2.8.6 2.9 3.03.22 1.02-1.12 2.5-1.8 3.3-1.49 1.16.45 1.33-.23.88-3.58-.62-4.65-2.05-6.77-3.25-4.83m-214.47.92c.54.34-1.48 1.44-4.47 2.46-5.4 1.84-6.46 3.55-2.17 3.55 3.21 0 13.9-4.33 13.5-5.46-.2-.53-2.03-1-4.1-1.05-2.05-.06-3.3.17-2.76.5m18.51.01c-.78 1.27.54 1.27 2.5 0 1.3-.84 1.27-.97-.2-.99-.92 0-1.96.44-2.3.99m35.15.47c-.73 1.9.23 2.53 3.77 2.5 2.76-.03 2.9-.17 1.35-1.35-.96-.73-1.54-1.52-1.3-1.76s-.4-.5-1.43-.58-2.1.46-2.39 1.19m149.02-.8c-.37.36-.66 1.6-.66 2.75.02 1.65.2 1.78.94.63.5-.8.72-1.78.47-2.18-.24-.4.35-.92 1.32-1.18 1.4-.36 1.43-.48.18-.57-.87-.07-1.89.18-2.25.55m228.33.83-2.5 1.43 2.64.04c1.46.01 2.9-.64 3.22-1.47.71-1.85-.12-1.85-3.36 0m-420.46.43c-.31.51-.11 1.22.45 1.57 1.32.8 5.01-.34 5.01-1.57 0-1.21-4.7-1.21-5.46 0m66.17 1.07c-.45 1.7-.03 2 2.85 2 2.13 0 4.08.77 5.32 2.1 1.08 1.16 2.45 1.81 3.04 1.45 1.56-.97 1.32-2.55-.38-2.55-.81 0-1.92-.85-2.48-1.88a6 6 0 0 0-2.78-2.5c-1.53-.54-1.5-.41.16.88 1.07.82 1.44 1.5.82 1.5-.61 0-1.8-.67-2.62-1.5-2.04-2.04-3.3-1.88-3.93.5m83.1-.5c1.28.94 2.59 1.43 2.92 1.1.8-.8.26-1.21-2.73-2.07l-2.5-.71zm31.77-.64c-4.84 1.05-4.01 2.72 1.9 3.79 6.16 1.12 6.52.99 6.52-2.33 0-2.5-2.03-2.85-8.42-1.46m62.44 1.38c0 1.82.2 1.96.98.75 1.25-1.94 1.25-3 0-3-.55 0-1 1.01-.99 2.25m2.6-.66c-.79 2.04.06 3.39 2.2 3.49 1.2.05 1.3.23.33.62-1 .4-.6 1.2 1.4 2.92 3.24 2.78 4.46 3 4.46.79 0-.88-.94-1.84-2.09-2.14-1.2-.32-1.63-.83-1.01-1.2q1.08-.67-.57-3.01c-1.6-2.28-1.69-2.3-3.1-.45-1.37 1.8-1.4 1.78-.77-.36.77-2.55.07-3.09-.86-.66m55.4-1.2c0 .22.67.65 1.5.97s1.5.14 1.5-.4c0-.52-.67-.96-1.5-.96s-1.5.18-1.5.4m8 .83c0 1.82 1.77 3.33 2.76 2.35.34-.35-.14-1.39-1.07-2.32-1.56-1.56-1.69-1.56-1.69-.03m25.57-.34c-.7 1.14 3.79 4.12 6.14 4.08 1.63-.03 1.61-.17-.21-1.58-3.42-2.63-5.35-3.44-5.93-2.5m12.43.16c.83.56 2.3 1.48 3.3 2.04 1.61.93 1.66.82.5-1.03-.7-1.13-2.18-2.05-3.3-2.04-1.67 0-1.75.18-.5 1.03m-331.19.63c.72.3 1.59.26 1.92-.08.33-.33-.26-.56-1.31-.52-1.17.05-1.4.28-.6.6m16.95.88-2.73 1.48 2.06 2.06c1.92 1.92 2.19 1.95 3.87.42 1.06-.95 1.6-2.44 1.3-3.58-.6-2.3-.92-2.32-4.5-.38m61.3.02c.06 1.17.3 1.4.61.6.3-.71.26-1.58-.08-1.9-.33-.34-.56.25-.52 1.3m47.38-.63c-1.68.68-1.97 1.53-1.65 4.87.22 2.25 1.01 4.28 1.79 4.58 1.57.6 4.4-.24 4.4-1.32 0-.38.7-1.57 1.57-2.64s1.25-1.3.85-.54q-.7 1.37.38.72c.61-.37.87-1.33.56-2.11-.68-1.8-3.93-2.88-5.6-1.88q-1.31.8.11-.94c1.49-1.83.8-2.04-2.4-.74m67.9 2.8c.05 3.87.28 4.25 2.6 4.25 1.39 0 3.88-1.1 5.53-2.43 2.37-1.9 2.74-2.68 1.79-3.66-.97-.99-2.04-.92-5.2.32-3.87 1.52-3.99 1.5-4.38-.58-.21-1.18-.37-.24-.34 2.1M601.16 885c0 1.38.23 1.94.5 1.25.28-.69.28-1.81 0-2.5-.27-.69-.5-.12-.5 1.25m98.84-.5q0 1.5-3 1.5c-2.77 0-2.91.17-1.77 2 .82 1.31 2.33 2 4.4 2 1.76 0 3.39.61 3.68 1.38.33.85 1.47 1.2 3 .9 1.35-.26 2.76.02 3.13.63.37.6 1.2 1.09 1.82 1.09.82 0 .8-.34-.06-1.2-1.6-1.6-1.52-2.8.2-2.8.76 0 1.65-.7 1.98-1.55.43-1.12-.6-2.1-3.64-3.48-5.19-2.36-9.74-2.58-9.74-.47m-416.5.5c-1.1.47-1.41.9-.7.93.73.04 1.06.49.74 1-.8 1.3.96 2.2 2.87 1.47 2.13-.82 2.02-2.37-.16-2.5q-1.75-.1.75-.9c2.01-.64 2.1-.8.5-.83-1.1-.02-2.9.36-4 .83m75.5-.62c0 .2.79 1 1.75 1.75 1.59 1.24 1.62 1.2.38-.38-1.3-1.67-2.13-2.2-2.13-1.37m29 1.32c0 1.32.27 1.43 1.2.5.66-.66 1.67-1.2 2.25-1.19s.38.46-.45.99c-.82.53-1.05 1.03-.5 1.1 5.32.69 6.5.64 6.5-.28 0-.58-.87-.83-1.94-.55-1.11.3-2.16-.08-2.46-.88-.78-2.02-4.6-1.76-4.6.31m19.5-.85c-1.1.36-2.14 1.45-2.3 2.44-.27 1.56.01 1.51 2.25-.43 2.18-1.9 3.2-3.12 2.3-2.76-.14.05-1.15.4-2.25.75m22.5.06c0 .46.68 1.4 1.5 2.09 1.22 1.01 1.5.96 1.5-.27 0-.83-.68-1.77-1.5-2.1-.82-.3-1.5-.19-1.5.28m7.27-.22c.97.26 2.32.24 3-.03.68-.28-.12-.49-1.77-.46-1.65.01-2.2.24-1.23.5m4.73.3c0 .55.42 1 .94 1s1.22-.45 1.56-1-.08-1-.94-1-1.56.45-1.56 1m27.87.75c-1.27 1.62-1.22 1.64.63.28 1.1-.8 2.19-1.6 2.42-1.75s-.06-.28-.63-.28-1.66.79-2.42 1.75m119.77-.25c.32.83 1.19 1.5 1.94 1.5.8 0 1.12-.62.78-1.5-.32-.83-1.19-1.5-1.94-1.5-.8 0-1.12.62-.78 1.5m3.59-.32c.5 1.53 5.65 1.8 6.02.32.14-.55-1.26-1.14-3.1-1.32-2.44-.23-3.24.04-2.92 1m61.48.82c.29 1.1.95 2 1.47 2 .51 0 .69.4.38.9s.98.44 2.87-.14l3.42-1.05-3.63-1.86c-4.6-2.34-5.15-2.32-4.51.15m4.29-1c.83.53 2.17.95 3 .91q1.48-.05-.5-.91c-2.75-1.18-4.33-1.18-2.5 0m-390.5 2.04c-4.56 1.64-4.73 1.8-1.9 1.88 3.93.1 9.57-1.83 8.84-3.02-.68-1.1-.72-1.09-6.94 1.14m47.5-1.12c0 1.79 2.66 2.37 5.72 1.25l2.78-1.01-2.67-.08a16 16 0 0 1-4.25-.69c-.87-.33-1.58-.1-1.58.53m84.23-.42c.28.55.18 1.9-.24 3a3.6 3.6 0 0 0 .79 3.76c1.89 2.15 1.05 3.26-1.44 1.92-1.55-.83-1.84-.6-1.84 1.4 0 1.32.59 2.62 1.3 2.9.8.3 1.03.05.59-.66q-.7-1.14.85-.56c1.9.73 5.26-2.65 4.26-4.27-.39-.62-1.67-1.52-2.85-2-1.58-.63-1.7-.88-.49-.93 1.91-.07 1.85-2.5-.12-4.32-.73-.68-1.1-.79-.81-.24m132.76 1.48c1.27 2.38 3.13 3.36 5.44 2.86.99-.22.07-1.18-2.51-2.66-4.02-2.3-4.05-2.3-2.93-.2m107 0c1.3 2.43 4.13 4.02 7.17 4.02h2.29l-2.15-1.5c-1.17-.83-2.96-1.24-3.97-.92-1.6.5-1.58.41.13-.67 1.94-1.23 1.94-1.25 0-2-3.62-1.42-4.63-1.1-3.47 1.07m9.22-1.25c-1 .36-1.02.79-.13 1.87 1.29 1.55 3.92 1.9 3.92.52 0-1.4-2.38-2.9-3.8-2.39M378 887.07c0 .68-.72.87-1.75.48-1.43-.55-1.51-.43-.47.63 1.44 1.44 7.5 2.09 6.65.7-1.02-1.65-4.43-3.05-4.43-1.8m123-.08a1 1 0 0 0 1 1 1 1 0 0 0 1-1 1 1 0 0 0-1-1 1 1 0 0 0-1 1m48.02-.03c-1.24.78-1 1.48 1.49 4.23 1.64 1.82 3.27 3.68 3.63 4.14.35.47 1.55.36 2.65-.23 1.93-1.03 1.86-1.24-1.66-5.1-4.03-4.4-4-4.38-6.11-3.04m7.98.03c0 .55.67 1 1.5 1s1.5-.45 1.5-1-.67-1-1.5-1-1.5.45-1.5 1m128.1.38c-.9 1.09-.66 1.53 1.13 2.1 1.25.4 3.06.65 4.02.56s1.75.31 1.75.9c0 .58.45 1.06 1 1.06 1.82 0 1.04-2.86-1.22-4.44-2.75-1.93-5.18-2-6.68-.18m-274.18.37c-.04.41-.22 1.5-.4 2.43q-.3 1.67 1.08 1.14c1.59-.6 1.93-4.32.4-4.32-.55 0-1.03.34-1.08.75m24.08.05c0 1.38 5.95 2.65 7.08 1.52.52-.52.17-.94-.84-1-.96-.07-2.75-.45-3.99-.84-1.35-.43-2.25-.3-2.25.32m35.49 1.21a9.6 9.6 0 0 0-2.11 5.13c-.14 2.84-.07 2.9 1.73 1.26 2.37-2.15 2.44-3.54.14-2.7q-1.72.61.64-1.36c1.32-1.1 2.2-2.55 1.98-3.24-.29-.85-1.05-.56-2.38.91m35.19-.41c.3.77 1.2 1.4 2.03 1.4.93 0 1.28.58.93 1.5-.32.83-.17 1.5.33 1.5 1.68 0 1.98-1.69.64-3.52-1.62-2.22-4.71-2.9-3.93-.88m8.55-.02c.95.99 1.94 1.59 2.2 1.32.26-.26-.51-1.07-1.72-1.8-2.11-1.26-2.13-1.24-.48.48m51.02.39c-.9 1.43-.87 2.1.09 2.9.9.74 1.57.5 2.4-.84.9-1.43.88-2.1-.08-2.9-.9-.74-1.57-.5-2.4.84m-262.01-.26c-3.05.58-2.86 2.29.25 2.29 1.56 0 2.5-.57 2.5-1.5 0-.83-.11-1.44-.25-1.36s-1.26.33-2.5.57m34.75.91c0 1.3.65 1.5 3.22.99 5.18-1.04 5.77-2.61.98-2.61-3.21 0-4.2.38-4.2 1.63m19-.04c0 1.6.9 1.76 2.83.53 1.02-.64.84-.97-.75-1.39q-2.07-.54-2.08.86m14.1.5a33 33 0 0 0 3.9 2.95c1.23.7.87 1.46-1.97 4.16-1.9 1.81-2.47 2.15-1.25.74 2.75-3.18 2.8-4.56.2-5.95-2.32-1.24-2.54-.84-3.33 5.96-.28 2.44-.2 4.02.17 3.5s2.7-1.04 5.18-1.14l4.5-.2-4.31 1.02c-4.36 1.02-4.95 2.36-1.9 4.28 1.3.82 2.15.6 3.71-.97 2.57-2.57 3.44-6.44 1.44-6.44-.8 0-1.43-.79-1.43-1.75.02-1.5.16-1.53.99-.25.86 1.33.97 1.33.95 0-.02-1.9-1.75-4.11-4.92-6.3-3.48-2.39-4.82-2.12-1.93.39m83.9-.12c2.78 2.27 6.75 3.61 7.74 2.63 1.18-1.19-2.2-3.36-6.24-4.02l-4-.65zm222-1.02c0 .99 3.87 2.51 4.58 1.8.24-.23-.7-.94-2.08-1.57-1.37-.62-2.5-.73-2.5-.23m-346.51.87c.26.26-.3 1.06-1.26 1.77-1.6 1.19-1.58 1.26.27.92 1.1-.2 2.82-.4 3.83-.43 2.56-.11 1.55-2.39-1.14-2.58-1.2-.1-1.97.05-1.7.32m59.04.14c-.78 1.25.3 7.05 1.3 7.02a6 6 0 0 0 2.14-.94c1.25-.79 1.09-1.37-1-3.74l-2.47-2.8 2.75 2.42c2.75 2.43 2.75 2.43 2.75.25 0-1.2-.41-2.17-.92-2.17-.5 0-1.58-.26-2.4-.57s-1.78-.07-2.15.53m38.05 1.23c-.84 1.2-1.32 2.4-1.06 2.66.6.6 4.48-2.87 4.48-4 0-1.6-1.88-.85-3.42 1.34m64.67 1.16c-4 4.57-4.31 8.21-.77 8.89 3.02.58 3.87-.1 2.37-1.92-.86-1.03-.72-1.81.59-3.25a6.4 6.4 0 0 0 1.38-4.66l-.32-2.77zm-231.44-1.68c.72.3 1.59.26 1.92-.08.33-.33-.26-.56-1.31-.52-1.17.05-1.4.28-.6.6m61.2.07c0 .41.45 1.42 1 2.25.85 1.3 1.1 1.31 1.91.05.52-.8.72-1.81.44-2.25-.62-1.01-3.37-1.05-3.36-.05m31.49.25c.34.55.82 1 1.06 1s.44-.45.44-1-.48-1-1.06-1-.78.45-.44 1m81.5 0c0 .55.68 1 1.5 1s1.5-.45 1.5-1-.68-1-1.5-1-1.5.45-1.5 1m66.15 5.29c-.1 3.41.3 6.88.86 7.71.74 1.08.98-.52.86-5.78-.22-9-1.5-10.43-1.72-1.93M556.5 891c.34.55 1.38 1 2.3.99 1.47-.02 1.5-.15.2-.99-1.96-1.27-3.28-1.27-2.5 0m12.17-.33c-1.15 1.14-.74 2.33.8 2.33.85 0 1.24.6.93 1.4-.3.77-.07 1.69.5 2.04.65.4 1-.68.9-2.9-.11-3.26-1.49-4.52-3.13-2.87m5.33 3.27c0 4.27.82 5.4 2.96 4.09 1.12-.7 1.06-1.46-.35-4.44-.94-1.97-1.9-3.59-2.16-3.59-.25 0-.45 1.77-.45 3.94m25-2.94c0 .55.67 1 1.5 1s1.5-.45 1.5-1-.67-1-1.5-1-1.5.45-1.5 1m4 .13q-.01 1.12 4 .49c2.58-.42 4-.26 4 .43 0 .59.46.79 1.02.44 2.03-1.26-.24-2.49-4.58-2.49-2.63 0-4.44.46-4.44 1.13m15.47-.17c.33.52 1.25.7 2.06.39 2.07-.8 1.83-1.35-.59-1.35-1.13 0-1.8.43-1.47.96m47.22-.32c-.8.8.1 2.36 1.37 2.36.52 0 .94-.67.94-1.5 0-1.55-1.18-1.99-2.3-.86m4.3.36c0 .55.67 1 1.5 1s1.5-.45 1.5-1-.67-1-1.5-1-1.5.45-1.5 1m-357.75.73c-2.34.21-4.25.87-4.25 1.47s-.79 1.72-1.75 2.5c-1.58 1.3-1.45 1.36 1.25.7a32 32 0 0 1 5.15-.82c1.19-.04 1.98-.37 1.77-.72-.22-.35.5-.87 1.6-1.15 1.8-.47 3-2.95 1.23-2.54-.41.1-2.66.35-5 .56m29.14-.12c-.6.25-.88 1.58-.62 2.95.5 2.67 1.2 2.66 7.73-.06l3-1.25-2.81-1.13q-4.33-1.72-7.3-.5m22.84 5.5c-.1 7.35 1.53 6.71 2.44-.95.5-4.18.32-5.17-.87-5.17-1.15 0-1.5 1.41-1.57 6.13m87.19-4.49c.32.84.58 1.94.58 2.44s.86.92 1.9.92q1.89-.01 1.65-1.75c-.15-.96-.07-1.19.17-.5.23.69 1.63 1.23 3.1 1.21l2.68-.04-3-1.64c-4.18-2.28-7.84-2.61-7.08-.64m61.58-.17c0 .86.87 1.53 2 1.53 1.1 0 2-.2 2-.47 0-.25-.9-.94-2-1.53-1.6-.85-2-.76-2 .47m24 .53c.59 1.1 1.96 2 3.03 2q1.96-.01 1.97-2c0-1.56-.67-2-3.03-2-2.73 0-2.93.2-1.97 2m41.22-.85c.52 1.56 2.75 1.83 2.83.35.03-.55-.7-1.15-1.61-1.35-1.05-.21-1.5.16-1.22 1m45.21.2c-2.05 1.14-2.04 1.16.45 3.63q2.52 2.49 1.86.77a2 2 0 0 1 .94-2.6c.88-.48 1.29-1.4.9-2.02-.83-1.34-1.4-1.31-4.15.22m37.32-.69c.69.28 1.81.28 2.5 0 .69-.27.13-.5-1.25-.5s-1.94.23-1.25.5m36.42.22c-1.1.69-1.06.95.15 1.41 1.54.6 2.68-.02 2.68-1.46 0-1.06-1.12-1.04-2.83.05m-363.4 1c-1.34.5-.94.89 1.74 1.73 1.92.6 3.49.73 3.49.28 0-1.38-3.4-2.68-5.24-2m102.26.44c-3.43 1.73-4.9 4.49-3.02 5.67 1.13.71 1.58.46 1.82-1.03.18-1.08.96-1.97 1.75-1.97s1.43-.45 1.43-1 .65-1 1.44-1c.8 0 1.66-.36 1.93-.8.78-1.25-2.8-1.17-5.36.13m11.57-.46c-.43.7-.51 1.53-.18 1.86.9.9 1.87-.42 1.39-1.87-.34-1.01-.58-1.01-1.2 0m30.82.47c.32 1 .59 2.02.59 2.25s.68.42 1.5.42c.83 0 1.5-.89 1.5-2s-.45-2-1-2-1 .56-1.01 1.25q-.02 1.28-1.1-.25c-.9-1.25-.98-1.2-.48.33m5.59.05c0 .75.6 1.88 1.34 2.49 1.05.87 1.6.56 2.48-1.38 1.05-2.29.94-2.49-1.34-2.49-1.44 0-2.48.58-2.48 1.38m102.7-.74c-.39.38-.7 1.63-.72 2.78 0 1.74-.18 1.84-1.07.58-.94-1.33-1.01-1.33-.65 0 .5 1.83 6.44 2.9 12.4 2.23 5.05-.57 5.05-.62-.1-2.77-3.75-1.57-3.82-1.56-3.29.47.3 1.14.13 2.07-.36 2.07-.91 0-1.29-1.42-.99-3.75.1-.69-.26-1.25-.8-1.25-.52 0-1.58-.24-2.34-.53s-1.7-.22-2.08.17m21.55.61q.22 1.24-2.6.95t-2.14.81c.38.62.92.89 1.2.6.3-.28 1.21.17 2.05 1.01 1.25 1.25 1.69 1.28 2.37.2 1.16-1.83 1.08-4.82-.13-4.82-.55 0-.89.56-.75 1.25m5.94-.04c-2.1 2.1-1.28 3.55 2.41 4.24 3.5.66 6.23-.25 3.6-1.19-.72-.25-2.1-1.31-3.07-2.35-1.36-1.45-2.03-1.61-2.94-.7M292.66 896c.7 3.78 1.81 4.96 4.65 4.99 1.45 0 1.75-.65 1.5-3.24-.26-2.75-.7-3.23-2.81-3.13-1.37.06-2.84-.39-3.25-1-.41-.62-.45.46-.1 2.38m9.6-2.34c-.69.28-1.21 1.93-1.17 3.67l.08 3.17 1.07-3c.59-1.65 1.56-3.33 2.17-3.74 1.23-.81-.2-.88-2.15-.1m77.83.92c.05 1.17.28 1.4.6.6.3-.71.26-1.58-.08-1.9-.33-.34-.56.25-.52 1.3m22.02.71c-1.27 2.11-1.24 2.13.48.48.99-.95 1.59-1.94 1.32-2.2-.26-.26-1.07.51-1.8 1.72m141.9-.85c0 .86.45 1.56 1 1.56s1-.42 1-.94-.45-1.22-1-1.56-1 .08-1 .94m80-.38c0 .58.45.78 1 .44s1-.82 1-1.06-.45-.44-1-.44-1 .48-1 1.06m47.5-.06c2.73 1.17 3.5 1.17 3.5 0 0-.55-1.24-.97-2.75-.93-2.44.06-2.52.17-.75.93m5.5-.12c0 1.06 3.52 2.1 7 2.08 2.41-.02 2.43-.07.56-1.5-2.11-1.59-7.56-2-7.56-.58m11 .2c0 1.33 1.39 1.71 3.47.95 1.75-.63 1.67-.77-.75-1.23-1.5-.29-2.72-.16-2.72.28m-274.34 1.37q-.56 1.45.88.9c.8-.31 1.2-.96.9-1.46-.77-1.24-1.14-1.12-1.78.56m58.2.88c-1.52 2.09-1.5 2.4.26 4.56 1.03 1.28 1.88 2.96 1.88 3.72 0 1.84 1.49 1.76 3.43-.18 1.96-1.96 1.97-2.85.08-4.42a4 4 0 0 1-1.15-3.37c.2-1.18.15-1.54-.1-.82-.34 1.04-.68 1-1.6-.2-1.01-1.32-1.37-1.23-2.8.72M523 895.2a6.3 6.3 0 0 1 1.82 2.76c.18.8.73 2.16 1.22 3 .77 1.32.9 1.28.93-.22.02-.96.5-1.75 1.09-1.75 1.8 0-.03-1.94-3.37-3.56-2.03-.97-2.64-1.06-1.69-.24m41.79 1.8c.37 2.52.7 2.84 1.88 1.86 1.13-.94 1.38-.92 1.14.1-.17.7.25 1.5.94 1.75 2.15.79 1.37-1.22-1.58-4.05l-2.83-2.7zM289 896.44c0 .86.45 1.56 1 1.56s1-.42 1-.94-.45-1.22-1-1.56-1 .08-1 .94m103.75.4c-3.11 1.88-3.4 2.7-1.26 3.52.97.37 2.03-.46 3.03-2.4.84-1.62 1.4-2.92 1.26-2.87-.16.05-1.52.84-3.03 1.75m45.5-.62c-2.53 1.22-2.72 2.03-1.16 4.94 1.08 2.03 1.09 2.03 2.59-.1.82-1.19 1.23-2.86.9-3.72-.43-1.12-.16-1.4.96-.96.9.34 1.3.18.95-.4-.74-1.2-1.34-1.16-4.24.24m68.07-.4c-.58.38-1.26 3.27-1.52 6.43-.39 4.82-.2 5.75 1.15 5.75.9 0 1.67-.79 1.74-1.75.06-.96.42-3.55.8-5.75.5-2.96.4-3.61-.4-2.5-.58.83-1.13 2.85-1.22 4.5-.17 2.96-.18 2.96-.58.3-.23-1.49.12-3.7.78-4.93 1.13-2.11 1.26-2.14 2.5-.43 1.26 1.71 1.32 1.7 1.18-.12-.15-1.94-2.5-2.73-4.43-1.5m8.23.91c-.37.95-.25 1.87.25 2.04s.7 1.4.44 2.76c-.5 2.6 1 3.24 3.63 1.57 1.1-.7 1.01-1.09-.5-2.03-1.7-1.06-1.67-1.11.38-.55 2.56.7 2.61.57 1.27-2.95-1.12-2.96-4.46-3.47-5.47-.84m115.45-.79c0 .52.45 1.22 1 1.56s1-.08 1-.94-.45-1.56-1-1.56-1 .42-1 .94m13.34 2.24c2 2 3.69 2.77 5.75 2.62 3.43-.26 3.39-.18 1.16-2.42-1.67-1.68-1.67-1.74 0-1.1q1.75.65 1.75-.77c0-1.08-1.38-1.39-5.75-1.29l-5.75.13zM653 896c0 .55.65 1 1.44 1 .8 0 1.72-.45 2.06-1s-.3-1-1.44-1c-1.13 0-2.06.45-2.06 1m-269.92 1.58c.05 1.17.28 1.4.6.6.3-.71.26-1.58-.08-1.9-.33-.34-.56.25-.52 1.3m33.15-.09c-1.8.62-2.97 1.44-2.59 1.82 1.01 1 8.36.85 8.36-.19 0-2-2.58-2.72-5.77-1.63m6.35 1c1.53 2.33 1.87 2.46 2.68 1.01 1.07-1.92 1-2.02-2.1-2.97-2.31-.71-2.32-.7-.58 1.95m25.46-1.73c.01.41.72 1.88 1.56 3.25s1.28 1.68.97.67-.57-2.47-.57-3.25-.45-1.42-1-1.42-.98.34-.96.75m6.21-.04c-1.24.23-2.25.6-2.25.8 0 1.56 2.16 5.49 3.02 5.49 1.15 0 5.9-5 5.95-6.25.03-.78-2.82-.8-6.72-.04m81.22-.08c.25.35.01 1.46-.53 2.48-.77 1.44-.67 1.72.44 1.3 1.43-.55 1.62-2.89.32-3.88-.39-.3-.5-.25-.24.1m3.54.43c0 .58.45.78 1 .44s1-.82 1-1.06-.45-.44-1-.44-1 .48-1 1.06m9 .35c0 .78.56 1.69 1.25 2 1 .47 1 .7 0 1.17-1.55.73-1.63 3.07-.13 4 2.54 1.56 7.84 2.18 8.8 1.01.7-.84 0-1.72-2.47-3.05-1.9-1.02-3.45-2.35-3.45-2.96s-.9-1.66-2-2.35c-1.65-1.03-2-1-2 .18m85.56 1.2c-.6 2.37-.11 4.36.8 3.3.94-1.09 1.57-5.91.77-5.91-.5 0-1.2 1.18-1.57 2.62m10.79-1.5c1.07.64 2.21.72 2.73.2s-.26-.97-1.85-1.08c-2.4-.17-2.5-.06-.88.89m23.05.03c-.3.49-.18.83.28.75 1.94-.34 4.3.15 4.08.84-.56 1.72 3.14 5.28 6.1 5.87 1.75.35 3.42 1.02 3.7 1.49.3.47 1.41.3 2.49-.37 1.92-1.2 1.92-1.25-.24-2.88-1.97-1.49-2.45-1.5-4.75-.15-2.12 1.24-2.26 1.25-.81.03 2.4-2.01 2.2-2.74-.8-2.74-1.79 0-2.34-.38-1.82-1.25q.74-1.24-.96.14c-.95.77-2 1.1-2.36.75s-.1-.64.58-.64.98-.4.68-.88c-.78-1.27-5.52-2.01-6.17-.96m28.41-.48c.72.3 1.59.26 1.92-.08.33-.33-.26-.56-1.31-.52-1.17.05-1.4.28-.6.6m-408.7.99c-.07.64-.37 1.82-.68 2.62-.42 1.1.06 1.34 2 .97 1.4-.27 2.56-.94 2.56-1.48 0-.55-.65-.75-1.44-.44-.83.32-1.62-.16-1.88-1.14-.25-.94-.5-1.17-.56-.53M358 898c0 .55.7 1 1.56 1s1.28-.45.94-1-1.04-1-1.56-1-.94.45-.94 1m44.25 1.64-4.26 2.57 2.26 1.72c3.26 2.5 5.35 3.07 6.63 1.8 2.24-2.25 1.2-3.55-2.63-3.26-2.06.15-2.8.08-1.64-.15 1.17-.24 2.62-1.53 3.23-2.87.62-1.35 1.01-2.43.89-2.41-.13.02-2.14 1.2-4.48 2.6m54.5-1.98c.69.28 1.81.28 2.5 0 .69-.27.13-.5-1.25-.5s-1.94.23-1.25.5m6.75.34c-.82 1.32.38 3.2 1.57 2.46 1.21-.75 1.2-3.46-.01-3.46-.52 0-1.22.45-1.56 1m57.83 2.27c0 1.77.2 2.65.43 1.94.32-.96.78-1 1.76-.2 1.04.87 1.21.67.8-.92a7 7 0 0 0-1.76-3.04c-.92-.77-1.23-.22-1.23 2.22m20.7-1.54c-1.3 1.47-1.27 1.58.34.96.98-.38 2.2-.69 2.71-.69s.92-.45.92-1c0-1.54-2.33-1.11-3.97.73m15.66-1.1c-1.13 1.14.36 2.37 2.87 2.37 1.5 0 2.44-.58 2.44-1.5 0-1.5-4.02-2.15-5.3-.86m99.05.66c-4.16 1.64-3.53 3.8 1 3.47 3.1-.22 3.78-.66 3.9-2.52.15-2.45-.7-2.61-4.9-.95m25.46-.18c.74 2.23 16.79 6.94 16.79 4.92 0-1.16-2.64-2.04-6.14-2.04-2.1 0-2.77-.37-2.26-1.25.4-.69.36-.93-.07-.53-.44.39-1.73.05-2.88-.75-2.47-1.73-5.98-1.96-5.44-.36m76.07.84c3.18 1.02 6.44 2.4 7.25 3.07.92.77 1.47.83 1.47.17 0-1.16-10.1-5.22-12.79-5.14-.94.03.89.89 4.07 1.9m-178.67.62c-.37.96.56 2.16 2.66 3.4a41 41 0 0 1 4.39 2.93c.8.7 1.32.6 1.68-.35.54-1.41-.96-3-5.5-5.82-2.32-1.44-2.73-1.47-3.23-.16m34.85-.45c1.82 1.13 1.83 1.25.18 1.83-1.6.56-1.56.8.54 2.57 1.28 1.08 1.98 1.55 1.56 1.04-.42-.5.15-1.88 1.27-3.07 1.27-1.35 1.55-2.16.76-2.17-.7 0-2.4-.32-3.77-.71-2.27-.64-2.32-.6-.54.5M639 900q0 2.01 2.03 2c1.73 0 1.88-.3.97-2-.59-1.1-1.5-2-2.03-2-.54 0-.97.9-.97 2m24.18-.44c.35 1.7 2.09 2.14 2.59.64.17-.53-.41-1.23-1.3-1.57-1.11-.43-1.51-.14-1.3.93m-278.17.18c0 .63.45 1.42 1 1.76 1.24.76 1.32 2.5.12 2.5-.49 0-1.24-1.01-1.68-2.25-.62-1.8-.86-1.27-1.17 2.6-.3 3.8 0 5.13 1.41 6.16.99.72 2.15 1.1 2.59.82 1.14-.7.21-10.25-1.13-11.6-.85-.84-1.14-.84-1.14.01m213.75-.08c.69.28 1.81.28 2.5 0 .69-.27.13-.5-1.25-.5s-1.94.23-1.25.5m22.35 2.57c-1.97 2.42-2.15 3.12-1 3.83 1.04.65 1.71-.04 2.65-2.76.7-2 1.14-3.72 1-3.83s-1.33 1.13-2.65 2.76m3.05-.23c-.57 1.65-.79 3-.48 3s.04.65-.62 1.44c-.66.8-1.91 1.17-2.79.83-1.01-.39-1.34-.2-.9.5.37.6 1.57 1.04 2.66.95 1.7-.12 2.44-1.45 2.14-3.85-.04-.35.8-1.43 1.88-2.4 2.3-2.09 2.53-3.47.56-3.47-.77 0-1.87 1.35-2.45 3m-264.65-1c.34.55.82 1 1.06 1s.44-.45.44-1-.48-1-1.06-1-.78.45-.44 1m67.9.15q-.7 1.14.7.43c.83-.43.76-.2-.19.6-1.78 1.48-2.17 5.06-.5 4.53.6-.19 1.53-1.32 2.08-2.53.54-1.2 1.44-2.19 2-2.2 1.09-.01-1.53-1.94-2.68-1.97-.38 0-1.01.51-1.4 1.14M590.5 901c2.73 1.17 3.5 1.17 3.5 0 0-.55-1.24-.97-2.75-.93-2.44.06-2.52.17-.75.93m4.5-.08c0 1.69 2.96 2.52 4.27 1.21.82-.82.83-1.13.01-1.13-.61 0-1.83-.27-2.7-.6-.87-.34-1.58-.1-1.58.52m-178.17 2.33c2.25 2.21 2.31 2.22 3.73.3.8-1.06 1.44-1.49 1.44-.94 0 .54-.56 1.55-1.24 2.23-.87.87-.92 1.46-.17 1.95a10 10 0 0 1 2.21 2.71c.96 1.69 1.1 1.3.92-2.5-.26-5.22-.97-5.96-5.7-5.99l-3.46-.01zm22.84-.84c-.55 1.44-.99 1.57-2.12.63-1.76-1.46-5.55.26-5.55 2.53 0 .82-.7 1.76-1.56 2.09-.85.33-1.31 1.23-1.02 2 .42 1.1.12 1.17-1.42.34-1.55-.83-1.84-.75-1.4.38.67 1.78 4.4 2.85 4.41 1.28.02-.82.23-.84.75-.06.43.62 2.4.89 4.6.62 3.85-.46 3.85-.47 3.25-4.26-.4-2.46-.2-3.93.54-4.18.63-.2.94-1.01.68-1.78-.35-1.06-.63-.96-1.16.41m4.52.65c-.92 1.48-.92 1.94-.03 1.94.65 0 2.02.76 3.05 1.7 1.78 1.6 1.84 1.58 1.17-.26a20 20 0 0 0-1.85-3.63c-1.04-1.56-1.22-1.54-2.34.25m21.01-.8c-.93 1.12-.98 1.76-.18 2.25 1.48.92 2.24.05 1.82-2.09-.3-1.56-.47-1.58-1.64-.16m45.36.67c-1.03 1.15-1.66 2.3-1.4 2.57.87.86 4.13-2.14 3.7-3.41q-.4-1.28-2.3.84m29.51.3c.04 1.25.4 3.12.81 4.16.7 1.75.91 1.69 2.93-.88 2.79-3.54 2.79-5.51 0-5.51-2.15 0-2.16.03-.25 1.6 1.73 1.44 1.64 1.43-.81-.02-2.67-1.58-2.75-1.56-2.68.65m19.93-1.41c0 .44 1.46 1.48 3.25 2.3 2.4 1.09 3.83 1.2 5.5.44 1.24-.57 2.25-1.33 2.25-1.69 0-1.28-5.07-1.9-7.02-.86-1.35.72-1.98.73-1.98.02 0-.56-.45-1.03-1-1.03s-1 .37-1 .82m13 1.1c0 2.98 1.08 5.08 2.6 5.08 2 0 1.83-5.62-.18-6.4-2.29-.87-2.42-.8-2.42 1.32m28.46-1c.3.5-.01 1.14-.7 1.42-.7.27-.06.54 1.4.58 1.48.04 3.28.23 4 .42.74.18 1 .14.58-.09-.41-.23-.48-.87-.14-1.41.35-.57 1.63-.03 3 1.25 3.05 2.87 4.53 1.6 1.58-1.35-1.75-1.75-2.56-1.98-3.95-1.11a4.7 4.7 0 0 1-4.04.24c-1.34-.5-2.06-.47-1.73.06m25.21 2.05a19 19 0 0 0-2.14 6c-.33 2.6-.06 3.02 1.9 3.02 1.98 0 2.39-.65 2.93-4.64 1.15-8.39.4-9.61-2.69-4.38m41-2.32c-.36.36-.14 1.27.48 2.02.89 1.07.8 1.24-.43.77-.98-.38-1.98.17-2.68 1.47-.91 1.71-.82 2.08.53 2.08.95 0 1.43-.56 1.13-1.33-.32-.83.2-1.27 1.38-1.18 2 .14 3.99 1.51 2.2 1.51-.57 0-1.26 1.13-1.52 2.5-.44 2.3-.19 2.5 3.18 2.5 2.01 0 4.25.56 4.98 1.25 1.1 1.03 1.12.86.17-1-.64-1.24-1.82-2.25-2.62-2.25-.81 0-1.47-.47-1.47-1.05 0-1.7-4.61-8-5.33-7.29M756 903c1.1 1.1 2 2.52 2 3.17s.29.88.63.53c.8-.8-2.34-5.7-3.65-5.7-.54 0-.08.9 1.02 2m-286.97.78c-.01 1.26.66 2.55 1.51 2.88 2.46.94 2.67-.18.52-2.77l-2-2.39zm66.86-.96c-2.1.9-1.57 3.97 1.16 6.59l2.19 2.09-.69-3a45 45 0 0 1-1.01-6.43c-.02.04-.76.38-1.65.75m110.82 1.17c.28 1.1.92 1.74 1.4 1.44 1.42-.87 1.03-3.43-.52-3.43-.9 0-1.22.7-.88 1.99m-279.71-.1c0 .5.71 1.17 1.58 1.5 2.45.94 2.77.74 1.42-.89-1.38-1.66-3-1.99-3-.6m23.18.77c.48 2.5 2.82 2.85 2.82.41 0-1.23-.65-2.08-1.57-2.08-.94 0-1.44.68-1.25 1.67m67.78.93c-1.3 3.44-1.2 4.95.4 6.3 1.94 1.6 5.78.78 7.33-1.56 1.2-1.8.94-2.23-2.73-4.63l-4.03-2.64zM638 904c0 .55.02 1.34.05 1.75.02.41 1.15.6 2.5.43 1.35-.18 2.45.15 2.45.72s-.75.75-1.66.4q-1.67-.65-.95.53c1.58 2.55 5.1.26 4.15-2.7-.49-1.53-1.5-2.13-3.6-2.13-1.62 0-2.94.45-2.94 1m14.37.2c-.28.47-.15.77.3.67.46-.1 2.58.6 4.73 1.55 4 1.78 5.55 1.17 5.59-2.22.01-1.47-9.7-1.47-10.62 0m-271.17 2.3c.01 1.65.24 2.2.5 1.23.25-.97.23-2.32-.04-3-.28-.68-.49.12-.47 1.77m14.81-1.65c0 .46.9 1.65 2 2.65 2.35 2.13 2.74.38.43-1.93-1.77-1.77-2.43-1.96-2.43-.73m132.25-.18c-1.9.77-1.64 8.34.3 8.34 1.2 0 1.49-1 1.3-4.5a71 71 0 0 0-.29-4.42c-.03.04-.62.3-1.31.58m50.75.28c0 .52 1.11 2.21 2.47 3.75 1.96 2.24 2.47 2.45 2.5 1.06.02-1-.71-1.76-1.72-1.76q-1.8-.01-.54-.79c.87-.56.66-1.11-.75-2-1.08-.67-1.96-.79-1.96-.26m11.66.5q-.56 1.46.9.9c1.57-.6 1.99-2.34.55-2.34-.5 0-1.15.65-1.45 1.45m3.34-.42c0 .53.67.97 1.5.97s1.5-.18 1.5-.4c0-.2-.67-.64-1.5-.96s-1.5-.14-1.5.4m-216.36 1.46c-.32.83-.14 1.5.4 1.5.52 0 .96-.67.96-1.5s-.18-1.5-.4-1.5c-.2 0-.65.67-.96 1.5m141.1-.41c-.97.56-2.32.7-3 .3s-.9-.35-.5.1 0 1.34-.88 1.99c-2.38 1.74-2.02 6.57.66 8.74 1.24 1 2.4 1.69 2.58 1.51.81-.8-.98-4.73-2.16-4.73a2.5 2.5 0 0 1-1.94-1q-.6-.98 1.94-.02c1.96.74 2.56.65 2.56-.37 0-.74.9-2.48 2-3.88 2.95-3.76 2.45-4.8-1.26-2.64m2.85 1.99c-3.45 4.09-3.4 6.15.14 5.74 2.5-.3 2.74-.69 2.75-4.57.01-2.34-.05-4.25-.14-4.25s-1.33 1.38-2.75 3.08m13.97-1.79c.38.99.94 1.54 1.25 1.24.3-.31 0-1.12-.69-1.8-.98-.98-1.1-.86-.56.56m32.44-.4c0 .5.67 1.15 1.5 1.47.91.35 1.5 0 1.5-.9 0-.8-.67-1.46-1.5-1.46s-1.5.4-1.5.9m116.94.32c-2.55.94-2.45 1.94.51 5.13 2.34 2.52 2.93 2.65 12.42 2.65 5.48 0 10.11.39 10.3.86.18.48 2.36.54 4.83.13 2.48-.4 3.46-.8 2.2-.87-1.28-.06-2.11-.46-1.86-.87s-.97-.82-2.72-.91-5.64-1.27-8.65-2.63c-3-1.35-6.14-2.7-6.97-3-1.33-.5-1.33-.56 0-.6.83-.04 3.41.8 5.75 1.86s4.25 1.72 4.25 1.45c0-.26 1.33.22 2.95 1.05s3.31 1.51 3.75 1.49-.78-.88-2.7-1.9c-1.92-1.03-3.81-1.67-4.2-1.44-.38.24-1.18-.47-1.77-1.57-.95-1.78-1.96-1.99-8.61-1.78-4.15.13-8.41.55-9.48.95M443 908c0 2.17.74 2.45 2.88 1.1 1.61-1.02.65-3.1-1.44-3.1-.8 0-1.44.9-1.44 2m114.58-1.13c-.43.7-.51 1.53-.18 1.86.9.9 1.87-.42 1.39-1.87-.34-1.01-.58-1.01-1.2 0m37.13 2.15c-2.3 2.69-2.2 3 1.03 2.98 3.3-.02 4.65-.9 5.04-3.24.42-2.49-3.87-2.3-6.07.26m6.92-.51c-.64 1.67.89 2.08 1.86.5.93-1.5 4.09-1.2 5.52.52 1.53 1.85 2.26 1.38 1.4-.88-.84-2.17-7.96-2.29-8.78-.14m10.91-.41c.31.5 1.3.91 2.18.91 1.9 0 .88-1.3-1.26-1.6-.82-.13-1.23.19-.92.69m-133.97.78c-.43.7-.51 1.53-.18 1.86.9.9 1.87-.42 1.39-1.87-.34-1.01-.58-1.01-1.2 0m156.65-.29c.37.37-.32 1.54-1.53 2.6-2.2 1.93-2.2 1.93 1.04.35 3.74-1.8 3.87-2.07 1.53-2.97-.94-.36-1.41-.35-1.04.02M575 911c.59 1.1 1.92 2 2.95 2s2.71.3 3.72.66c1.47.53 1.36.14-.6-2-1.33-1.46-3.48-2.66-4.78-2.66-2.05 0-2.22.26-1.29 2m28.52-1.04q-.83 1.36 1.32 3.11c1.19.96 2.16 2.2 2.16 2.73 0 .97 2.28 2.2 4.08 2.2 1.75 0 .9-3.51-1.56-6.5-1.94-2.35-2.67-2.7-3.37-1.64-.74 1.11-.99 1.12-1.35.05-.35-1.07-.6-1.06-1.28.05m42.48-.08c0 .55.45 1.28 1 1.62s1 .17 1-.38-.45-1.28-1-1.62-1-.17-1 .38m17.68.52c-.3.77-.3 1.64-.01 1.93.92.92 3.33-.48 3.33-1.94 0-1.81-2.63-1.8-3.32.01m-52.01.27c-.96.95-.82 2.33.22 2.33.5 0 1.15-.67 1.47-1.5.59-1.52-.48-2.05-1.7-.83m3.94 2.22c-1.62 1.8-1.57 1.93 1.1 2.9 1.54.55 3.59 1.33 4.55 1.72 1.33.53 1.75.21 1.75-1.34 0-1.16-.86-2.3-2-2.67-1.1-.35-2-1.05-2-1.57 0-1.5-1.56-1.07-3.4.96m-89.16 3.86a73 73 0 0 1-.95 3.9c-.2.63.48 1.37 1.5 1.63 1.92.51 2.97-1.6 3-6.03.02-3.23-2.83-2.83-3.55.5m53.06-.22c3.54 2.9 4.68 3.12 3.8.72-.84-2.25-2.3-3.23-4.8-3.2-1.74.02-1.6.35 1 2.48m71.58-2.16c.23.2 1.54.94 2.92 1.66 2.29 1.19 2.38 1.16 1.13-.37-.76-.91-2.07-1.66-2.92-1.66s-1.36.16-1.13.37m-132.51 2.88c1.4 4.47 4.73 4.74 5.25.42.28-2.4-.01-2.67-2.82-2.67-2.8 0-3.06.25-2.43 2.25m8.46-.75a6 6 0 0 0 .97 2.5c.53.83.97 1.05.97.5a6 6 0 0 0-.97-2.5c-.53-.83-.97-1.05-.97-.5m96.97.94c0 .8.4 1.7.9 2 1.02.63 2.27-1.94 1.36-2.84-1.07-1.08-2.26-.63-2.26.84m-203.44 2.04c1.68 1.28 1.74 1.62.44 2.49-1.06.7-1.12 1-.22 1.01 1.9.03 2.73-3.04 1.12-4.07-2.33-1.47-3.42-1.01-1.34.57m132.46 7c-.79.95-.87 1.52-.2 1.52 1.2 0 2.62-1.9 1.92-2.6-.25-.24-1.02.24-1.72 1.08"/></svg>