<svg xmlns="http://www.w3.org/2000/svg" width="1000" height="1000"><path fill-rule="evenodd" d="M509.6 71.49a7.8 7.8 0 0 0-1.1 5.5c.3 1.72.1 3.01-.49 3.01-.55 0-1.01-.47-1.01-1.05 0-.57-1.14.1-2.54 1.5-2.05 2.05-2.34 2.91-1.5 4.48 1.1 2.03-.28 3.97-1.46 2.07-.35-.57-1.06-.77-1.57-.46-.51.32-.93.11-.93-.46q0-1.04-2.43.07c-2.04.93-2.25 1.4-1.28 2.94.82 1.32.85 2.92.11 5.7-1.02 3.83-.32 6.67 2.1 8.44 2.26 1.67-1.65.65-4.73-1.23-3.12-1.9-7.77-2.72-7.77-1.36 0 .36 1.32 1.9 2.94 3.45 2.67 2.56 2.77 2.87 1.07 3.4q-1.89.6-1.47 2.73c.23 1.17-.07 2.7-.65 3.42-.81.97-.44 1.44 1.55 1.93 2.35.6 2.54 1 1.97 4.04-.5 2.71-.31 3.39.98 3.39.88 0 1.61.45 1.61 1 0 1.28-.1 1.27-4.25-.46-1.92-.8-3.77-1.19-4.1-.86s-1.27.05-2.08-.62c-1.57-1.3-3.73-.94-9.82 1.65-4.95 2.1-4.82 3.7.25 3.02 3.64-.5 5.26.37 3.16 1.67-1.54.95-.56 5.12 1.14 4.82 1.1-.2 1.98.97 2.82 3.78.86 2.86 1.48 3.69 2.1 2.79s.79-.7.55.71c-.28 1.64-1 1.95-3.98 1.72-2-.16-3.92.18-4.27.75s-1.73.77-3.06.43c-1.79-.45-3.46.22-6.44 2.58-3.99 3.16-5.4 5.76-2.52 4.66 1.08-.42 1.5.1 1.5 1.84 0 1.76-.9 2.86-3.28 3.98-3.52 1.67-5.17 6.54-2.2 6.54.81 0 1.5-.56 1.51-1.25s.5-.44 1.08.54c.73 1.28 1.67 1.6 3.2 1.11 2-.63 2.06-.54.68 1.14-1.35 1.66-1.32 1.77.26 1.18.96-.36 1.75-.22 1.75.31s.34.92.75.85q2.97-.46.82 1.69c-.86.87-2.37 1.31-3.37 1-5.3-1.69-18.15 4.52-16.77 8.1.27.7-.28 1.7-1.21 2.23-.94.52-1.39 1.27-1 1.66.4.39-.4 1.58-1.75 2.65-1.36 1.06-2.47 2.58-2.47 3.36 0 1.84.56 1.8 4.12-.3 2.4-1.41 3.28-1.5 4.89-.5 2.9 1.81 3.3 1.54 2.64-1.77-.33-1.65-.21-3 .27-3 .47 0 1.04 1.57 1.27 3.5s.05 3.5-.4 3.5c-.43 0-.8.56-.82 1.25s-2.04 2.47-4.5 3.96c-2.46 1.5-4.47 3.4-4.47 4.25 0 1.83 2.12 2.03 3.78.36q2.16-2.16 2.49 2.07c.17 2.23 1.72 3 1.75.86q-.01-1.32.9.17c.51.8.53 2.39.06 3.64-.47 1.23-.67 2.41-.45 2.63s-2.29.38-5.57.36-5.96-.38-5.96-.78-1.2-.26-2.67.3c-1.47.55-3.22.8-3.89.55-1.72-.66-5.2 2.01-6.9 5.31-1.54 2.96-1.2 4.26.91 3.45.73-.28 1.81.84 2.54 2.6 1.14 2.75 1.46 2.93 2.9 1.65 1.36-1.22 1.8-1.23 2.86-.08a6 6 0 0 1 1.33 3.16c.05 1.05.29 1.27.58.54.68-1.69 2.34-1.6 2.34.13 0 1.9 3.73 2.75 4.4 1 .3-.75.99-1.38 1.54-1.38s.74.68.42 1.5c-.93 2.43 1.32 1.72 3.57-1.13 1.22-1.56 2.1-2.07 2.13-1.25.04.76.5.3 1.02-1.02.53-1.31 1.23-2.12 1.56-1.8 1.23 1.23-3.26 7.2-5.7 7.57-2.3.36-2.33.43-.44 1.27q2.12.93-1 .16c-4.44-1.07-11.37-.58-12.87.93-1.88 1.88-3.88 5.85-3.26 6.47.29.29 2.15-.47 4.13-1.7 3.8-2.35 5.65-2.1 3.52.48-.7.83-.96 1.52-.59 1.52.38 0-.02 1-.87 2.22-2.13 3.04-2.03 5.95.19 5.57q1.75-.3 2.07 1.97c.2 1.4.77 2.01 1.5 1.6.65-.37.28.24-.82 1.36-1.3 1.3-2.53 1.75-3.51 1.25-.83-.43-2.74-.55-4.25-.26s-2.74.1-2.74-.43c0-.52-.78-.95-1.74-.95-2.27 0-9.5 3.84-9.98 5.3-.51 1.58 4.93 2.43 6.63 1.03 1.2-1 1.22-.85.07.99-1.2 1.93-1.04 2.4 1.6 4.72 1.6 1.4 3.82 2.59 4.92 2.61 2.73.07 4.07 1.12 4.72 3.68.4 1.56.02 2.3-1.34 2.66-1.22.32-1.88-.03-1.88-1 0-1.2-.83-1.36-4.25-.78-2.34.38-4.53 1.15-4.87 1.69-.4.62-1.4.57-2.75-.16-1.17-.63-2.13-.73-2.13-.23s-1.57 1.97-3.5 3.28c-5.41 3.69-4.17 7.36 1.53 4.51 1.65-.82 2.77-1.11 2.48-.65s-.07 1 .48 1.19c.54.18 1.1 1.58 1.22 3.1.17 2.05.63 2.61 1.76 2.16.84-.33 2.57-.8 3.85-1.05 2.3-.44 2.3-.43.5 2.06-1 1.37-2.14 2.51-2.54 2.53s-.5.62-.22 1.34c.73 1.87 8.52 1.3 10.01-.74 1.06-1.44 1.25-1.39 1.75.54.41 1.59 1.1 2.01 2.62 1.62q2.09-.56 1.34.61c-1.28 2.05-1.16 3.77.3 4.33.78.3 1.42.97 1.42 1.5 0 .52-.4.7-.91.39-1.45-.9-4.25.57-3.72 1.96q.47 1.24-1.45.75c-1.06-.28-2.5-.07-3.18.47-1.89 1.48-5.6 2.17-5.96 1.1-.17-.52-1.85-.27-3.8.57-1.91.83-3.09 1.53-2.6 1.55.47.02.36.64-.25 1.38s-.8 1.66-.42 2.04-.24.94-1.39 1.25c-1.46.38-1.94 1.11-1.59 2.46.44 1.65 1.67 2.46 2.54 1.66.16-.14 1.56.76 3.12 1.99 1.57 1.23 3.24 1.99 3.73 1.69s.88-.07.88.51.81 1.06 1.8 1.06 2.32.52 2.96 1.16c.87.87 1.54.84 2.72-.14 1.34-1.12 1.47-1.04.87.5q-.7 1.8.43 1.12c.62-.39 1.6.21 2.2 1.33 1.38 2.58 3.1 2.58 5.32-.01 2.1-2.45 3.7-1.76 3.7 1.6 0 2.4 1.36 3.28 2.43 1.56.3-.48 1.41-1.1 2.48-1.39 1.36-.35 1.78-.1 1.4.88-.29.77-.95 1.39-1.48 1.39-.52 0-.67.45-.33 1s-.1 1-.97 1a2.5 2.5 0 0 0-2.17 1.5c-.31.82-.97 1.24-1.47.94-.49-.3-.89.37-.89 1.5s-1.54 3.69-3.43 5.69c-2.9 3.08-3.85 3.53-6.25 2.94a23 23 0 0 0-4.82-.64c-1.1.03-3.01.06-4.25.07-1.46.01-2.25.63-2.26 1.76-.01 1.01-.33 1.3-.75.71-.75-1.04-1.87-1.02-8.24.16-3.2.6-9.46 4.32-7.38 4.4.48.02-.03.8-1.14 1.75-2.49 2.11-3.16 7.22-.95 7.22 1.3 0 1.26.39-.23 2.66l-1.75 2.67 2.75-.69c3.74-.94 6.7.83 6.7 4.01 0 2.2.36 2.51 2.45 2.11 2.3-.44 2.37-.34 1 1.61-1.42 2.04-2.08 5.6-.8 4.3.37-.36 1.22-.19 1.9.38 1.98 1.64 5.77 2.02 6.75.68q.9-1.26.33.52c-.41 1.26-.02 1.75 1.4 1.75s1.97.68 1.97 2.44c0 2.61 2.12 4.7 2.78 2.73.21-.65.8-.93 1.3-.62s.92.1.92-.5c0-.57.68-1.05 1.5-1.05s1.5.45 1.5 1 1.74.29 3.97-.6c4.81-1.93 7.76-1.33 3.26.66-3.64 1.61-4.9 3.74-2.71 4.58 2.37.91-2.89 4.47-7.53 5.09-2.87.38-4.12 1.1-4.61 2.65-.64 2.01-.71 2.02-1.34.22-.58-1.63-.87-1.7-1.99-.5-.86.92-2.83 1.28-5.73 1.04-3.2-.25-4.97.14-6.37 1.41-1.07.97-1.95 1.38-1.95.92 0-.47-.89.1-1.97 1.27-1.2 1.28-2.09 3.83-2.25 6.44-.27 4.14-.17 4.3 2.37 4.01 1.46-.17 2.97.19 3.34.8.5.79 1.15.74 2.29-.2 1.37-1.11 1.5-1.03.9.57-.53 1.41-.33 1.71.8 1.25l3.08-1.24c1.06-.43 1.74.06 2.12 1.5q.9 3.5 5.39 1.1c2-1.08 2.63-.09 1 1.58-.5.52-.68 2.16-.39 3.64.47 2.4.79 2.58 3.06 1.72 1.91-.73 2.96-.59 4.23.56 1.94 1.76 3 1.11 3.1-1.89.07-2.05.08-2.05.93-.08.47 1.1.9 1.58.93 1.06s.71-.07 1.5 1c1.24 1.7 1.21 2.17-.22 3.76-2.4 2.66-15.17 8.82-17.08 8.24-.9-.27-2.75.42-4.13 1.55l-2.5 2.05 4.25-.6c4.16-.57 6.02.82 2.76 2.08-.83.31-1.31.87-1.09 1.23.22.37-.68 1.18-2 1.8q-2.41 1.13-2.42.1c0-.65-1.88-.79-5.25-.36-2.89.36-6.05.67-7.02.69-.98.01-1.53.41-1.24.89s-.37 1.15-1.48 1.5c-3.48 1.11-2.2 6.51 1.55 6.51 1.29 0 2.75.73 3.24 1.61.71 1.27 1.33 1.39 2.91.54 1.68-.9 2.18-.69 3.09 1.3 1.06 2.35 4.24 2.88 6.98 1.19.6-.37 1.76.3 2.59 1.48l1.5 2.15 3.63-2.13c1.99-1.18 4.26-2.14 5.06-2.14s1.44-.4 1.44-.9c0-.49 1.07-.82 2.38-.74 1.9.11 2.23.52 1.65 2.1-1.11 3-3.86 4.36-5.15 2.54-.9-1.26-.98-1.22-.5.26s.14 1.66-2.06 1.1c-1.84-.46-2.4-.31-1.91.5.39.62 1.78 1.14 3.09 1.14 3.1 0 3.67 1.05 1.89 3.49-1.21 1.65-1.75 1.77-3.4.74-2.86-1.79-4.77-1.51-6.05.88-.77 1.44-1.45 1.78-2.15 1.08a2.5 2.5 0 0 0-2.41-.5c-.76.29-1.38.12-1.38-.38 0-1.27-5.27-1.16-6.55.13-.57.58-1.07 3.2-1.1 5.81-.05 3.66.22 4.52 1.17 3.74 1.36-1.13 4.76-.25 3.97 1.02-.27.45-.22 1.54.12 2.42.52 1.36 1.04 1.17 3.25-1.16l2.64-2.77.33 3.5c.3 3.2 2.08 5.3 4.67 5.54 1.66.14 3.52-1.7 2.83-2.8-.37-.61-.15-.75.52-.34.63.4 1.19 1.48 1.23 2.4q.1 1.59.58.45c.28-.69.9-1.25 1.4-1.25.48 0 .63.64.33 1.41-.31.83.21 1.6 1.29 1.89q1.76.46-1 .58c-2.81.12-5.68 2.1-5.68 3.94 0 1.15-2.4 2.18-5.08 2.18-1.06 0-1.92.68-1.92 1.5s-.79 1.57-1.75 1.65-2.43.24-3.25.35-2.56.27-3.86.35c-1.75.11-2.2.57-1.72 1.8.39 1.01-.21 2.56-1.53 3.97-1.74 1.85-2.55 2.1-4.12 1.26a7 7 0 0 0-4.36-.45c-1.75.44-2.41.2-2.41-.91 0-.84-.5-1.52-1.12-1.52-.65 0-.91 1.04-.63 2.52.26 1.4.15 2.73-.25 2.98-.67.41-.42 6.41.28 7.12.16.15 1.4-.28 2.75-.96 2.37-1.18 2.51-1.07 3.47 2.8 1.14 4.59 3.53 5.39 4.6 1.54.39-1.37.75-1.94.8-1.25.15 1.93 2.48 1.48 3.87-.75.69-1.1 1.8-2 2.49-1.99.9.02.88.25-.1.87-1.08.69-.84 1.66 1.2 4.89 2.88 4.57 4.19 5.3 7.39 4.11q2.25-.83 2.25.31c0 .63.3.84.67.47s1.73.03 3.03.88c2.14 1.4 2.51 1.4 3.98-.08.9-.9 2.65-2.01 3.9-2.49 1.65-.63 2.12-1.42 1.72-2.92-.37-1.4-.06-2.05 1-2.05.84 0 1.72.34 1.95.75s.3.24.16-.38.25-1.63.87-2.25c.83-.83.74-1.14-.33-1.19-.9-.04-.7-.4.55-.93 1.76-.76 1.79-.87.21-.93-1.72-.07-1.72-.14 0-1.91a12 12 0 0 1 3.6-2.5c1-.35 1.56-1.07 1.24-1.58-.32-.52-.12-1.22.43-1.57 1.5-.92 1.19-4.7-.56-7.01-1.04-1.36-2.7-2-5.2-2-2.69 0-3.76-.46-4.02-1.74-.42-2.12 5.6-10.76 7.5-10.76.76 0 2.48-.73 3.84-1.62 1.37-.9 2.46-1.14 2.46-.55s-.45 1.33-1 1.67-1 1.15-.99 1.8c.01.73.42.61 1.03-.3.85-1.28 1.3-1.15 2.98.86 1.09 1.3 1.98 2.06 1.98 1.68s.76.08 1.7 1.01c1.5 1.51 1.52 1.82.16 2.82-.85.62-1.53 2.62-1.53 4.45 0 2.97.25 3.25 2.33 2.73 1.84-.46 2.27-.21 2.06 1.18a10 10 0 0 1-1.06 3.02c-.97 1.56.54 1.65 2.07.12 1.66-1.66 5.51-1.7 7.44-.1 1.52 1.27 1.54 1.8.22 5.57-1.57 4.5-4.7 7.56-7.89 7.72-1.1.05-1.46.32-.8.58.65.27.92 1.25.59 2.18-.33.92.6.33 2.05-1.32 3.07-3.46 3.4-2.37.6 2a86 86 0 0 0-3.09 5.25c-.64 1.24-1.44 2.26-1.76 2.26-1.7.05-3.08 1.85-2.52 3.3.49 1.28 1.06 1.42 2.53.64 1.04-.56 1.9-1.68 1.9-2.49 0-.8.42-1.46.93-1.46.52 0 1.22-.9 1.57-2s1.16-2.57 1.82-3.28c1.85-2.02 6.68-11.36 6.68-12.93 0-.77.66-2.28 1.46-3.35 1.43-1.89 1.45-1.88 1.07.25-1.18 6.58-7.87 22.15-11.81 27.48-1.89 2.55-2.39 2.69-7.62 2.18-4.73-.45-5.97-.21-8 1.56-2.8 2.43-2.35 2.33-5.3 1.2-1.98-.75-2.68-.37-4.81 2.63-3.68 5.2-9.92 11.12-10.06 9.55-.04-.43-.42.1-.84 1.19-1.12 2.87 1.21 4.96 3.92 3.51 1.9-1.01 2-.88 1.4 1.7-.55 2.31-.43 2.59.66 1.56 1.82-1.71 3.27-1.57 2.57.25-.64 1.67.89 2.08 1.86.5 1.09-1.76 3.5-1.07 3.5 1 0 1.1.45 2 1 2s1-.5 1-1.12c0-.78.45-.75 1.49.1 1.81 1.52 4.51.64 4.51-1.45 0-.84.45-1.53 1-1.53s1 .88 1 1.95c0 1.24 1.24 2.54 3.38 3.56 3.22 1.53 3.52 1.5 6.76-.7 2.31-1.58 3.27-2.93 3.02-4.24-.2-1.07.4-2.51 1.37-3.22.96-.7 2.27-2.3 2.9-3.56.76-1.5 1.88-2.19 3.26-2 1.7.24 2.07-.2 1.96-2.24-.08-1.4-.6-2.56-1.15-2.58s-.2-.5.77-1.06c.98-.57 1.52-1.45 1.2-1.96-.33-.53.72-.66 2.49-.3 3.04.6 3.06.58 2.65-3.27a28 28 0 0 0-1.12-5.64c-.78-1.92-4.74-3.32-6.43-2.27-1.42.87-1.36-2.72.1-5.92 1.39-3.05 2.84-3.33 2.84-.55q-.01 2.02 2.07 2c1.88 0 1.93-.14.5-1.57a10 10 0 0 1-2.16-3.95c-1.28-5.08 4.6-15.48 8.75-15.48 1.1 0 2.66-.68 3.48-1.5 2.48-2.48 4.36-1.83 4.36 1.5 0 2.19-.48 3-1.75 3.01-1.38.02-1.46.2-.37.9.76.47 1.07 1.37.69 1.98s-.21 1.11.37 1.11c1.62 0 1.26 6.59-.44 8-.82.68-1.5 1.75-1.49 2.37.01.67.37.57.88-.23.7-1.1 1.01-1.1 1.66-.07.5.83 0 1.81-1.38 2.73-2.9 1.93-2.93 4.58-.03 3.66 1.85-.6 2.06-.37 1.54 1.68-.32 1.3-.88 14.96-1.24 30.36s-.87 28.36-1.13 28.79c-.74 1.23-1.45 65.76-1.12 100.71.92 94.26-.28 109.24-10.35 129.75l-4.05 8.25h-6.68c-4.88 0-9.06.83-15.46 3.06l-8.77 3.06-5.2-1.77c-6.97-2.38-15.9-2.2-22.18.44a124 124 0 0 1-13.25 4.27c-4.54 1.19-9.93 3.37-11.96 4.85-3.6 2.61-3.86 2.65-8.75 1.33-3.8-1.02-9.69-1.22-24.04-.78-10.45.3-23.73.68-29.5.82s-13.87 1.07-18 2.05c-14.12 3.37-16.52 3.8-31.85 5.75-8.44 1.07-20.5 3.28-26.81 4.92s-20.06 4.13-30.57 5.53c-10.5 1.4-19.81 3-20.68 3.56-1.2.75-.84.86 1.41.46 1.65-.3 7.96-.73 14.03-.97s12.37-.73 14-1.09c2.25-.5 2.6-.4 1.47.41-.82.59-1.03 1.08-.45 1.09.58 0 1.48-.38 2-.87 1.1-1.01 16.5-3.4 17.24-2.67.26.27-.3 1.67-1.24 3.12-1.77 2.69-4.18 2.93-8.96.9-1.36-.57-1.7-.47-1.2.36.5.8-.35 1.17-2.76 1.17-1.92 0-4.08.6-4.81 1.32-1.07 1.07-1.9 1.09-4.32.1l-3-1.24 2.8-.71c1.53-.4 2.58-.93 2.31-1.19-.26-.26-2.12.06-4.14.73-2.67.88-3.95.9-4.76.1-2.46-2.46-8.98.03-7.28 2.77.33.54-.28 1.25-1.35 1.6-1.08.34-3.29 2.13-4.91 3.98a27 27 0 0 1-5.81 4.91c-1.57.85-2.41 1.55-1.86 1.55 1.84.01 5.23-2.39 7.92-5.61 2.5-3 11.48-7.31 15.24-7.31 2.19 0 13.51 5.16 12.83 5.84-.3.3.47 1.17 1.73 1.93 1.27.76 1.5 1.13.53.83-.96-.3-1.75-.15-1.75.31 0 .47-.9 1.1-2 1.38-2.01.53-2.84 2.71-1.03 2.71.53 0 .7.67.4 1.5a2.5 2.5 0 0 1-2.1 1.5c-1.15 0-1.25.32-.4 1.34.87 1.05-.07 2.15-4.4 5.14-3.04 2.1-5.81 4.27-6.16 4.84-.36.56 1.98-.85 5.19-3.15 5.8-4.14 5.88-4.17 14.72-4.17 4.9 0 8.65.4 8.35.88s-2.12 1.63-4.05 2.54c-2.62 1.25-3.52 2.3-3.52 4.13 0 1.35.45 2.45 1 2.45s1-.9 1-2 .66-2 1.47-2 3-1.35 4.88-3 4.82-3.28 6.53-3.63c1.72-.34 3.12-1.01 3.12-1.5 0-1.14-.7-1.1-3.07.16-1.06.58-1.93.83-1.93.57 0-.25 2.93-2.02 6.5-3.92 3.83-2.03 6.5-2.95 6.5-2.24 0 .66-.73 3.33-1.61 5.94-.89 2.6-1.42 4.92-1.18 5.16s1.23-2.1 2.21-5.2c1.94-6.14 3.54-5.82 3.56.71.01 1.95.53 4.07 1.16 4.7s1.2 3.7 1.25 6.83c.08 4.19.56 5.98 1.81 6.77 2.37 1.5 3.57-.06 1.32-1.71-1.54-1.13-1.73-2.2-1.2-6.65.51-4.35.31-5.54-1.1-6.57-2.08-1.52-1.69-1.95 2.53-2.75 2.97-.57 3.25-.4 3.25 1.89 0 1.38-.68 4.12-1.5 6.1-1.79 4.27-1.8 4.34-.45 4.34 1.43 0 3.95-6.27 3.95-9.84 0-2.56.42-2.97 3.68-3.5 4.64-.75 15.44.33 14.73 1.48-.29.47-.05.86.53.86s1.06 1.3 1.06 2.87c0 2.72-.32 2.93-6.2 4.09-7.63 1.5-16.8 4.85-16.8 6.13 0 .53 1.05.27 2.33-.57 2.7-1.77 18.55-5.97 19.38-5.14.31.3-.4 2.8-1.57 5.52-2.3 5.32-2.76 9.1-1.14 9.1.55 0 1-.67 1-1.48 0-2.85 5.37-14.52 6.68-14.52.72 0 1.32.67 1.32 1.5s.45 1.5 1 1.5 1-.69 1-1.52c0-1.53 2-2.58 7.38-3.88 2.35-.58 2.76-.42 2.27.86-.32.86-.1 2.8.49 4.3l1.08 2.74 1.35-3.78c1.6-4.5 3.62-6.71 6.1-6.74 1.55 0 1.6-.16.33-1-1.06-.69-.5-.78 1.9-.32 1.96.37 3.18.27 2.86-.25-.3-.5 1.2-.98 3.34-1.06 2.88-.11 3.9.25 3.9 1.36 0 .95.57 1.28 1.57.9 1.18-.45 1.49-.05 1.25 1.63-.58 4.04-9.27 7.45-31.19 12.23-1.57.35-2.68.82-2.44 1.05.23.23 5.22-.67 11.09-2 10.84-2.44 18.83-5.4 21.77-8.07 1.44-1.3 1.82-1.25 3.28.36 1.56 1.73 1.46 1.92-1.85 3.5-1.93.92-5.31 1.96-7.52 2.31s-4.22 1-4.48 1.42c-.27.43.53.58 1.77.34l2.25-.43-2.25 1.18c-1.24.64-2.25 1.55-2.25 2 0 1.52 4.89 4.04 8.87 4.58 3.4.45 4.26.15 6.28-2.22 1.97-2.3 7.38-5.49 9.32-5.49.3 0 .53 1.1.53 2.43 0 3 1.66 7.57 2.76 7.57.44 0 1.46-1.9 2.27-4.24 1.95-5.61 4.97-6.42 4.97-1.33 0 1.96.45 3.57 1 3.57s1-1.12 1-2.5c0-3.05.93-3.15 3.87-.4 1.74 1.61 2.1 2.75 1.6 5-.39 1.8-.22 2.9.45 2.9.7 0 .94 2.28.67 6.55-.56 8.78 1.68 8.22 2.53-.63.34-3.53.86-7.1 1.17-7.92s.82-2.76 1.16-4.3c.85-3.87 2.24-2.56 4.1 3.85.88 3 2.01 5.45 2.52 5.45 1.36 0 1.17-1.36-1.13-8.17-2.46-7.3-1.45-9.6 2.56-5.83 2.73 2.57 3.59 2.8 13.72 3.65l6.71.57-2.57 3.38c-1.42 1.86-2.98 3.13-3.47 2.83s-.89.47-.89 1.71c0 2.46.07 2.4 4.9-3.89 2.25-2.93 4.02-4.25 5.68-4.25 2.65 0 2.97 1 1.37 4.32-.96 1.98-.93 2.02.36.43 1.63-2.02 2.69-2.25 2.69-.6 0 1.28 8.74 9.85 10.05 9.85 2.02 0 1.72-1.92-.53-3.4-1.5-.98-2.23-2.19-1.88-3.1.37-.96-.02-1.5-1.06-1.5-1.8 0-3.58-3.78-3.58-7.63 0-2.4 4.6-7.7 9.54-10.97 1.85-1.23 2.17-1.07 3.63 1.88.88 1.77 2.42 6.72 3.42 11 1.5 6.38 1.61 8.35.64 10.93-1.42 3.75-.65 5.08 1.35 2.35 1.32-1.81 1.42-1.7 1.42 1.58 0 2.47.45 3.53 1.5 3.53 1.15 0 1.5-1.27 1.5-5.4 0-3.3-.38-5.15-.99-4.78-.54.34-.75 0-.47-.73.28-.74-.17-3.3-1.01-5.68a56 56 0 0 1-1.53-4.7c0-.21 1.46-.43 3.25-.5 1.79-.06 2.46-.32 1.5-.57-1.41-.37-1.55-.87-.72-2.63 1-2.12.98-2.12-.62.07-2.56 3.49-4.41 2.86-4.4-1.5.02-4.31 1.26-6.82 2.88-5.82 2.54 1.57 4.37 7.3 4.79 15 .52 9.63 2.12 17.57 3.55 17.57.98 0 .74-2.83-.76-9-.52-2.12-.44-2.23.51-.75q2.6 4.02 2.62-1.72c0-1.9.3-3.77.67-4.14 1.08-1.07 4.77 3.92 4.33 5.84-.31 1.35-.03 1.54 1.26.85 2.5-1.34 5.55-5 4.8-5.76-.37-.36.07-1.78.97-3.15a20 20 0 0 0 2.25-4.8c.46-1.7 1-2.07 2.08-1.4 1.26.78 1.23 1.17-.25 2.8-.94 1.04-1.71 2.41-1.71 3.06 0 1.95 1.85 1.31 3.13-1.08.74-1.38 1.37-1.77 1.62-1 .86 2.58 2.49 1.19 1.92-1.64-.48-2.41-.2-2.98 1.63-3.37 1.2-.27 2.88-.77 3.7-1.12 1.26-.53 1.5.61 1.51 7.12.02 5.98.56 8.96 2.38 13.01 1.3 2.89 2.95 5.25 3.68 5.25.94 0 .57-1.63-1.3-5.7-3.42-7.5-4.02-14.05-1.8-19.87 2.8-7.32 6.17-4.82 6.43 4.76.06 2.03.62 4.01 1.25 4.4.84.52 1-1.07.61-5.94-.29-3.66-.13-6.65.36-6.65.48 0 .88 1.07.88 2.38s.79 2.97 1.75 3.7c1.49 1.13 1.56 1.11.5-.08-1.76-1.97-1.6-6 .25-6 .82 0 1.5.88 1.5 1.95s.79 2.4 1.75 2.93c1.4.78 1.75 2.34 1.75 7.8 0 3.75-.43 7.72-.94 8.82-.82 1.76-.74 1.84.69.68.9-.72 1.9-2.75 2.22-4.5.34-1.75 1.1-5.1 1.7-7.43 1.04-4.06 1.26-4.25 4.87-4.25h3.78l.34 5.58c.19 3.06.06 6.1-.29 6.75-.35.64-.95 2.21-1.34 3.5-.7 2.29-.67 2.3 2.33.74 2.9-1.5 3.22-1.46 6.73.93 2.03 1.37 4.3 2.5 5.05 2.5.9 0 1.36 1.22 1.36 3.56 0 2.12.4 3.3 1 2.94.55-.34 1-1.7 1-3.03 0-1.79.4-2.25 1.59-1.8 1.04.4 1.43 1.43 1.14 2.97-.25 1.3-.12 2.36.29 2.36 1.67 0 4.17-9.26 5.45-20.26.37-3.17 1.06-5.53 1.54-5.24.47.3 1.38 3.05 2.02 6.13.96 4.62.88 6.69-.44 11.94-.87 3.49-1.59 7.04-1.59 7.89 0 2.8 1.74 1.6 2.39-1.66.35-1.75 1.1-4.92 1.67-7.03 1.36-5.05 3.35-3.87 2.62 1.56-.35 2.66-.23 3.57.37 2.62.67-1.06.92-.59.94 1.73 0 1.75.72 3.88 1.58 4.75 2.25 2.24 3.08 1.95 1-.35-1.52-1.68-1.65-3.2-1.04-11.77.57-8.05.4-10.56-.97-13.82-.91-2.18-1.54-5.1-1.4-6.48s-.08-3.08-.51-3.77c-.43-.7-.48-2.2-.1-3.37.55-1.76 1.38-.77 4.94 5.9 2.35 4.4 4.84 9.74 5.51 11.86.68 2.13 1.63 4.29 2.1 4.8 1.83 1.98 1.83-.32.01-5.6l-1.89-5.5 3.6 1.83c1.98 1.01 4.15 1.84 4.83 1.84 1.7 0 .48-7.16-1.48-8.6a2.4 2.4 0 0 1-.83-2.84c1.17-3.05 3.15-1.04 3.47 3.52.18 2.43.71 4.82 1.2 5.31.5.52.66-.11.37-1.5-.45-2.07-.37-2.15.6-.64.62.96 1.57 1.75 2.13 1.75s.72-.47.37-1.03a23 23 0 0 1-1.5-4.03l-.85-2.99 2.93 2.1c4.27 3.03 4.8 6.99 2.43 17.95l-.55 2.5 1.1-2.5c.61-1.37 1.43-5.2 1.81-8.5l.7-6 2.9 4.3c1.58 2.37 2.88 5.62 2.88 7.24 0 2.73 1.81 4.35 4.32 3.86.47-.09 2.22.41 3.88 1.1 2.67 1.12 2.99 1.68 2.64 4.64-.23 2.03.05 3.36.72 3.36.61 0 1.11-1.14 1.11-2.53 0-1.4.63-2.77 1.4-3.07 1.45-.56 1.17-7.26-.45-10.43-.43-.84-.42-4 .02-7l.81-5.47-.04 5.65c-.05 6.94 2.64 12.26 6.32 12.52 1.34.1 4.41.67 6.82 1.28 5.6 1.43 10.57-.07 12.59-3.78 1.44-2.65 1.45-2.64 1.49 2.08.02 2.61.49 4.75 1.04 4.75s1-1.96 1-4.36v-4.36l5.1-.6c5.59-.67 11.05 1.57 8.95 3.67-1.46 1.46-1.31 2.65.34 2.65.77 0 1.69-.75 2.04-1.68.5-1.3 1.08-.8 2.59 2.25 2.22 4.5 7.97 11.78 8.7 11.04.28-.27-.46-1.84-1.63-3.48-2.73-3.84-6.04-11.13-6.07-13.38-.01-1.34.8-1.75 3.55-1.75 3.06 0 3.48-.27 2.96-1.92-.44-1.38-.03-2.1 1.48-2.58 2.2-.7 2.42-.57 10.49 6.1 2.75 2.28 6.4 4.86 8.13 5.74 1.72.87 3.4 2.28 3.72 3.12.88 2.3 2.97 1.88 2.36-.46-.66-2.53 3.63-3.9 6.54-2.08 2.3 1.44 3.25.83 2.36-1.5-.52-1.36-1.66-1.58-6.13-1.21-3.01.25-5.48.12-5.48-.29s-1.8-3.01-3.99-5.79l-3.99-5.04 3.54-.67c3.83-.72 4.9-.2 4.93 2.4 0 1.05 2.17 2.73 5.77 4.47a24 24 0 0 1 9.5 7.8c2.05 2.75 4.75 5.25 5.99 5.56 3.18.8 7.25-.41 7.25-2.17 0-1.68-1.57-1.98-2.5-.48q-2.1 3.43-9.35-4.91c-3.52-4.06-6.56-6.46-9.64-7.64-5.7-2.18-6.23-4.84-.76-3.88 2.06.36 4.27 1.3 4.9 2.1.71.89 1.4 1.06 1.78.45.94-1.52 5.97 1.76 7.93 5.19 2.16 3.76 3.19 2.97 1.16-.91a16 16 0 0 1-1.51-6.07c0-1.74-.57-3.36-1.26-3.61-.73-.26-.88-.82-.36-1.33.51-.52 1.08-.34 1.35.42a10 10 0 0 0 2.23 3c.97.93 2.28 2.69 2.91 3.9.68 1.31 2.69 2.6 4.89 3.16 5.3 1.33 18.23 2.17 18.23 1.19 0-1.15-3.73-2.03-8.62-2.05-7.95-.02-10.23-1-13.4-5.69-1.64-2.43-2.98-4.62-2.98-4.87s3.81-.45 8.47-.45c10.3 0 15.48 1.96 15.63 5.93.1 2.52.11 2.53.75.26l.65-2.32 2.62 2.82a32 32 0 0 1 3.72 4.81c.65 1.2 1.11 1.44 1.13.62.02-.76-2-3.4-4.47-5.88-2.48-2.48-4.5-4.9-4.5-5.38 0-1.36 13.54 7.75 24.23 16.32 4.88 3.9 4.18 1.02-.85-3.55-2.68-2.44-4.64-4.68-4.36-4.97.3-.3 3.41-1 6.94-1.58 6.42-1.03 10.45-.66 12.79 1.18q1.25 1 1.25-.1c0-2.95-10.09-3.3-21-.75-1.88.44-4.25-.53-9.5-3.9-3.85-2.47-6.65-4.5-6.22-4.5s1.9.72 3.25 1.6c1.36.9 2.47 1.4 2.47 1.12 0-.74-5.05-3.91-6.6-4.14-.74-.11-1.7-.58-2.12-1.06-.43-.46-.1-.51.72-.1.83.4.38-.22-1-1.4l-2.5-2.15 2.5.66c1.38.37 4.4 1.7 6.72 2.98 4.13 2.26 4.28 2.27 6.56.47 2.3-1.8 2.51-1.78 10.78 1.14 4.64 1.64 7.99 2.57 7.44 2.05-.55-.51-4.08-1.94-7.84-3.17-5.08-1.66-6.55-2.52-5.7-3.36.83-.84 1.33-.8 1.92.16.63 1.02 1.07.96 2.1-.28 1.17-1.41 1.45-1.37 2.72.45a4.7 4.7 0 0 0 3.6 1.9c2.03-.1 2.05-.15.2-.6-4.3-1.03-3.78-2.28.95-2.28h4.84l-4.99-5.28c-5.61-5.93-7.7-9.27-6.75-10.8.76-1.23 5.19-.4 9.65 1.83a20 20 0 0 0 6.4 1.78c2.2.13 4.43 1.37 7.06 3.93 2.11 2.05 4.74 4.16 5.84 4.7 1.95.93 1.95.91.09-.58-6.05-4.86-8.14-7.71-13.58-18.57-3.3-6.59-6.01-12.26-6.01-12.6 0-1.06 5.12.59 12.59 4.04 5.31 2.45 9.75 5.73 17.45 12.9 5.69 5.28 10.57 9.38 10.85 9.1s-3.97-5.03-9.44-10.55c-8.58-8.65-11.2-10.64-18.95-14.38-11.7-5.65-20.57-7.75-32.5-7.7-11.16.05-16.88 1.59-25.39 6.84-8.4 5.19-15.52 5.7-26.27 1.88-8.47-3-11.06-3.28-20.01-2.1-5.83.76-6.33.66-8.75-1.77-1.42-1.42-2.58-3.5-2.58-4.63 0-1.99-.46-2.05-14.25-1.8l-14.25.26-7.4-3.98-7.4-3.98-11.6.02c-8.96.02-13.32.53-19.16 2.23-10.8 3.15-12.3 2.96-18.12-2.26-4.98-4.48-9.69-6.5-15.32-6.55-2.5-.02-3.79-1.08-7.68-6.25-10.49-13.94-13.58-24.13-16.74-55.23-1.79-17.54-2.15-30.82-2.9-108-1.05-107.2-1.09-102.63.78-102.27.9.18 1.9 2.49 2.63 6.1 1.1 5.5 2.74 8.67 3.9 7.51.28-.28 0-2.03-.65-3.87-.91-2.62-.9-3.45.05-3.77.93-.3.89-.8-.19-2.05-.78-.9-1.66-2.63-1.95-3.82-.4-1.7-.16-2.05 1.11-1.6 1.13.38.93-.12-.61-1.62-1.24-1.2-2.25-2.8-2.25-3.57 0-.76-.3-2.17-.67-3.13-.5-1.32-.29-1.6.88-1.16.85.33 2.03.1 2.63-.49.77-.77 1.5-.72 2.57.17 1.92 1.59 3.54.61 2.93-1.75-.26-1 .23-2.4 1.09-3.12 1.32-1.1 1.57-1.04 1.57.34 0 1.52.18 1.52 2.49.01 2.08-1.36 2.58-1.4 3.03-.23.6 1.57 4.48 2.22 4.48.76 0-.52.75-.94 1.65-.94 1.51 0 1.52-.15.08-1.75a9 9 0 0 1-1.9-3.25 4 4 0 0 0-1.1-2.07c-.43-.32-.97-1.58-1.2-2.8-.39-1.98-.1-2.18 2.52-1.77 3.62.57 3.77-.57.43-3.2-1.75-1.37-2.13-2.16-1.25-2.56.7-.32.26-.33-.98-.02-1.37.34-2.25.1-2.25-.62 0-.65-.66-.92-1.47-.6-.81.3-1.87-.15-2.36-1.01-.78-1.4-.94-1.4-1.51.1-.36.92-1.05 1.43-1.55 1.12s-1.17.14-1.5.99c-.49 1.28-1.05 1.11-3.34-1-1.51-1.41-3.1-2.56-3.51-2.56-.42 0-.76-.7-.76-1.56 0-.96.48-1.29 1.25-.85 1 .56 1 .43 0-.64-1.46-1.58-1.74-12.37-.29-11.48.58.36.55-.58-.07-2.37-1.27-3.64-.82-8.3.86-8.86.69-.22 1.25.32 1.25 1.21 0 1.33.38 1.42 2.06.52 1.74-.94 2.01-.83 1.75.68-.22 1.3.51 1.94 2.69 2.35 2.99.56 3 .59 2.83 7.03-.1 3.56.08 5.8.4 4.97a5.5 5.5 0 0 1 1.67-2.24c1.63-1.08 3.81-.91 3.1.24-.34.55-.13 1 .46 1 .64 0 .83.98.48 2.4-.33 1.3-.12 2.68.48 3.05s1.08 1.56 1.08 2.65q-.01 2 1.75 1.7c.96-.17 1.98-.6 2.27-.98.28-.38 2.3.14 4.5 1.16 2.19 1.02 3.61 1.9 3.16 1.94s-.14.76.69 1.6c2.17 2.17 1.16 5.57-2.6 8.7-1.8 1.5-3.63 2.74-4.06 2.75-.44.02-.7.6-.6 1.28.12.69-.13 2.01-.54 2.94-.4.93-.55 2.5-.32 3.5.34 1.5.64 1.34 1.74-.94 1.88-3.88 2.97-3.41 2.38 1-.48 3.52-.42 3.63 1.05 1.82.86-1.06 1.8-1.68 2.1-1.39.75.75-.55 3.82-1.63 3.82-.49 0-.89.48-.89 1.06s.36.84.79.57.86 1.28.95 3.45c.2 5.27.83 6.07 3.68 4.77 1.96-.89 2.73-.7 4.5 1.08 1.19 1.18 2.59 1.88 3.12 1.55s.96.12.96 1c0 2.14 2.67 3.03 4.51 1.5 1.24-1.01 1.49-.88 1.49.8 0 2.12 2.97 4.02 3.04 1.94.02-.67.71.02 1.53 1.53s1.9 2.75 2.38 2.75c2.42 0 4.05-1.45 4.05-3.6 0-3.1 1.3-3.06 3 .09 1.02 1.92 1.63 2.23 2.66 1.38.98-.82 1.34-.82 1.34 0 0 .63.48 1.13 1.07 1.13 2.05 0 4.06-3.01 4.15-6.22.09-3 .17-3.07 1.1-1 .54 1.22 1.37 2.22 1.83 2.22.47 0 .85.69.85 1.53s.79 1.82 1.75 2.18a6 6 0 0 1 2.49 1.72c.42.62.74.26.75-.88 0-1.52.28-1.68 1.21-.75 1.7 1.7 2.49 1.5 3.08-.76a3.3 3.3 0 0 0-.92-3.15c-.78-.66-1.26-1.68-1.05-2.29.44-1.29-2.62-4.17-6.64-6.26-2.5-1.3-3.1-1.3-5.25.12-1.42.93-2.42 1.14-2.42.5 0-.6-.45-.8-1-.46-1.2.74-4.54-2.3-3.58-3.25.36-.36-1.03-1.67-3.08-2.9-2.74-1.66-3.33-2.42-2.2-2.85.83-.32 2.72-.12 4.19.43 2.56.98 3.82-.1 1.67-1.43a9 9 0 0 1-2.1-2.68c-.8-1.49-.8-1.87 0-1.38.69.42 1.1-.26 1.1-1.81 0-1.6-.7-2.72-1.98-3.12-1.09-.35-1.88-1.13-1.75-1.73s-.9-1.43-2.27-1.84c-2.27-.67-.86-1.53 1.5-.92.55.15 1.79.23 2.75.18.96-.04 1.75.35 1.75.86 0 .52.5.94 1.12.94.64 0 .92-1.03.65-2.4-.35-1.85-.1-2.28 1.05-1.84.94.36 1.25.16.83-.52-1.08-1.74.99-2.38 2.36-.73 1.56 1.88 3.1 1.94 2.39.1-.7-1.85 1.6-3.24 2.61-1.6 1.02 1.66 3.99.52 3.99-1.51 0-.87-.77-2.75-1.72-4.2a15 15 0 0 1-2.03-4.9c-.28-2.11-.07-2.21 2.9-1.36 1.77.51 3.4.75 3.6.54.72-.72-2.22-4.58-3.5-4.58-.68 0-1.25-.48-1.25-1.06s-.42-.8-.94-.48c-.51.32-1.4-.21-1.97-1.19-.96-1.64-1.04-1.63-1.13.23l-.1 2-.86-2q-.88-2.03-.96-.5c-.08 1.16-.43 1.06-1.57-.44-1.28-1.7-1.47-1.73-1.47-.25 0 .93-.67 1.69-1.5 1.69s-1.5.79-1.51 1.75c-.02 1.5-.16 1.53-.99.25-.86-1.33-.97-1.33-1 0s-.14 1.33-1 0c-.82-1.27-.97-1.23-.99.3 0 1-.42 1.56-.92 1.25-.5-.3-1.15 0-1.43.7q-.48 1.16-.58-.42c-.04-.92-.38-2.46-.75-3.42-.52-1.36-.3-1.61 1-1.12q1.66.63 1.67-.82c0-.8-.48-1.47-1.06-1.47s-.78-.45-.44-1-.11-1-1-1-1.34-.45-1-1-.38-1-1.6-1-1.94-.3-1.58-.65-.13-1.29-1.09-2.06c-1.28-1.05-1.34-1.3-.23-.99.83.24 2.29.02 3.25-.47 1.2-.62 1.75-.52 1.75.3 0 1.78 1 .46 1.46-1.92.24-1.22-.24-2.3-1.18-2.65-.86-.34-1.29-.88-.95-1.23.34-.33-1.18-2.36-3.38-4.5-3.43-3.32-4.29-3.72-6.06-2.77-1.63.87-2.45.74-3.97-.63-1.06-.96-1.92-2.29-1.92-2.96 0-.68-.68-1.8-1.52-2.49s-1.3-1.99-1.01-2.87c.35-1.1-.87-2.48-3.84-4.36-2.38-1.51-4.78-2.75-5.31-2.75s-2.03-1.13-3.33-2.5c-2.3-2.46-2.31-2.54-.42-3.98 1.06-.8 2.51-1.26 3.22-1 .7.24 1.55-.25 1.88-1.1.36-.94 1.22-1.29 2.2-.9 2.86 1.14 5.2 1.4 4.66.53-.28-.46.15-1.1.98-1.41 1.07-.41 1.49.1 1.49 1.83 0 1.33.35 2.63.78 2.9.43.26.9 1.96 1.03 3.77a10.3 10.3 0 0 0 2.22 5.4c1.09 1.15 1.97 2.48 1.97 2.96s.93 1.86 2.07 3.08c1.14 1.21 2.2 3.04 2.35 4.06.16 1.1 1.14 1.9 2.4 1.97a7 7 0 0 1 3.56 1.3c1.1.9 1.54.88 1.94-.12.4-.99.54-1 .6-.04.1 1.56 3.71 1.65 4.66.12q.69-1.15 1.65.57c.89 1.6 1.03 1.59 2.23-.06 1.2-1.64 1.33-1.6 2 .5.71 2.23.72 2.23 3.57-.75 1.57-1.64 3.01-2.5 3.2-1.93.22.63 1.04.38 2.03-.6 1.57-1.57 1.76-1.55 2.95.36 1.73 2.78 2.43 2.57 3.14-.96.33-1.65 1.05-3 1.6-3 .54 0 .74.64.44 1.43-.4 1.02 0 1.28 1.4.91 1.08-.28 1.9-1.23 1.84-2.12-.1-1.15.82-1.67 3.17-1.8 4.02-.23 4.68-.8 3.67-3.13a6 6 0 0 1-.66-2.44c.07-.36-.99-.93-2.34-1.27-1.36-.34-2.47-1.09-2.47-1.66s-.42-.78-.93-.46c-.51.31-1.22.11-1.56-.45-.4-.63-1.27-.68-2.32-.12-2.72 1.45-11.19-.04-11.19-1.96 0-.51-.48-.93-1.06-.93s-.78.44-.45.99c.4.63-.22.67-1.69.11-1.4-.53-2.27-1.66-2.23-2.9.05-1.39-.73-2.2-2.5-2.58-1.41-.31-3.19-.98-3.95-1.48a1.55 1.55 0 0 1 1.43-2.76c1.87.72 3.06-3.38 1.3-4.49-.74-.47-.91-.87-.38-.87.54-.01-.59-1.1-2.5-2.41-1.9-1.32-3.84-2.17-4.28-1.9s-1.6-.22-2.56-1.1c-1.63-1.47-4.85-1.52-7.12-.11-1.7 1.05-6.21-4.29-5.5-6.52.43-1.38.16-1.98-.88-1.98-.83 0-1.79-.44-2.12-.99-.35-.57.05-.73.95-.39.86.33 2.14.12 2.85-.46a6 6 0 0 1 3.24-1.1c3.1-.06 7.8-.82 9.61-1.54 1.14-.46 1.86-.04 2.3 1.34.45 1.42 1.46 1.98 3.48 1.92 2.52-.07 2.92-.53 3.47-3.96.55-3.44.84-3.76 2.54-2.85 2.78 1.5 4.04 1.27 4.12-.72.06-1.5.18-1.48.84.21.72 1.85.87 1.8 2.54-.75.98-1.49 2.4-2.71 3.16-2.71 1.36 0 1.8-1.18 1.45-3.83-.12-.83.69-1.24 2.13-1.1 1.27.13 3.08-.1 4.01-.51.94-.4 2.18-.45 2.75-.09 2.11 1.3.98-2.19-1.45-4.47-1.37-1.3-2.5-2.94-2.5-3.67 0-.76-1.1-1.33-2.56-1.33-1.4 0-2.3-.42-1.98-.94.33-.53-.6-.73-2.19-.46-5 .86-6.27 1.51-6.28 3.22-.02 1.32-.2 1.39-.88.33s-1.32-1.1-3-.2c-1.19.63-2.7.8-3.38.36a5 5 0 0 0-1.89-.8c-.36 0-3.14-2.58-6.18-5.71-4.61-4.76-5.23-5.8-3.73-6.28a6 6 0 0 1 3.38.05c1.28.49 1.5.07 1.1-2.14-.28-1.5-.92-3.51-1.42-4.45s-.7-1.93-.45-2.19c.62-.62-8.69-5.37-9.82-5.02-.48.16-.61-.13-.3-.64.31-.5-.13-1.19-.99-1.52s-1.25-1.1-.86-1.72c.38-.61.08-1.49-.65-1.94-.8-.5-1.24-2.26-1.1-4.39.18-2.63-.16-3.56-1.29-3.56-.84 0-1.53-.43-1.53-.95s-1.46-2.32-3.25-4c-4.1-3.83-1.94-4.1 5.2-.66 2.86 1.37 5.1 1.95 5.3 1.37.58-1.75 4.5.19 5.11 2.5.57 2.19.6 2.19 2.08.23.82-1.1 1.52-1.54 1.54-.99s.44.38.93-.38c.68-1.09 1.02-.92 1.56.77.37 1.2 1.21 2.08 1.86 1.98.64-.1 2.01.18 3.05.63 1.4.6 2.36.2 3.76-1.6 1.04-1.32 1.63-1.67 1.32-.78-.74 2.1 3.22 2.02 4.52-.1.79-1.26 1-1.24 1.54.17.5 1.3 1.24 1.45 3.73.74 1.71-.5 3.4-1.36 3.75-1.93.36-.59 1.23.07 2 1.5q2.52 4.7 4.5-1.07c.77-2.25 1.52-2.86 3.25-2.61 1.24.18 2.25-.16 2.25-.75s.56-1.07 1.25-1.07 2.15-1.35 3.25-3 2.51-3 3.14-3c1.34 0 2.35-2.27 2.38-5.33 0-1.2.34-1.72.75-1.17s1.74 1.14 2.97 1.31c1.77.25 2.1-.05 1.58-1.42-.5-1.32-.28-1.59.95-1.12 1.18.46 1.47.2 1.04-.9-.41-1.09-.03-1.48 1.3-1.34 4.14.44 5-.01 2.95-1.56-1.07-.8-1.52-1.49-1-1.51s-.75-.65-2.81-1.39c-5.06-1.8-9.62-1.3-12.4 1.37-1.26 1.22-2.72 1.95-3.25 1.62s-1.26-.1-1.63.49c-.89 1.43-5.2 3.02-9.28 3.42-1.83.18-3.58.59-3.9.91-.33.32-1.15-.18-1.83-1.1-1.05-1.44-1.5-1.5-2.85-.37-.89.73-1.61 1-1.61.59s-.58-.26-1.3.33c-1.7 1.41-6.98.82-7.54-.84-.3-.89.24-1.12 1.7-.74 1.18.31 2.39.15 2.7-.34.3-.5 2.02-.91 3.8-.91 1.8 0 4.13-.67 5.2-1.48 1.77-1.35 1.54-1.42-2.73-.87-6.36.82-13.16-.34-15.88-2.7a9 9 0 0 0-5.1-1.95c-1.57 0-2.85-.34-2.85-.76 0-.7-2.91-2.14-7.31-3.62-1-.33-1.55-1.04-1.22-1.57s-.5-1.68-1.83-2.55c-1.72-1.13-2.27-2.2-1.88-3.67.53-2.05.57-2.05 2.38.3 1.53 1.96 2 2.12 2.78.92.58-.89.59-2.1.01-3.18-1.62-3.03-.99-4.52.94-2.21 1.6 1.91 4.47 1.9 4.22-.02-.32-2.36.01-2.65 1.86-1.67 1.77.95 1.92.74 1.63-2.27-.32-3.3-.3-3.32 3.8-3.11 3.84.2 9.62-2.05 9.62-3.74 0-.4 1.6-.47 3.55-.15 2.7.44 3.47.25 3.25-.81-.17-.76.32-1.26 1.08-1.1 1.97.42 5-2.64 4.84-4.88-.08-1.05-.5-1.91-.93-1.91s-.74-.34-.67-.75c.4-2.5-.37-4.2-2.13-4.75-1.11-.36-1.8-.99-1.55-1.4.26-.43-.86-.7-2.48-.6s-2.96-.25-2.96-.77-.66-.69-1.47-.38-1.76.08-2.12-.5q-.66-1.05-1.5.3c-.87 1.4-6.91 1.93-6.91.6 0-.41.86-1.61 1.92-2.67 1.05-1.05 1.61-2.25 1.25-2.66-.37-.4-.09-.4.62 0 1.5.87 4.46-1.2 3.64-2.53-.73-1.18.26-1.12 2.64.15 1.6.85 1.95.69 2.08-1l.25-3.29c.06-.69.67-1.62 1.37-2.06.7-.45.94-1.35.54-2s.53-.37 2.07.64c3.35 2.2 4.08 1.77 2.59-1.5-.97-2.13-6.35-5.3-12.36-7.26-1.04-.34-2.97.09-4.28.95-2.08 1.36-2.64 1.38-4.43.13-1.52-1.07-1.7-1.6-.72-2.05.73-.33.1-.45-1.4-.25s-2.51.02-2.26-.39c.46-.74-6.86-4.1-8.28-3.8-1.46.3-4.22-1.39-3.67-2.27.3-.49-.59-.89-1.98-.89a4.1 4.1 0 0 1-3.67-2.15c-1.02-1.91-.94-2.07.71-1.38 2.76 1.15 7.72 1.4 8.9.46.57-.45 1.69-.41 2.48.08q1.45.89 3.26-.76c3.44-3.1 5.13-2.5 4.88 1.75q-.1 1.5.46.25a2.4 2.4 0 0 1 2.03-1.25c.81 0 1.23-.4.93-.89-1.05-1.69 2.36-3.37 5.55-2.74 2.9.58 3.08.46 2.63-1.88-.37-1.96-.2-2.27.8-1.44 3.22 2.66 7.25-3.85 4.25-6.85-.67-.67-.76-1.2-.2-1.2.55 0 1.51.51 2.13 1.13 1.64 1.64 4.06.37 4.44-2.32.24-1.69.98-2.31 2.75-2.31 1.33 0 2.6-.54 2.81-1.2.47-1.4-7.57-7.51-8.86-6.72-.48.3-.87.04-.87-.58 0-.69-.85-.52-2.22.44-2.62 1.84-6.25 2.12-5.18.4q.75-1.18-.7-.26c-.77.5-2.98.9-4.9.9-1.92.02-3.42.5-3.32 1.07.12.64-1.8 1.01-4.8.94-2.75-.06-5.22.25-5.5.7-.27.45-1.72.81-3.22.81-2.6 0-2.7-.21-2.57-4.75.27-8.5.4-9.38 1.32-8.8.5.3 1.15 0 1.43-.7.27-.69.54.06.58 1.67s.38 2.61.75 2.24 1.5.08 2.5 1c1.73 1.56 1.83 1.5 1.83-1.1 0-1.5-.9-3.89-2-5.29-3.7-4.7-1.66-6.02 2.64-1.72 1.41 1.4 3.23 2.42 4.04 2.25 1.18-.24.98-1.04-1-3.94l-2.47-3.65 2.84.2c2.53.18 2.82-.1 2.64-2.6-.1-1.55-.68-2.8-1.29-2.8-.6 0-1.82-.82-2.72-1.8-1.5-1.68-1.49-1.9.26-3.16 1.09-.79 1.64-2.03 1.31-2.96-.31-.87-.2-1.26.25-.85.45.4 1.44.22 2.2-.4 1.09-.9 1.72-.69 2.9 1 1.62 2.3 4.4 2.93 4.4.99 0-.65-.69-1.93-1.52-2.86-1.5-1.65-1.1-4.97.6-4.97.47 0 .6-.68.28-1.5-.64-1.66 1.16-2.08 2.14-.5.92 1.49 4.53 1.24 3.95-.27-1.54-4-12.13-5.98-17.41-3.25l-3.32 1.72.71-2.35c.4-1.3.76-2.92.8-3.61.06-.7.82-1.05 1.69-.78s2.16.13 2.86-.31c1.57-.98.54-4.15-1.34-4.15-1.62 0-6.46-4.64-5.67-5.44 1.5-1.5-8.98-1.36-12.64.16l-3.38 1.41.66-3.49c.55-2.94.34-3.59-1.38-4.13-4.43-1.4-.27-5.42 5.24-5.06 3.18.2 3.68-.03 3.22-1.5-.3-.95.16-2.46 1.05-3.34.88-.89 1.1-1.61.5-1.61-.64 0-1-1.5-.86-3.62.19-2.8-.3-4.06-2.19-5.59-2.44-1.98-3.05-1.99-14.99-.29-.83.12-2.75.73-4.28 1.35s-3.11 1.06-3.5.98-1.4.14-2.22.48c-3.58 1.51-10.04 2.44-10.6 1.52-.91-1.47.59-2.32 4.85-2.75.41-.05.75-1.66.75-3.58 0-2.44.45-3.5 1.5-3.5.83 0 1.5.86 1.5 1.9 0 1.42.52 1.78 2 1.39 1.1-.29 2-.95 2-1.47 0-.53 1.43-.66 3.25-.3 5.83 1.13 7.25 1.03 7.25-.52 0-.82-1-1.94-2.23-2.48s-2.46-1.57-2.74-2.3-.09-1.07.42-.75c.51.31 1.4-.22 1.96-1.2.9-1.56 1.03-1.57 1.06-.13.03 1.5 1.94 2.86 4.02 2.86.45 0 .58-1.01.28-2.25-.42-1.74-.26-2 .68-1.12 1.68 1.57 4.76.58 5.36-1.72.28-1.05.1-1.91-.4-1.91s-.91-.66-.91-1.46c0-1.54-7.35-4.06-8.95-3.07-.5.31-1.2.1-1.55-.47s-1.05-.78-1.55-.47c-.5.3-2.83 0-5.18-.67s-4.5-1.26-4.77-1.32c-.27-.05-1.62-.82-3-1.71a23 23 0 0 0-4.75-2.3c-1.24-.36-2.25-1.08-2.25-1.6 0-1.32.53-1.19 4.15 1.02 1.77 1.07 3.54 1.74 3.95 1.5.4-.26 1.9-.02 3.32.52 2.88 1.1 3.6-.48 1.33-2.92-.73-.79-.78-1.08-.11-.7 1.27.7 4-2.04 3.01-3.03-.35-.35-.12-1.26.51-2.02.9-1.09.45-2.1-2.16-4.8-1.83-1.88-3.76-3.14-4.31-2.8-.56.34-.69.1-.28-.55.5-.8 1.27-.85 2.59-.15 2.6 1.39 3.45 1.25 2.13-.34-.61-.74-.82-1.64-.46-2 .37-.36.14-.66-.5-.66-2.24 0-5.16-3.3-4.08-4.61.77-.92.53-1.1-.96-.71-2.42.63-2.33-1.2.26-5.16 1.42-2.16 1.54-2.94.55-3.56-1.34-.83-6.02.55-6.94 2.04-.3.48-1.88 1.11-3.52 1.4-2.8.48-2.86.42-1.04-.95 1.07-.8 2.42-1.46 3-1.47.58 0 .4-.43-.41-.94-1.26-.8-1.23-1.03.24-1.6.95-.35 1.47-1.05 1.16-1.55-.3-.49-.15-.89.34-.89.5 0 .78-1.01.65-2.25-.14-1.24-.3-2.68-.34-3.2-.04-.53-.56-.47-1.16.13s-2 .85-3.1.56c-1.47-.38-1.88-1.14-1.55-2.88.25-1.3.07-2.36-.4-2.36s-.87-.9-.87-2q-.01-3.45-2.95-.75c-1.08 1-1.2 1-.6-.06.88-1.56-.13-6.19-1.35-6.19-.48 0-1.6 1.12-2.5 2.49m2.74 46.89c-.09 1.72.08 2.45.38 1.62s.95-2.01 1.44-2.63c.55-.7.4-1.32-.38-1.62q-1.27-.5-1.44 2.63m30.66 17c0 .2.79 1 1.75 1.75 1.59 1.24 1.62 1.2.38-.38-1.3-1.67-2.13-2.2-2.13-1.37m-45.23 2.58c-.38 1.35-1 2.14-1.39 1.75-.38-.38-1.33-.16-2.11.48-1.1.9-1.6.9-2.17-.03-.41-.66-1.61-1.38-2.67-1.6-1.06-.21-2.72-.7-3.68-1.08-1.4-.55-1.75-.17-1.75 1.91 0 2.46.28 2.61 4.93 2.61 3.15 0 5.5.57 6.5 1.57 1.34 1.35 1.57 1.36 1.57.1q0-1.48 2-.96c1.4.36 2 .03 2-1.1 0-.88-.42-1.61-.93-1.61s-1.08-1.01-1.27-2.25c-.34-2.22-.35-2.22-1.03.2m15.8 22.95c-.31.49.1 1.14.88 1.44q1.45.56.9-.9c-.65-1.67-1.02-1.78-1.78-.54m10.43 2.5c0 .2.67.64 1.5.96s1.5.14 1.5-.4c0-.52-.67-.96-1.5-.96s-1.5.18-1.5.4m-48.47 3.55c-.3.5.38 1.2 1.53 1.57 2.8.89 3.3.19.94-1.29-1.08-.67-2.15-.8-2.47-.28m6.47.05c-1.28.83-1.25.97.25.99.96 0 1.75-.44 1.75-.99 0-1.22-.11-1.22-2 0m32.53 1.96c-.36.58.07 1.33.95 1.67 2.2.84 2.88-.08 1.13-1.54-.98-.81-1.64-.86-2.08-.13m-21.28 8.74c.3 1.21.02 2.39-.6 2.62-.63.22-.92.66-.65.96.28.3 1.45.03 2.61-.61l2.1-1.17-2-2-2-2zm-37.52 1.56c-.26.69.08 1.78.78 2.42.96.9 1.76.82 3.47-.38 1.75-1.23 1.94-1.74.87-2.41-1.98-1.26-4.56-1.07-5.12.37m92.83-.35c-.31.5.34.67 1.44.38 2.33-.61 2.63-1.29.56-1.29-.8 0-1.7.4-2 .9M498 182c-1.2.78-1.05.97.8.99 1.3 0 2.05-.43 1.7-.99-.74-1.2-.64-1.2-2.5 0m-12.56 1.47c-1.07.8-1.43 1.48-.81 1.5s1.69-.65 2.37-1.47c1.58-1.9.94-1.92-1.56-.03m-7.4 1.84c-1.2 1.93-1.18 2.04.14.95.83-.68 1.8-.95 2.16-.58.36.36.66.16.66-.45 0-2.13-1.61-2.08-2.96.09m-3.96.26c.05 1.17.28 1.4.6.6.3-.71.26-1.58-.08-1.9-.33-.34-.56.25-.52 1.3m19.17 1.67c.14.69.7 1.59 1.25 2 .63.48.5 1.07-.36 1.63q-1.35.87-.29 1.53c.58.36.78 1.39.44 2.28-.52 1.34-.12 1.53 2.3 1.04 1.6-.32 4.25-1.1 5.88-1.72 2.35-.9 2.66-1.31 1.5-2.05-1.23-.78-1.18-.93.28-.95 1.85-.01 2.13-.85 1.14-3.43-.66-1.73-3.39-2.2-3.39-.58 0 .55-.48 1-1.06 1s-.78-.45-.44-1-.05-1-.87-1-1.69.79-1.94 1.75c-.44 1.67-.46 1.67-.57 0-.07-1.04-.93-1.75-2.12-1.75-1.1 0-1.89.56-1.75 1.25M511.5 192c-.34.55-.14 1 .44 1s1.06-.45 1.06-1-.2-1-.44-1-.72.45-1.06 1m54 3c-.34.55.06 1 .88 1s1.78-.45 2.12-1-.06-1-.88-1-1.78.45-2.12 1m-68.09 2.94c-3.82.92-5.41 1.87-5.41 3.23 0 .62.71.73 1.75.28.96-.41 3.74-1.02 6.17-1.35s4.6-1.16 4.83-1.85c.46-1.38-2.35-1.5-7.34-.3m47.26.62c.3.79 0 1.43-.67 1.43-.7 0-.96.68-.6 1.61.44 1.14.2 1.45-.84 1.05q-1.46-.56-.9.9c.77 2 5.29 1.8 8.63-.41 3.14-2.07 2.53-3.08-2.98-4.93-2.65-.9-3.1-.83-2.64.35m10.13.34c-.9 1.06-1.4 2.15-1.13 2.42.28.28-.48 1.03-1.67 1.67-1.2.64-1.94 1.39-1.67 1.67.72.71 7.67-2.71 7.67-3.78 0-.5.65-.89 1.44-.89.8 0 1.7-.43 2.03-.95s-.33-.77-1.44-.56c-1.12.22-2.03-.03-2.03-.55 0-1.52-1.43-1.08-3.2.97M527 201c0 .55-.98 1-2.17 1-3.43 0-1.75.66 3.39 1.34 4.63.6 4.69.57 3.03-1.36-1.8-2.1-4.25-2.66-4.25-.98m-42 1.53c-2.63.94-3.1 1.4-1.88 1.91.89.37 3.12.06 4.96-.7 4.46-1.81 1.69-2.9-3.08-1.2m8.5 1.9c-3.66 1.76-4.4 2.42-2.75 2.48 1.24.05 2.25-.37 2.25-.92s.5-1 1.1-1c.62 0 .87.63.58 1.4-.32.83.23 1.6 1.35 1.9 2.28.6 7.53-3.58 6.54-5.2-1.05-1.68-3.57-1.31-9.07 1.33m38.61 2.01c.91.91 8.89 2.32 8.89 1.57 0-.43-1.01-1.05-2.25-1.38-2.63-.7-7.29-.83-6.64-.19m11.89 1.58c0 .56 1.18.8 2.62.54 3.87-.7 4.17-1.56.55-1.56-1.75 0-3.17.46-3.17 1.02m-83 13.78c0 .66-.68 1.2-1.5 1.2s-1.5.34-1.49.75c.04 1.8 1.72 2.77 4.74 2.76 2.74 0 3.25-.38 3.25-2.37q0-2.37-1.38-1.82c-.76.29-1.88.02-2.5-.6-.83-.83-1.12-.8-1.12.08m39.5.2c-.34.55.33 1 1.5 1s1.84-.45 1.5-1-1.01-1-1.5-1-1.16.45-1.5 1m12.5.56c0 .86.46 1.28 1.02.93s.75-1.05.44-1.56c-.86-1.39-1.46-1.13-1.46.63m-25.6 1.6c-.29.47-.27 1.24.04 1.74.3.49-.12 1.15-.95 1.46-.82.32-1.49.11-1.49-.45s-.41-.77-.92-.46c-.5.3-1.14 0-1.42-.7-.4-1-.52-1-.58 0-.05.71-1.4 1.25-3.16 1.25-3.97 0-3.42 2.37.66 2.84 1.6.19 3.44.77 4.08 1.3q1.16.93 1.85-.16c.38-.61 1.32-.87 2.1-.58.76.3 1.39.1 1.39-.43s.66-.97 1.46-.97c1.76 0 3.68-3.22 2.72-4.55-.86-1.2-5.1-1.4-5.78-.28M513.5 237c1 1.1 1.97 2 2.16 2s-.2-.9-.9-2c-.68-1.1-1.65-2-2.16-2-.5 0-.1.9.9 2m6.5 1.56c0 .86.46 1.28 1.02.93s.75-1.05.44-1.56c-.86-1.39-1.46-1.13-1.46.63m-5.84 4.55c.19 1.31.74 2.24 1.23 2.05.49-.18 1.32.27 1.84 1 .74 1.03.84.97.44-.29-.28-.9 0-2.13.6-2.75.83-.82.83-1.12.01-1.12-.61 0-1.87-.29-2.79-.64-1.31-.5-1.6-.14-1.33 1.75m47.35 1.88c-.38.61.63.74 2.69.35 4.42-.84 4.8-1.34 1.03-1.34-1.71 0-3.39.44-3.72.99M498 246.8c0 .72-.45 1.04-.98.7-1.26-.77-2.46 3.98-1.43 5.68.64 1.08.5 1.08-.82.01-1.58-1.28-3.4-.16-2 1.24a3 3 0 0 1 .72 1.86c0 .62 1.53 1.56 3.4 2.1 2.98.85 3.61.69 5.28-1.37 2.56-3.16 2.31-10.57-.36-10.77-1-.07-1.83.4-1.83 1.05-.01.71-.41.59-.99-.31-.7-1.09-.97-1.14-.99-.2m21.99 2.23c0 .53.67.97 1.5.97s1.5-.18 1.5-.4c0-.2-.67-.64-1.5-.96s-1.5-.14-1.5.4m-6.22 5.03c-.25 1.66.14 3.78.86 4.72 1.07 1.41 1.32 1.45 1.4.21.06-.82.27-2.35.47-3.39a4 4 0 0 0-.97-3.21c-1.1-1.1-1.4-.82-1.76 1.67m-61.17.5c-.83 2.17-.44 2.56 1.41 1.42 1.07-.67 1.17-1.2.35-2.02-.8-.8-1.28-.65-1.76.6M448 255c0 .55.48 1 1.06 1s.78-.45.44-1-.82-1-1.06-1-.44.45-.44 1m43.5 3c.28.46.1.98-.42 1.17s-.34 1.15.4 2.15c1.15 1.56 1.63 1.63 3.43.5 2.76-1.72 2.65-2.17-.92-3.52-1.65-.62-2.77-.76-2.5-.3m-19.79 4.03c-.31 1.2-.13 2.7.4 3.33s1.51 1.93 2.18 2.9c.8 1.13 2.68 1.8 5.4 1.9 3.39.13 4.87-.43 7.74-2.95 1.95-1.71 3.13-3.37 2.63-3.68-.5-.3-1.2-.1-1.54.46q-.62 1.02-2.75-.12c-1.78-.95-2.41-.79-3.85 1-2.01 2.48-1.93 2.46-5.6 1.03l-2.81-1.1 2.5-1.08 2.5-1.07-2.5-.42c-1.37-.24-2.77-.87-3.11-1.42s-.87 0-1.19 1.22m28.05.54c-1.51.82-2.75 1.68-2.75 1.91 0 .72 5.98-1.63 6.56-2.58.8-1.3-.65-1.04-3.81.67m-55.83 4.71c-.88.67-1.89 2.42-2.25 3.88-.57 2.3-.4 2.58 1.33 2.13 2.06-.54 2.83-3.29.93-3.29-.6 0-.37-.7.5-1.57 2.46-2.47 2.14-3.19-.51-1.15M550.5 267c.34.55 1.04 1 1.56 1s.94-.45.94-1-.7-1-1.56-1-1.28.45-.94 1m-54.5 1.5c-3.27 1.87-2.12 1.89 2.13.04 1.86-.8 2.7-1.46 1.87-1.47-.82 0-2.62.64-4 1.43m-9 2.53a159 159 0 0 0-3.96 3.22c-.8.69-3.17 2.49-5.25 4-2.09 1.52-3.79 3.39-3.79 4.15s-1.18 1.68-2.63 2.04l-2.62.66 2.28 2.43c2.12 2.26 2.37 2.3 3.55.7 1.06-1.44 1-1.84-.4-2.41-1.37-.55-1.28-.7.49-.75 1.32-.04 3.43-1.73 5.42-4.32 1.79-2.34 4.84-5.94 6.79-8q5.84-6.22.12-1.72m-12 1.77c0 .99-.54 2.34-1.2 3-2.22 2.22 2 1.36 4.66-.95 2.85-2.48 2.48-3.85-1.02-3.85-1.68 0-2.44.56-2.44 1.8m15.2.4c-1.52 1.52-1.54 2.8-.03 2.8.64 0 .87-.3.5-.66-.36-.36-.15-1.26.46-2 1.38-1.66.7-1.77-.93-.14m-5.13 5.23c-1.25 1.33-1.98 2.91-1.6 3.51.93 1.52 2.79.18 2.13-1.54-.3-.77-.15-1.4.32-1.4.48 0 1.13-.68 1.44-1.5.8-2.07.35-1.89-2.29.93m47.44 3.2c-1.6 3.8-1.27 5.37 1.16 5.37 2.61 0 2.88-1.38.95-4.87-1.23-2.2-1.37-2.24-2.1-.5m-71.96 3.08c-.54 1.42-.42 1.54.56.56.69-.68 1-1.49.69-1.8-.31-.3-.87.25-1.25 1.24m18.94.83c-2.66 2.9-4.5 6.1-4.5 7.85 0 2.18 3.55.81 5.02-1.93.7-1.3 1.77-2.27 2.37-2.16 1.2.21 1.04-4.36-.17-5.35-.4-.32-1.62.4-2.72 1.6M540 287c0 1.87.27 2.13 1.2 1.2s.93-1.47 0-2.4-1.2-.67-1.2 1.2m-73.5 0c-.34.55-.14 1 .44 1s1.06-.45 1.06-1-.2-1-.44-1-.72.45-1.06 1m20 4c-.35.56.1 1.3.98 1.63 1.91.74 2.98-.07 2.06-1.56-.83-1.35-2.23-1.37-3.04-.06m88.5 8.49c.68.82 1.7 1.5 2.25 1.5s.44-.66-.25-1.5c-.68-.82-1.7-1.5-2.25-1.5s-.44.66.25 1.5m-127.53.55c-.95 1.54.35 2.53 1.63 1.25q1.08-1.08.06-1.7c-.56-.35-1.32-.15-1.7.45m54 2.02c-.36.58-.45 1.28-.18 1.54.26.26.74-.22 1.07-1.07.67-1.76.1-2.07-.9-.47m83.76 1.47c-1.07 1.2-1.02 1.46.25 1.46.85 0 1.54-.68 1.54-1.5 0-1.82-.15-1.82-1.79.04m-104.53 5.86c-.62 1.61.1 2.6 1.9 2.6.74 0 1.03-.8.71-2-.6-2.33-1.84-2.6-2.61-.6m-5.68 2.1c0 1.68.18 1.75 2.41.9 1.83-.7 1.15-2.4-.97-2.4-.8 0-1.44.68-1.44 1.5m22.99.08q-.02 1.92-.79.72c-.82-1.3-5.2-1.38-5.2-.09 0 .44-.34.74-.75.67q-3.6-.57-2.8 1.98c.67 2.1-1.72 4.62-3.69 3.9-1.4-.52-5.97 3.7-5.03 4.64.33.33.05.6-.62.6-.68 0-.97.41-.66.92.3.5.09 1.07-.5 1.26-.58.2-1.2 1.25-1.39 2.34s-.83 1.87-1.44 1.73c-.62-.14-1.15.54-1.2 1.5-.04.96-.22 2.54-.4 3.5-.2 1.02.27 1.75 1.13 1.75.8 0 1.19-.45.85-1s.28-1 1.37-1c1.1 0 2.66-.68 3.49-1.5.82-.82 1.96-1.5 2.52-1.5 2.53 0 6.02-2.46 6.56-4.62.33-1.31 1.15-2.39 1.83-2.4q1.2-.02-.27-.98c-.9-.58-1.03-.98-.3-.99.66 0 1-.92.79-2.07-.3-1.5.52-2.6 3.01-4.07 3.25-1.92 5.36-5.34 4.1-6.61-.33-.33-.6.27-.62 1.32m37.75 16.54c.68.69 1.49 1 1.8.69.3-.31-.25-.87-1.24-1.25-1.42-.54-1.54-.42-.56.56m4.98 4.9c.78 2.95 1.77 3.15 1.93.38.09-1.38-.4-2.4-1.15-2.4-.81 0-1.1.76-.78 2.02M412 351a1 1 0 0 0 1 1 1 1 0 0 0 1-1 1 1 0 0 0-1-1 1 1 0 0 0-1 1m170 1c.59 1.1 1.57 2 2.19 2s.3-.9-.69-2c-1-1.1-1.98-2-2.19-2s.1.9.69 2m-165 .51c-1.01 1.21-.95 1.49.32 1.49 1.87 0 3.09-1.63 1.81-2.42-.5-.3-1.46.11-2.14.93m6.35 3.06c-.33.86-.1 2.07.53 2.7.84.84 1.13.44 1.13-1.57 0-3-.75-3.52-1.66-1.13M448.5 357c.34.55-.11 1-1 1s-1.34.45-1 1c.97 1.57 2.33 1.18 3.5-1 .86-1.61.76-2-.52-2-.88 0-1.32.45-.98 1m-7.62 1.7a7 7 0 0 0 .07 1.8c.1.55-.38.44-1.08-.25-1.46-1.44-5.73-1.63-7.75-.34-1.8 1.13.98 2.07 5.63 1.9 3.5-.12 6.14-2.14 4.3-3.28-.58-.36-1.1-.28-1.17.16m23.77 10.5c-1.45 1.75-2.66 2.77-2.66 2.25-.01-.52-.35-.47-.75.11s-2.43 2.32-4.49 3.87-3.75 3.44-3.75 4.2c0 1.21 2.75 1.95 5.4 1.45.5-.1 1.29.41 1.74 1.13.64 1 .83 1 .85.05 0-.69.64-1.25 1.4-1.25.77 0 1.64-.64 1.94-1.42s1.59-1.58 2.86-1.78 2.2-.9 2.06-1.57c-.14-.68.45-1.23 1.3-1.23.87 0 1.29-.45.95-1-.8-1.29.8-1.3 2.08-.02.64.64 2.36.58 4.95-.18 2.97-.86 3.46-1.26 1.97-1.6-1.1-.23-2.33-.94-2.74-1.57-.46-.71-.74-.48-.75.63 0 1.63-.28 1.66-3.53.3l-4.23-1.77c-.39-.16-.8-.9-.9-1.63-.36-2.41-1-2.23-3.7 1.02m9.69 6.54c-1.75.21-3.43 1.07-3.74 1.89-.36.93-.16 1.24.52.81.6-.37 1.42-.16 1.8.46q.72 1.14 3.07-1.37c1.3-1.38 2.17-2.44 1.93-2.35s-1.84.34-3.59.56m5.84 1.6c-2.24 2.38-2.83 5.16-1.3 6.1.47.3.64 1.67.38 3.06q-.49 2.53.88 2.53c1.08.02 1.05.25-.13 1.07-1.17.82-1.01.91.75.42 1.65-.46 2.25-.21 2.25.93 0 1.72.43 1.83 3.74.94 1.23-.33 2-1 1.69-1.48-.3-.5.04-.9.76-.9 2.36-.03 3.55-1.43 4.25-4.99.5-2.57.4-3.1-.36-2-1.57 2.24-1.3.73.52-2.9.89-1.78 1.34-3.5 1-3.83-.32-.33-3.22-.75-6.43-.93-5.04-.28-6.12-.02-8 1.98m16.46 1.93c-.77 2.87-.8 6.75-.06 6.75 1.58 0 3.43-3.2 3.43-5.93 0-3.63-2.45-4.23-3.37-.82m31.94 2.7q-1.98.7-.75 1.44c1.5.92 1.54 4.27.07 5.18-.61.38-1.5.07-1.99-.7-1.23-1.93-1.12-.14.13 2.2.58 1.06 1.72 1.93 2.55 1.93 2.87 0 5.06-8.96 2.55-10.39-.35-.2-1.5-.04-2.56.34m-10.98 8.55c-1.62 1.4-2.28 2.49-1.5 2.47 2.01-.05 5.18-2.65 4.76-3.9-.19-.59-1.66.06-3.26 1.43m-38.22 4.79c-.62.66-2.16 2.06-3.42 3.1-2.28 1.87-2.32 1.87-4.22-.48-1.79-2.2-2.01-2.25-3.19-.64-.7.95-1.77 1.73-2.4 1.73-1.78 0-5.15 3.81-4.62 5.23 1.1 2.97 1.18 13.8.1 13.66-3.83-.45-4.94 1.77-2.1 4.13 1.28 1.06 1.96.88 4-1.05 1.37-1.27 2.48-2.9 2.48-3.61 0-.74.64-1.05 1.5-.72.95.36 1.5-.01 1.5-1.03 0-.89.66-1.61 1.47-1.61.85 0 1.24-.6.93-1.41-.34-.88.34-1.68 1.78-2.13 2.93-.91 7.82-4.32 7.82-5.45 0-.48-.79-1.07-1.75-1.32-1.32-.34-1.2-.49.5-.57 1.24-.07 2.26-.46 2.27-.87s.42-2.44.9-4.5c.73-3.17.62-3.74-.78-3.71a4.5 4.5 0 0 0-2.77 1.25m56.83.75c-.67 1.08-.81 1.96-.32 1.96.9 0 2.45-3 1.86-3.6-.18-.17-.87.57-1.54 1.65M455.16 399c.14.82-.55 3-1.53 4.84-2.51 4.72-1.25 5.1 2.86.87 3.72-3.83 4.56-6.05 1.9-5.03a2.25 2.25 0 0 1-2.53-.78c-.79-1.17-.9-1.15-.7.1m61.84 2a1 1 0 0 0 1 1 1 1 0 0 0 1-1 1 1 0 0 0-1-1 1 1 0 0 0-1 1m-31 2c-.59 1.1-.7 2-.24 2 1.07 0 3.24-2.15 3.24-3.2 0-1.55-1.94-.78-3 1.2m41.49 9.02c-.35.56-.99.8-1.42.52-.44-.27-1.57.36-2.52 1.4-1.34 1.48-1.47 2.33-.63 3.91.6 1.11 1.08 3.33 1.08 4.93 0 1.66 1.07 4.16 2.5 5.81 1.37 1.6 2.5 3.52 2.5 4.27 0 .81.62 1.12 1.55.76.86-.33 1.3-.18.98.33-.31.51.23.87 1.21.8 1.7-.13 1.69-.44-.18-6.2-1.08-3.32-2.28-6.19-2.67-6.36s-.4-1.51-.03-3c1.32-5.15-.4-10.36-2.37-7.17M475 414c-.85 1.6-.76 2 .46 2 .85 0 1.54-.19 1.54-.42s.27-1.13.6-2c.89-2.3-1.34-1.94-2.6.42m58.38 2.44c-1.08 2.83.73 8.91 3.83 12.82 3.02 3.81 3.22 6.17.31 3.76-2.13-1.77-1.9-.35.5 3.02 1.12 1.56 3.03 3.13 4.26 3.49 4.17 1.22 7.72 2.96 7.72 3.79 0 1.33 2.74 3.68 4.3 3.68 2.28 0 10.48 3.89 11.1 5.26.3.68.4-.37.22-2.33-.32-3.22-5-11.94-6.87-12.76-.41-.19-.75-.8-.75-1.39 0-.57-.93-1.85-2.07-2.84s-1.93-1.94-1.76-2.11c.16-.18-.45-1.4-1.36-2.7-1.63-2.32-1.67-2.33-2.9-.34-1.07 1.69-1.47 1.79-2.62.64-.87-.86-2.46-1.15-4.33-.77-1.84.36-2.96.17-2.96-.5 0-.6-.6-.87-1.34-.58-.95.36-1.3-.32-1.17-2.35.09-1.58.5-3.4.9-4.05.44-.71.11-1.18-.83-1.18-.86 0-1.56-.65-1.56-1.44 0-2.12-1.92-2.94-2.62-1.12m-13.66 13.32c-1.9 2.1-2.26 4.24-.72 4.24.55 0 1-.48 1-1.06s.36-.84.8-.56 1.34.15 2-.25c.93-.58.9-1.15-.08-2.5-1.23-1.67-1.38-1.67-3 .13M476 441.94c0 .52.45 1.22 1 1.56s1-.08 1-.94-.45-1.56-1-1.56-1 .42-1 .94m-9 10.1c0 .52.45.96 1 .96s.89.56.75 1.25.43 1.25 1.25 1.25c2.32 0 1.77-2.67-.75-3.6-1.36-.5-2.25-.45-2.25.13m56.52 8.58c-1.16.85-1.3 1.4-.48 1.91 1.22.76 5.96-1.33 5.96-2.63 0-1.13-3.6-.66-5.48.72m4.98 1.39c-.35.57.49 1 1.94 1 1.4 0 2.56-.45 2.56-1s-.87-1-1.94-1-2.22.45-2.56 1m-4.77 3.91q-.52 1.93 1.39 2.41c1.03.27 1.63.08 1.32-.41-.3-.5-.09-.91.48-.91s1.31 1.08 1.65 2.4c.54 2.16.92 2.32 3.65 1.54 4.07-1.17 4.3-1.51 2.96-4.44-.99-2.17-1.78-2.5-6.04-2.5-4 0-5 .36-5.4 1.91m62.26-1.5c0 .19.67.9 1.5 1.59.87.72 1.5.81 1.5.23 0-.56-.67-1.28-1.5-1.6-.83-.3-1.5-.41-1.5-.22M540.71 468c.29 1.1 1.34 2 2.35 2 1 0 2.1.46 2.45 1.02.78 1.25 2.52.3 2.41-1.33-.06-.87-.2-.88-.55-.04-.3.73-1.36.27-2.88-1.25-2.92-2.92-4.48-3.09-3.78-.4m10.54 5.66a2.3 2.3 0 0 0-1.25 1.96c0 1.14.43 1.22 2 .38 3.2-1.7 2.56-3.68-.75-2.34m-108.58 8c-.37.37-.66 1.39-.64 2.26.03 1.3.22 1.25 1.1-.25 1.07-1.85.76-3.22-.46-2M465.5 483c-.34.55-.17 1 .38 1s1.28-.45 1.62-1 .17-1-.38-1-1.28.45-1.62 1m90.58 1.58c.05 1.17.28 1.4.6.6.3-.71.26-1.58-.08-1.9-.33-.34-.56.25-.52 1.3m1.92-.52c0 .58.45.78 1 .44s1-.82 1-1.06-.45-.44-1-.44-1 .48-1 1.06m7-.12c0 .52.45 1.22.99 1.55.56.35.73-.05.4-.94-.67-1.73-1.39-2.05-1.39-.6m-25.6 1.63c.33.87.6 1.88.62 2.25.02.9 1.95-2.12 1.97-3.08 0-.41-.71-.75-1.6-.75q-1.59.01-1 1.58M521 490.06c0 1.13.45 1.78 1 1.44s1-1.27 1-2.06c0-.8-.45-1.44-1-1.44s-1 .93-1 2.06m-2.8 3.44c.01 1.65.24 2.2.5 1.23.25-.97.23-2.32-.04-3-.28-.68-.49.12-.46 1.77m-.04 11.5c0 1.38.23 1.94.5 1.25.28-.69.28-1.81 0-2.5-.27-.69-.5-.12-.5 1.25m.82 9.8.49 5.7.32-4.89c.18-2.69-.03-5.25-.48-5.7s-.6 1.75-.33 4.89m-47 12.72c-1.06 1.28-1 1.42.38.9.9-.35 1.64-1.04 1.64-1.53 0-1.28-.58-1.1-2.02.63m-27.96 13.22c-2.18.85-4.16 3.06-3.25 3.62.43.26 1.83-.6 3.11-1.94s2.17-2.38 1.98-2.34c-.2.04-1.03.34-1.84.66m74.18 13.76c.01 1.65.24 2.2.5 1.23.25-.97.23-2.32-.04-3-.28-.68-.49.12-.46 1.77m-14.16 284c.02.55 1.14 2.35 2.5 4 1.34 1.65 2.44 2.55 2.42 2s-1.14-2.35-2.5-4c-1.34-1.65-2.44-2.55-2.42-2m-3.04 3c0 .83.73 1.5 1.62 1.5 1.33 0 1.4-.27.38-1.5-.69-.83-1.42-1.5-1.62-1.5s-.38.67-.38 1.5m-134.73.2c.97.25 2.32.23 3-.04.68-.28-.12-.49-1.77-.46-1.65.01-2.2.24-1.23.5m98.17.72c-1.9 1.39-1.89 1.48.56 4.25l2.5 2.83-2.6-2.28c-2.3-2.02-2.75-2.1-3.86-.77-1.6 1.94-.64 4.55 1.68 4.55.98 0 3.23-.9 5-1.97l3.22-1.97-1.72-3.02c-1.98-3.47-2.16-3.54-4.78-1.62m6.06-.42c.34.55.82 1 1.06 1s.44-.45.44-1-.48-1-1.06-1-.78.45-.44 1m22.23.3c-3 1.19-3.14 3-.28 3.55q1.83.37 1-.92c-.55-.9-.3-1.08.89-.63 2.33.9 4.64-.2 3.99-1.88-.62-1.63-1.71-1.65-5.6-.12m-114.92.38c.72.3 1.59.26 1.92-.08.33-.33-.26-.56-1.31-.52-1.17.05-1.4.28-.6.6m45.68.32q-1.98.86-.5.91c.82.04 2.18-.38 3-.91 1.83-1.18.25-1.18-2.5 0m116.54 1.55c1.11 1.34 5.11 1.05 7.9-.56 1.07-.63-.1-.89-3.7-.82-4.19.07-5.05.36-4.2 1.38m-122.17 1.2c-1.24 1.59-1.2 1.62.38.38 1.67-1.3 2.2-2.13 1.37-2.13-.2 0-1 .79-1.75 1.75m36.15-.86c-1.78.5-2.54 1.46-2.7 3.4-.17 2.27.08 2.57 1.49 1.8.93-.5 2.78-2.07 4.11-3.5 2.52-2.69 1.92-3.04-2.9-1.7M502 846c0 1.27.67 2 1.83 2 2.54 0 3.36-1.07 2.04-2.66-1.66-2-3.87-1.62-3.87.66m47-1.22c-7.24 2.45-7.41 3.52-.72 4.53 3.54.54 3.75.42 3.45-1.83-.4-2.94-.8-3.35-2.73-2.7m-138.34 1.52-2.85 1.22 2.12 1.92c2.28 2.06 3.4 1.52 4.52-2.19.77-2.54.25-2.67-3.8-.95m86.88-.34c-.33.52-1.2.72-1.96.43-.75-.29-1.66-.06-2.01.51-.4.66.75.99 3.14.9 2.07-.08 3.22-.33 2.53-.56-.68-.22-.99-.82-.68-1.33.31-.5.34-.91.07-.91-.28 0-.77.43-1.1.96M511.5 847c-.36.58.57 1 2.2.99 2.17-.02 2.46-.24 1.3-.99-1.92-1.24-2.73-1.24-3.5 0m82 1c.34.55 1.47 1 2.5 1s2.16-.45 2.5-1c.36-.59-.68-1-2.5-1s-2.86.41-2.5 1m7.5 0c0 .55 1.69.96 3.75.9 3.35-.09 3.48-.18 1.25-.9-3.58-1.14-5-1.14-5 0m37.6-.15c-.3.46 2.04 1.56 5.19 2.43 3.14.88 6.47 1.88 7.4 2.24 1.52.58 1.57.32.54-2.43-1.12-2.96-1.42-3.09-6.89-3.09-3.15 0-5.96.38-6.25.85m-318.84 2.72c-2.61 1.36-4.75 2.87-4.75 3.37 0 .49 1.24 1.34 2.75 1.9s2.06 1.04 1.22 1.08-2.46-.57-3.6-1.37c-2.4-1.68-6.37-.98-6.37 1.13 0 2.62 2.03 5.32 4 5.32 2.7 0 9-5.79 9-8.27 0-1.14.75-2.9 1.65-3.9 2.1-2.31 1.87-2.27-3.9.74m-5.72-.6c-.81.5-1.23 1.17-.93 1.46s1.41-.1 2.47-.9c2.11-1.6.83-2.07-1.54-.57m200.6.54c.33.83 1.03 1.5 1.57 1.5 1.95 0 4.73 4.57 4.77 7.82.02 2.63.4 3.25 1.78 2.96 1.09-.22 1.64-1.1 1.46-2.32l-.87-6.1c-.5-3.64-.95-4.23-3.58-4.76-4.68-.93-5.75-.74-5.12.9m-189.77 1.25c-1.24 1.59-1.2 1.62.38.38 1.67-1.3 2.2-2.13 1.37-2.13-.2 0-1 .79-1.75 1.75m130.68-.16c-2.07 1.51-1.25 1.74 1.88.51 1.07-.41 1.51-1.02 1-1.34-.53-.32-1.82.05-2.88.83m42.06-.4c.3.46.95.58 1.46.27 1.3-.81 1.16-1.13-.53-1.13-.8 0-1.22.39-.93.85M506 851c0 .55.48 1 1.06 1s.78-.45.44-1-.82-1-1.06-1-.44.45-.44 1m71.5.38c-3.8 1.42-4.72 5.61-1.24 5.63 1.23 0 3.97.3 6.1.65l3.84.63-1.53-2.96c-2.32-4.5-3.69-5.25-7.17-3.95m8.5-.4c0 .53 1.24 1.6 2.75 2.36 2.44 1.24 2.95 1.2 4.54-.35 1.63-1.58 1.65-1.8.17-2.37-2.52-.96-7.46-.73-7.46.35m15.75-.3c.69.27 1.81.27 2.5 0 .69-.28.13-.51-1.25-.51s-1.94.23-1.25.5m128.25.35c-6.8 1.14-12 3.6-12.01 5.69q-.02 1.79-.77.62c-.55-.87-1.39-.7-3.13.61-1.33 1-2.07 2.3-1.68 2.93.92 1.48 4.27 1.47 5.18 0 .5-.82-.1-.95-2.06-.46-2.3.58-2.54.48-1.4-.61 2.5-2.4 10.9-2.11 16.13.54 3.73 1.88 4.74 2.09 4.74.94 0-.8.78-2.78 1.73-4.39 1.29-2.18 1.46-3.36.68-4.6-1.33-2.1-1.91-2.2-7.41-1.27m8.22.97c1.01 1.63.93 2.5-.5 4.9-.94 1.61-1.72 3.78-1.72 4.81 0 2.96 8.53 9.51 12.84 9.85 2.01.16 5.68 1.22 8.16 2.35 4.62 2.12 7.98 2.69 8.03 1.36.01-.41-2.35-5.76-5.25-11.88l-5.28-11.12-7.3-1.13c-10.21-1.57-10.48-1.54-8.98.86M310.5 852c-.34.55-.14 1 .44 1s1.06-.45 1.06-1-.2-1-.44-1-.72.45-1.06 1m38.85 2.75c.33 2.06 1.32 4.27 2.2 4.9.87.64 1.54 1.44 1.48 1.78s.3 1.34.8 2.22c.61 1.1 1.11 1.25 1.6.48.37-.62.32-1.13-.12-1.13-.45 0-.95-2.12-1.11-4.71-.33-5.06-1.54-7.29-3.95-7.29-1.19 0-1.38.8-.9 3.75m85.15-2.84c-6.46 1.07-7.7 2.41-3 3.26 7.33 1.31 8.5 1.08 8.5-1.67 0-1.37-.34-2.44-.75-2.37zm117 .09c.34.55.82 1 1.06 1s.44-.45.44-1-.48-1-1.06-1-.78.45-.44 1m46.98.03c-.62 1 .94 2.43 4.78 4.38 2.06 1.05 3.52 2.15 3.23 2.43-.29.3-1.06 0-1.7-.66-1.4-1.4-2.79-1.54-2.79-.3 0 1.5 3.87 2 7.61.96 3-.83 3.77-.7 4.89.83.73 1 1.07 2.26.77 2.82-.3.55.3.2 1.34-.79 1.85-1.76 1.84-1.84-.61-3.73-3-2.32-5.9-3.4-6.8-2.5-.35.35.02 1.06.83 1.57s1.02.93.47.93c-1.9 0-3.77-1.68-2.65-2.38 2.27-1.4-.13-3.41-4.5-3.76-2.5-.2-4.68-.1-4.87.2m-294.9 1.61c-.8 2.08-.3 2.57 1.78 1.78.9-.35 1.64-1.26 1.64-2.03 0-1.94-2.65-1.75-3.42.25m33.67-.15c-3.11 1.35-3.93 2.5-2.67 3.76 1.24 1.24 6.42-1.46 6.42-3.35 0-1.04-.11-1.88-.25-1.86s-1.71.67-3.5 1.45m5.75.04c0 .84.67 1.8 1.5 2.1.82.32 1.24.98.94 1.48-.3.49.07.89.83.89.97 0 1.25-.9.94-3-.3-2.12-1-3-2.32-3-1.04 0-1.89.69-1.89 1.53m22.77.6c2.9 1.19 5.57 1.86 5.94 1.5 1.25-1.25-1.22-2.47-6.21-3.06l-5-.6zm28.2-.73c-1.76.77-2.4 1.7-2.14 3.1.49 2.53 2.07 4.5 3.6 4.5a6 6 0 0 0 2.82-1.25c1.5-1.15 1.5-1.49-.06-4.35-1.53-2.8-1.93-3-4.22-2m-120.08.05c-.25.24-2.35.55-4.67.7-2.32.13-4.22.65-4.22 1.15s.62.68 1.38.38c.76-.29 3.05.05 5.09.75 4.35 1.5 10.93.6 13.34-1.81 1.5-1.5 1.14-1.62-4.43-1.62-3.32 0-6.25.2-6.5.45m126.12.12c0 .3.48 1.46 1.07 2.56.86 1.6 1.35 1.76 2.51.8 1.24-1.03 1.2-1.38-.32-2.53-1.86-1.42-3.26-1.77-3.26-.83m107.7-.01c.65.31.95 1.18.67 1.93-.55 1.41 2.9 5.51 4.63 5.51 1.4 0 1.25-2.33-.25-3.95-.75-.81-.8-1.09-.1-.7.63.35 1.37.04 1.65-.69s-.01-1.38-.64-1.45c-.64-.07-2.51-.37-4.16-.67s-2.46-.3-1.8.02m87.38.84c-.92 1.1-.5 1.6 2.07 2.5 2.32.81 3.52.82 4.29.04.64-.66.67-1 .06-.9-2.3.44-4.58-.1-4.04-.97.96-1.56-1.15-2.15-2.38-.67m-295.44 1.1c.31.83.75 1.5.97 1.5s.39-.67.39-1.5-.44-1.5-.97-1.5-.7.67-.4 1.5m61.07-.75c-.23.41-.21 2.44.05 4.5.39 3.1.88 3.78 2.86 3.9l3.64.25c.69.06 1.15-.43 1.02-1.09-.13-.65.66-1.47 1.75-1.82 3.36-1.06 2.2-2.94-2.9-4.75-5.55-1.98-5.85-2.02-6.42-.99m19.38.83c.05 1.17.28 1.4.6.6.3-.71.26-1.58-.08-1.9-.33-.34-.56.25-.52 1.3m5.67-.86c-1.51.23-2.75 1.02-2.75 1.76 0 1.36 6.73 6.12 7.52 5.33.4-.4-1.4-7.97-1.82-7.66-.1.08-1.44.34-2.95.57m88.28 1.83c.03 2.59.16 2.72 1.1 1.1.77-1.32.76-2.15-.03-2.95-.8-.8-1.1-.3-1.07 1.85m35.66-1.82c-.24.42-.12 1.65.27 2.72.67 1.85.73 1.84 1.28-.25.55-2.12-.64-4.03-1.55-2.47m115.7.1c.4.64 1.4 1.17 2.23 1.17.82 0 1.25.4.95.88-.72 1.18 7.95 9.12 9.95 9.12 1.37 0 1.34-.32-.22-2.46-1.25-1.7-2.41-2.28-3.8-1.9l-2 .57 2-1.55c1.84-1.41 1.87-1.67.4-3.17a8 8 0 0 0-4-1.95 21 21 0 0 1-4.31-1.1c-1.35-.55-1.7-.44-1.2.39m-364.58.85c.72.3 1.59.26 1.92-.08.33-.33-.26-.56-1.31-.52-1.17.05-1.4.28-.6.6m31.17 2.51c-6.52 4.38-6.76 4.8-2.4 4.15 4.66-.7 8.41-2.84 8.41-4.8 0-2.57-1.46-2.4-6.01.65m64.01-1.25c0 2.42.56 2.66 1.35.6.3-.81.13-1.74-.4-2.07-.52-.32-.95.34-.95 1.47m6.76-.71c1.25.6 2.67 2.48 3.16 4.18.72 2.48.92 2.65.99.84.1-2.43-3.13-6.3-5.16-6.18-.69.03-.23.56 1.01 1.16m-58.51.85c-1.32.5-2.25 1.7-2.25 2.89 0 1.6.65 2.03 3.02 2.03 2.79 0 2.97-.21 2.36-2.75-.36-1.51-.71-2.81-.77-2.88a10 10 0 0 0-2.36.71m173.15 1.47c-.73 2.9-.69 2.96 2.3 3.88 2.06.63 2.13.48 1.24-2.62a54 54 0 0 1-.94-3.55c0-.14-.44-.26-.98-.26s-1.27 1.15-1.62 2.55m37.64-.36c-.02 1.48.44 2.99 1.03 3.35 1.66 1.03 1.75.2.33-3.04l-1.31-3zm74.11-.66c.91.93 2.2 1.51 2.87 1.29s-.08-.98-1.66-1.69c-2.68-1.2-2.75-1.17-1.2.4m-333.12 1.4c-1.67 3.1-1.23 4.06 1.84 4.06q4.02 0 4.1-5.25c.04-1.64-4.96-.65-5.94 1.18m7.96-.52c0 2.22 1.15 2.46 5 1.03 1.93-.7 3.27-1.35 3-1.44s-2.19-.35-4.25-.6c-2.84-.35-3.75-.1-3.75 1.01m74.14-.52c-.94.6-1.02 1.07-.25 1.54 1.27.79 3.11-.1 3.11-1.49 0-1.16-1.07-1.18-2.86-.05m129.11-.18c-2.73.52-3 2.29-.36 2.29 1.04 0 2.16-.67 2.47-1.5s.48-1.44.36-1.36-1.23.33-2.47.57m21.03.57c.3.81.04 2.07-.6 2.8-.75.84-.48.8.72-.13 1.05-.8 2.1-1.3 2.34-1.12.23.19.6.17.8-.04.2-.2-.58-.96-1.73-1.68-1.8-1.12-2.02-1.1-1.53.17m-222.77.7c-.35.57.05.74.94.4 1.73-.66 2.05-1.38.6-1.38-.5 0-1.2.45-1.54.99M329 859c-.9.58-1.02.98-.3.99.65 0 1.46-.44 1.8-.99.77-1.24.42-1.24-1.5 0m154.09 0c.03.83.44 2.4.91 3.5l.86 2 .05-2a7 7 0 0 0-.91-3.5c-.86-1.33-.96-1.33-.91 0m18.91-.12c0 .55.45 1.28 1 1.62s1 .17 1-.38-.45-1.28-1-1.62-1-.17-1 .38m75.55 0c1.51 1.42 5.45 2.35 5.45 1.3 0-1.1-2.38-2.18-4.78-2.18-1 0-1.25.35-.67.89M341 860a1 1 0 0 0 1 1 1 1 0 0 0 1-1 1 1 0 0 0-1-1 1 1 0 0 0-1 1m5.83 1.32c1.2 1.28 1.85 2.7 1.43 3.16s-.2.52.49.12 1.25-.29 1.25.23c0 .53.67 1.21 1.5 1.53.96.37.56-.82-1.14-3.4-1.44-2.18-3.32-3.96-4.17-3.96-1.2 0-1.06.5.64 2.32m33.17-.46c0 2.2 1.97 3.65 4.03 2.97.6-.2-.06-1.45-1.47-2.77l-2.56-2.4zm289.16-.98c-1.84 1.17.58 5.12 3.14 5.12 1 0 1.61.34 1.37.75-.25.41 2.2.81 5.44.89 6.48.15 7.88-1.04 2.42-2.07a17 17 0 0 1-6.4-3.11c-3.17-2.67-3.93-2.87-5.97-1.58m-398.42 1.32-3.75 1 2.6 2.04 2.59 2.04 3.14-3.14c3.51-3.5 2.68-3.86-4.58-1.94m58.29-.24c-2.42 1.53-.44 2.28 4.03 1.53 2.95-.5 3.8-.97 2.82-1.59-1.8-1.14-5-1.11-6.85.06m89.97.54c0 .83.68 1.5 1.5 1.5s1.5-.67 1.5-1.5-.68-1.5-1.5-1.5-1.5.67-1.5 1.5m5.2-.4c.54 1.66 4.8 2.52 4.8.97 0-.59-.41-1.07-.92-1.07-.5 0-1.69-.3-2.63-.66-1.21-.46-1.58-.24-1.26.75m159.81-.18c0 .5.97.65 2.16.34 1.37-.36 1.92-.18 1.5.49-.36.58.09 1.33.99 1.68 2.34.9 2.71.08.83-1.8-1.73-1.73-5.48-2.22-5.48-.71m8-.03c0 1.16 2.9 3.54 3.55 2.9.9-.9-.74-3.78-2.16-3.78-.76 0-1.39.4-1.39.88m57.5.12c.34.55 1.07 1 1.62 1s.72-.45.38-1-1.07-1-1.62-1-.72.45-.38 1m30 .54c1.65.75 3.67 1.36 4.5 1.34s-.08-.64-2-1.38c-4.57-1.76-6.36-1.73-2.5.04M720 861c0 .55 1.6 1 3.57 1s4.43.47 5.5 1.03c1.06.58 1.93.78 1.93.45 0-.89-6.67-3.48-8.97-3.48-1.12 0-2.03.45-2.03 1m-349.67 1.46c0 .8.39 1.22.85.93.47-.3.6-.95.28-1.46-.81-1.3-1.13-1.16-1.13.53m82.52-.79c-.9.24-1.87 1.31-2.15 2.38-.74 2.83 3.04 2.5 6.8-.58l3-2.46-3 .11c-1.65.06-3.74.3-4.65.55m11.15.27c0 1.68 1.77 2.1 2.36.55.35-.9 0-1.49-.9-1.49-.8 0-1.46.42-1.46.94m4.51 2.25c-1.45 2.99-1.45 3.12-.01 1.31.87-1.1 2.02-2 2.54-2 1.3 0 1.37-1.86.1-2.29-.56-.19-1.75 1.15-2.63 2.98m131.91-1.63c.86.86 2.03 1.28 2.59.94 1.51-.94.17-2.5-2.14-2.5-1.83 0-1.87.14-.45 1.56m7.58-.83c0 .48.45 1.32 1 1.88q1.03 1-2 .8c-1.65-.12-3.24.16-3.52.62s1.51.76 3.98.7c2.8-.09 4.68-.65 5.01-1.52.66-1.7-.18-3.22-1.78-3.2-.73.01-.62.38.28.95.81.51 1.2 1.2.87 1.53s-1.33-.12-2.22-1.01c-.9-.9-1.62-1.23-1.62-.75m45.4.74c.11.81.6 1.82 1.07 2.25.46.43.53.22.13-.47-.5-.87.13-1.25 2.1-1.26 2.17-.02 2.46-.24 1.3-.99-2.26-1.46-4.85-1.2-4.6.47m7.6.03c0 .93.94 1.5 2.5 1.5s2.5-.57 2.5-1.5-.94-1.5-2.5-1.5-2.5.57-2.5 1.5m-443.11.57c-2.19 1.35-.23 2.2 2.77 1.2 2.58-.85 2.63-.96.68-1.47-1.17-.3-2.72-.18-3.45.27m126.07.77c.66 1.28 1.48 2.06 1.81 1.72.34-.33-.2-1.38-1.2-2.33-1.72-1.65-1.75-1.63-.6.6m66.59-.3c-1.47 1.11-1.96 2.76-2.03 6.72-.04 2.89-.46 6.53-.94 8.09-.8 2.68-.74 2.77 1.2 1.56 2.94-1.84 6.43-9.85 6.04-13.87-.38-3.9-1.53-4.56-4.27-2.5m20.94-.53c-.78 1.26-.9 1.22 4.75 1.53 2.61.14 4.75-.1 4.75-.53s-1.35-.7-3-.6c-1.65.12-3-.15-3-.6 0-1.14-2.76-1-3.5.2m44 .01c-.31.5-.75 2.8-.98 5.11l-.42 4.22 2.1-2.1 2.1-2.1 1.82 2.18c1.81 2.18 1.81 2.17 1.85-1.97.03-3.72-.28-4.26-2.95-5.2-1.71-.59-3.21-.65-3.53-.14M492 863a1 1 0 0 0 1 1 1 1 0 0 0 1-1 1 1 0 0 0-1-1 1 1 0 0 0-1 1m20-.1c0 .48 1.62 1.07 3.6 1.3 3.17.37 3.39.26 1.81-.89-2.04-1.5-5.41-1.75-5.41-.42m107-.5c0 .22.7.66 1.55 1 .9.33 1.3.16.94-.4-.58-.95-2.49-1.4-2.49-.6m-333.75 1.84c-3.34 1.09-3.91 2.7-2.64 7.45.37 1.38 1.12 1.98 2.03 1.63 1.22-.47 1.17-.86-.28-2.47-1.65-1.82-1.64-2 .2-3.81a11 11 0 0 1 4.94-2.48l3-.57-3.2 1.26c-4.69 1.84-5.91 3.32-4.34 5.22 2.65 3.19 9.22 1.54 10.83-2.71.65-1.72 1.07-3.2.94-3.32-1.05-.92-8.88-1.06-11.48-.2m21.06.52c-.34.96-.8 2.09-1.02 2.5-.69 1.27.3.84 2.54-1.1 1.17-1.02 1.84-2.14 1.49-2.5-1.15-1.14-2.37-.7-3 1.1m23.68-.8-3.5.7 2.75.67c1.51.38 3.88.92 5.27 1.2 2.16.45 2.37.81 1.47 2.5-1.08 2.02-.43 2.48 2.86 2.03.74-.1 1.05.3.7.88-.37.59-.2 1.07.37 1.07 1.58 0 .05-6.03-2.08-8.16-1.94-1.94-2.3-1.98-7.84-.88m128.23.83-2.28 1.75 3.03 1.14c2.93 1.11 3.02 1.06 3.02-1.77 0-3.35-.62-3.54-3.77-1.12m29.02-.54c-2.86.91-3.25 1.47-3.25 4.57 0 1.94.79 4.45 1.75 5.58 1.08 1.28 1.18 1.63.25.92-1.23-.94-1.53-.72-1.64 1.23-.13 2.09.03 2.2 1.32.91.8-.8 1.84-1.46 2.31-1.46 1.12 0 4.63-5.85 5.39-9 .33-1.37.35-1.95.04-1.28-.45.96-.85.96-1.89 0-.72-.67-1.12-1.56-.87-1.97s.32-.7.15-.65zm199.46.76c.43 1.65 1.24 1.97 4.4 1.75 2.3-.15 3.89-.77 3.89-1.51 0-.69-.67-1.25-1.5-1.25s-1.51.56-1.53 1.25c-.02.7-.48.47-1.05-.5-1.48-2.54-4.88-2.33-4.2.26m32.95-1.29c-.3.5-2.45.8-4.77.69-2.75-.14-3.72.09-2.8.66a5 5 0 0 0 3.4.36c1.66-.44 1.73-.35.4.48-1.43.92-1.44 1.48-.07 5.94 1.3 4.26 2.23 5.37 6.77 8.12 6.32 3.83 9.76 3.77 10.21-.17a10 10 0 0 0-.87-4.92c-.97-1.8-.91-2.43.27-3.3 2.26-1.67 2.63-3.94.88-5.4-1.25-1.04-1.26-1.17-.09-.6.83.41 1.15.36.73-.1-.86-.96-2.17-1.26-8.86-2.09-2.55-.31-4.89-.17-5.2.33m-484 .94c-.85.85 1.22 3.34 2.77 3.34.66 0 2.97-.88 5.13-1.96l3.93-1.96-5.58-.04c-3.07-.02-5.88.26-6.24.62m11.86 2.23c-4.52 2.08-5.53 2.9-4.2 3.41 1.06.4 1.52.28 1.15-.31-.33-.54-.16-.99.4-.99.54 0 1.26.44 1.6.98 1.02 1.66 11.51-2.98 11.51-5.1 0-1.61-4.43-.76-10.46 2.01m13.88-.8c-1.86 2.05-1.86 2.12 0 3.48 2.15 1.56 6.26.96 8.58-1.25 1.33-1.28 1.28-1.6-.44-2.88-2.75-2.04-5.94-1.79-8.14.65m39.3-1.48c-.33.33-.09 1.43.55 2.45.85 1.36 1.48 1.56 2.44.77 1.9-1.58 1.57-3.83-.54-3.83-1.01 0-2.11.27-2.44.6M323 864c-.08.27-.33 1.63-.56 3-.36 2.15-.26 2.25.64.71.59-.98.84-2.33.57-3s-.56-.99-.64-.71m92.99 2.83c0 1.8-.75 4.7-1.65 6.47-1.5 2.9-1.5 3.07-.04 1.86a8 8 0 0 0 2.22-3.26c.34-1.06.98-1.7 1.44-1.42 1.93 1.2 1.99-2.96.07-4.88l-2.04-2.04zm10.1-1.08a91 91 0 0 1 1.62 2.17c.15.23.28-.56.28-1.75 0-1.33-.62-2.17-1.62-2.17-1.4 0-1.43.25-.28 1.75m95.41-.73c.35.56 1.05.75 1.56.44 1.39-.86 1.13-1.46-.63-1.46-.86 0-1.28.46-.93 1.02m17.74 1.32q-.18 2.2.65.81c.67-1.07.93-1.05 1.38.13s4.72 3.21 4.72 2.25c0-.16-1.48-1.42-3.3-2.8-3.25-2.5-3.3-2.5-3.45-.39m11.26-1.32c.35.56 1.05.75 1.56.44 1.39-.86 1.13-1.46-.63-1.46-.86 0-1.28.46-.93 1.02m72.49-.64c0 .2.79 1 1.75 1.75 1.59 1.24 1.62 1.2.38-.38-1.3-1.67-2.13-2.2-2.13-1.37m33.81.3c.72.3 1.59.26 1.92-.08.33-.33-.26-.56-1.31-.52-1.17.05-1.4.28-.6.6m40.42.57c.49 1.47 4.98 2.16 8.42 1.3 3.94-.99 1.62-2.55-3.8-2.55-3.57 0-4.9.36-4.62 1.25M525 866c0 .55.66 1 1.47 1 .87 0 1.24.59.91 1.44-.3.8-.1 2.23.44 3.2.76 1.36.9.98.64-1.7l-.4-4.19c-.1-1.14-3.06-.9-3.06.25m29.4.75c-.83 1.37-.5 2.63 1.52 5.81l2.59 4.07 2.1-3.18 2.11-3.17-3.3-2.64c-3.93-3.13-3.67-3.09-5.01-.89m7.56-.28c1.33 1.6 4.7 1.66 4.7.08 0-.58-1.32-1.15-2.93-1.27-2.41-.18-2.72.03-1.77 1.19m37.84-.79c.72.3 1.59.26 1.92-.08.33-.33-.26-.56-1.31-.52-1.17.05-1.4.28-.6.6m-282.07 1.4c-2.63 1.53-2.17 3.92.75 3.92 3.1 0 3.2-.78.25-1.97-1.72-.7-1.84-.92-.5-.97.96-.03 1.75-.51 1.75-1.06 0-1.2-.04-1.2-2.25.08M364 867c0 1.26 2.04 1.26 4 0 1.17-.75.9-.97-1.25-.99-1.51 0-2.75.44-2.75.99m40.07 1.32c-1.31 3.45-1.42 16.68-.14 16.68.52 0 .9-1.26.86-2.79-.05-1.54.5-5.06 1.2-7.83.95-3.66 1-5.56.23-6.96-1-1.8-1.15-1.74-2.15.9m102.96-.58c-.02 1.78.48 2.2 2.47 2.03 2.59-.21 3.24-1.2 1.5-2.27-.55-.34-1-.05-1 .63s-.66.38-1.47-.69c-1.43-1.9-1.47-1.89-1.5.3m64.57-.35c.66 1.74 4.4 2.26 4.4.61 0-.55-.41-1-.92-1-.5 0-1.63-.27-2.51-.61-1.17-.45-1.43-.18-.97 1m84.55 1.04c.64 1.42 1.63 2.57 2.2 2.57s.16.66-.9 1.47c-2.36 1.78-1.46 1.94 2 .37 1.85-.84 2.26-1.49 1.5-2.4a3.5 3.5 0 0 1-.74-2.59c.18-.82-.78-1.47-2.47-1.67-2.63-.3-2.7-.2-1.59 2.25M663 867c0 1.26 2.04 1.26 4 0 1.17-.75.9-.97-1.25-.99-1.51 0-2.75.44-2.75.99m-338.35 1.47c-.39 1-.22 1.38.42.98.58-.35 1.81.01 2.74.81s2.59 1.67 3.69 1.94c1.57.38 2-.02 2-1.86 0-1.67-.57-2.34-2-2.35-1.1-.01-2.95-.27-4.11-.58q-2.11-.57-2.74 1.06m16.91.24c-.54 1.42-.42 1.54.56.56.69-.68 1-1.49.69-1.8-.31-.3-.87.25-1.25 1.24m16.69-1.05c-1.96.8-1.46 2.34.75 2.34 1.11 0 2-.67 2-1.5 0-1.54-.57-1.72-2.75-.84m65.2.13c.4.72.22 1.9-.4 2.64-1.53 1.85-2.49 9.4-1 7.92.6-.6 1.2-1.82 1.33-2.72s1.11-2.28 2.18-3.07c1.9-1.42 1.9-1.49-.45-3.75-1.31-1.27-2.06-1.73-1.66-1.02m6.55 1.33c0 1.78.25 1.92 1.5.88.82-.68 1.5-1.64 1.5-2.12s-.68-.88-1.5-.88c-.86 0-1.5.9-1.5 2.12m4.22.53c-.18 2.1.02 2.2 2.3 1.16 3.1-1.41 3.16-2.45.18-3.02-1.82-.34-2.33.04-2.48 1.86m36.51-.57c.35 1.35.8 1.8 1.06 1.06a2.6 2.6 0 0 0-.62-2.37c-.74-.74-.87-.35-.44 1.31M516 868c0 .55.7 1 1.56 1s1.28-.45.94-1-1.04-1-1.56-1-.94.45-.94 1m192 1.14c0 2.2 2.53 4.77 4.75 4.83.69.02 1.25-.64 1.25-1.47s-.4-1.5-.88-1.5c-.49 0-1.12-.9-1.41-2-.71-2.72-3.71-2.6-3.71.14m-430.75.4c-3.92 2.74-2.48 6.84 2 5.68 1.83-.48 1.97-1.25.9-5-.61-2.13-.78-2.17-2.9-.69m175.25-.03c1.65.9 3.98 2.55 5.18 3.67 2.6 2.44 4.83 1.65 3.32-1.16-1.04-1.95-2.13-2.43-8-3.5l-3.5-.64zm124.5-.6c0 .48.67 1.14 1.5 1.46.91.35 1.5 0 1.5-.9 0-.8-.67-1.46-1.5-1.46s-1.5.4-1.5.9m88.5.1c-.34.55.08 1 .94 1s1.56-.45 1.56-1-.42-1-.94-1-1.22.45-1.56 1m5.14.5c.32.83 1.19 1.5 1.94 1.5.8 0 1.12-.62.78-1.5-.32-.83-1.19-1.5-1.94-1.5-.8 0-1.12.62-.78 1.5m3.36-.56c0 1.67 1.4 1.78 6.5.53l5-1.23-5.75-.12c-3.16-.07-5.75.3-5.75.82m20.56.56c1.62 1.25 1.65 1.4.19.9-1.02-.36-1.75-.12-1.75.56 0 .64.79 1.07 1.75.95s3.06.31 4.65.97 3.4 1.01 4 .8c.6-.22-.53-1.09-2.53-1.93-2-.85-3.93-2.04-4.3-2.65-.38-.6-1.42-1.1-2.32-1.1-1.37 0-1.32.24.3 1.5m6.45-.6c3.5 1.99 6 2.26 6 .67 0-1.15-1-1.56-3.75-1.54-2.58.02-3.28.3-2.25.88m-390.75 1.67c-3.55 1.56-4.13 2.87-1.67 3.81 2.27.87 2.22.9 3.92-2.39.85-1.65 1.43-2.96 1.28-2.92-.16.05-1.74.72-3.53 1.5m35.75.54c0 1.78.25 1.92 1.5.88.82-.68 1.5-1.64 1.5-2.12s-.68-.88-1.5-.88c-.86 0-1.5.9-1.5 2.12m194-1.44c0 1.7 2.49 7.32 3.24 7.32.46 0 .37-.87-.2-1.93-1.28-2.38-1.3-3.07-.14-3.07.5 0 1.38 1.35 1.95 3s1.32 3 1.66 3 .35-.41.04-.92c-.31-.5-.1-2.19.45-3.75.94-2.64.9-2.7-.5-.89-1.28 1.66-1.5 1.7-1.5.29 0-.91-.87-2.12-1.93-2.7-2.26-1.2-3.07-1.3-3.07-.35m42.07.07c.04.41.46 1.65.93 2.75.76 1.77.87 1.69.93-.75.04-1.51-.38-2.75-.93-2.75s-.97.34-.93.75m151.66 1.36c-1.36 1.48-1.53 2.39-.75 3.85a10 10 0 0 1 1.02 3.97c0 2.95 1.09 2.6 5.31-1.74l3.72-3.8-2.33-2.2c-2.8-2.64-4.62-2.66-6.97-.08M255.5 871c-.34.55.34 1 1.5 1 1.17 0 1.84-.45 1.5-1s-1.01-1-1.5-1-1.16.45-1.5 1m69.53-.04c-1.26.8-1.21 1.03.3 1.61.96.37 2.04.4 2.38.05.34-.34.07-.62-.6-.62-.68 0-.95-.45-.61-1 .76-1.23.43-1.24-1.47-.04m18.13 1.04c0 1.38.22 1.94.5 1.25s.28-1.81 0-2.5-.5-.12-.5 1.25M477 871c0 .55.7 1 1.56 1s1.28-.45.94-1-1.04-1-1.56-1-.94.45-.94 1m41.5 0c.34.55.82 1 1.06 1s.44-.45.44-1-.48-1-1.06-1-.78.45-.44 1m11.5-.36c0 .54.7 1.85 1.55 2.92 1.47 1.83 1.5 1.8.37-.56-1.46-3.06-1.92-3.63-1.92-2.36m41.01.17c.05 1.82 1.87 2.74 5.85 2.94 3.76.2 4.2.02 3.13-1.26-1.42-1.72-3.99-2-3.99-.43 0 .58-.46.78-1.02.43s-.81-.95-.57-1.35-.42-.79-1.48-.87-1.92.16-1.91.54m74.98.64c2.67 1.48 3.6 1.34 2.54-.38-.36-.59-1.64-1.05-2.85-1.04-2.11.04-2.1.09.3 1.42m41.03.8c.01 1.24.8 3.24 1.75 4.45 1.58 2 2.05 2.1 5.48 1 4.28-1.36 4.42-3.04.3-3.53-1.72-.2-2.97-1.05-3.28-2.25-.73-2.79-4.28-2.51-4.25.33m-441.68 1.45c-6.26 2.1-9.44 4.53-7.91 6.06.26.26 2.8-.97 5.66-2.72 2.93-1.8 6-2.99 7.06-2.71 1.02.26 1.6.07 1.3-.42-.32-.5.13-.91 1-.91.85 0 1.55-.45 1.55-1 0-1.23.1-1.25-8.66 1.7M353.5 872c-.34.55-.17 1 .38 1s1.28-.45 1.62-1 .17-1-.38-1-1.28.45-1.62 1m29.25-.31c-2.14.56-2.33 2.31-.25 2.31.82 0 1.5-.5 1.5-1.1 0-.62.7-.85 1.55-.52.9.34 1.3.17.94-.4-.63-1.02-.87-1.04-3.74-.3m8.76.3c-.35.57.05.74.94.4 1.73-.66 2.05-1.38.6-1.38-.5 0-1.2.45-1.54.99m40.49.18c0 .64-.3.86-.68.49-.75-.75-3.28 5.83-3.3 8.59-.01.96-.5 1.75-1.08 1.75s-.74-.52-.34-1.15q.65-1.1-.46-.44c-1.46.9-.37 2.9 1.25 2.27.66-.25 2.05.17 3.1.93 1.04.76 2.24 1.39 2.66 1.39 1.45 0 1.98-6.54.76-9.51-.68-1.64-1.14-3.55-1.03-4.24.12-.69-.04-1.25-.34-1.25s-.54.52-.54 1.17m3.63-.02c-1.51.87-1.6 1.25-.5 1.95 2.04 1.3 2.58 1.1 3.16-1.1.59-2.25.05-2.42-2.66-.85m13.02 4.6c.53 6.25 1.48 7.78 5.44 8.75 2.2.54 2.82.16 4.1-2.48 1.93-3.98 1.24-7.53-1.95-10.04-3.37-2.66-4.64-2.5-6 .77-.7 1.64-.96 1.88-.66.58.28-1.19.07-2.43-.45-2.75-.59-.36-.77 1.64-.48 5.16m61.13-4.9c.71.45 1 1.57.65 2.49-.48 1.23-.1 1.67 1.46 1.67 2.4 0 2.52-.36 1.08-3.07-.58-1.06-1.81-1.92-2.76-1.91-1.26 0-1.38.22-.43.83m51.78 1.37c-3.5 5-.84 8.53 3.3 4.35 1.58-1.6 1.98-2.42 1-2.05-.92.34-1.96.14-2.32-.45-.4-.66.38-1.07 2.02-1.07 2.27 0 2.5-.23 1.44-1.5-1.75-2.11-3.63-1.87-5.44.72m24.63-1.14c.2.59.79 1.07 1.31 1.07s1.11-.48 1.3-1.07c.2-.6-.38-1.08-1.3-1.08s-1.5.48-1.3 1.08m3.4.5c-.8 2.1-.76 2.42.3 2.42 1.24 0 2.2-2.82 1.16-3.46-.47-.3-1.12.18-1.45 1.05m24.8 2.57c.32 3.82 3.25 7.74 5.84 7.82 1.2.03.8-4.26-.64-6.86l-1.32-2.38-1.64 2.36c-.9 1.29-1.65 1.85-1.65 1.25s.68-1.67 1.51-2.36c1.15-.96 1.24-1.58.38-2.62q-3.01-3.62-2.48 2.79m3.8-2.41c.83.96 1.97 2.62 2.54 3.67.95 1.79 1.13 1.7 2.6-1.13l1.58-3.05-3.09-.62c-4.72-.95-5.28-.77-3.63 1.13m64.29-.75c.34.55 1.04 1 1.56 1s.94-.45.94-1-.7-1-1.56-1-1.28.45-.94 1m-425 .67c-4.52 1-4.81 1.25-3.44 2.9 1.13 1.36.93 1.47-1.63.85-1.61-.38-3.1-.84-3.3-1.02-.54-.45-8.13 3.52-8.13 4.26 0 1 10.43-.52 14.13-2.07 3.84-1.6 8.13-5.67 5.77-5.47-.77.06-2.3.31-3.4.55m57.2.68c-.37.95.27 1.3 2.14 1.16 4.01-.3 4.33-.43 3.66-1.51-.91-1.47-5.2-1.22-5.8.35m151.8-.35c-.34.55.2 1.03 1.2 1.06 1.45.05 1.36.24-.45.97-2.6 1.05-2.77 1.88-.88 4.46 1.32 1.8 1.41 1.79 2.58-.4 1.95-3.65-.38-9.44-2.45-6.09m36.5 3c0 2.2.45 4 1 4s1-1.8 1-4-.45-4-1-4-1 1.8-1 4m104-2.51c1.24 1.5 3 1.18 3-.55 0-.52-.96-.94-2.12-.94-1.77 0-1.92.25-.89 1.49m3.58.18c-.35.91-.28 2.02.15 2.45s.85-.32.92-1.67q.27-4.28-1.07-.78m50.18-.5c-1.51.55-2.75 1.4-2.75 1.91 0 .5 1.24.93 2.75.93 1.51.01 3.76.29 5 .62 1.79.48 2.25.19 2.25-1.4 0-1.11-.71-2.29-1.58-2.62-1.92-.74-2.2-.71-5.67.55M272 873.8c0 1.04 2.17 3.2 3.2 3.2.45 0 .25-.9-.43-2-1.26-2.02-2.77-2.67-2.77-1.2m20 .61c-6.6.88-8.43 1.47-8.18 2.62.54 2.47 1.35 2.7 11.43 3.26 8.83.5 11.55-.06 8.73-1.8-.56-.35-.8-.97-.55-1.38.26-.41-.77-.57-2.27-.35-1.51.23-4.3-.04-6.2-.58-3.28-.94-3.18-.98 1.93-.83 3.54.1 5.55-.28 5.84-1.1.24-.69-.16-1.19-.9-1.12-.73.08-5.15.65-9.83 1.28m181.88.23c-1.66 2-2.04 7.14-.6 8.04.64.4.83.04.47-.9-.33-.84-.12-2.01.46-2.59.93-.93 2.06-6.19 1.32-6.19-.15 0-.9.74-1.65 1.64m3.15-.97c-.05 1.9 1.12 4.33 2.08 4.33 1.3 0 1.09-1.36-.58-3.56-.8-1.07-1.48-1.41-1.5-.77m3.2 1.94c.66 1.44 1.37 2.1 1.58 1.47.53-1.6-.54-4.08-1.76-4.08-.63 0-.56.97.18 2.61m115.8-.68c-1.46 2.74-1.5 2.68 3.5 4.08 2.49.7 4.31 1.48 4.05 1.74s-2.52-.22-5.03-1.08c-4.36-1.48-4.55-1.47-4.55.37 0 1.96.48 2.17 9 3.96 4.5.94 4.5.94-1 .42l-5.5-.53 2.07 2.1c1.9 1.91 2.62 2.01 8.5 1.18 4-.58 5.3-1.01 3.43-1.16l-3-.25 3-.7 3-.7-4.26-1.34c-2.34-.74-4.05-1.54-3.8-1.8.25-.25 1.86.04 3.58.64 4.79 1.67 3.27-.5-2.8-4-4.37-2.54-5.13-2.73-4.66-1.2.31 1.01-.15.6-1.03-.91-1.88-3.24-3.08-3.46-4.5-.82m29.04 2.42c-3.37 7.4-2.2 9.9 3.18 6.8 2.7-1.56 3.97-6.15 1.7-6.15-.6 0-.86-.34-.6-.76s-.13-1.59-.87-2.6c-1.24-1.69-1.5-1.48-3.41 2.7M669 875c0 1.13.67 2 1.53 2 1.23 0 1.32-.4.47-2-.59-1.1-1.28-2-1.53-2-.26 0-.47.9-.47 2m5.46-.04c.98 1.08 2.06 1.9 2.4 1.84.36-.06 1.31.13 2.14.45 4.61 1.72 11 3.4 10.97 2.86-.05-1-2.63-4.11-3.4-4.11-.4 0-1.39-.67-2.21-1.5-1.8-1.8-6.49-1.97-8.16-.3-.93.93-1.2.93-1.2 0 0-.66-.52-1.2-1.15-1.2-.67 0-.4.84.61 1.96m33.54-.56c0 1.5 6.44 7.6 8.03 7.6 1.82 0 1.4-.63-4.75-7.25-1.96-2.1-3.28-2.25-3.28-.35m-378 .66c0 .58.45.78 1 .44s1-.82 1-1.06-.45-.44-1-.44-1 .48-1 1.06m4-.15c0 .52 1.01 1.15 2.25 1.38l2.25.44-2.25.13c-1.24.08-2.25.59-2.25 1.14 0 1.28.14 1.27 4.01-.36 1.78-.75 2.85-1.59 2.37-1.87-2.03-1.15-6.38-1.74-6.38-.86m35.5.09c.34.55 1.07 1 1.62 1s.72-.45.38-1-1.07-1-1.62-1-.72.45-.38 1m13.76-.18c-.79.5-1.15 2.73-1 6.15.24 5.22 1.9 7.68 3.09 4.57q.57-1.53-1.13-1.55-1.74-.02-.53-.78c1.3-.83 3.31-5.53 3.31-7.78 0-1.56-1.78-1.85-3.74-.61m12.75.3c.01.76.4 1.98.87 2.71.68 1.09.95 1.05 1.42-.17.32-.83-.07-2.05-.86-2.7-1.13-.95-1.44-.91-1.43.17m96.87-.63-.27 1.25a7 7 0 0 1-.9 1.93c-.52.83.18 1.16 2.27 1.1 1.66-.05 3.02-.5 3.02-1 0-.49-.34-.7-.75-.44s-1.3-.14-1.97-.87c-.96-1.04-.96-1.43 0-1.82.94-.38.93-.51-.03-.57-.69-.04-1.3.14-1.37.42m23.28 1.5c0 1.38.23 1.94.5 1.25.28-.69.28-1.81 0-2.5-.27-.69-.5-.12-.5 1.25m2.06 0c.16 1.42.93 2.5 1.78 2.52 1.57.01 1.82 2.69.53 5.73-.58 1.36-.26 1.75 1.41 1.75 1.7 0 1.97-.34 1.24-1.64-.5-.9-.74-2.37-.52-3.25.21-.89-.76-2.96-2.16-4.61-2.55-3-2.55-3-2.28-.5m-210.22.03c0 .53.68.97 1.5.97s1.5-.18 1.5-.4c0-.2-.68-.64-1.5-.96s-1.5-.14-1.5.4m11.14-.34c-.84.33.12 1.2 2.5 2.28 4.5 2.02 4.91 1.92 3.4-.9-1.08-2.02-3.1-2.5-5.9-1.38m8.42 1.55c.92 3 .97 3.03 3.37 2.27 1.14-.36 2.07-1.35 2.07-2.2 0-.94-.57-1.32-1.47-.97-.8.3-1.73.13-2.06-.4-1.17-1.9-2.6-.93-1.91 1.3m34.88-.67c-1.77 1.45-1.78 1.53-.1 1 1-.32 2.71-.58 3.8-.58s1.7-.45 1.36-1c-.9-1.45-2.84-1.23-5.06.58m27.74 1.42c.62 1.92 1.3 4.14 1.51 4.93.3 1.14.8 1.02 2.39-.56 2.26-2.26 1.7-5.3-.9-4.92-.92.13-2.23-.48-2.9-1.35-.97-1.27-.99-.88-.1 1.9m27.57-2.42c-1.21 1.22-.9 5.63.35 4.86 1.29-.8-.39 2.63-3.35 6.87-1.08 1.54-1.8 2.92-1.6 3.05l3.1 1.97 2.75 1.72v-3.83c0-2.1.51-4.34 1.14-4.96.84-.84.86-1.9.06-3.95a30 30 0 0 1-1.4-4.65c-.16-1.01-.64-1.5-1.05-1.08m17.65 5.54c-.05 3.24.3 5.88.76 5.88s.87-1.01.91-2.25c.07-2.16.1-2.17 1-.25.66 1.43.74 1.01.25-1.5a43 43 0 0 1-.71-5.23c-.02-.94-.51-1.9-1.09-2.12-.65-.25-1.07 1.82-1.12 5.47m38.1-5.12c-.34.55-.14 1 .44 1s1.06-.45 1.06-1-.2-1-.44-1-.72.45-1.06 1m75.5 0a1 1 0 0 0 1 1 1 1 0 0 0 1-1 1 1 0 0 0-1-1 1 1 0 0 0-1 1m27.15 1.85c2.63 3.24 3.91 3.16 3.63-.2-.14-1.72-.87-2.3-3.08-2.48l-2.89-.22zm11.5-1.3c.3.79.95 1.19 1.45.88 1.24-.76 1.12-1.13-.56-1.77q-1.45-.56-.9.88m48.8-.47c-.35.58-.37 1.34-.02 1.69 1 1 4.57 1.31 4.57.4 0-1.68-1.36-2.1-2.85-.9-1.28 1.04-1.42.96-.87-.51.73-1.93.21-2.36-.82-.68m62.93.76c.26 2.34 2.1 4.13 4.27 4.15.66.01.93-.83.63-1.98-.29-1.1-1.33-2-2.32-2-1 0-2.04-.56-2.32-1.25-.29-.69-.4-.2-.26 1.08m38.76 2.32c-3.84 3.63-4.23 4.38-3.3 6.42 1.61 3.53 4.64 4.8 6.67 2.77 1.31-1.32 1.83-1.4 2.46-.37.44.7 1.34.95 2 .54 2.03-1.25-.5-13.56-2.76-13.49-.4.02-2.68 1.88-5.07 4.13m-461.9-1.49c-1.52.62-1.65 3.97-.2 4.88 1.42.87 5.95-.32 5.95-1.56 0-1.4-3.33-1.22-5.02.27-.79.69-.65.32.3-.83 2.56-3.1 2.2-4.06-1.03-2.76m3.75.34c0 .55.48 1 1.06 1s.78-.45.44-1-.82-1-1.06-1-.44.45-.44 1m31.36-.13q-3.5 2.56 4.97 2.84c4.69.15 5.74-.05 4.36-.84-1-.57-2.46-.79-3.25-.49-.8.3-1.44.17-1.44-.3 0-1.1-3.52-2.02-4.64-1.2M374 888.34c0 9.72.26 11.58 1.83 13 3.04 2.75 3.49 1.95 2.89-5.2-.73-8.66-2.87-19.15-3.92-19.15-.44 0-.8 5.1-.8 11.35m198.23-7.37c-.28 4 1.16 6.03 2.99 4.2.6-.6.7-1.82.25-2.86-.44-1-.84-2.14-.88-2.52a4 4 0 0 0-1.09-1.7q-1-.99-1.27 2.88m9.98-1.19c.05 1.77.73 3.74 1.5 4.38s1.28.75 1.13.25c-.14-.5.3-1.93.98-3.17.85-1.54.9-2.25.16-2.25-.6 0-.78-.52-.38-1.15.41-.68.27-.89-.35-.5-.59.36-.84 1.5-.57 2.54s-.04 2.22-.7 2.62q-1.22.78-.61-1.13a4.6 4.6 0 0 0-.33-3.34c-.66-1.05-.9-.57-.83 1.75M708 878.38c0 .92.7 1.95 1.54 2.27 2.43.94 2.67-.15.47-2.14-1.84-1.66-2.01-1.67-2.01-.13m-345.53.67c-.36.58 1.08 2.68 3.2 4.67 2.1 1.99 2.85 3.1 1.66 2.45-1.2-.63-3.33-2.62-4.74-4.41l-2.57-3.26v2.56q-.01 4.31 4.48 6.79c1.65.9 1.7 1.1.32 1.12-2.29.04-5.82-4.67-5.82-7.77 0-3.89-.66-2.26-1.38 3.41l-.65 5.12 2.76-.36c2.42-.3 2.36-.22-.48.67-3.96 1.24-4.15 2.67-.55 4.04 2.32.88 2.98.7 4.57-1.28l1.86-2.3-1.14 2.34c-2.17 4.4-.12 3.36 2.93-1.49 2.45-3.9 2.92-5.53 2.43-8.35-.34-1.92-.8-3.84-1.04-4.25-.64-1.13-5.1-.9-5.84.3m50.28.92c-2.8 2.2-3.62 6.12-1.87 8.87 1.38 2.18 5.32-4.14 4.93-7.93l-.31-3.11zm31.75-1.2c.35.7.86 2.46 1.12 3.93s.95 3.37 1.5 4.23c.87 1.33.94 1.29.46-.26-.32-1-.58-2.61-.58-3.56s-.7-2.6-1.57-3.67-1.29-1.37-.94-.67m63.51.22c-1.1.7-.47.92 2.3.82 2.4-.09 3.31-.44 2.5-.96-1.7-1.07-2.96-1.03-4.8.14m19.3 3.2c1.2 2.37 2.32 4.5 2.47 4.75.15.24 1.03-.32 1.96-1.24 1.57-1.57 1.55-1.85-.38-4.44-1.13-1.52-3-2.9-4.15-3.07l-2.1-.32zm21.7-3.27c0 .5-.27 1.63-.6 2.5q-.6 1.57 1 1.58c1.04 0 1.6-.87 1.6-2.5 0-1.37-.45-2.5-1-2.5s-1 .41-1 .92m4 1.93c0 2.48.42 3.15 2 3.15 1.1 0 2-.6 2-1.35 0-.74-.9-2.15-2-3.15-1.96-1.77-2-1.75-2 1.35m14.5-1.85c-.34.55.08 1 .94 1s1.56-.45 1.56-1-.42-1-.94-1-1.22.45-1.56 1m125.07.57c-.86.87-1.57 1.84-1.57 2.17s.29.3.64-.05 3.5 1.63 6.97 4.4l6.34 5.04 3.46-2.76 3.46-2.77-2.96-1.8c-1.63-.99-3.74-1.8-4.68-1.8-.95-.01-3.08-.9-4.73-2-3.63-2.4-4.88-2.48-6.93-.43m-391.82.1c.69.27 1.81.27 2.5 0 .69-.28.13-.51-1.25-.51s-1.94.23-1.25.5m175.37 1.51c-.89 1.43-.7 1.98.94 2.86 1.13.6 2.8.9 3.74.65 1.56-.41 1.55-.46-.05-.56-1.91-.13-2.34-1.64-.75-2.62 1.66-1.03 1.12-2.38-.89-2.23a4.4 4.4 0 0 0-2.99 1.9m166.9-1.42c0 .41.45 1.42.98 2.25.78 1.21.97 1.07.99-.75 0-1.24-.44-2.25-.99-2.25s-1 .34-.99.75m3.99 3.2c0 2.22.18 4.05.4 4.05.8 0 1.18-7.14.4-7.62-.44-.27-.8 1.33-.8 3.56m-294.03-.36a10 10 0 0 0-.13 5.75l.86 3.17 1.14-4a30 30 0 0 0 1.15-5.75c.01-2.63-1.9-2.1-3.02.83m45.7-1.14c-.31.79-2.38 2.48-4.6 3.75-4.65 2.65-4.8 3.08-2.07 5.81q2 2 2 6.02c0 4.87 2.04 5.98 10.91 5.98 4.99 0 5.94-.31 6.94-2.25l1.16-2.25-.57 2.25c-.46 1.8-.16 2.25 1.56 2.25 2 0 1.93-.27-1.17-4.58-3.96-5.52-4.07-5.6-8.4-5.72-2.88-.08-3.43-.46-3.43-2.4 0-1.28-.6-2.3-1.37-2.3-.8 0-1.38-1.04-1.38-2.48 0-1.37.3-2.3.67-2.07.36.23.73-.46.81-1.52.17-2.28-.3-2.5-1.07-.5m63.62-.2c-.55.7-1.27 2.99-1.59 5.09l-.59 3.82 2.2-2.78c1.2-1.53 2.03-3.7 1.84-4.82-.44-2.68-.66-2.83-1.86-1.31M486 881a1 1 0 0 0 1 1 1 1 0 0 0 1-1 1 1 0 0 0-1-1 1 1 0 0 0-1 1m5.25-.34c-1.6.65-1.61 3.58 0 5.18.98.99.95 1.42-.15 2.1-1.49.92-.83 4.06.84 4.06.56 0 1.72-1.38 2.6-3.07 1.23-2.38 1.32-3.4.41-4.49-.64-.78-.91-2.1-.6-2.93.58-1.5-.65-1.84-3.1-.85m4.26.6c-.4.99-.22 2.39.44 3.18.91 1.1.82 2.1-.41 4.49-1.57 3.04-1.56 3.07.93 3.07 2.9 0 3-.64 1.14-7.5-1.02-3.75-1.54-4.56-2.1-3.24m23.65.74c0 1.38.23 1.94.5 1.25.28-.69.28-1.81 0-2.5-.27-.69-.5-.12-.5 1.25m5.21.25c.33 1.24.6 2.59.62 3 0 .41.7.75 1.54.75 1.36 0 1.36-.32-.03-3-1.83-3.54-2.99-3.94-2.13-.75m107.63-1.2c0 .6.45.79 1 .45s1-.82 1-1.06-.45-.44-1-.44-1 .48-1 1.06m6.56.36c2.1 1.53 3.04 1.36 1.98-.35-.36-.59-1.4-1.07-2.29-1.07-1.37 0-1.32.23.3 1.42m79.45-.61c0 .57.7 1.74 1.54 2.58s1.51 1.78 1.5 2.07c-.14 2.04.12 2.54 1.32 2.54.75 0 3.9 1.28 7 2.85 5.04 2.54 5.85 2.69 7.67 1.41 2.02-1.41 2.02-1.43-.44-3.37-1.36-1.07-2.72-2.72-3.02-3.67-.38-1.19-1.6-1.72-4-1.72-3.44 0-3.45 0-1.5 2.06 3.82 4.08 1.86 4.8-2.32.84-5.75-5.42-7.75-6.87-7.75-5.6m-432.73.9c.97.25 2.32.23 3-.04.68-.28-.12-.49-1.77-.46-1.65.01-2.2.24-1.23.5m218 1.37c-.08 1.06.28 1.93.8 1.93 1.13 0 1.25-2.69.14-3.37-.44-.27-.86.38-.94 1.44m3.73-1.01c0 .58.45.78 1 .44s1-.82 1-1.06-.45-.44-1-.44-1 .48-1 1.06m1.83.69c-1.86 2.2-2.18 6.73-.56 8.01a10 10 0 0 0 3.78 1.43c2.1.38 2.58.04 2.74-1.92.11-1.39-.22-2.12-.81-1.76-.56.35-.75 1.05-.44 1.56.32.51.13.93-.42.93q-2.85-.01-.61-5.36c.82-1.97 1.49-3.81 1.49-4.1 0-1.28-3.82-.38-5.17 1.21m8.17.75c0 1.38.39 2.5.86 2.5.48 0 .65-1.12.38-2.5-.26-1.37-.65-2.5-.86-2.5s-.38 1.13-.38 2.5m47.57-.83c-.86 2.25.49 3.39 3.2 2.68 3.14-.82 3-4.35-.16-4.35-1.32 0-2.68.75-3.04 1.67m182.88-.17c.43 1.1 1 2.79 1.28 3.75s1.43 1.75 2.57 1.75c1.92 0 1.86-.24-.86-3.25a226 226 0 0 1-3.35-3.75c-.22-.27-.06.4.36 1.5m-507.2.24c2.61.2 6.89.2 9.5 0s.47-.38-4.75-.38-7.36.17-4.75.38m148.36.84c-.83 2.16-.44 2.55 1.41 1.4 1.07-.65 1.17-1.2.35-2-.8-.82-1.28-.66-1.76.6M637 883.5c0 .83-.45 1.5-1 1.5s-1 .5-1 1.1-.83 2.29-1.83 3.75c-2.57 3.72-2.04 7.48 1.7 12.14q6.6 8.21 7.28-.36c.25-3.08 0-4.24-.84-3.92-.65.25-2-.02-3-.6-1.54-.9-1.32-1.05 1.44-1.08 1.91-.02 3.26-.55 3.26-1.28.01-.69.27-2.18.57-3.32.4-1.48-.1-2.4-1.76-3.25-2.3-1.18-2.3-1.18-.08-.62 2.92.74 2.1-1.77-1.29-4-2.96-1.94-3.45-1.95-3.45-.06m21.27.46c1.94 2.56 2.08 2.62 1.33.54-.54-1.48.15-1.16 2.64 1.25 3.93 3.8 4.35 3.91 5.05 1.25.56-2.15-.86-2.83-1.57-.75-.24.69-.26.25-.06-.98.39-2.36-1.93-3.48-6.36-3.06-1.8.17-2 .48-1.03 1.75m13.65-.64c-1.34 1.01-3.92 6.66-3.92 8.61 0 1.59 6.06 4.1 8.46 3.5 2.6-.66 3.38-3.19 1.55-5.02-.55-.55-1.1-2.22-1.22-3.7-.12-1.5-.77-2.71-1.42-2.71-.66 0-1.35-.42-1.54-.93-.18-.52-1.02-.41-1.9.25m6.52.43c-1.78 4.1.6 8.88 2.58 5.19 1-1.87.96-2.48-.24-3.36-.8-.6-1.28-1.64-1.04-2.33.64-1.9-.43-1.5-1.3.5m-331.12.83c-.33.87.13 2.31 1.03 3.21 1.52 1.52 1.64 1.4 1.64-1.58 0-3.35-1.62-4.35-2.67-1.63m24.6 5.92c-.32 4.4-.44 8.19-.26 8.42q1.51 1.93 1.12-8.55l-.29-7.87zm35.1-6.25c0 .69.45 1.92.98 2.75.75 1.17.97.9.99-1.25 0-1.51-.44-2.75-.99-2.75s-1 .56-.99 1.25m62.55.04c.38.99.94 1.54 1.25 1.24.3-.31 0-1.12-.69-1.8-.98-.98-1.1-.86-.56.56m70.44.15c0 .86.45 1.56 1 1.56s1-.42 1-.94-.45-1.22-1-1.56-1 .08-1 .94m48.52-.48c-.98 1.6.42 5.04 2.05 5.04.78 0 1.43-.85 1.43-1.88 0-2.36-2.54-4.67-3.48-3.16m40.58.94c-1.15 1.15-2.55 2.1-3.1 2.1-1.39 0-1.26.75.7 4.07l1.7 2.88 1.28-2.73c.7-1.5 1.84-3.5 2.53-4.44.92-1.28.95-2.02.12-2.85-.84-.84-1.67-.59-3.23.97m33.98-.32c.05 1.17.28 1.4.6.6.3-.71.26-1.58-.08-1.9-.33-.34-.56.25-.52 1.3M306 886.93c0 2.44.43 3.07 2.07 3.07 1.66 0 2-.53 1.75-2.74-.2-1.65-1.01-2.87-2.07-3.08-1.36-.25-1.75.36-1.75 2.75m6-.43c0 2.88-.07 2.87 6.43 1.18 7.27-1.88 7.1-3.68-.35-3.68-5.82 0-6.08.1-6.08 2.5m137.96-.58c.53 1 .75 2.04.47 2.31-.27.28.43.45 1.55.38 2.83-.15 2.63-1.58-.43-3.17-2.36-1.22-2.48-1.18-1.59.48m23.2.33c-.85 1.6-.9 3.23-.2 5.64.54 1.87.74 3.78.45 4.25s.38.86 1.5.86c1.97 0 6.09-3.54 6.09-5.24 0-1.83-3-6.55-4.55-7.14-2.15-.83-1.95-.92-3.3 1.63m13.93-.67c.05 1.17.28 1.4.6.6.3-.71.26-1.58-.08-1.9-.33-.34-.56.25-.52 1.3M546 885c0 1.17.77 1.17 3.5 0 1.77-.76 1.69-.87-.75-.93-1.51-.04-2.75.38-2.75.93m34-.74c0 2.11 2.2 5.74 3.48 5.74q3.3.01-.98-4c-1.37-1.3-2.5-2.07-2.5-1.74m37.88 1.1c.74.9.84 1.7.25 2.06-.53.33-1.19.13-1.47-.44s-.37-.46-.21.25c.16.7.86 1.14 1.55.98.68-.16 1.01.3.73 1.04-.33.86.37 1.4 1.99 1.54 1.9.16 2.35-.17 1.89-1.37a9 9 0 0 1-.61-2.34c0-.42-1.2-1.3-2.67-1.98-2.31-1.05-2.5-1.01-1.45.26m36.12-.72c0 .35.79 1.25 1.75 2 1.5 1.17 1.51 1.28.1.8-.9-.32-1.95-.1-2.3.5-.71 1.13 2.66 1.52 3.75.43.82-.82-1.08-4.37-2.33-4.37-.54 0-.97.29-.97.64m34-.02c0 .29.7 1.22 1.55 2.07s1.81 2.86 2.13 4.46c.45 2.25 1 2.77 2.41 2.32 1.01-.32 2.7-.12 3.77.45 1.48.8 2.24.65 3.28-.63.84-1.03.9-1.4.16-.95-.7.41-1.62-.07-2.2-1.14-.91-1.72-11.1-7.75-11.1-6.58m-264 1.26c0 .62-.55 1-1.23.87-.67-.14-1.32.88-1.45 2.25l-.22 2.5.85-2.5c.74-2.17.88-2.24 1.07-.5.28 2.54.26 2.65-.56 4.76-.53 1.37-.3 1.62 1.03 1.1 1.26-.48 1.56-1.38 1.14-3.47-.32-1.6-.08-3.11.56-3.5q1.04-.62.4.46c-.39.63-.23 1.15.35 1.15 1.53 0 1.3-1.55-.44-3-1.04-.86-1.5-.9-1.5-.12m-21 2.51c0 2.18 1.63 3.61 4.1 3.61.53 0 .25-1.35-.6-3-1.87-3.6-3.5-3.9-3.5-.6m77.01-1.65c.01.41.46 1.42.99 2.25.78 1.21.97 1.07.99-.75 0-1.24-.44-2.25-.99-2.25s-1 .34-.99.75m23.51 1.36c.58 2.99 1.48 3.67 1.48 1.12 0-1.16-.43-2.38-.95-2.7s-.76.38-.53 1.58m44.52-.86c.03.69 1.18 3.27 2.55 5.75 2.02 3.64 2.39 3.95 1.9 1.63-.32-1.57-.85-4.16-1.16-5.75-.56-2.78-3.38-4.18-3.29-1.63m5.4 1.5c2.56 10.6 3.5 11.98 9.18 13.67 1.86.56 2.05.3 1.62-2.14a11 11 0 0 0-2.08-4.59c-1.3-1.48-1.35-2.16-.32-3.8 1.07-1.72.92-2.27-1.05-3.91a9.6 9.6 0 0 0-5.15-1.95c-2.62-.03-2.8.2-2.2 2.72M574.5 887c-.34.55.08 1 .94 1s1.56-.45 1.56-1-.42-1-.94-1-1.22.45-1.56 1m18.15 1.23c-.33 1.25-.16 2.42.38 2.6s.68.87.32 1.5c-.37.65-.3.84.15.43s1.43-.23 2.18.4c.75.62 1.68.81 2.07.43s.1-1.07-.64-1.52c-1.1-.69-1.1-.92.03-1.37q1.39-.55-.45-.62c-1-.04-1.56-.48-1.26-.97.3-.48-.07-1.4-.82-2.02-1.07-.89-1.5-.65-1.96 1.14m116.31.66-3.46 2.9 4.31 1.16c2.37.64 6.17 1.02 8.44.85 3.87-.28 4.02-.4 2.44-1.98-.93-.92-1.69-2.09-1.69-2.59 0-.87-4.27-3.23-5.84-3.23-.4 0-2.3 1.3-4.2 2.9m71.23-.45a21 21 0 0 1 2.69 4.55q1 2.57 1.06.77c.03-.96-1.18-3-2.69-4.55s-1.99-1.9-1.06-.77m-350.08.66c-3.12 2.53-2.33 3.32.89.89 1.36-1.02 2.25-2.08 1.99-2.35-.27-.26-1.57.4-2.88 1.46m86.89-.61c0 .83.18 1.5.4 1.5.2 0 .64-.67.96-1.5s.14-1.5-.4-1.5c-.52 0-.96.67-.96 1.5m2.58.14c-.85 2.23-.4 2.48 3.19 1.76 2.08-.42 2.9-1.07 2.55-2.01-.74-1.93-4.97-1.75-5.74.25m6.92-.64c.34.55.82 1 1.06 1s.44-.45.44-1-.48-1-1.06-1-.78.45-.44 1m51.5.13c0 .72-1.1.9-3.14.5-1.81-.37-3.72-.16-4.5.49-1 .83-1.36.83-1.36 0 0-.62-.45-1.12-1-1.12-1.73 0-1.03 1.43 1.64 3.38l2.58 1.88-.62-2.38c-.49-1.88-.28-1.75 1 .62.88 1.65 2.97 4.1 4.62 5.42l3.01 2.43-.82-3.43c-.46-1.88-.8-4.66-.76-6.17.03-1.51-.1-2.75-.3-2.75s-.35.5-.35 1.13m41.5-.13c.34.55.82 1 1.06 1s.44-.45.44-1-.48-1-1.06-1-.78.45-.44 1m-132.86 1.5c-.32.83-.14 1.5.4 1.5.52 0 .96-.67.96-1.5s-.18-1.5-.4-1.5c-.2 0-.65.67-.96 1.5m118.36-.62c0 .92 8.13 3.32 8.84 2.61.22-.22.14-1.1-.19-1.95-.63-1.66-8.65-2.28-8.65-.66m57.3.46c.35.91.22 1.66-.3 1.66-.51 0-.67.7-.35 1.54.71 1.84 1.62 1.16 2.03-1.51.16-1.06-.23-2.25-.86-2.64q-1.17-.72-.52.95m20.28 1.51c-2.03 3.91-2.9 9.15-1.54 9.15.6 0 .8-.45.46-1s.12-1 1.01-1c.9 0 2.27-.64 3.05-1.42 1.23-1.23 1.05-1.57-1.32-2.5l-2.74-1.1 2.65.5c1.8.35 2.83.01 3.23-1.04.34-.88.17-1.28-.4-.93-.53.33-.98-.07-.98-.9 0-2.81-1.91-2.68-3.42.24m-300.4 1.8c.18 2.12.77 3.74 1.32 3.6 1.49-.37 1.21-6.51-.32-7.02-.97-.33-1.23.57-1 3.41m51.82-2.72c0 1.73 1.21 4.08 2.1 4.08.5 0 .9-1.12.9-2.5 0-1.56-.57-2.5-1.5-2.5-.82 0-1.5.41-1.5.92m22.5.08c-.34.55-.14 1 .44 1s1.06-.45 1.06-1-.2-1-.44-1-.72.45-1.06 1m6 0c-.78 1.27.54 1.27 2.5 0 1.3-.84 1.27-.97-.2-.99-.92 0-1.96.44-2.3.99m5.5 2.44c0 1.96.45 3.56 1 3.56s1-1.32 1-2.94-.45-3.22-1-3.56c-.6-.37-1 .82-1 2.94m147-2.19c0 .9.48 1.93 1.07 2.3 1.71 1.05 1.88.1.35-2-1.19-1.62-1.42-1.66-1.42-.3M451 891a1 1 0 0 0 1 1 1 1 0 0 0 1-1 1 1 0 0 0-1-1 1 1 0 0 0-1 1m130.2 1.32c.16 1.19 1.09 2.31 2.05 2.5 2.58.48 2.28-3.45-.3-4.12-1.67-.44-2-.13-1.76 1.62m74.31-.83c3.2 1.42 4.1 1.3 3.04-.42-.36-.59-1.87-1.03-3.35-.99l-2.69.08zm-266.45 2.7c1.28 4.44 2.95 5.91 2.95 2.58 0-2.18-2.18-5.77-3.5-5.77-.2 0 .05 1.43.55 3.18m22.48-2.22c-.61.98.04 1.42 1.72 1.16.41-.07.75.53.75 1.34 0 .8 1.16 3.15 2.57 5.24l2.57 3.78-.32-4.44c-.27-3.77-.8-4.72-3.49-6.28-2.05-1.2-3.39-1.48-3.8-.8m52.16-.32c-.8.8.1 2.36 1.37 2.36.52 0 .94-.67.94-1.5 0-1.55-1.18-1.99-2.3-.86m68.06 0c-.41.63-.93 4.9-1.15 9.5s-.73 10.2-1.11 12.46c-.59 3.4-.4 4.22 1.04 4.78.96.37 1.93.49 2.15.26s.68-3.72 1.02-7.77c.6-7.15.56-7.33-1.3-5.89-1.82 1.41-1.83 1.39-.33-.5 1.23-1.53 1.45-3.35 1-7.98-.32-3.3-.91-5.49-1.32-4.86m7.24 1.43q0 3.51 4.27 8.93c1.66 2.1 1.9 2.18 1.44.5-.3-1.1-.84-3.8-1.21-5.99-.65-3.79-.75-3.89-2.16-2-1.4 1.89-1.44 1.85-.8-.76.43-1.75.27-2.75-.43-2.75-.61 0-1.11.93-1.11 2.07m48-1.25c0 1.2 1.9 2.62 2.6 1.92.24-.25-.24-1.02-1.08-1.72-.95-.79-1.52-.87-1.52-.2m14.25-.16c-2.06.84-1.4 3.34.87 3.34 1.87 0 1.96-.2.77-1.75-1.3-1.67-1.26-1.67.7 0a8 8 0 0 0 4.24 1.75c1.2 0 2.17.45 2.17 1s.9 1 2 1c3.76 0 2.07-2.75-2.37-3.86-2.4-.6-5-1.3-5.75-1.54a4.5 4.5 0 0 0-2.63.06m-147.09 2.89c-1.6 3.53-1.47 4.8.94 8.9 2.8 4.74 5.32 4.61 7.88-.41 2.71-5.32 2.57-6.17-1.48-8.79-4.47-2.9-5.91-2.84-7.34.3m167.84-.7c0 1.04.66 2.45 1.46 3.12 1.28 1.06 1.27 1.5-.07 3.56a7.4 7.4 0 0 0-1.1 4.66c.36 1.9.47 1.77.59-.69.12-2.33.37-2.66 1.12-1.5.8 1.25 1 1.17 1.1-.5.08-1.1.08-2.34.02-2.75-.07-.41.55-.75 1.38-.75s1.5-.25 1.5-.57c0-1.45-2.24-4.49-4.02-5.44-1.65-.88-1.98-.74-1.98.85m29.65-.37c-.68 1.77-.21 2.08 4.6 2.94 4.82.87 5.28-1.68.6-3.31-4.07-1.42-4.52-1.39-5.2.37m-304.52.91c-2.05 1.14-2.14 1.4-.67 1.97 2.83 1.08 10.74.77 10.02-.4-.36-.56-1.46-.78-2.45-.46-1.1.35-2.02-.03-2.38-.96-.7-1.84-1.42-1.86-4.52-.15m150.87.56c0 1.13.45 2.06 1 2.06s1-.65 1-1.44c0-.8-.45-1.72-1-2.06s-1 .3-1 1.44m9.25-1.28c-.69.28-1.25 1.37-1.25 2.42 0 1.57.73 1.92 4 1.92 2.96 0 4-.4 4-1.56 0-.86-.4-1.3-.9-1s-1.97.1-3.26-.47c-2.3-1-2.3-1.02-.09-.6 1.24.25 2.25.03 2.25-.46 0-.96-2.65-1.1-4.75-.25m11.6.01c-2.5.66-3.14 4.33-.76 4.33 2.43 0 2.4 1.14-.09 5.23-1.1 1.8-2 2.8-2 2.24s.72-2.05 1.6-3.31c1.8-2.58 1.31-3.72-1.19-2.76-1.38.52-1.56 1.48-1.03 5.35.88 6.42 2.46 7.9 6.32 5.9 4-2.06 4.92-3.43 5.68-8.42 1.03-6.76 0-9.25-3.74-9.11-1.73.06-3.88.3-4.79.55m169.37-.2c.39.44.26 1.64-.3 2.68-.75 1.4-.68 1.81.29 1.61.72-.14 1.17.48 1.02 1.4-.25 1.51 4.57 6.37 5.45 5.5.78-.79-1.71-5.74-3.16-6.3-.84-.31-1.52-1.4-1.52-2.4 0-1.02-.56-2.17-1.25-2.56s-.93-.36-.53.07m-22.22.91c0 .21.9.62 2 .91s1.75.12 1.44-.38c-.54-.87-3.44-1.32-3.44-.53m36.81.3c.72.3 1.59.26 1.92-.08.33-.33-.26-.56-1.31-.52-1.17.05-1.4.28-.6.6M367 896c-1.28.83-1.25.97.25.99.96 0 1.75-.44 1.75-.99 0-1.22-.11-1.22-2 0m222 .1c0 .6.86 2.18 1.91 3.51 2.35 3 3.48.97 1.32-2.36-1.55-2.38-3.23-2.99-3.23-1.16m3.64.41c.32.83.75 1.5.97 1.5s.39-.67.39-1.5-.44-1.5-.97-1.5-.7.67-.4 1.5m23.37-.12c0 .76 1.01 1.66 2.25 1.99 3.53.95 3.85.77 2.52-1.37-1.42-2.27-4.77-2.7-4.77-.62m-34 .44c0 3.04 3.8 10.92 6.66 13.77 3.97 3.97 6.38 4.41 6.26 1.16-.04-1.24-.3-1.69-.58-1-1.04 2.56-2.58 1.21-2-1.74.49-2.41-.11-3.95-3.12-8-3.23-4.35-7.22-6.67-7.22-4.19m17.79 4.93c.25 3.16.93 6.34 1.5 7.07 2.86 3.55 11.86 5.83 16.32 4.14 3.72-1.42 4.32-2.55 3.66-6.87-.67-4.35-.62-4.28-2.52-3.55-.95.37-1.36 1.41-1.08 2.78.25 1.2-.5.13-1.65-2.37-1.84-3.98-2.67-4.71-6.58-5.75a36 36 0 0 0-7.29-1.2c-2.81 0-2.81 0-2.36 5.75M664.5 897c.34.55 2.05 1 3.8.99 2.44-.02 2.84-.25 1.7-.99-1.98-1.28-6.3-1.28-5.5 0m55.5-.6c0 .2.67.64 1.5.96s1.5.14 1.5-.4c0-.52-.67-.96-1.5-.96s-1.5.18-1.5.4m-382.25 2.62c-2.06 1.12-3.75 2.26-3.75 2.56 0 .87 6.78 3.42 9.1 3.42 1.19 0 3.9-1.58 6.03-3.5 3.5-3.16 3.65-3.5 1.62-3.51-1.24 0-3.82-.23-5.75-.5-2.38-.34-4.7.15-7.25 1.53m312.13-1.64c-.07.34-.19.99-.25 1.44-.07.45-.92 1.61-1.88 2.57-2.14 2.15-2.22 2.73-.25 1.97.83-.32 1.5-1 1.5-1.53 0-.52.52-.63 1.15-.24.7.43.89.28.5-.36-.37-.6.08-1.23 1-1.4 1.55-.3 1.55-.43 0-1.7-.9-.76-1.7-1.1-1.77-.75m5.62.62c.34.55.82 1 1.06 1s.44-.45.44-1-.48-1-1.06-1-.78.45-.44 1m17.01-.02c-.27.43.63 1 2 1.27 1.37.26 2.49.14 2.49-.27 0-1.07-3.9-1.94-4.49-1m-312.44 2.77c.06 2.44.17 2.52.93.75 1.17-2.73 1.17-3.5 0-3.5-.55 0-.97 1.24-.93 2.75m299.49-1.22c-1.86 1.41-1.84 1.47.72 1.47 1.95 0 2.5-.4 2.08-1.5a5 5 0 0 0-.72-1.47c-.08.02-1.01.7-2.08 1.5m-42.92.97c.65 1.7 1.3 1.83 3.2.62 1.06-.67 1-.97-.34-1.48-2.63-1.01-3.48-.76-2.86.86m66.97-.67c-.33.52.55 1.16 1.94 1.42 1.6.3 2.4.08 2.16-.63-.49-1.45-3.35-2-4.1-.79m-55.86 3.71c-2.38 3.17-2.25 3.46 1.5 3.45 4.7-.03 6.25-1.25 4.02-3.16-3.08-2.65-3.73-2.68-5.52-.29m-178.67.04c.05 1.17.28 1.4.6.6.3-.71.26-1.58-.08-1.9-.33-.34-.56.25-.52 1.3M664 905.05c5.06 4.33 9 7.18 9 6.5 0-1.73-8.52-9.55-10.38-9.52-1.86.02-1.7.39 1.38 3.02m-14.5-.05c-.34.55.11 1 1 1s1.34-.45 1-1-.79-1-1-1-.66.45-1 1m-107.34 2c0 1.38.23 1.94.5 1.25.28-.69.28-1.81 0-2.5-.27-.69-.5-.12-.5 1.25m2.51 1.62c-.44 2.77-.1 4.28 1.37 6.16l1.96 2.49v-3.52c0-1.94-.62-4.7-1.37-6.15l-1.36-2.64zm-85.63 1.45c.91 1.71 1.36 1.84 2.63.8 1.35-1.13 1.31-1.36-.32-2-3.04-1.2-3.48-.97-2.31 1.2M526.5 912c-.38 2.27-.49 4.35-.23 4.6.25.26.76-1.4 1.13-3.7s.47-4.36.23-4.6-.75 1.43-1.13 3.7m-3.75-1.09c-3.36 1.95-3.41 2.47-.36 3.86 2.2 1 2.44.84 3-2 .35-1.7.5-3.17.37-3.27-.14-.1-1.5.54-3 1.41m8.33-1.41c.1 1.9 1.77 5.08 1.82 3.5a6 6 0 0 0-.91-3c-.53-.83-.95-1.05-.91-.5m-17.68 2.88c-.84 2.17-.25 2.76 1.61 1.6 1.14-.7 1.2-1.16.25-2.1-.94-.95-1.35-.84-1.86.5"/></svg>